%TF.GenerationSoftware,KiCad,Pcbnew,(5.1.6)-1*%
%TF.CreationDate,2020-12-18T16:39:00+01:00*%
%TF.ProjectId,Board,426f6172-642e-46b6-9963-61645f706362,rev?*%
%TF.SameCoordinates,PX253b400PY7a67730*%
%TF.FileFunction,Plated,1,2,PTH,Drill*%
%TF.FilePolarity,Positive*%
%FSLAX46Y46*%
G04 Gerber Fmt 4.6, Leading zero omitted, Abs format (unit mm)*
G04 Created by KiCad (PCBNEW (5.1.6)-1) date 2020-12-18 16:39:00*
%MOMM*%
%LPD*%
G01*
G04 APERTURE LIST*
%TA.AperFunction,ViaDrill*%
%ADD10C,0.400000*%
%TD*%
%TA.AperFunction,ComponentDrill*%
%ADD11C,0.800000*%
%TD*%
%TA.AperFunction,ComponentDrill*%
%ADD12C,0.900000*%
%TD*%
%TA.AperFunction,ComponentDrill*%
%ADD13C,1.000000*%
%TD*%
%TA.AperFunction,ComponentDrill*%
%ADD14C,1.250000*%
%TD*%
%TA.AperFunction,ComponentDrill*%
%ADD15C,3.200000*%
%TD*%
G04 APERTURE END LIST*
D10*
X1291667Y68557500D03*
X1291667Y61557500D03*
X1291667Y54557500D03*
X1291667Y47557500D03*
X1291667Y40557500D03*
X1291667Y33557500D03*
X1291667Y26557500D03*
X1291667Y19557500D03*
X1291667Y12557500D03*
X1291667Y5557500D03*
X4291667Y1557500D03*
X5000000Y67500000D03*
X5000000Y52500000D03*
X5000000Y12500000D03*
X5291667Y65557500D03*
X5291667Y58557500D03*
X5291667Y50557500D03*
X5291667Y43557500D03*
X5291667Y16557500D03*
X5291667Y9557500D03*
X9291667Y68557500D03*
X9291667Y55557500D03*
X9291667Y31557500D03*
X9291667Y13557500D03*
X9510000Y17700000D03*
X10250000Y37900000D03*
X10291667Y48557500D03*
X10291667Y41557500D03*
X10291667Y21557500D03*
X10291667Y2557500D03*
X10350000Y24600000D03*
X12291667Y64557500D03*
X12291667Y35557500D03*
X12291667Y27557500D03*
X12291667Y9557500D03*
X13291667Y58557500D03*
X13291667Y17557500D03*
X14000000Y46350000D03*
X14291667Y51557500D03*
X15000000Y67500000D03*
X15291667Y23557500D03*
X15291667Y5557500D03*
X16291667Y32557500D03*
X16291667Y13557500D03*
X17291667Y68557500D03*
X17291667Y61557500D03*
X17291667Y47557500D03*
X18291667Y55557500D03*
X18291667Y41557500D03*
X19291667Y28557500D03*
X19291667Y18557500D03*
X19291667Y9557500D03*
X22291667Y59557500D03*
X22291667Y14557500D03*
X22291667Y5557500D03*
X23291667Y67557500D03*
X23291667Y46557500D03*
X23291667Y32557500D03*
X23291667Y25557500D03*
X23350000Y34650000D03*
X23850000Y59870000D03*
X24270000Y49920000D03*
X24291667Y54557500D03*
X24910000Y5000000D03*
X25000000Y67500000D03*
X25291667Y41557500D03*
X25291667Y10557500D03*
X25291667Y1557500D03*
X26250000Y45450000D03*
X26291667Y63557500D03*
X26291667Y18557500D03*
X27291667Y28557500D03*
X28291667Y58557500D03*
X28291667Y6557500D03*
X28550000Y38550000D03*
X28600000Y30600000D03*
X29291667Y68557500D03*
X29291667Y14557500D03*
X30291667Y24557500D03*
X30550000Y48200000D03*
X31280000Y43000000D03*
X31291667Y2557500D03*
X31380000Y54600000D03*
X31380000Y50580000D03*
X32291667Y64557500D03*
X32291667Y41557500D03*
X32291667Y10557500D03*
X33100000Y27150000D03*
X33100000Y24400000D03*
X33291667Y51557500D03*
X33400000Y39750000D03*
X33850000Y45450000D03*
X34484902Y20154902D03*
X34950000Y14900000D03*
X35000000Y67500000D03*
X35291667Y60557500D03*
X35291667Y6557500D03*
X35700000Y43200000D03*
X35950000Y39300000D03*
X35950000Y27050000D03*
X35950000Y24350000D03*
X36291667Y22557500D03*
X36450000Y47850000D03*
X37050000Y19800000D03*
X37291667Y68557500D03*
X37291667Y45557500D03*
X37291667Y37557500D03*
X37291667Y30557500D03*
X37291667Y16557500D03*
X37291667Y1557500D03*
X37950000Y55350000D03*
X39150000Y42450000D03*
X39200000Y45500000D03*
X39291667Y63557500D03*
X39291667Y11557500D03*
X39300000Y38950000D03*
X39930000Y59360000D03*
X39960000Y52220000D03*
X40000000Y56000000D03*
X40291667Y26557500D03*
X41050000Y19300000D03*
X41050000Y16100000D03*
X41291667Y42557500D03*
X41291667Y5557500D03*
X42120000Y1630000D03*
X42291667Y59557500D03*
X43291667Y67557500D03*
X43291667Y20557500D03*
X43450000Y45600000D03*
X44000000Y50500000D03*
X44291667Y30557500D03*
X44291667Y14557500D03*
X44291667Y1557500D03*
X45000000Y67500000D03*
X45100000Y42400000D03*
X45291667Y8557500D03*
X45400000Y59800000D03*
X45400000Y39800000D03*
X45560000Y34450000D03*
X45592001Y54442001D03*
X46291667Y63557500D03*
X46291667Y44557500D03*
X46291667Y25557500D03*
X46470000Y1540000D03*
X46660000Y3740000D03*
X47980000Y60760000D03*
X48000000Y29300000D03*
X48291667Y55557500D03*
X48291667Y39557500D03*
X48600000Y59000000D03*
X49291667Y68557500D03*
X49291667Y3557500D03*
X49390000Y49790000D03*
X50291667Y16557500D03*
X50500000Y61650000D03*
X50800000Y30150000D03*
X51100000Y40950000D03*
X51210000Y64570000D03*
X51240000Y1860000D03*
X51291667Y51557500D03*
X51291667Y10557500D03*
X51400000Y14000000D03*
X51450000Y18850000D03*
X51850000Y8400000D03*
X52291667Y26557500D03*
X52700000Y40400000D03*
X52900000Y45550000D03*
X53220000Y27760000D03*
X53279415Y29320585D03*
X53291667Y65557500D03*
X53291667Y43557500D03*
X53291667Y20557500D03*
X53500000Y52000000D03*
X53750000Y37250000D03*
X54291667Y59557500D03*
X54720000Y35060000D03*
X55000000Y67500000D03*
X55291667Y4557500D03*
X55600000Y27600000D03*
X55780000Y63130000D03*
X55830000Y2380000D03*
X56000000Y40950000D03*
X56050000Y8450000D03*
X56150000Y32150000D03*
X56900000Y42400000D03*
X57200000Y40500000D03*
X57200000Y37300000D03*
X57250000Y34550000D03*
X57291667Y68557500D03*
X57291667Y24557500D03*
X57850000Y18850000D03*
X58291667Y16557500D03*
X58300000Y13600000D03*
X58400000Y53300000D03*
X58550000Y30900000D03*
X58550000Y27600000D03*
X58900000Y44650000D03*
X59050000Y40650000D03*
X59291667Y63557500D03*
X59291667Y56557500D03*
X59291667Y38557500D03*
X60270000Y2330000D03*
X61100000Y30900000D03*
X61150000Y27600000D03*
X61200000Y8300000D03*
X61291667Y33557500D03*
X61291667Y11557500D03*
X61650000Y13500000D03*
X62200000Y44650000D03*
X62291667Y3557500D03*
X62300000Y40650000D03*
X63150000Y30900000D03*
X63250000Y27600000D03*
X63291667Y67557500D03*
X63291667Y25557500D03*
X64291667Y54557500D03*
X64291667Y45557500D03*
X64414000Y29364000D03*
X65000000Y67500000D03*
X65000000Y2500000D03*
X65291667Y37557500D03*
X65291667Y16557500D03*
X65750000Y64050000D03*
X65840000Y59750000D03*
X65900000Y13600000D03*
X66100000Y8300000D03*
X66260000Y25960000D03*
X66291667Y6557500D03*
X66400000Y44650000D03*
X66650000Y40650000D03*
X66850000Y32300000D03*
X67291667Y50557500D03*
X68120000Y26860000D03*
X68291667Y65557500D03*
X68291667Y1557500D03*
X68470000Y63020000D03*
X69000000Y34150000D03*
X69291667Y59557500D03*
X69291667Y40557500D03*
X69291667Y24557500D03*
X69500000Y21000000D03*
X69700000Y42400000D03*
X69950000Y13500000D03*
X69950000Y8600000D03*
X70291667Y18557500D03*
X70291667Y11557500D03*
X70520000Y1680000D03*
X70950000Y35950000D03*
X71500000Y39550000D03*
X71940000Y27430000D03*
X72291667Y68557500D03*
X72500000Y33900000D03*
X72550000Y37500000D03*
X72600000Y17850000D03*
X73291667Y3557500D03*
X73490000Y42390000D03*
X73700000Y31700000D03*
X74291667Y63557500D03*
X74291667Y15557500D03*
X75000000Y67500000D03*
X75000000Y2500000D03*
X75222001Y25960000D03*
X75291667Y9557500D03*
X75750000Y44750000D03*
X75943722Y60806278D03*
X76000000Y41000000D03*
X77291667Y31557500D03*
X77291667Y24557500D03*
X78291667Y67557500D03*
X78291667Y18557500D03*
X78291667Y1557500D03*
X81291667Y28557500D03*
X81291667Y11557500D03*
X83200000Y42500000D03*
X83291667Y65557500D03*
X84291667Y44557500D03*
X84291667Y36557500D03*
X84291667Y24557500D03*
X84291667Y17557500D03*
X84291667Y2557500D03*
X85000000Y52500000D03*
X85000000Y42500000D03*
X85000000Y32500000D03*
X85000000Y22500000D03*
X85000000Y12500000D03*
X86291667Y54557500D03*
X86291667Y30557500D03*
D11*
%TO.C,D7*%
X14250000Y65100000D03*
X21870000Y65100000D03*
%TO.C,D9*%
X22650000Y41050000D03*
X30270000Y41050000D03*
D12*
%TO.C,D4*%
X61960000Y57490000D03*
X61960000Y54950000D03*
%TO.C,D3*%
X56960000Y57490000D03*
X56960000Y54950000D03*
%TO.C,D6*%
X51960000Y57490000D03*
X51960000Y54950000D03*
%TO.C,D5*%
X66960000Y57490000D03*
X66960000Y54950000D03*
D13*
%TO.C,J3*%
X4660000Y38465000D03*
X4660000Y35695000D03*
X4660000Y32925000D03*
X4660000Y30155000D03*
X7500000Y39850000D03*
X7500000Y37080000D03*
X7500000Y34310000D03*
X7500000Y31540000D03*
X7500000Y28770000D03*
%TO.C,K1*%
X13990000Y61820000D03*
X13990000Y54200000D03*
X13990000Y49120000D03*
X13990000Y44040000D03*
X21610000Y61820000D03*
X21610000Y54200000D03*
X21610000Y49120000D03*
X21610000Y44040000D03*
%TO.C,J2*%
X72160000Y53970000D03*
X72160000Y51430000D03*
X74700000Y53970000D03*
X74700000Y51430000D03*
X77240000Y53970000D03*
X77240000Y51430000D03*
X79780000Y53970000D03*
X79780000Y51430000D03*
X82320000Y53970000D03*
X82320000Y51430000D03*
%TO.C,K2*%
X12610000Y38160000D03*
X12610000Y30540000D03*
X17690000Y38160000D03*
X17690000Y30540000D03*
X22770000Y38160000D03*
X22770000Y30540000D03*
X30390000Y38160000D03*
X30390000Y30540000D03*
%TO.C,U2*%
X39262000Y47774000D03*
X39262000Y22374000D03*
X41802000Y47774000D03*
X41802000Y22374000D03*
X44342000Y47774000D03*
X44342000Y22374000D03*
X46882000Y47774000D03*
X46882000Y22374000D03*
X49422000Y47774000D03*
X49422000Y22374000D03*
X51962000Y47774000D03*
X51962000Y22374000D03*
X54502000Y47774000D03*
X54502000Y22374000D03*
X57042000Y47774000D03*
X57042000Y22374000D03*
X59582000Y47774000D03*
X59582000Y22374000D03*
X62122000Y47774000D03*
X62122000Y22374000D03*
X64662000Y47774000D03*
X64662000Y22374000D03*
X67202000Y47774000D03*
X67202000Y22374000D03*
X69742000Y47774000D03*
X69742000Y22374000D03*
X72282000Y47774000D03*
X72282000Y22374000D03*
X74822000Y47774000D03*
X74822000Y22374000D03*
D14*
%TO.C,J1*%
X44030000Y11130000D03*
X44030000Y6130000D03*
X48910000Y11130000D03*
X48910000Y6130000D03*
X53790000Y11130000D03*
X53790000Y6130000D03*
X58670000Y11130000D03*
X58670000Y6130000D03*
X63550000Y11130000D03*
X63550000Y6130000D03*
X68430000Y11130000D03*
X68430000Y6130000D03*
X73310000Y11130000D03*
X73310000Y6130000D03*
X78190000Y11130000D03*
X78190000Y6130000D03*
D15*
%TO.C,MH3*%
X83800000Y61600000D03*
%TO.C,MH4*%
X83800000Y6600000D03*
%TO.C,J3*%
X7200000Y46810000D03*
X7200000Y21810000D03*
%TO.C,MH1*%
X8800000Y6600000D03*
%TO.C,MH2*%
X8800000Y61600000D03*
M02*
