%TF.GenerationSoftware,KiCad,Pcbnew,(5.1.6)-1*%
%TF.CreationDate,2021-09-30T15:23:07+02:00*%
%TF.ProjectId,Board,426f6172-642e-46b6-9963-61645f706362,rev?*%
%TF.SameCoordinates,PX367e320PY64168f0*%
%TF.FileFunction,Copper,L1,Top*%
%TF.FilePolarity,Positive*%
%FSLAX46Y46*%
G04 Gerber Fmt 4.6, Leading zero omitted, Abs format (unit mm)*
G04 Created by KiCad (PCBNEW (5.1.6)-1) date 2021-09-30 15:23:07*
%MOMM*%
%LPD*%
G01*
G04 APERTURE LIST*
%TA.AperFunction,Profile*%
%ADD10C,0.050000*%
%TD*%
%TA.AperFunction,SMDPad,CuDef*%
%ADD11R,1.450000X0.450000*%
%TD*%
%TA.AperFunction,SMDPad,CuDef*%
%ADD12R,2.500000X1.800000*%
%TD*%
%TA.AperFunction,SMDPad,CuDef*%
%ADD13R,5.000000X5.000000*%
%TD*%
%TA.AperFunction,SMDPad,CuDef*%
%ADD14R,0.900000X2.000000*%
%TD*%
%TA.AperFunction,SMDPad,CuDef*%
%ADD15R,2.000000X0.900000*%
%TD*%
%TA.AperFunction,ComponentPad*%
%ADD16R,1.700000X1.700000*%
%TD*%
%TA.AperFunction,ComponentPad*%
%ADD17O,1.700000X1.700000*%
%TD*%
%TA.AperFunction,ViaPad*%
%ADD18C,0.800000*%
%TD*%
%TA.AperFunction,Conductor*%
%ADD19C,0.300000*%
%TD*%
%TA.AperFunction,Conductor*%
%ADD20C,0.254000*%
%TD*%
G04 APERTURE END LIST*
D10*
X28500000Y0D02*
X0Y0D01*
X28500000Y30000000D02*
X28500000Y0D01*
X0Y30000000D02*
X28500000Y30000000D01*
X0Y0D02*
X0Y30000000D01*
D11*
X14200000Y3475000D03*
X14200000Y2825000D03*
X14200000Y2175000D03*
X14200000Y1525000D03*
X9800000Y1525000D03*
X9800000Y2175000D03*
X9800000Y2825000D03*
X9800000Y3475000D03*
D12*
X6500000Y4500000D03*
X2500000Y4500000D03*
%TA.AperFunction,SMDPad,CuDef*%
G36*
G01*
X4850000Y23863750D02*
X4850000Y24376250D01*
G75*
G02*
X5068750Y24595000I218750J0D01*
G01*
X5506250Y24595000D01*
G75*
G02*
X5725000Y24376250I0J-218750D01*
G01*
X5725000Y23863750D01*
G75*
G02*
X5506250Y23645000I-218750J0D01*
G01*
X5068750Y23645000D01*
G75*
G02*
X4850000Y23863750I0J218750D01*
G01*
G37*
%TD.AperFunction*%
%TA.AperFunction,SMDPad,CuDef*%
G36*
G01*
X3275000Y23863750D02*
X3275000Y24376250D01*
G75*
G02*
X3493750Y24595000I218750J0D01*
G01*
X3931250Y24595000D01*
G75*
G02*
X4150000Y24376250I0J-218750D01*
G01*
X4150000Y23863750D01*
G75*
G02*
X3931250Y23645000I-218750J0D01*
G01*
X3493750Y23645000D01*
G75*
G02*
X3275000Y23863750I0J218750D01*
G01*
G37*
%TD.AperFunction*%
%TA.AperFunction,SMDPad,CuDef*%
G36*
G01*
X3275000Y25893750D02*
X3275000Y26406250D01*
G75*
G02*
X3493750Y26625000I218750J0D01*
G01*
X3931250Y26625000D01*
G75*
G02*
X4150000Y26406250I0J-218750D01*
G01*
X4150000Y25893750D01*
G75*
G02*
X3931250Y25675000I-218750J0D01*
G01*
X3493750Y25675000D01*
G75*
G02*
X3275000Y25893750I0J218750D01*
G01*
G37*
%TD.AperFunction*%
%TA.AperFunction,SMDPad,CuDef*%
G36*
G01*
X4850000Y25893750D02*
X4850000Y26406250D01*
G75*
G02*
X5068750Y26625000I218750J0D01*
G01*
X5506250Y26625000D01*
G75*
G02*
X5725000Y26406250I0J-218750D01*
G01*
X5725000Y25893750D01*
G75*
G02*
X5506250Y25675000I-218750J0D01*
G01*
X5068750Y25675000D01*
G75*
G02*
X4850000Y25893750I0J218750D01*
G01*
G37*
%TD.AperFunction*%
%TA.AperFunction,SMDPad,CuDef*%
G36*
G01*
X3275000Y27743750D02*
X3275000Y28256250D01*
G75*
G02*
X3493750Y28475000I218750J0D01*
G01*
X3931250Y28475000D01*
G75*
G02*
X4150000Y28256250I0J-218750D01*
G01*
X4150000Y27743750D01*
G75*
G02*
X3931250Y27525000I-218750J0D01*
G01*
X3493750Y27525000D01*
G75*
G02*
X3275000Y27743750I0J218750D01*
G01*
G37*
%TD.AperFunction*%
%TA.AperFunction,SMDPad,CuDef*%
G36*
G01*
X4850000Y27743750D02*
X4850000Y28256250D01*
G75*
G02*
X5068750Y28475000I218750J0D01*
G01*
X5506250Y28475000D01*
G75*
G02*
X5725000Y28256250I0J-218750D01*
G01*
X5725000Y27743750D01*
G75*
G02*
X5506250Y27525000I-218750J0D01*
G01*
X5068750Y27525000D01*
G75*
G02*
X4850000Y27743750I0J218750D01*
G01*
G37*
%TD.AperFunction*%
%TA.AperFunction,SMDPad,CuDef*%
G36*
G01*
X2756250Y7275000D02*
X2243750Y7275000D01*
G75*
G02*
X2025000Y7493750I0J218750D01*
G01*
X2025000Y7931250D01*
G75*
G02*
X2243750Y8150000I218750J0D01*
G01*
X2756250Y8150000D01*
G75*
G02*
X2975000Y7931250I0J-218750D01*
G01*
X2975000Y7493750D01*
G75*
G02*
X2756250Y7275000I-218750J0D01*
G01*
G37*
%TD.AperFunction*%
%TA.AperFunction,SMDPad,CuDef*%
G36*
G01*
X2756250Y8850000D02*
X2243750Y8850000D01*
G75*
G02*
X2025000Y9068750I0J218750D01*
G01*
X2025000Y9506250D01*
G75*
G02*
X2243750Y9725000I218750J0D01*
G01*
X2756250Y9725000D01*
G75*
G02*
X2975000Y9506250I0J-218750D01*
G01*
X2975000Y9068750D01*
G75*
G02*
X2756250Y8850000I-218750J0D01*
G01*
G37*
%TD.AperFunction*%
D13*
X19255000Y16000000D03*
D14*
X26755000Y23500000D03*
X25485000Y23500000D03*
X24215000Y23500000D03*
X22945000Y23500000D03*
X21675000Y23500000D03*
X20405000Y23500000D03*
X19135000Y23500000D03*
X17865000Y23500000D03*
X16595000Y23500000D03*
X15325000Y23500000D03*
X14055000Y23500000D03*
X12785000Y23500000D03*
X11515000Y23500000D03*
X10245000Y23500000D03*
D15*
X9245000Y20715000D03*
X9245000Y19445000D03*
X9245000Y18175000D03*
X9245000Y16905000D03*
X9245000Y15635000D03*
X9245000Y14365000D03*
X9245000Y13095000D03*
X9245000Y11825000D03*
X9245000Y10555000D03*
X9245000Y9285000D03*
D14*
X10245000Y6500000D03*
X11515000Y6500000D03*
X12785000Y6500000D03*
X14055000Y6500000D03*
X15325000Y6500000D03*
X16595000Y6500000D03*
X17865000Y6500000D03*
X19135000Y6500000D03*
X20405000Y6500000D03*
X21675000Y6500000D03*
X22945000Y6500000D03*
X24215000Y6500000D03*
X25485000Y6500000D03*
X26755000Y6500000D03*
%TA.AperFunction,SMDPad,CuDef*%
G36*
G01*
X18900000Y4237500D02*
X18900000Y3762500D01*
G75*
G02*
X18662500Y3525000I-237500J0D01*
G01*
X18087500Y3525000D01*
G75*
G02*
X17850000Y3762500I0J237500D01*
G01*
X17850000Y4237500D01*
G75*
G02*
X18087500Y4475000I237500J0D01*
G01*
X18662500Y4475000D01*
G75*
G02*
X18900000Y4237500I0J-237500D01*
G01*
G37*
%TD.AperFunction*%
%TA.AperFunction,SMDPad,CuDef*%
G36*
G01*
X17150000Y4237500D02*
X17150000Y3762500D01*
G75*
G02*
X16912500Y3525000I-237500J0D01*
G01*
X16337500Y3525000D01*
G75*
G02*
X16100000Y3762500I0J237500D01*
G01*
X16100000Y4237500D01*
G75*
G02*
X16337500Y4475000I237500J0D01*
G01*
X16912500Y4475000D01*
G75*
G02*
X17150000Y4237500I0J-237500D01*
G01*
G37*
%TD.AperFunction*%
%TA.AperFunction,SMDPad,CuDef*%
G36*
G01*
X16340000Y1871500D02*
X16340000Y2346500D01*
G75*
G02*
X16577500Y2584000I237500J0D01*
G01*
X17152500Y2584000D01*
G75*
G02*
X17390000Y2346500I0J-237500D01*
G01*
X17390000Y1871500D01*
G75*
G02*
X17152500Y1634000I-237500J0D01*
G01*
X16577500Y1634000D01*
G75*
G02*
X16340000Y1871500I0J237500D01*
G01*
G37*
%TD.AperFunction*%
%TA.AperFunction,SMDPad,CuDef*%
G36*
G01*
X18090000Y1871500D02*
X18090000Y2346500D01*
G75*
G02*
X18327500Y2584000I237500J0D01*
G01*
X18902500Y2584000D01*
G75*
G02*
X19140000Y2346500I0J-237500D01*
G01*
X19140000Y1871500D01*
G75*
G02*
X18902500Y1634000I-237500J0D01*
G01*
X18327500Y1634000D01*
G75*
G02*
X18090000Y1871500I0J237500D01*
G01*
G37*
%TD.AperFunction*%
%TA.AperFunction,SMDPad,CuDef*%
G36*
G01*
X19840000Y1871500D02*
X19840000Y2346500D01*
G75*
G02*
X20077500Y2584000I237500J0D01*
G01*
X20652500Y2584000D01*
G75*
G02*
X20890000Y2346500I0J-237500D01*
G01*
X20890000Y1871500D01*
G75*
G02*
X20652500Y1634000I-237500J0D01*
G01*
X20077500Y1634000D01*
G75*
G02*
X19840000Y1871500I0J237500D01*
G01*
G37*
%TD.AperFunction*%
%TA.AperFunction,SMDPad,CuDef*%
G36*
G01*
X21590000Y1871500D02*
X21590000Y2346500D01*
G75*
G02*
X21827500Y2584000I237500J0D01*
G01*
X22402500Y2584000D01*
G75*
G02*
X22640000Y2346500I0J-237500D01*
G01*
X22640000Y1871500D01*
G75*
G02*
X22402500Y1634000I-237500J0D01*
G01*
X21827500Y1634000D01*
G75*
G02*
X21590000Y1871500I0J237500D01*
G01*
G37*
%TD.AperFunction*%
D16*
X8500000Y27500000D03*
D17*
X11040000Y27500000D03*
X13580000Y27500000D03*
X16120000Y27500000D03*
X18660000Y27500000D03*
X21200000Y27500000D03*
X23740000Y27500000D03*
X26280000Y27500000D03*
D16*
X3500000Y12000000D03*
D17*
X3500000Y14540000D03*
X3500000Y17080000D03*
X3500000Y19620000D03*
D18*
X19468852Y11468852D03*
X7030331Y11530331D03*
X19500000Y8500000D03*
X24500000Y10000000D03*
X27500000Y14500000D03*
X28000000Y8000000D03*
X2500000Y26000000D03*
X2500000Y28000000D03*
X24000000Y20000000D03*
X20000000Y4000000D03*
X2500000Y24000000D03*
X13500000Y4300002D03*
X2500000Y1500000D03*
X8000000Y625000D03*
X16150000Y20375000D03*
X20500000Y19500000D03*
X13500000Y20500000D03*
X22000000Y21500000D03*
D19*
X16025000Y8500000D02*
X19500000Y8500000D01*
X15325000Y6500000D02*
X15325000Y7800000D01*
X15325000Y7800000D02*
X16025000Y8500000D01*
X24500000Y10000000D02*
X24500000Y11500000D01*
X24500000Y11500000D02*
X27500000Y14500000D01*
X27385005Y5050003D02*
X28000000Y5500000D01*
X11515000Y6500000D02*
X11515000Y5200000D01*
X11664997Y5050003D02*
X27385005Y5050003D01*
X11515000Y5200000D02*
X11664997Y5050003D01*
X28000000Y5500000D02*
X28000000Y8000000D01*
X5287500Y24120000D02*
X5287500Y10712500D01*
X6715000Y9285000D02*
X9245000Y9285000D01*
X5287500Y10712500D02*
X6715000Y9285000D01*
X3562500Y26000000D02*
X3712500Y26150000D01*
X2500000Y26000000D02*
X3562500Y26000000D01*
X3712500Y28000000D02*
X2500000Y28000000D01*
X25485000Y21485000D02*
X25485000Y23500000D01*
X24000000Y20000000D02*
X25485000Y21485000D01*
X18375000Y3619000D02*
X16865000Y2109000D01*
X18375000Y4000000D02*
X18375000Y3619000D01*
X16799000Y2175000D02*
X16865000Y2109000D01*
X14200000Y2175000D02*
X16799000Y2175000D01*
X8000000Y28000000D02*
X8500000Y27500000D01*
X5287500Y28000000D02*
X8000000Y28000000D01*
X20000000Y4000000D02*
X18375000Y4000000D01*
X15824979Y25299979D02*
X15325000Y24800000D01*
X15325000Y24800000D02*
X15325000Y23500000D01*
X24079979Y25299979D02*
X15824979Y25299979D01*
X26280000Y27500000D02*
X24079979Y25299979D01*
X14799989Y25799989D02*
X14055000Y25055000D01*
X22039989Y25799989D02*
X14799989Y25799989D01*
X14055000Y25055000D02*
X14055000Y23500000D01*
X23740000Y27500000D02*
X22039989Y25799989D01*
X12785000Y24800000D02*
X12785000Y23500000D01*
X14284999Y26299999D02*
X12785000Y24800000D01*
X19999999Y26299999D02*
X14284999Y26299999D01*
X21200000Y27500000D02*
X19999999Y26299999D01*
X3712500Y24120000D02*
X2620000Y24120000D01*
X2620000Y24120000D02*
X2500000Y24000000D01*
X13124999Y3925001D02*
X13500000Y4300002D01*
X13124999Y2875001D02*
X13124999Y3925001D01*
X14200000Y2825000D02*
X13175000Y2825000D01*
X13175000Y2825000D02*
X13124999Y2875001D01*
X14725000Y4000000D02*
X14200000Y3475000D01*
X16625000Y4000000D02*
X14725000Y4000000D01*
X2500000Y4500000D02*
X2500000Y7712500D01*
X2500000Y1500000D02*
X2500000Y4500000D01*
X8869998Y2175000D02*
X9800000Y2175000D01*
X8000000Y1305002D02*
X8869998Y2175000D01*
X8000000Y625000D02*
X8000000Y1305002D01*
X9800000Y2175000D02*
X9800000Y2825000D01*
X18615000Y2109000D02*
X20365000Y2109000D01*
X14441010Y1283990D02*
X14200000Y1525000D01*
X17789990Y1283990D02*
X14441010Y1283990D01*
X18615000Y2109000D02*
X17789990Y1283990D01*
X7937500Y23500000D02*
X5287500Y26150000D01*
X10245000Y23500000D02*
X7937500Y23500000D01*
X16404999Y6690001D02*
X16595000Y6500000D01*
X3500000Y10287500D02*
X2500000Y9287500D01*
X3500000Y12000000D02*
X3500000Y10287500D01*
X16150000Y20375000D02*
X18899999Y20399999D01*
X18899999Y20399999D02*
X21192123Y20399999D01*
X21192123Y20399999D02*
X22945000Y18647122D01*
X22945000Y18647122D02*
X22945000Y6500000D01*
X22105001Y6930001D02*
X21675000Y6500000D01*
X22105001Y18780001D02*
X22105001Y6930001D01*
X21385002Y19500000D02*
X22105001Y18780001D01*
X20500000Y19500000D02*
X21385002Y19500000D01*
X13500000Y11055000D02*
X13500000Y20500000D01*
X10245000Y6500000D02*
X10245000Y7800000D01*
X10245000Y7800000D02*
X13500000Y11055000D01*
X23515000Y21500000D02*
X22000000Y21500000D01*
X24215000Y23500000D02*
X24215000Y22200000D01*
X24215000Y22200000D02*
X23515000Y21500000D01*
D20*
G36*
X28098000Y15000845D02*
G01*
X27995309Y15103536D01*
X27868048Y15188569D01*
X27726643Y15247141D01*
X27576528Y15277000D01*
X27423472Y15277000D01*
X27273357Y15247141D01*
X27131952Y15188569D01*
X27004691Y15103536D01*
X26896464Y14995309D01*
X26811431Y14868048D01*
X26752859Y14726643D01*
X26723000Y14576528D01*
X26723000Y14468291D01*
X24145662Y11890951D01*
X24125553Y11874448D01*
X24068061Y11804394D01*
X24059696Y11794201D01*
X24010761Y11702649D01*
X23980626Y11603309D01*
X23970451Y11500000D01*
X23973001Y11474110D01*
X23973000Y10571845D01*
X23896464Y10495309D01*
X23811431Y10368048D01*
X23752859Y10226643D01*
X23723000Y10076528D01*
X23723000Y9923472D01*
X23752859Y9773357D01*
X23811431Y9631952D01*
X23896464Y9504691D01*
X24004691Y9396464D01*
X24131952Y9311431D01*
X24273357Y9252859D01*
X24423472Y9223000D01*
X24576528Y9223000D01*
X24726643Y9252859D01*
X24868048Y9311431D01*
X24995309Y9396464D01*
X25103536Y9504691D01*
X25188569Y9631952D01*
X25247141Y9773357D01*
X25277000Y9923472D01*
X25277000Y10076528D01*
X25247141Y10226643D01*
X25188569Y10368048D01*
X25103536Y10495309D01*
X25027000Y10571845D01*
X25027000Y11281711D01*
X27468291Y13723000D01*
X27576528Y13723000D01*
X27726643Y13752859D01*
X27868048Y13811431D01*
X27995309Y13896464D01*
X28098001Y13999156D01*
X28098001Y8772729D01*
X28076528Y8777000D01*
X27923472Y8777000D01*
X27773357Y8747141D01*
X27631952Y8688569D01*
X27504691Y8603536D01*
X27396464Y8495309D01*
X27311431Y8368048D01*
X27252859Y8226643D01*
X27234661Y8135151D01*
X27205000Y8138072D01*
X27040750Y8135000D01*
X26882000Y7976250D01*
X26882000Y6627000D01*
X26902000Y6627000D01*
X26902000Y6373000D01*
X26882000Y6373000D01*
X26882000Y6353000D01*
X26628000Y6353000D01*
X26628000Y6373000D01*
X26608000Y6373000D01*
X26608000Y6627000D01*
X26628000Y6627000D01*
X26628000Y7976250D01*
X26469250Y8135000D01*
X26305000Y8138072D01*
X26180518Y8125812D01*
X26060820Y8089502D01*
X25950506Y8030537D01*
X25853815Y7951185D01*
X25794430Y7878824D01*
X25035000Y7878824D01*
X24961095Y7871545D01*
X24890030Y7849988D01*
X24850000Y7828591D01*
X24809970Y7849988D01*
X24738905Y7871545D01*
X24665000Y7878824D01*
X23765000Y7878824D01*
X23691095Y7871545D01*
X23620030Y7849988D01*
X23580000Y7828591D01*
X23539970Y7849988D01*
X23472000Y7870606D01*
X23472000Y18621245D01*
X23474549Y18647123D01*
X23472000Y18673003D01*
X23464374Y18750432D01*
X23434239Y18849772D01*
X23385304Y18941324D01*
X23319448Y19021570D01*
X23299339Y19038073D01*
X21583078Y20754333D01*
X21566571Y20774447D01*
X21486325Y20840303D01*
X21394773Y20889238D01*
X21295433Y20919373D01*
X21218004Y20926999D01*
X21192123Y20929548D01*
X21166242Y20926999D01*
X18923473Y20926999D01*
X18921088Y20927212D01*
X18897658Y20926999D01*
X18874118Y20926999D01*
X18871724Y20926763D01*
X16716673Y20907172D01*
X16645309Y20978536D01*
X16518048Y21063569D01*
X16376643Y21122141D01*
X16226528Y21152000D01*
X16073472Y21152000D01*
X15923357Y21122141D01*
X15781952Y21063569D01*
X15654691Y20978536D01*
X15546464Y20870309D01*
X15461431Y20743048D01*
X15402859Y20601643D01*
X15373000Y20451528D01*
X15373000Y20298472D01*
X15402859Y20148357D01*
X15461431Y20006952D01*
X15546464Y19879691D01*
X15654691Y19771464D01*
X15781952Y19686431D01*
X15923357Y19627859D01*
X16073472Y19598000D01*
X16226528Y19598000D01*
X16376643Y19627859D01*
X16518048Y19686431D01*
X16645309Y19771464D01*
X16727070Y19853225D01*
X18902288Y19872999D01*
X19814739Y19872999D01*
X19811431Y19868048D01*
X19752859Y19726643D01*
X19723000Y19576528D01*
X19723000Y19423472D01*
X19752859Y19273357D01*
X19810014Y19135374D01*
X19540750Y19135000D01*
X19382000Y18976250D01*
X19382000Y16127000D01*
X19402000Y16127000D01*
X19402000Y15873000D01*
X19382000Y15873000D01*
X19382000Y13023750D01*
X19540750Y12865000D01*
X21578001Y12862174D01*
X21578002Y7878824D01*
X21225000Y7878824D01*
X21151095Y7871545D01*
X21080030Y7849988D01*
X21040000Y7828591D01*
X20999970Y7849988D01*
X20928905Y7871545D01*
X20855000Y7878824D01*
X19968909Y7878824D01*
X19995309Y7896464D01*
X20103536Y8004691D01*
X20188569Y8131952D01*
X20247141Y8273357D01*
X20277000Y8423472D01*
X20277000Y8576528D01*
X20247141Y8726643D01*
X20188569Y8868048D01*
X20103536Y8995309D01*
X19995309Y9103536D01*
X19868048Y9188569D01*
X19726643Y9247141D01*
X19576528Y9277000D01*
X19423472Y9277000D01*
X19273357Y9247141D01*
X19131952Y9188569D01*
X19004691Y9103536D01*
X18928155Y9027000D01*
X16050877Y9027000D01*
X16024999Y9029549D01*
X15999121Y9027000D01*
X15999119Y9027000D01*
X15921690Y9019374D01*
X15822350Y8989239D01*
X15730798Y8940304D01*
X15650552Y8874448D01*
X15634049Y8854339D01*
X14970662Y8190951D01*
X14950553Y8174448D01*
X14893061Y8104394D01*
X14884696Y8094201D01*
X14835761Y8002649D01*
X14805626Y7903309D01*
X14802511Y7871684D01*
X14801095Y7871545D01*
X14730030Y7849988D01*
X14690000Y7828591D01*
X14649970Y7849988D01*
X14578905Y7871545D01*
X14505000Y7878824D01*
X13605000Y7878824D01*
X13531095Y7871545D01*
X13460030Y7849988D01*
X13420000Y7828591D01*
X13379970Y7849988D01*
X13308905Y7871545D01*
X13235000Y7878824D01*
X12335000Y7878824D01*
X12261095Y7871545D01*
X12190030Y7849988D01*
X12150000Y7828591D01*
X12109970Y7849988D01*
X12038905Y7871545D01*
X11965000Y7878824D01*
X11069113Y7878824D01*
X13854339Y10664049D01*
X13874448Y10680552D01*
X13940304Y10760798D01*
X13989239Y10852350D01*
X14019374Y10951690D01*
X14024625Y11005000D01*
X14029549Y11054999D01*
X14027000Y11080880D01*
X14027000Y13500000D01*
X16116928Y13500000D01*
X16129188Y13375518D01*
X16165498Y13255820D01*
X16224463Y13145506D01*
X16303815Y13048815D01*
X16400506Y12969463D01*
X16510820Y12910498D01*
X16630518Y12874188D01*
X16755000Y12861928D01*
X18969250Y12865000D01*
X19128000Y13023750D01*
X19128000Y15873000D01*
X16278750Y15873000D01*
X16120000Y15714250D01*
X16116928Y13500000D01*
X14027000Y13500000D01*
X14027000Y18500000D01*
X16116928Y18500000D01*
X16120000Y16285750D01*
X16278750Y16127000D01*
X19128000Y16127000D01*
X19128000Y18976250D01*
X18969250Y19135000D01*
X16755000Y19138072D01*
X16630518Y19125812D01*
X16510820Y19089502D01*
X16400506Y19030537D01*
X16303815Y18951185D01*
X16224463Y18854494D01*
X16165498Y18744180D01*
X16129188Y18624482D01*
X16116928Y18500000D01*
X14027000Y18500000D01*
X14027000Y19928155D01*
X14103536Y20004691D01*
X14188569Y20131952D01*
X14247141Y20273357D01*
X14277000Y20423472D01*
X14277000Y20576528D01*
X14247141Y20726643D01*
X14188569Y20868048D01*
X14103536Y20995309D01*
X13995309Y21103536D01*
X13868048Y21188569D01*
X13726643Y21247141D01*
X13576528Y21277000D01*
X13423472Y21277000D01*
X13273357Y21247141D01*
X13131952Y21188569D01*
X13004691Y21103536D01*
X12896464Y20995309D01*
X12811431Y20868048D01*
X12752859Y20726643D01*
X12723000Y20576528D01*
X12723000Y20423472D01*
X12752859Y20273357D01*
X12811431Y20131952D01*
X12896464Y20004691D01*
X12973001Y19928154D01*
X12973000Y11273290D01*
X10623824Y8924113D01*
X10623824Y9735000D01*
X10616545Y9808905D01*
X10594988Y9879970D01*
X10573591Y9920000D01*
X10594988Y9960030D01*
X10616545Y10031095D01*
X10623824Y10105000D01*
X10623824Y11005000D01*
X10616545Y11078905D01*
X10594988Y11149970D01*
X10573591Y11190000D01*
X10594988Y11230030D01*
X10616545Y11301095D01*
X10623824Y11375000D01*
X10623824Y12275000D01*
X10616545Y12348905D01*
X10594988Y12419970D01*
X10573591Y12460000D01*
X10594988Y12500030D01*
X10616545Y12571095D01*
X10623824Y12645000D01*
X10623824Y13545000D01*
X10616545Y13618905D01*
X10594988Y13689970D01*
X10573591Y13730000D01*
X10594988Y13770030D01*
X10616545Y13841095D01*
X10623824Y13915000D01*
X10623824Y14815000D01*
X10616545Y14888905D01*
X10594988Y14959970D01*
X10573591Y15000000D01*
X10594988Y15040030D01*
X10616545Y15111095D01*
X10623824Y15185000D01*
X10623824Y16085000D01*
X10616545Y16158905D01*
X10594988Y16229970D01*
X10573591Y16270000D01*
X10594988Y16310030D01*
X10616545Y16381095D01*
X10623824Y16455000D01*
X10623824Y17355000D01*
X10616545Y17428905D01*
X10594988Y17499970D01*
X10573591Y17540000D01*
X10594988Y17580030D01*
X10616545Y17651095D01*
X10623824Y17725000D01*
X10623824Y18625000D01*
X10616545Y18698905D01*
X10594988Y18769970D01*
X10573591Y18810000D01*
X10594988Y18850030D01*
X10616545Y18921095D01*
X10623824Y18995000D01*
X10623824Y19754430D01*
X10696185Y19813815D01*
X10775537Y19910506D01*
X10834502Y20020820D01*
X10870812Y20140518D01*
X10883072Y20265000D01*
X10880000Y20429250D01*
X10721250Y20588000D01*
X9372000Y20588000D01*
X9372000Y20568000D01*
X9118000Y20568000D01*
X9118000Y20588000D01*
X7768750Y20588000D01*
X7610000Y20429250D01*
X7606928Y20265000D01*
X7619188Y20140518D01*
X7655498Y20020820D01*
X7714463Y19910506D01*
X7793815Y19813815D01*
X7866176Y19754430D01*
X7866176Y18995000D01*
X7873455Y18921095D01*
X7895012Y18850030D01*
X7916409Y18810000D01*
X7895012Y18769970D01*
X7873455Y18698905D01*
X7866176Y18625000D01*
X7866176Y17725000D01*
X7873455Y17651095D01*
X7895012Y17580030D01*
X7916409Y17540000D01*
X7895012Y17499970D01*
X7873455Y17428905D01*
X7866176Y17355000D01*
X7866176Y16455000D01*
X7873455Y16381095D01*
X7895012Y16310030D01*
X7916409Y16270000D01*
X7895012Y16229970D01*
X7873455Y16158905D01*
X7866176Y16085000D01*
X7866176Y15185000D01*
X7873455Y15111095D01*
X7895012Y15040030D01*
X7916409Y15000000D01*
X7895012Y14959970D01*
X7873455Y14888905D01*
X7866176Y14815000D01*
X7866176Y13915000D01*
X7873455Y13841095D01*
X7895012Y13770030D01*
X7916409Y13730000D01*
X7895012Y13689970D01*
X7873455Y13618905D01*
X7866176Y13545000D01*
X7866176Y12645000D01*
X7873455Y12571095D01*
X7895012Y12500030D01*
X7916409Y12460000D01*
X7895012Y12419970D01*
X7873455Y12348905D01*
X7866176Y12275000D01*
X7866176Y11375000D01*
X7873455Y11301095D01*
X7895012Y11230030D01*
X7916409Y11190000D01*
X7895012Y11149970D01*
X7873455Y11078905D01*
X7866176Y11005000D01*
X7866176Y10105000D01*
X7873455Y10031095D01*
X7895012Y9960030D01*
X7916409Y9920000D01*
X7895012Y9879970D01*
X7874394Y9812000D01*
X6933291Y9812000D01*
X5814500Y10930789D01*
X5814500Y21165000D01*
X7606928Y21165000D01*
X7610000Y21000750D01*
X7768750Y20842000D01*
X9118000Y20842000D01*
X9118000Y21641250D01*
X9372000Y21641250D01*
X9372000Y20842000D01*
X10721250Y20842000D01*
X10880000Y21000750D01*
X10883072Y21165000D01*
X10870812Y21289482D01*
X10834502Y21409180D01*
X10775537Y21519494D01*
X10696185Y21616185D01*
X10599494Y21695537D01*
X10489180Y21754502D01*
X10369482Y21790812D01*
X10245000Y21803072D01*
X9530750Y21800000D01*
X9372000Y21641250D01*
X9118000Y21641250D01*
X8959250Y21800000D01*
X8245000Y21803072D01*
X8120518Y21790812D01*
X8000820Y21754502D01*
X7890506Y21695537D01*
X7793815Y21616185D01*
X7714463Y21519494D01*
X7655498Y21409180D01*
X7619188Y21289482D01*
X7606928Y21165000D01*
X5814500Y21165000D01*
X5814500Y23354194D01*
X5838244Y23366885D01*
X5928799Y23441201D01*
X6003115Y23531756D01*
X6058336Y23635068D01*
X6092342Y23747169D01*
X6103824Y23863750D01*
X6103824Y24376250D01*
X6092342Y24492831D01*
X6058336Y24604932D01*
X6025102Y24667108D01*
X7546549Y23145661D01*
X7563052Y23125552D01*
X7643298Y23059696D01*
X7734850Y23010761D01*
X7834190Y22980626D01*
X7937500Y22970451D01*
X7963381Y22973000D01*
X9416176Y22973000D01*
X9416176Y22500000D01*
X9423455Y22426095D01*
X9445012Y22355030D01*
X9480019Y22289537D01*
X9527131Y22232131D01*
X9584537Y22185019D01*
X9650030Y22150012D01*
X9721095Y22128455D01*
X9795000Y22121176D01*
X10695000Y22121176D01*
X10768905Y22128455D01*
X10839970Y22150012D01*
X10880000Y22171409D01*
X10920030Y22150012D01*
X10991095Y22128455D01*
X11065000Y22121176D01*
X11965000Y22121176D01*
X12038905Y22128455D01*
X12109970Y22150012D01*
X12150000Y22171409D01*
X12190030Y22150012D01*
X12261095Y22128455D01*
X12335000Y22121176D01*
X13235000Y22121176D01*
X13308905Y22128455D01*
X13379970Y22150012D01*
X13420000Y22171409D01*
X13460030Y22150012D01*
X13531095Y22128455D01*
X13605000Y22121176D01*
X14505000Y22121176D01*
X14578905Y22128455D01*
X14649970Y22150012D01*
X14690000Y22171409D01*
X14730030Y22150012D01*
X14801095Y22128455D01*
X14875000Y22121176D01*
X15775000Y22121176D01*
X15848905Y22128455D01*
X15919970Y22150012D01*
X15960000Y22171409D01*
X16000030Y22150012D01*
X16071095Y22128455D01*
X16145000Y22121176D01*
X17045000Y22121176D01*
X17118905Y22128455D01*
X17189970Y22150012D01*
X17230000Y22171409D01*
X17270030Y22150012D01*
X17341095Y22128455D01*
X17415000Y22121176D01*
X18315000Y22121176D01*
X18388905Y22128455D01*
X18459970Y22150012D01*
X18500000Y22171409D01*
X18540030Y22150012D01*
X18611095Y22128455D01*
X18685000Y22121176D01*
X19585000Y22121176D01*
X19658905Y22128455D01*
X19729970Y22150012D01*
X19770000Y22171409D01*
X19810030Y22150012D01*
X19881095Y22128455D01*
X19955000Y22121176D01*
X20855000Y22121176D01*
X20928905Y22128455D01*
X20999970Y22150012D01*
X21040000Y22171409D01*
X21080030Y22150012D01*
X21151095Y22128455D01*
X21225000Y22121176D01*
X21531091Y22121176D01*
X21504691Y22103536D01*
X21396464Y21995309D01*
X21311431Y21868048D01*
X21252859Y21726643D01*
X21223000Y21576528D01*
X21223000Y21423472D01*
X21252859Y21273357D01*
X21311431Y21131952D01*
X21396464Y21004691D01*
X21504691Y20896464D01*
X21631952Y20811431D01*
X21773357Y20752859D01*
X21923472Y20723000D01*
X22076528Y20723000D01*
X22226643Y20752859D01*
X22368048Y20811431D01*
X22495309Y20896464D01*
X22571845Y20973000D01*
X23489119Y20973000D01*
X23515000Y20970451D01*
X23540881Y20973000D01*
X23618310Y20980626D01*
X23717650Y21010761D01*
X23809202Y21059696D01*
X23889448Y21125552D01*
X23905955Y21145666D01*
X24569339Y21809049D01*
X24589448Y21825552D01*
X24655304Y21905798D01*
X24704239Y21997350D01*
X24734374Y22096690D01*
X24737489Y22128316D01*
X24738905Y22128455D01*
X24809970Y22150012D01*
X24850000Y22171409D01*
X24890030Y22150012D01*
X24958000Y22129394D01*
X24958000Y21703290D01*
X24031711Y20777000D01*
X23923472Y20777000D01*
X23773357Y20747141D01*
X23631952Y20688569D01*
X23504691Y20603536D01*
X23396464Y20495309D01*
X23311431Y20368048D01*
X23252859Y20226643D01*
X23223000Y20076528D01*
X23223000Y19923472D01*
X23252859Y19773357D01*
X23311431Y19631952D01*
X23396464Y19504691D01*
X23504691Y19396464D01*
X23631952Y19311431D01*
X23773357Y19252859D01*
X23923472Y19223000D01*
X24076528Y19223000D01*
X24226643Y19252859D01*
X24368048Y19311431D01*
X24495309Y19396464D01*
X24603536Y19504691D01*
X24688569Y19631952D01*
X24747141Y19773357D01*
X24777000Y19923472D01*
X24777000Y20031711D01*
X25839339Y21094049D01*
X25859448Y21110552D01*
X25925304Y21190798D01*
X25974239Y21282350D01*
X26004374Y21381690D01*
X26005851Y21396691D01*
X26014549Y21484999D01*
X26012000Y21510880D01*
X26012000Y21936593D01*
X26060820Y21910498D01*
X26180518Y21874188D01*
X26305000Y21861928D01*
X26469250Y21865000D01*
X26628000Y22023750D01*
X26628000Y23373000D01*
X26882000Y23373000D01*
X26882000Y22023750D01*
X27040750Y21865000D01*
X27205000Y21861928D01*
X27329482Y21874188D01*
X27449180Y21910498D01*
X27559494Y21969463D01*
X27656185Y22048815D01*
X27735537Y22145506D01*
X27794502Y22255820D01*
X27830812Y22375518D01*
X27843072Y22500000D01*
X27840000Y23214250D01*
X27681250Y23373000D01*
X26882000Y23373000D01*
X26628000Y23373000D01*
X26608000Y23373000D01*
X26608000Y23627000D01*
X26628000Y23627000D01*
X26628000Y24976250D01*
X26882000Y24976250D01*
X26882000Y23627000D01*
X27681250Y23627000D01*
X27840000Y23785750D01*
X27843072Y24500000D01*
X27830812Y24624482D01*
X27794502Y24744180D01*
X27735537Y24854494D01*
X27656185Y24951185D01*
X27559494Y25030537D01*
X27449180Y25089502D01*
X27329482Y25125812D01*
X27205000Y25138072D01*
X27040750Y25135000D01*
X26882000Y24976250D01*
X26628000Y24976250D01*
X26469250Y25135000D01*
X26305000Y25138072D01*
X26180518Y25125812D01*
X26060820Y25089502D01*
X25950506Y25030537D01*
X25853815Y24951185D01*
X25794430Y24878824D01*
X25035000Y24878824D01*
X24961095Y24871545D01*
X24890030Y24849988D01*
X24850000Y24828591D01*
X24809970Y24849988D01*
X24738905Y24871545D01*
X24665000Y24878824D01*
X24397514Y24878824D01*
X24454427Y24925531D01*
X24470934Y24945645D01*
X25867895Y26342604D01*
X25922097Y26320153D01*
X26159151Y26273000D01*
X26400849Y26273000D01*
X26637903Y26320153D01*
X26861202Y26412647D01*
X27062167Y26546927D01*
X27233073Y26717833D01*
X27367353Y26918798D01*
X27459847Y27142097D01*
X27507000Y27379151D01*
X27507000Y27620849D01*
X27459847Y27857903D01*
X27367353Y28081202D01*
X27233073Y28282167D01*
X27062167Y28453073D01*
X26861202Y28587353D01*
X26637903Y28679847D01*
X26400849Y28727000D01*
X26159151Y28727000D01*
X25922097Y28679847D01*
X25698798Y28587353D01*
X25497833Y28453073D01*
X25326927Y28282167D01*
X25192647Y28081202D01*
X25100153Y27857903D01*
X25053000Y27620849D01*
X25053000Y27379151D01*
X25100153Y27142097D01*
X25122604Y27087895D01*
X23861690Y25826979D01*
X22812268Y25826979D01*
X23327895Y26342605D01*
X23382097Y26320153D01*
X23619151Y26273000D01*
X23860849Y26273000D01*
X24097903Y26320153D01*
X24321202Y26412647D01*
X24522167Y26546927D01*
X24693073Y26717833D01*
X24827353Y26918798D01*
X24919847Y27142097D01*
X24967000Y27379151D01*
X24967000Y27620849D01*
X24919847Y27857903D01*
X24827353Y28081202D01*
X24693073Y28282167D01*
X24522167Y28453073D01*
X24321202Y28587353D01*
X24097903Y28679847D01*
X23860849Y28727000D01*
X23619151Y28727000D01*
X23382097Y28679847D01*
X23158798Y28587353D01*
X22957833Y28453073D01*
X22786927Y28282167D01*
X22652647Y28081202D01*
X22560153Y27857903D01*
X22513000Y27620849D01*
X22513000Y27379151D01*
X22560153Y27142097D01*
X22582605Y27087895D01*
X21821700Y26326989D01*
X21574406Y26326989D01*
X21781202Y26412647D01*
X21982167Y26546927D01*
X22153073Y26717833D01*
X22287353Y26918798D01*
X22379847Y27142097D01*
X22427000Y27379151D01*
X22427000Y27620849D01*
X22379847Y27857903D01*
X22287353Y28081202D01*
X22153073Y28282167D01*
X21982167Y28453073D01*
X21781202Y28587353D01*
X21557903Y28679847D01*
X21320849Y28727000D01*
X21079151Y28727000D01*
X20842097Y28679847D01*
X20618798Y28587353D01*
X20417833Y28453073D01*
X20246927Y28282167D01*
X20112647Y28081202D01*
X20020153Y27857903D01*
X19973000Y27620849D01*
X19973000Y27379151D01*
X20020153Y27142097D01*
X20042605Y27087894D01*
X19781710Y26826999D01*
X19686015Y26826999D01*
X19747353Y26918798D01*
X19839847Y27142097D01*
X19887000Y27379151D01*
X19887000Y27620849D01*
X19839847Y27857903D01*
X19747353Y28081202D01*
X19613073Y28282167D01*
X19442167Y28453073D01*
X19241202Y28587353D01*
X19017903Y28679847D01*
X18780849Y28727000D01*
X18539151Y28727000D01*
X18302097Y28679847D01*
X18078798Y28587353D01*
X17877833Y28453073D01*
X17706927Y28282167D01*
X17572647Y28081202D01*
X17480153Y27857903D01*
X17433000Y27620849D01*
X17433000Y27379151D01*
X17480153Y27142097D01*
X17572647Y26918798D01*
X17633985Y26826999D01*
X17146015Y26826999D01*
X17207353Y26918798D01*
X17299847Y27142097D01*
X17347000Y27379151D01*
X17347000Y27620849D01*
X17299847Y27857903D01*
X17207353Y28081202D01*
X17073073Y28282167D01*
X16902167Y28453073D01*
X16701202Y28587353D01*
X16477903Y28679847D01*
X16240849Y28727000D01*
X15999151Y28727000D01*
X15762097Y28679847D01*
X15538798Y28587353D01*
X15337833Y28453073D01*
X15166927Y28282167D01*
X15032647Y28081202D01*
X14940153Y27857903D01*
X14893000Y27620849D01*
X14893000Y27379151D01*
X14940153Y27142097D01*
X15032647Y26918798D01*
X15093985Y26826999D01*
X14606015Y26826999D01*
X14667353Y26918798D01*
X14759847Y27142097D01*
X14807000Y27379151D01*
X14807000Y27620849D01*
X14759847Y27857903D01*
X14667353Y28081202D01*
X14533073Y28282167D01*
X14362167Y28453073D01*
X14161202Y28587353D01*
X13937903Y28679847D01*
X13700849Y28727000D01*
X13459151Y28727000D01*
X13222097Y28679847D01*
X12998798Y28587353D01*
X12797833Y28453073D01*
X12626927Y28282167D01*
X12492647Y28081202D01*
X12443769Y27963202D01*
X12384157Y28131252D01*
X12235178Y28381355D01*
X12040269Y28597588D01*
X11806920Y28771641D01*
X11544099Y28896825D01*
X11396890Y28941476D01*
X11167000Y28820155D01*
X11167000Y27627000D01*
X11187000Y27627000D01*
X11187000Y27373000D01*
X11167000Y27373000D01*
X11167000Y26179845D01*
X11396890Y26058524D01*
X11544099Y26103175D01*
X11806920Y26228359D01*
X12040269Y26402412D01*
X12235178Y26618645D01*
X12384157Y26868748D01*
X12443769Y27036798D01*
X12492647Y26918798D01*
X12626927Y26717833D01*
X12797833Y26546927D01*
X12998798Y26412647D01*
X13222097Y26320153D01*
X13459151Y26273000D01*
X13512710Y26273000D01*
X12430666Y25190955D01*
X12410552Y25174448D01*
X12344696Y25094202D01*
X12323743Y25055000D01*
X12295761Y25002649D01*
X12265626Y24903309D01*
X12262511Y24871684D01*
X12261095Y24871545D01*
X12190030Y24849988D01*
X12150000Y24828591D01*
X12109970Y24849988D01*
X12038905Y24871545D01*
X11965000Y24878824D01*
X11065000Y24878824D01*
X10991095Y24871545D01*
X10920030Y24849988D01*
X10880000Y24828591D01*
X10839970Y24849988D01*
X10768905Y24871545D01*
X10695000Y24878824D01*
X9795000Y24878824D01*
X9721095Y24871545D01*
X9650030Y24849988D01*
X9584537Y24814981D01*
X9527131Y24767869D01*
X9480019Y24710463D01*
X9445012Y24644970D01*
X9423455Y24573905D01*
X9416176Y24500000D01*
X9416176Y24027000D01*
X8155790Y24027000D01*
X6103824Y26078965D01*
X6103824Y26406250D01*
X6092342Y26522831D01*
X6058336Y26634932D01*
X6003115Y26738244D01*
X5928799Y26828799D01*
X5838244Y26903115D01*
X5734932Y26958336D01*
X5622831Y26992342D01*
X5506250Y27003824D01*
X5068750Y27003824D01*
X4952169Y26992342D01*
X4840068Y26958336D01*
X4736756Y26903115D01*
X4646201Y26828799D01*
X4571885Y26738244D01*
X4516664Y26634932D01*
X4500000Y26579999D01*
X4483336Y26634932D01*
X4428115Y26738244D01*
X4353799Y26828799D01*
X4263244Y26903115D01*
X4159932Y26958336D01*
X4047831Y26992342D01*
X3931250Y27003824D01*
X3493750Y27003824D01*
X3377169Y26992342D01*
X3265068Y26958336D01*
X3161756Y26903115D01*
X3071201Y26828799D01*
X2996885Y26738244D01*
X2943416Y26638210D01*
X2868048Y26688569D01*
X2726643Y26747141D01*
X2576528Y26777000D01*
X2423472Y26777000D01*
X2273357Y26747141D01*
X2131952Y26688569D01*
X2004691Y26603536D01*
X1896464Y26495309D01*
X1811431Y26368048D01*
X1752859Y26226643D01*
X1723000Y26076528D01*
X1723000Y25923472D01*
X1752859Y25773357D01*
X1811431Y25631952D01*
X1896464Y25504691D01*
X2004691Y25396464D01*
X2131952Y25311431D01*
X2273357Y25252859D01*
X2423472Y25223000D01*
X2576528Y25223000D01*
X2726643Y25252859D01*
X2868048Y25311431D01*
X2995309Y25396464D01*
X3070680Y25471835D01*
X3071201Y25471201D01*
X3161756Y25396885D01*
X3265068Y25341664D01*
X3377169Y25307658D01*
X3493750Y25296176D01*
X3931250Y25296176D01*
X4047831Y25307658D01*
X4159932Y25341664D01*
X4263244Y25396885D01*
X4353799Y25471201D01*
X4428115Y25561756D01*
X4483336Y25665068D01*
X4500000Y25720001D01*
X4516664Y25665068D01*
X4571885Y25561756D01*
X4646201Y25471201D01*
X4736756Y25396885D01*
X4840068Y25341664D01*
X4952169Y25307658D01*
X5068750Y25296176D01*
X5396035Y25296176D01*
X5797108Y24895102D01*
X5734932Y24928336D01*
X5622831Y24962342D01*
X5506250Y24973824D01*
X5068750Y24973824D01*
X4952169Y24962342D01*
X4840068Y24928336D01*
X4736756Y24873115D01*
X4646201Y24798799D01*
X4571885Y24708244D01*
X4516664Y24604932D01*
X4500000Y24549999D01*
X4483336Y24604932D01*
X4428115Y24708244D01*
X4353799Y24798799D01*
X4263244Y24873115D01*
X4159932Y24928336D01*
X4047831Y24962342D01*
X3931250Y24973824D01*
X3493750Y24973824D01*
X3377169Y24962342D01*
X3265068Y24928336D01*
X3161756Y24873115D01*
X3071201Y24798799D01*
X2996885Y24708244D01*
X2964150Y24647000D01*
X2930260Y24647000D01*
X2868048Y24688569D01*
X2726643Y24747141D01*
X2576528Y24777000D01*
X2423472Y24777000D01*
X2273357Y24747141D01*
X2131952Y24688569D01*
X2004691Y24603536D01*
X1896464Y24495309D01*
X1811431Y24368048D01*
X1752859Y24226643D01*
X1723000Y24076528D01*
X1723000Y23923472D01*
X1752859Y23773357D01*
X1811431Y23631952D01*
X1896464Y23504691D01*
X2004691Y23396464D01*
X2131952Y23311431D01*
X2273357Y23252859D01*
X2423472Y23223000D01*
X2576528Y23223000D01*
X2726643Y23252859D01*
X2868048Y23311431D01*
X2995309Y23396464D01*
X3057158Y23458313D01*
X3071201Y23441201D01*
X3161756Y23366885D01*
X3265068Y23311664D01*
X3377169Y23277658D01*
X3493750Y23266176D01*
X3931250Y23266176D01*
X4047831Y23277658D01*
X4159932Y23311664D01*
X4263244Y23366885D01*
X4353799Y23441201D01*
X4428115Y23531756D01*
X4483336Y23635068D01*
X4500000Y23690001D01*
X4516664Y23635068D01*
X4571885Y23531756D01*
X4646201Y23441201D01*
X4736756Y23366885D01*
X4760500Y23354194D01*
X4760501Y15321856D01*
X4597588Y15540269D01*
X4381355Y15735178D01*
X4131252Y15884157D01*
X3963202Y15943769D01*
X4081202Y15992647D01*
X4282167Y16126927D01*
X4453073Y16297833D01*
X4587353Y16498798D01*
X4679847Y16722097D01*
X4727000Y16959151D01*
X4727000Y17200849D01*
X4679847Y17437903D01*
X4587353Y17661202D01*
X4453073Y17862167D01*
X4282167Y18033073D01*
X4081202Y18167353D01*
X3857903Y18259847D01*
X3620849Y18307000D01*
X3379151Y18307000D01*
X3142097Y18259847D01*
X2918798Y18167353D01*
X2717833Y18033073D01*
X2546927Y17862167D01*
X2412647Y17661202D01*
X2320153Y17437903D01*
X2273000Y17200849D01*
X2273000Y16959151D01*
X2320153Y16722097D01*
X2412647Y16498798D01*
X2546927Y16297833D01*
X2717833Y16126927D01*
X2918798Y15992647D01*
X3036798Y15943769D01*
X2868748Y15884157D01*
X2618645Y15735178D01*
X2402412Y15540269D01*
X2228359Y15306920D01*
X2103175Y15044099D01*
X2058524Y14896890D01*
X2179845Y14667000D01*
X3373000Y14667000D01*
X3373000Y14687000D01*
X3627000Y14687000D01*
X3627000Y14667000D01*
X3647000Y14667000D01*
X3647000Y14413000D01*
X3627000Y14413000D01*
X3627000Y14393000D01*
X3373000Y14393000D01*
X3373000Y14413000D01*
X2179845Y14413000D01*
X2058524Y14183110D01*
X2103175Y14035901D01*
X2228359Y13773080D01*
X2402412Y13539731D01*
X2618645Y13344822D01*
X2813380Y13228824D01*
X2650000Y13228824D01*
X2576095Y13221545D01*
X2505030Y13199988D01*
X2439537Y13164981D01*
X2382131Y13117869D01*
X2335019Y13060463D01*
X2300012Y12994970D01*
X2278455Y12923905D01*
X2271176Y12850000D01*
X2271176Y11150000D01*
X2278455Y11076095D01*
X2300012Y11005030D01*
X2335019Y10939537D01*
X2382131Y10882131D01*
X2439537Y10835019D01*
X2505030Y10800012D01*
X2576095Y10778455D01*
X2650000Y10771176D01*
X2973001Y10771176D01*
X2973001Y10505792D01*
X2571034Y10103824D01*
X2243750Y10103824D01*
X2127169Y10092342D01*
X2015068Y10058336D01*
X1911756Y10003115D01*
X1821201Y9928799D01*
X1746885Y9838244D01*
X1691664Y9734932D01*
X1657658Y9622831D01*
X1646176Y9506250D01*
X1646176Y9068750D01*
X1657658Y8952169D01*
X1691664Y8840068D01*
X1746885Y8736756D01*
X1821201Y8646201D01*
X1911756Y8571885D01*
X2015068Y8516664D01*
X2070001Y8500000D01*
X2015068Y8483336D01*
X1911756Y8428115D01*
X1821201Y8353799D01*
X1746885Y8263244D01*
X1691664Y8159932D01*
X1657658Y8047831D01*
X1646176Y7931250D01*
X1646176Y7493750D01*
X1657658Y7377169D01*
X1691664Y7265068D01*
X1746885Y7161756D01*
X1821201Y7071201D01*
X1911756Y6996885D01*
X1973001Y6964149D01*
X1973000Y5778824D01*
X1250000Y5778824D01*
X1176095Y5771545D01*
X1105030Y5749988D01*
X1039537Y5714981D01*
X982131Y5667869D01*
X935019Y5610463D01*
X900012Y5544970D01*
X878455Y5473905D01*
X871176Y5400000D01*
X871176Y3600000D01*
X878455Y3526095D01*
X900012Y3455030D01*
X935019Y3389537D01*
X982131Y3332131D01*
X1039537Y3285019D01*
X1105030Y3250012D01*
X1176095Y3228455D01*
X1250000Y3221176D01*
X1973001Y3221176D01*
X1973000Y2071845D01*
X1896464Y1995309D01*
X1811431Y1868048D01*
X1752859Y1726643D01*
X1723000Y1576528D01*
X1723000Y1423472D01*
X1752859Y1273357D01*
X1811431Y1131952D01*
X1896464Y1004691D01*
X2004691Y896464D01*
X2131952Y811431D01*
X2273357Y752859D01*
X2423472Y723000D01*
X2576528Y723000D01*
X2726643Y752859D01*
X2868048Y811431D01*
X2995309Y896464D01*
X3103536Y1004691D01*
X3188569Y1131952D01*
X3247141Y1273357D01*
X3277000Y1423472D01*
X3277000Y1576528D01*
X3247141Y1726643D01*
X3188569Y1868048D01*
X3103536Y1995309D01*
X3027000Y2071845D01*
X3027000Y3221176D01*
X3750000Y3221176D01*
X3823905Y3228455D01*
X3894970Y3250012D01*
X3960463Y3285019D01*
X4017869Y3332131D01*
X4064981Y3389537D01*
X4099988Y3455030D01*
X4121545Y3526095D01*
X4128824Y3600000D01*
X4611928Y3600000D01*
X4624188Y3475518D01*
X4660498Y3355820D01*
X4719463Y3245506D01*
X4798815Y3148815D01*
X4895506Y3069463D01*
X5005820Y3010498D01*
X5125518Y2974188D01*
X5250000Y2961928D01*
X6214250Y2965000D01*
X6373000Y3123750D01*
X6373000Y4373000D01*
X6627000Y4373000D01*
X6627000Y3123750D01*
X6785750Y2965000D01*
X7750000Y2961928D01*
X7874482Y2974188D01*
X7994180Y3010498D01*
X8104494Y3069463D01*
X8201185Y3148815D01*
X8280537Y3245506D01*
X8339502Y3355820D01*
X8375812Y3475518D01*
X8388072Y3600000D01*
X8387414Y3731750D01*
X8440000Y3731750D01*
X8598750Y3573000D01*
X9673000Y3573000D01*
X9673000Y4176250D01*
X9927000Y4176250D01*
X9927000Y3573000D01*
X11001250Y3573000D01*
X11160000Y3731750D01*
X11148844Y3833996D01*
X11110715Y3953127D01*
X11050078Y4062531D01*
X10969263Y4158003D01*
X10871375Y4235874D01*
X10760175Y4293151D01*
X10639939Y4327634D01*
X10515285Y4337998D01*
X10085750Y4335000D01*
X9927000Y4176250D01*
X9673000Y4176250D01*
X9514250Y4335000D01*
X9084715Y4337998D01*
X8960061Y4327634D01*
X8839825Y4293151D01*
X8728625Y4235874D01*
X8630737Y4158003D01*
X8549922Y4062531D01*
X8489285Y3953127D01*
X8451156Y3833996D01*
X8440000Y3731750D01*
X8387414Y3731750D01*
X8385000Y4214250D01*
X8226250Y4373000D01*
X6627000Y4373000D01*
X6373000Y4373000D01*
X4773750Y4373000D01*
X4615000Y4214250D01*
X4611928Y3600000D01*
X4128824Y3600000D01*
X4128824Y5400000D01*
X4611928Y5400000D01*
X4615000Y4785750D01*
X4773750Y4627000D01*
X6373000Y4627000D01*
X6373000Y5876250D01*
X6627000Y5876250D01*
X6627000Y4627000D01*
X8226250Y4627000D01*
X8385000Y4785750D01*
X8388072Y5400000D01*
X8375812Y5524482D01*
X8339502Y5644180D01*
X8280537Y5754494D01*
X8201185Y5851185D01*
X8104494Y5930537D01*
X7994180Y5989502D01*
X7874482Y6025812D01*
X7750000Y6038072D01*
X6785750Y6035000D01*
X6627000Y5876250D01*
X6373000Y5876250D01*
X6214250Y6035000D01*
X5250000Y6038072D01*
X5125518Y6025812D01*
X5005820Y5989502D01*
X4895506Y5930537D01*
X4798815Y5851185D01*
X4719463Y5754494D01*
X4660498Y5644180D01*
X4624188Y5524482D01*
X4611928Y5400000D01*
X4128824Y5400000D01*
X4121545Y5473905D01*
X4099988Y5544970D01*
X4064981Y5610463D01*
X4017869Y5667869D01*
X3960463Y5714981D01*
X3894970Y5749988D01*
X3823905Y5771545D01*
X3750000Y5778824D01*
X3027000Y5778824D01*
X3027000Y6964150D01*
X3088244Y6996885D01*
X3178799Y7071201D01*
X3253115Y7161756D01*
X3308336Y7265068D01*
X3342342Y7377169D01*
X3353824Y7493750D01*
X3353824Y7931250D01*
X3342342Y8047831D01*
X3308336Y8159932D01*
X3253115Y8263244D01*
X3178799Y8353799D01*
X3088244Y8428115D01*
X2984932Y8483336D01*
X2929999Y8500000D01*
X2984932Y8516664D01*
X3088244Y8571885D01*
X3178799Y8646201D01*
X3253115Y8736756D01*
X3308336Y8840068D01*
X3342342Y8952169D01*
X3353824Y9068750D01*
X3353824Y9396034D01*
X3854344Y9896553D01*
X3874448Y9913052D01*
X3940304Y9993298D01*
X3989239Y10084850D01*
X4019374Y10184190D01*
X4027000Y10261619D01*
X4029549Y10287500D01*
X4027000Y10313381D01*
X4027000Y10771176D01*
X4350000Y10771176D01*
X4423905Y10778455D01*
X4494970Y10800012D01*
X4560463Y10835019D01*
X4617869Y10882131D01*
X4664981Y10939537D01*
X4699988Y11005030D01*
X4721545Y11076095D01*
X4728824Y11150000D01*
X4728824Y12850000D01*
X4721545Y12923905D01*
X4699988Y12994970D01*
X4664981Y13060463D01*
X4617869Y13117869D01*
X4560463Y13164981D01*
X4494970Y13199988D01*
X4423905Y13221545D01*
X4350000Y13228824D01*
X4186620Y13228824D01*
X4381355Y13344822D01*
X4597588Y13539731D01*
X4760501Y13758145D01*
X4760501Y10738391D01*
X4757951Y10712500D01*
X4768126Y10609191D01*
X4798261Y10509851D01*
X4798262Y10509850D01*
X4847197Y10418298D01*
X4913053Y10338052D01*
X4933162Y10321549D01*
X6324053Y8930656D01*
X6340552Y8910552D01*
X6420798Y8844696D01*
X6512350Y8795761D01*
X6517493Y8794201D01*
X6611690Y8765626D01*
X6715000Y8755451D01*
X6740881Y8758000D01*
X7874394Y8758000D01*
X7895012Y8690030D01*
X7930019Y8624537D01*
X7977131Y8567131D01*
X8034537Y8520019D01*
X8100030Y8485012D01*
X8171095Y8463455D01*
X8245000Y8456176D01*
X10155887Y8456176D01*
X9890662Y8190951D01*
X9870553Y8174448D01*
X9813061Y8104394D01*
X9804696Y8094201D01*
X9755761Y8002649D01*
X9725626Y7903309D01*
X9722511Y7871684D01*
X9721095Y7871545D01*
X9650030Y7849988D01*
X9584537Y7814981D01*
X9527131Y7767869D01*
X9480019Y7710463D01*
X9445012Y7644970D01*
X9423455Y7573905D01*
X9416176Y7500000D01*
X9416176Y5500000D01*
X9423455Y5426095D01*
X9445012Y5355030D01*
X9480019Y5289537D01*
X9527131Y5232131D01*
X9584537Y5185019D01*
X9650030Y5150012D01*
X9721095Y5128455D01*
X9795000Y5121176D01*
X10695000Y5121176D01*
X10768905Y5128455D01*
X10839970Y5150012D01*
X10880000Y5171409D01*
X10920030Y5150012D01*
X10991095Y5128455D01*
X10992511Y5128316D01*
X10995626Y5096691D01*
X11025761Y4997351D01*
X11074696Y4905799D01*
X11074697Y4905798D01*
X11140553Y4825552D01*
X11160661Y4809050D01*
X11274045Y4695665D01*
X11290549Y4675555D01*
X11370795Y4609699D01*
X11462347Y4560764D01*
X11545610Y4535506D01*
X11561687Y4530629D01*
X11664997Y4520454D01*
X11690878Y4523003D01*
X12752135Y4523003D01*
X12723000Y4376530D01*
X12723000Y4265877D01*
X12693060Y4229395D01*
X12684695Y4219202D01*
X12635760Y4127650D01*
X12605625Y4028310D01*
X12595450Y3925001D01*
X12598000Y3899111D01*
X12597999Y2900882D01*
X12595450Y2875001D01*
X12597999Y2849121D01*
X12605625Y2771692D01*
X12635760Y2672352D01*
X12684695Y2580799D01*
X12750551Y2500553D01*
X12770665Y2484046D01*
X12784045Y2470666D01*
X12800552Y2450552D01*
X12880798Y2384696D01*
X12972350Y2335761D01*
X13071690Y2305626D01*
X13096176Y2303214D01*
X13096176Y1950000D01*
X13103455Y1876095D01*
X13111371Y1850000D01*
X13103455Y1823905D01*
X13096176Y1750000D01*
X13096176Y1300000D01*
X13103455Y1226095D01*
X13125012Y1155030D01*
X13160019Y1089537D01*
X13207131Y1032131D01*
X13264537Y985019D01*
X13330030Y950012D01*
X13401095Y928455D01*
X13475000Y921176D01*
X14057014Y921176D01*
X14066562Y909542D01*
X14146808Y843686D01*
X14238360Y794751D01*
X14301976Y775453D01*
X14337700Y764616D01*
X14441010Y754441D01*
X14466891Y756990D01*
X17764109Y756990D01*
X17789990Y754441D01*
X17815871Y756990D01*
X17893300Y764616D01*
X17992640Y794751D01*
X18084192Y843686D01*
X18164438Y909542D01*
X18180945Y929656D01*
X18506465Y1255176D01*
X18902500Y1255176D01*
X19022739Y1267018D01*
X19138357Y1302091D01*
X19244911Y1359045D01*
X19338307Y1435693D01*
X19414955Y1529089D01*
X19443236Y1582000D01*
X19536764Y1582000D01*
X19565045Y1529089D01*
X19641693Y1435693D01*
X19735089Y1359045D01*
X19841643Y1302091D01*
X19957261Y1267018D01*
X20077500Y1255176D01*
X20652500Y1255176D01*
X20772739Y1267018D01*
X20888357Y1302091D01*
X20994911Y1359045D01*
X21010229Y1371616D01*
X21059463Y1279506D01*
X21138815Y1182815D01*
X21235506Y1103463D01*
X21345820Y1044498D01*
X21465518Y1008188D01*
X21590000Y995928D01*
X21829250Y999000D01*
X21988000Y1157750D01*
X21988000Y1982000D01*
X22242000Y1982000D01*
X22242000Y1157750D01*
X22400750Y999000D01*
X22640000Y995928D01*
X22764482Y1008188D01*
X22884180Y1044498D01*
X22994494Y1103463D01*
X23091185Y1182815D01*
X23170537Y1279506D01*
X23229502Y1389820D01*
X23265812Y1509518D01*
X23278072Y1634000D01*
X23275000Y1823250D01*
X23116250Y1982000D01*
X22242000Y1982000D01*
X21988000Y1982000D01*
X21968000Y1982000D01*
X21968000Y2236000D01*
X21988000Y2236000D01*
X21988000Y3060250D01*
X22242000Y3060250D01*
X22242000Y2236000D01*
X23116250Y2236000D01*
X23275000Y2394750D01*
X23278072Y2584000D01*
X23265812Y2708482D01*
X23229502Y2828180D01*
X23170537Y2938494D01*
X23091185Y3035185D01*
X22994494Y3114537D01*
X22884180Y3173502D01*
X22764482Y3209812D01*
X22640000Y3222072D01*
X22400750Y3219000D01*
X22242000Y3060250D01*
X21988000Y3060250D01*
X21829250Y3219000D01*
X21590000Y3222072D01*
X21465518Y3209812D01*
X21345820Y3173502D01*
X21235506Y3114537D01*
X21138815Y3035185D01*
X21059463Y2938494D01*
X21010229Y2846384D01*
X20994911Y2858955D01*
X20888357Y2915909D01*
X20772739Y2950982D01*
X20652500Y2962824D01*
X20077500Y2962824D01*
X19957261Y2950982D01*
X19841643Y2915909D01*
X19735089Y2858955D01*
X19641693Y2782307D01*
X19565045Y2688911D01*
X19536764Y2636000D01*
X19443236Y2636000D01*
X19414955Y2688911D01*
X19338307Y2782307D01*
X19244911Y2858955D01*
X19138357Y2915909D01*
X19022739Y2950982D01*
X18902500Y2962824D01*
X18464114Y2962824D01*
X18647466Y3146176D01*
X18662500Y3146176D01*
X18782739Y3158018D01*
X18898357Y3193091D01*
X19004911Y3250045D01*
X19098307Y3326693D01*
X19174955Y3420089D01*
X19203236Y3473000D01*
X19428155Y3473000D01*
X19504691Y3396464D01*
X19631952Y3311431D01*
X19773357Y3252859D01*
X19923472Y3223000D01*
X20076528Y3223000D01*
X20226643Y3252859D01*
X20368048Y3311431D01*
X20495309Y3396464D01*
X20603536Y3504691D01*
X20688569Y3631952D01*
X20747141Y3773357D01*
X20777000Y3923472D01*
X20777000Y4076528D01*
X20747141Y4226643D01*
X20688569Y4368048D01*
X20603536Y4495309D01*
X20575842Y4523003D01*
X27370391Y4523003D01*
X27407579Y4520936D01*
X27447825Y4526641D01*
X27488315Y4530629D01*
X27499156Y4533918D01*
X27510361Y4535506D01*
X27548730Y4548956D01*
X27587655Y4560764D01*
X27597640Y4566101D01*
X27608326Y4569847D01*
X27643331Y4590523D01*
X27679207Y4609699D01*
X27708019Y4633344D01*
X28098001Y4918697D01*
X28098001Y402000D01*
X8747866Y402000D01*
X8777000Y548472D01*
X8777000Y701528D01*
X8768649Y743510D01*
X8839825Y706849D01*
X8960061Y672366D01*
X9084715Y662002D01*
X9514250Y665000D01*
X9673000Y823750D01*
X9673000Y1427000D01*
X9927000Y1427000D01*
X9927000Y823750D01*
X10085750Y665000D01*
X10515285Y662002D01*
X10639939Y672366D01*
X10760175Y706849D01*
X10871375Y764126D01*
X10969263Y841997D01*
X11050078Y937469D01*
X11110715Y1046873D01*
X11148844Y1166004D01*
X11160000Y1268250D01*
X11001250Y1427000D01*
X9927000Y1427000D01*
X9673000Y1427000D01*
X9653000Y1427000D01*
X9653000Y1571176D01*
X10525000Y1571176D01*
X10598905Y1578455D01*
X10669970Y1600012D01*
X10712977Y1623000D01*
X11001250Y1623000D01*
X11160000Y1781750D01*
X11148844Y1883996D01*
X11110715Y2003127D01*
X11050078Y2112531D01*
X10969263Y2208003D01*
X10903824Y2260060D01*
X10903824Y2400000D01*
X10896545Y2473905D01*
X10888629Y2500000D01*
X10896545Y2526095D01*
X10903824Y2600000D01*
X10903824Y2739940D01*
X10969263Y2791997D01*
X11050078Y2887469D01*
X11110715Y2996873D01*
X11148844Y3116004D01*
X11160000Y3218250D01*
X11001250Y3377000D01*
X10712977Y3377000D01*
X10669970Y3399988D01*
X10598905Y3421545D01*
X10525000Y3428824D01*
X9075000Y3428824D01*
X9001095Y3421545D01*
X8930030Y3399988D01*
X8887023Y3377000D01*
X8598750Y3377000D01*
X8440000Y3218250D01*
X8451156Y3116004D01*
X8489285Y2996873D01*
X8549922Y2887469D01*
X8630737Y2791997D01*
X8696176Y2739940D01*
X8696176Y2672984D01*
X8667348Y2664239D01*
X8575796Y2615304D01*
X8495550Y2549448D01*
X8479047Y2529339D01*
X7645662Y1695953D01*
X7625553Y1679450D01*
X7583583Y1628309D01*
X7559696Y1599203D01*
X7510761Y1507651D01*
X7480626Y1408311D01*
X7470451Y1305002D01*
X7473000Y1279121D01*
X7473000Y1196845D01*
X7396464Y1120309D01*
X7311431Y993048D01*
X7252859Y851643D01*
X7223000Y701528D01*
X7223000Y548472D01*
X7252134Y402000D01*
X402000Y402000D01*
X402000Y19740849D01*
X2273000Y19740849D01*
X2273000Y19499151D01*
X2320153Y19262097D01*
X2412647Y19038798D01*
X2546927Y18837833D01*
X2717833Y18666927D01*
X2918798Y18532647D01*
X3142097Y18440153D01*
X3379151Y18393000D01*
X3620849Y18393000D01*
X3857903Y18440153D01*
X4081202Y18532647D01*
X4282167Y18666927D01*
X4453073Y18837833D01*
X4587353Y19038798D01*
X4679847Y19262097D01*
X4727000Y19499151D01*
X4727000Y19740849D01*
X4679847Y19977903D01*
X4587353Y20201202D01*
X4453073Y20402167D01*
X4282167Y20573073D01*
X4081202Y20707353D01*
X3857903Y20799847D01*
X3620849Y20847000D01*
X3379151Y20847000D01*
X3142097Y20799847D01*
X2918798Y20707353D01*
X2717833Y20573073D01*
X2546927Y20402167D01*
X2412647Y20201202D01*
X2320153Y19977903D01*
X2273000Y19740849D01*
X402000Y19740849D01*
X402000Y28076528D01*
X1723000Y28076528D01*
X1723000Y27923472D01*
X1752859Y27773357D01*
X1811431Y27631952D01*
X1896464Y27504691D01*
X2004691Y27396464D01*
X2131952Y27311431D01*
X2273357Y27252859D01*
X2423472Y27223000D01*
X2576528Y27223000D01*
X2726643Y27252859D01*
X2868048Y27311431D01*
X2995309Y27396464D01*
X3003068Y27404223D01*
X3071201Y27321201D01*
X3161756Y27246885D01*
X3265068Y27191664D01*
X3377169Y27157658D01*
X3493750Y27146176D01*
X3931250Y27146176D01*
X4047831Y27157658D01*
X4159932Y27191664D01*
X4263244Y27246885D01*
X4353799Y27321201D01*
X4428115Y27411756D01*
X4483336Y27515068D01*
X4500000Y27570001D01*
X4516664Y27515068D01*
X4571885Y27411756D01*
X4646201Y27321201D01*
X4736756Y27246885D01*
X4840068Y27191664D01*
X4952169Y27157658D01*
X5068750Y27146176D01*
X5506250Y27146176D01*
X5622831Y27157658D01*
X5734932Y27191664D01*
X5838244Y27246885D01*
X5928799Y27321201D01*
X6003115Y27411756D01*
X6035850Y27473000D01*
X7271176Y27473000D01*
X7271176Y26650000D01*
X7278455Y26576095D01*
X7300012Y26505030D01*
X7335019Y26439537D01*
X7382131Y26382131D01*
X7439537Y26335019D01*
X7505030Y26300012D01*
X7576095Y26278455D01*
X7650000Y26271176D01*
X9350000Y26271176D01*
X9423905Y26278455D01*
X9494970Y26300012D01*
X9560463Y26335019D01*
X9617869Y26382131D01*
X9664981Y26439537D01*
X9699988Y26505030D01*
X9721545Y26576095D01*
X9728824Y26650000D01*
X9728824Y26813380D01*
X9844822Y26618645D01*
X10039731Y26402412D01*
X10273080Y26228359D01*
X10535901Y26103175D01*
X10683110Y26058524D01*
X10913000Y26179845D01*
X10913000Y27373000D01*
X10893000Y27373000D01*
X10893000Y27627000D01*
X10913000Y27627000D01*
X10913000Y28820155D01*
X10683110Y28941476D01*
X10535901Y28896825D01*
X10273080Y28771641D01*
X10039731Y28597588D01*
X9844822Y28381355D01*
X9728824Y28186620D01*
X9728824Y28350000D01*
X9721545Y28423905D01*
X9699988Y28494970D01*
X9664981Y28560463D01*
X9617869Y28617869D01*
X9560463Y28664981D01*
X9494970Y28699988D01*
X9423905Y28721545D01*
X9350000Y28728824D01*
X7650000Y28728824D01*
X7576095Y28721545D01*
X7505030Y28699988D01*
X7439537Y28664981D01*
X7382131Y28617869D01*
X7335019Y28560463D01*
X7317133Y28527000D01*
X6035850Y28527000D01*
X6003115Y28588244D01*
X5928799Y28678799D01*
X5838244Y28753115D01*
X5734932Y28808336D01*
X5622831Y28842342D01*
X5506250Y28853824D01*
X5068750Y28853824D01*
X4952169Y28842342D01*
X4840068Y28808336D01*
X4736756Y28753115D01*
X4646201Y28678799D01*
X4571885Y28588244D01*
X4516664Y28484932D01*
X4500000Y28429999D01*
X4483336Y28484932D01*
X4428115Y28588244D01*
X4353799Y28678799D01*
X4263244Y28753115D01*
X4159932Y28808336D01*
X4047831Y28842342D01*
X3931250Y28853824D01*
X3493750Y28853824D01*
X3377169Y28842342D01*
X3265068Y28808336D01*
X3161756Y28753115D01*
X3071201Y28678799D01*
X3003068Y28595777D01*
X2995309Y28603536D01*
X2868048Y28688569D01*
X2726643Y28747141D01*
X2576528Y28777000D01*
X2423472Y28777000D01*
X2273357Y28747141D01*
X2131952Y28688569D01*
X2004691Y28603536D01*
X1896464Y28495309D01*
X1811431Y28368048D01*
X1752859Y28226643D01*
X1723000Y28076528D01*
X402000Y28076528D01*
X402000Y29598000D01*
X28098000Y29598000D01*
X28098000Y15000845D01*
G37*
X28098000Y15000845D02*
X27995309Y15103536D01*
X27868048Y15188569D01*
X27726643Y15247141D01*
X27576528Y15277000D01*
X27423472Y15277000D01*
X27273357Y15247141D01*
X27131952Y15188569D01*
X27004691Y15103536D01*
X26896464Y14995309D01*
X26811431Y14868048D01*
X26752859Y14726643D01*
X26723000Y14576528D01*
X26723000Y14468291D01*
X24145662Y11890951D01*
X24125553Y11874448D01*
X24068061Y11804394D01*
X24059696Y11794201D01*
X24010761Y11702649D01*
X23980626Y11603309D01*
X23970451Y11500000D01*
X23973001Y11474110D01*
X23973000Y10571845D01*
X23896464Y10495309D01*
X23811431Y10368048D01*
X23752859Y10226643D01*
X23723000Y10076528D01*
X23723000Y9923472D01*
X23752859Y9773357D01*
X23811431Y9631952D01*
X23896464Y9504691D01*
X24004691Y9396464D01*
X24131952Y9311431D01*
X24273357Y9252859D01*
X24423472Y9223000D01*
X24576528Y9223000D01*
X24726643Y9252859D01*
X24868048Y9311431D01*
X24995309Y9396464D01*
X25103536Y9504691D01*
X25188569Y9631952D01*
X25247141Y9773357D01*
X25277000Y9923472D01*
X25277000Y10076528D01*
X25247141Y10226643D01*
X25188569Y10368048D01*
X25103536Y10495309D01*
X25027000Y10571845D01*
X25027000Y11281711D01*
X27468291Y13723000D01*
X27576528Y13723000D01*
X27726643Y13752859D01*
X27868048Y13811431D01*
X27995309Y13896464D01*
X28098001Y13999156D01*
X28098001Y8772729D01*
X28076528Y8777000D01*
X27923472Y8777000D01*
X27773357Y8747141D01*
X27631952Y8688569D01*
X27504691Y8603536D01*
X27396464Y8495309D01*
X27311431Y8368048D01*
X27252859Y8226643D01*
X27234661Y8135151D01*
X27205000Y8138072D01*
X27040750Y8135000D01*
X26882000Y7976250D01*
X26882000Y6627000D01*
X26902000Y6627000D01*
X26902000Y6373000D01*
X26882000Y6373000D01*
X26882000Y6353000D01*
X26628000Y6353000D01*
X26628000Y6373000D01*
X26608000Y6373000D01*
X26608000Y6627000D01*
X26628000Y6627000D01*
X26628000Y7976250D01*
X26469250Y8135000D01*
X26305000Y8138072D01*
X26180518Y8125812D01*
X26060820Y8089502D01*
X25950506Y8030537D01*
X25853815Y7951185D01*
X25794430Y7878824D01*
X25035000Y7878824D01*
X24961095Y7871545D01*
X24890030Y7849988D01*
X24850000Y7828591D01*
X24809970Y7849988D01*
X24738905Y7871545D01*
X24665000Y7878824D01*
X23765000Y7878824D01*
X23691095Y7871545D01*
X23620030Y7849988D01*
X23580000Y7828591D01*
X23539970Y7849988D01*
X23472000Y7870606D01*
X23472000Y18621245D01*
X23474549Y18647123D01*
X23472000Y18673003D01*
X23464374Y18750432D01*
X23434239Y18849772D01*
X23385304Y18941324D01*
X23319448Y19021570D01*
X23299339Y19038073D01*
X21583078Y20754333D01*
X21566571Y20774447D01*
X21486325Y20840303D01*
X21394773Y20889238D01*
X21295433Y20919373D01*
X21218004Y20926999D01*
X21192123Y20929548D01*
X21166242Y20926999D01*
X18923473Y20926999D01*
X18921088Y20927212D01*
X18897658Y20926999D01*
X18874118Y20926999D01*
X18871724Y20926763D01*
X16716673Y20907172D01*
X16645309Y20978536D01*
X16518048Y21063569D01*
X16376643Y21122141D01*
X16226528Y21152000D01*
X16073472Y21152000D01*
X15923357Y21122141D01*
X15781952Y21063569D01*
X15654691Y20978536D01*
X15546464Y20870309D01*
X15461431Y20743048D01*
X15402859Y20601643D01*
X15373000Y20451528D01*
X15373000Y20298472D01*
X15402859Y20148357D01*
X15461431Y20006952D01*
X15546464Y19879691D01*
X15654691Y19771464D01*
X15781952Y19686431D01*
X15923357Y19627859D01*
X16073472Y19598000D01*
X16226528Y19598000D01*
X16376643Y19627859D01*
X16518048Y19686431D01*
X16645309Y19771464D01*
X16727070Y19853225D01*
X18902288Y19872999D01*
X19814739Y19872999D01*
X19811431Y19868048D01*
X19752859Y19726643D01*
X19723000Y19576528D01*
X19723000Y19423472D01*
X19752859Y19273357D01*
X19810014Y19135374D01*
X19540750Y19135000D01*
X19382000Y18976250D01*
X19382000Y16127000D01*
X19402000Y16127000D01*
X19402000Y15873000D01*
X19382000Y15873000D01*
X19382000Y13023750D01*
X19540750Y12865000D01*
X21578001Y12862174D01*
X21578002Y7878824D01*
X21225000Y7878824D01*
X21151095Y7871545D01*
X21080030Y7849988D01*
X21040000Y7828591D01*
X20999970Y7849988D01*
X20928905Y7871545D01*
X20855000Y7878824D01*
X19968909Y7878824D01*
X19995309Y7896464D01*
X20103536Y8004691D01*
X20188569Y8131952D01*
X20247141Y8273357D01*
X20277000Y8423472D01*
X20277000Y8576528D01*
X20247141Y8726643D01*
X20188569Y8868048D01*
X20103536Y8995309D01*
X19995309Y9103536D01*
X19868048Y9188569D01*
X19726643Y9247141D01*
X19576528Y9277000D01*
X19423472Y9277000D01*
X19273357Y9247141D01*
X19131952Y9188569D01*
X19004691Y9103536D01*
X18928155Y9027000D01*
X16050877Y9027000D01*
X16024999Y9029549D01*
X15999121Y9027000D01*
X15999119Y9027000D01*
X15921690Y9019374D01*
X15822350Y8989239D01*
X15730798Y8940304D01*
X15650552Y8874448D01*
X15634049Y8854339D01*
X14970662Y8190951D01*
X14950553Y8174448D01*
X14893061Y8104394D01*
X14884696Y8094201D01*
X14835761Y8002649D01*
X14805626Y7903309D01*
X14802511Y7871684D01*
X14801095Y7871545D01*
X14730030Y7849988D01*
X14690000Y7828591D01*
X14649970Y7849988D01*
X14578905Y7871545D01*
X14505000Y7878824D01*
X13605000Y7878824D01*
X13531095Y7871545D01*
X13460030Y7849988D01*
X13420000Y7828591D01*
X13379970Y7849988D01*
X13308905Y7871545D01*
X13235000Y7878824D01*
X12335000Y7878824D01*
X12261095Y7871545D01*
X12190030Y7849988D01*
X12150000Y7828591D01*
X12109970Y7849988D01*
X12038905Y7871545D01*
X11965000Y7878824D01*
X11069113Y7878824D01*
X13854339Y10664049D01*
X13874448Y10680552D01*
X13940304Y10760798D01*
X13989239Y10852350D01*
X14019374Y10951690D01*
X14024625Y11005000D01*
X14029549Y11054999D01*
X14027000Y11080880D01*
X14027000Y13500000D01*
X16116928Y13500000D01*
X16129188Y13375518D01*
X16165498Y13255820D01*
X16224463Y13145506D01*
X16303815Y13048815D01*
X16400506Y12969463D01*
X16510820Y12910498D01*
X16630518Y12874188D01*
X16755000Y12861928D01*
X18969250Y12865000D01*
X19128000Y13023750D01*
X19128000Y15873000D01*
X16278750Y15873000D01*
X16120000Y15714250D01*
X16116928Y13500000D01*
X14027000Y13500000D01*
X14027000Y18500000D01*
X16116928Y18500000D01*
X16120000Y16285750D01*
X16278750Y16127000D01*
X19128000Y16127000D01*
X19128000Y18976250D01*
X18969250Y19135000D01*
X16755000Y19138072D01*
X16630518Y19125812D01*
X16510820Y19089502D01*
X16400506Y19030537D01*
X16303815Y18951185D01*
X16224463Y18854494D01*
X16165498Y18744180D01*
X16129188Y18624482D01*
X16116928Y18500000D01*
X14027000Y18500000D01*
X14027000Y19928155D01*
X14103536Y20004691D01*
X14188569Y20131952D01*
X14247141Y20273357D01*
X14277000Y20423472D01*
X14277000Y20576528D01*
X14247141Y20726643D01*
X14188569Y20868048D01*
X14103536Y20995309D01*
X13995309Y21103536D01*
X13868048Y21188569D01*
X13726643Y21247141D01*
X13576528Y21277000D01*
X13423472Y21277000D01*
X13273357Y21247141D01*
X13131952Y21188569D01*
X13004691Y21103536D01*
X12896464Y20995309D01*
X12811431Y20868048D01*
X12752859Y20726643D01*
X12723000Y20576528D01*
X12723000Y20423472D01*
X12752859Y20273357D01*
X12811431Y20131952D01*
X12896464Y20004691D01*
X12973001Y19928154D01*
X12973000Y11273290D01*
X10623824Y8924113D01*
X10623824Y9735000D01*
X10616545Y9808905D01*
X10594988Y9879970D01*
X10573591Y9920000D01*
X10594988Y9960030D01*
X10616545Y10031095D01*
X10623824Y10105000D01*
X10623824Y11005000D01*
X10616545Y11078905D01*
X10594988Y11149970D01*
X10573591Y11190000D01*
X10594988Y11230030D01*
X10616545Y11301095D01*
X10623824Y11375000D01*
X10623824Y12275000D01*
X10616545Y12348905D01*
X10594988Y12419970D01*
X10573591Y12460000D01*
X10594988Y12500030D01*
X10616545Y12571095D01*
X10623824Y12645000D01*
X10623824Y13545000D01*
X10616545Y13618905D01*
X10594988Y13689970D01*
X10573591Y13730000D01*
X10594988Y13770030D01*
X10616545Y13841095D01*
X10623824Y13915000D01*
X10623824Y14815000D01*
X10616545Y14888905D01*
X10594988Y14959970D01*
X10573591Y15000000D01*
X10594988Y15040030D01*
X10616545Y15111095D01*
X10623824Y15185000D01*
X10623824Y16085000D01*
X10616545Y16158905D01*
X10594988Y16229970D01*
X10573591Y16270000D01*
X10594988Y16310030D01*
X10616545Y16381095D01*
X10623824Y16455000D01*
X10623824Y17355000D01*
X10616545Y17428905D01*
X10594988Y17499970D01*
X10573591Y17540000D01*
X10594988Y17580030D01*
X10616545Y17651095D01*
X10623824Y17725000D01*
X10623824Y18625000D01*
X10616545Y18698905D01*
X10594988Y18769970D01*
X10573591Y18810000D01*
X10594988Y18850030D01*
X10616545Y18921095D01*
X10623824Y18995000D01*
X10623824Y19754430D01*
X10696185Y19813815D01*
X10775537Y19910506D01*
X10834502Y20020820D01*
X10870812Y20140518D01*
X10883072Y20265000D01*
X10880000Y20429250D01*
X10721250Y20588000D01*
X9372000Y20588000D01*
X9372000Y20568000D01*
X9118000Y20568000D01*
X9118000Y20588000D01*
X7768750Y20588000D01*
X7610000Y20429250D01*
X7606928Y20265000D01*
X7619188Y20140518D01*
X7655498Y20020820D01*
X7714463Y19910506D01*
X7793815Y19813815D01*
X7866176Y19754430D01*
X7866176Y18995000D01*
X7873455Y18921095D01*
X7895012Y18850030D01*
X7916409Y18810000D01*
X7895012Y18769970D01*
X7873455Y18698905D01*
X7866176Y18625000D01*
X7866176Y17725000D01*
X7873455Y17651095D01*
X7895012Y17580030D01*
X7916409Y17540000D01*
X7895012Y17499970D01*
X7873455Y17428905D01*
X7866176Y17355000D01*
X7866176Y16455000D01*
X7873455Y16381095D01*
X7895012Y16310030D01*
X7916409Y16270000D01*
X7895012Y16229970D01*
X7873455Y16158905D01*
X7866176Y16085000D01*
X7866176Y15185000D01*
X7873455Y15111095D01*
X7895012Y15040030D01*
X7916409Y15000000D01*
X7895012Y14959970D01*
X7873455Y14888905D01*
X7866176Y14815000D01*
X7866176Y13915000D01*
X7873455Y13841095D01*
X7895012Y13770030D01*
X7916409Y13730000D01*
X7895012Y13689970D01*
X7873455Y13618905D01*
X7866176Y13545000D01*
X7866176Y12645000D01*
X7873455Y12571095D01*
X7895012Y12500030D01*
X7916409Y12460000D01*
X7895012Y12419970D01*
X7873455Y12348905D01*
X7866176Y12275000D01*
X7866176Y11375000D01*
X7873455Y11301095D01*
X7895012Y11230030D01*
X7916409Y11190000D01*
X7895012Y11149970D01*
X7873455Y11078905D01*
X7866176Y11005000D01*
X7866176Y10105000D01*
X7873455Y10031095D01*
X7895012Y9960030D01*
X7916409Y9920000D01*
X7895012Y9879970D01*
X7874394Y9812000D01*
X6933291Y9812000D01*
X5814500Y10930789D01*
X5814500Y21165000D01*
X7606928Y21165000D01*
X7610000Y21000750D01*
X7768750Y20842000D01*
X9118000Y20842000D01*
X9118000Y21641250D01*
X9372000Y21641250D01*
X9372000Y20842000D01*
X10721250Y20842000D01*
X10880000Y21000750D01*
X10883072Y21165000D01*
X10870812Y21289482D01*
X10834502Y21409180D01*
X10775537Y21519494D01*
X10696185Y21616185D01*
X10599494Y21695537D01*
X10489180Y21754502D01*
X10369482Y21790812D01*
X10245000Y21803072D01*
X9530750Y21800000D01*
X9372000Y21641250D01*
X9118000Y21641250D01*
X8959250Y21800000D01*
X8245000Y21803072D01*
X8120518Y21790812D01*
X8000820Y21754502D01*
X7890506Y21695537D01*
X7793815Y21616185D01*
X7714463Y21519494D01*
X7655498Y21409180D01*
X7619188Y21289482D01*
X7606928Y21165000D01*
X5814500Y21165000D01*
X5814500Y23354194D01*
X5838244Y23366885D01*
X5928799Y23441201D01*
X6003115Y23531756D01*
X6058336Y23635068D01*
X6092342Y23747169D01*
X6103824Y23863750D01*
X6103824Y24376250D01*
X6092342Y24492831D01*
X6058336Y24604932D01*
X6025102Y24667108D01*
X7546549Y23145661D01*
X7563052Y23125552D01*
X7643298Y23059696D01*
X7734850Y23010761D01*
X7834190Y22980626D01*
X7937500Y22970451D01*
X7963381Y22973000D01*
X9416176Y22973000D01*
X9416176Y22500000D01*
X9423455Y22426095D01*
X9445012Y22355030D01*
X9480019Y22289537D01*
X9527131Y22232131D01*
X9584537Y22185019D01*
X9650030Y22150012D01*
X9721095Y22128455D01*
X9795000Y22121176D01*
X10695000Y22121176D01*
X10768905Y22128455D01*
X10839970Y22150012D01*
X10880000Y22171409D01*
X10920030Y22150012D01*
X10991095Y22128455D01*
X11065000Y22121176D01*
X11965000Y22121176D01*
X12038905Y22128455D01*
X12109970Y22150012D01*
X12150000Y22171409D01*
X12190030Y22150012D01*
X12261095Y22128455D01*
X12335000Y22121176D01*
X13235000Y22121176D01*
X13308905Y22128455D01*
X13379970Y22150012D01*
X13420000Y22171409D01*
X13460030Y22150012D01*
X13531095Y22128455D01*
X13605000Y22121176D01*
X14505000Y22121176D01*
X14578905Y22128455D01*
X14649970Y22150012D01*
X14690000Y22171409D01*
X14730030Y22150012D01*
X14801095Y22128455D01*
X14875000Y22121176D01*
X15775000Y22121176D01*
X15848905Y22128455D01*
X15919970Y22150012D01*
X15960000Y22171409D01*
X16000030Y22150012D01*
X16071095Y22128455D01*
X16145000Y22121176D01*
X17045000Y22121176D01*
X17118905Y22128455D01*
X17189970Y22150012D01*
X17230000Y22171409D01*
X17270030Y22150012D01*
X17341095Y22128455D01*
X17415000Y22121176D01*
X18315000Y22121176D01*
X18388905Y22128455D01*
X18459970Y22150012D01*
X18500000Y22171409D01*
X18540030Y22150012D01*
X18611095Y22128455D01*
X18685000Y22121176D01*
X19585000Y22121176D01*
X19658905Y22128455D01*
X19729970Y22150012D01*
X19770000Y22171409D01*
X19810030Y22150012D01*
X19881095Y22128455D01*
X19955000Y22121176D01*
X20855000Y22121176D01*
X20928905Y22128455D01*
X20999970Y22150012D01*
X21040000Y22171409D01*
X21080030Y22150012D01*
X21151095Y22128455D01*
X21225000Y22121176D01*
X21531091Y22121176D01*
X21504691Y22103536D01*
X21396464Y21995309D01*
X21311431Y21868048D01*
X21252859Y21726643D01*
X21223000Y21576528D01*
X21223000Y21423472D01*
X21252859Y21273357D01*
X21311431Y21131952D01*
X21396464Y21004691D01*
X21504691Y20896464D01*
X21631952Y20811431D01*
X21773357Y20752859D01*
X21923472Y20723000D01*
X22076528Y20723000D01*
X22226643Y20752859D01*
X22368048Y20811431D01*
X22495309Y20896464D01*
X22571845Y20973000D01*
X23489119Y20973000D01*
X23515000Y20970451D01*
X23540881Y20973000D01*
X23618310Y20980626D01*
X23717650Y21010761D01*
X23809202Y21059696D01*
X23889448Y21125552D01*
X23905955Y21145666D01*
X24569339Y21809049D01*
X24589448Y21825552D01*
X24655304Y21905798D01*
X24704239Y21997350D01*
X24734374Y22096690D01*
X24737489Y22128316D01*
X24738905Y22128455D01*
X24809970Y22150012D01*
X24850000Y22171409D01*
X24890030Y22150012D01*
X24958000Y22129394D01*
X24958000Y21703290D01*
X24031711Y20777000D01*
X23923472Y20777000D01*
X23773357Y20747141D01*
X23631952Y20688569D01*
X23504691Y20603536D01*
X23396464Y20495309D01*
X23311431Y20368048D01*
X23252859Y20226643D01*
X23223000Y20076528D01*
X23223000Y19923472D01*
X23252859Y19773357D01*
X23311431Y19631952D01*
X23396464Y19504691D01*
X23504691Y19396464D01*
X23631952Y19311431D01*
X23773357Y19252859D01*
X23923472Y19223000D01*
X24076528Y19223000D01*
X24226643Y19252859D01*
X24368048Y19311431D01*
X24495309Y19396464D01*
X24603536Y19504691D01*
X24688569Y19631952D01*
X24747141Y19773357D01*
X24777000Y19923472D01*
X24777000Y20031711D01*
X25839339Y21094049D01*
X25859448Y21110552D01*
X25925304Y21190798D01*
X25974239Y21282350D01*
X26004374Y21381690D01*
X26005851Y21396691D01*
X26014549Y21484999D01*
X26012000Y21510880D01*
X26012000Y21936593D01*
X26060820Y21910498D01*
X26180518Y21874188D01*
X26305000Y21861928D01*
X26469250Y21865000D01*
X26628000Y22023750D01*
X26628000Y23373000D01*
X26882000Y23373000D01*
X26882000Y22023750D01*
X27040750Y21865000D01*
X27205000Y21861928D01*
X27329482Y21874188D01*
X27449180Y21910498D01*
X27559494Y21969463D01*
X27656185Y22048815D01*
X27735537Y22145506D01*
X27794502Y22255820D01*
X27830812Y22375518D01*
X27843072Y22500000D01*
X27840000Y23214250D01*
X27681250Y23373000D01*
X26882000Y23373000D01*
X26628000Y23373000D01*
X26608000Y23373000D01*
X26608000Y23627000D01*
X26628000Y23627000D01*
X26628000Y24976250D01*
X26882000Y24976250D01*
X26882000Y23627000D01*
X27681250Y23627000D01*
X27840000Y23785750D01*
X27843072Y24500000D01*
X27830812Y24624482D01*
X27794502Y24744180D01*
X27735537Y24854494D01*
X27656185Y24951185D01*
X27559494Y25030537D01*
X27449180Y25089502D01*
X27329482Y25125812D01*
X27205000Y25138072D01*
X27040750Y25135000D01*
X26882000Y24976250D01*
X26628000Y24976250D01*
X26469250Y25135000D01*
X26305000Y25138072D01*
X26180518Y25125812D01*
X26060820Y25089502D01*
X25950506Y25030537D01*
X25853815Y24951185D01*
X25794430Y24878824D01*
X25035000Y24878824D01*
X24961095Y24871545D01*
X24890030Y24849988D01*
X24850000Y24828591D01*
X24809970Y24849988D01*
X24738905Y24871545D01*
X24665000Y24878824D01*
X24397514Y24878824D01*
X24454427Y24925531D01*
X24470934Y24945645D01*
X25867895Y26342604D01*
X25922097Y26320153D01*
X26159151Y26273000D01*
X26400849Y26273000D01*
X26637903Y26320153D01*
X26861202Y26412647D01*
X27062167Y26546927D01*
X27233073Y26717833D01*
X27367353Y26918798D01*
X27459847Y27142097D01*
X27507000Y27379151D01*
X27507000Y27620849D01*
X27459847Y27857903D01*
X27367353Y28081202D01*
X27233073Y28282167D01*
X27062167Y28453073D01*
X26861202Y28587353D01*
X26637903Y28679847D01*
X26400849Y28727000D01*
X26159151Y28727000D01*
X25922097Y28679847D01*
X25698798Y28587353D01*
X25497833Y28453073D01*
X25326927Y28282167D01*
X25192647Y28081202D01*
X25100153Y27857903D01*
X25053000Y27620849D01*
X25053000Y27379151D01*
X25100153Y27142097D01*
X25122604Y27087895D01*
X23861690Y25826979D01*
X22812268Y25826979D01*
X23327895Y26342605D01*
X23382097Y26320153D01*
X23619151Y26273000D01*
X23860849Y26273000D01*
X24097903Y26320153D01*
X24321202Y26412647D01*
X24522167Y26546927D01*
X24693073Y26717833D01*
X24827353Y26918798D01*
X24919847Y27142097D01*
X24967000Y27379151D01*
X24967000Y27620849D01*
X24919847Y27857903D01*
X24827353Y28081202D01*
X24693073Y28282167D01*
X24522167Y28453073D01*
X24321202Y28587353D01*
X24097903Y28679847D01*
X23860849Y28727000D01*
X23619151Y28727000D01*
X23382097Y28679847D01*
X23158798Y28587353D01*
X22957833Y28453073D01*
X22786927Y28282167D01*
X22652647Y28081202D01*
X22560153Y27857903D01*
X22513000Y27620849D01*
X22513000Y27379151D01*
X22560153Y27142097D01*
X22582605Y27087895D01*
X21821700Y26326989D01*
X21574406Y26326989D01*
X21781202Y26412647D01*
X21982167Y26546927D01*
X22153073Y26717833D01*
X22287353Y26918798D01*
X22379847Y27142097D01*
X22427000Y27379151D01*
X22427000Y27620849D01*
X22379847Y27857903D01*
X22287353Y28081202D01*
X22153073Y28282167D01*
X21982167Y28453073D01*
X21781202Y28587353D01*
X21557903Y28679847D01*
X21320849Y28727000D01*
X21079151Y28727000D01*
X20842097Y28679847D01*
X20618798Y28587353D01*
X20417833Y28453073D01*
X20246927Y28282167D01*
X20112647Y28081202D01*
X20020153Y27857903D01*
X19973000Y27620849D01*
X19973000Y27379151D01*
X20020153Y27142097D01*
X20042605Y27087894D01*
X19781710Y26826999D01*
X19686015Y26826999D01*
X19747353Y26918798D01*
X19839847Y27142097D01*
X19887000Y27379151D01*
X19887000Y27620849D01*
X19839847Y27857903D01*
X19747353Y28081202D01*
X19613073Y28282167D01*
X19442167Y28453073D01*
X19241202Y28587353D01*
X19017903Y28679847D01*
X18780849Y28727000D01*
X18539151Y28727000D01*
X18302097Y28679847D01*
X18078798Y28587353D01*
X17877833Y28453073D01*
X17706927Y28282167D01*
X17572647Y28081202D01*
X17480153Y27857903D01*
X17433000Y27620849D01*
X17433000Y27379151D01*
X17480153Y27142097D01*
X17572647Y26918798D01*
X17633985Y26826999D01*
X17146015Y26826999D01*
X17207353Y26918798D01*
X17299847Y27142097D01*
X17347000Y27379151D01*
X17347000Y27620849D01*
X17299847Y27857903D01*
X17207353Y28081202D01*
X17073073Y28282167D01*
X16902167Y28453073D01*
X16701202Y28587353D01*
X16477903Y28679847D01*
X16240849Y28727000D01*
X15999151Y28727000D01*
X15762097Y28679847D01*
X15538798Y28587353D01*
X15337833Y28453073D01*
X15166927Y28282167D01*
X15032647Y28081202D01*
X14940153Y27857903D01*
X14893000Y27620849D01*
X14893000Y27379151D01*
X14940153Y27142097D01*
X15032647Y26918798D01*
X15093985Y26826999D01*
X14606015Y26826999D01*
X14667353Y26918798D01*
X14759847Y27142097D01*
X14807000Y27379151D01*
X14807000Y27620849D01*
X14759847Y27857903D01*
X14667353Y28081202D01*
X14533073Y28282167D01*
X14362167Y28453073D01*
X14161202Y28587353D01*
X13937903Y28679847D01*
X13700849Y28727000D01*
X13459151Y28727000D01*
X13222097Y28679847D01*
X12998798Y28587353D01*
X12797833Y28453073D01*
X12626927Y28282167D01*
X12492647Y28081202D01*
X12443769Y27963202D01*
X12384157Y28131252D01*
X12235178Y28381355D01*
X12040269Y28597588D01*
X11806920Y28771641D01*
X11544099Y28896825D01*
X11396890Y28941476D01*
X11167000Y28820155D01*
X11167000Y27627000D01*
X11187000Y27627000D01*
X11187000Y27373000D01*
X11167000Y27373000D01*
X11167000Y26179845D01*
X11396890Y26058524D01*
X11544099Y26103175D01*
X11806920Y26228359D01*
X12040269Y26402412D01*
X12235178Y26618645D01*
X12384157Y26868748D01*
X12443769Y27036798D01*
X12492647Y26918798D01*
X12626927Y26717833D01*
X12797833Y26546927D01*
X12998798Y26412647D01*
X13222097Y26320153D01*
X13459151Y26273000D01*
X13512710Y26273000D01*
X12430666Y25190955D01*
X12410552Y25174448D01*
X12344696Y25094202D01*
X12323743Y25055000D01*
X12295761Y25002649D01*
X12265626Y24903309D01*
X12262511Y24871684D01*
X12261095Y24871545D01*
X12190030Y24849988D01*
X12150000Y24828591D01*
X12109970Y24849988D01*
X12038905Y24871545D01*
X11965000Y24878824D01*
X11065000Y24878824D01*
X10991095Y24871545D01*
X10920030Y24849988D01*
X10880000Y24828591D01*
X10839970Y24849988D01*
X10768905Y24871545D01*
X10695000Y24878824D01*
X9795000Y24878824D01*
X9721095Y24871545D01*
X9650030Y24849988D01*
X9584537Y24814981D01*
X9527131Y24767869D01*
X9480019Y24710463D01*
X9445012Y24644970D01*
X9423455Y24573905D01*
X9416176Y24500000D01*
X9416176Y24027000D01*
X8155790Y24027000D01*
X6103824Y26078965D01*
X6103824Y26406250D01*
X6092342Y26522831D01*
X6058336Y26634932D01*
X6003115Y26738244D01*
X5928799Y26828799D01*
X5838244Y26903115D01*
X5734932Y26958336D01*
X5622831Y26992342D01*
X5506250Y27003824D01*
X5068750Y27003824D01*
X4952169Y26992342D01*
X4840068Y26958336D01*
X4736756Y26903115D01*
X4646201Y26828799D01*
X4571885Y26738244D01*
X4516664Y26634932D01*
X4500000Y26579999D01*
X4483336Y26634932D01*
X4428115Y26738244D01*
X4353799Y26828799D01*
X4263244Y26903115D01*
X4159932Y26958336D01*
X4047831Y26992342D01*
X3931250Y27003824D01*
X3493750Y27003824D01*
X3377169Y26992342D01*
X3265068Y26958336D01*
X3161756Y26903115D01*
X3071201Y26828799D01*
X2996885Y26738244D01*
X2943416Y26638210D01*
X2868048Y26688569D01*
X2726643Y26747141D01*
X2576528Y26777000D01*
X2423472Y26777000D01*
X2273357Y26747141D01*
X2131952Y26688569D01*
X2004691Y26603536D01*
X1896464Y26495309D01*
X1811431Y26368048D01*
X1752859Y26226643D01*
X1723000Y26076528D01*
X1723000Y25923472D01*
X1752859Y25773357D01*
X1811431Y25631952D01*
X1896464Y25504691D01*
X2004691Y25396464D01*
X2131952Y25311431D01*
X2273357Y25252859D01*
X2423472Y25223000D01*
X2576528Y25223000D01*
X2726643Y25252859D01*
X2868048Y25311431D01*
X2995309Y25396464D01*
X3070680Y25471835D01*
X3071201Y25471201D01*
X3161756Y25396885D01*
X3265068Y25341664D01*
X3377169Y25307658D01*
X3493750Y25296176D01*
X3931250Y25296176D01*
X4047831Y25307658D01*
X4159932Y25341664D01*
X4263244Y25396885D01*
X4353799Y25471201D01*
X4428115Y25561756D01*
X4483336Y25665068D01*
X4500000Y25720001D01*
X4516664Y25665068D01*
X4571885Y25561756D01*
X4646201Y25471201D01*
X4736756Y25396885D01*
X4840068Y25341664D01*
X4952169Y25307658D01*
X5068750Y25296176D01*
X5396035Y25296176D01*
X5797108Y24895102D01*
X5734932Y24928336D01*
X5622831Y24962342D01*
X5506250Y24973824D01*
X5068750Y24973824D01*
X4952169Y24962342D01*
X4840068Y24928336D01*
X4736756Y24873115D01*
X4646201Y24798799D01*
X4571885Y24708244D01*
X4516664Y24604932D01*
X4500000Y24549999D01*
X4483336Y24604932D01*
X4428115Y24708244D01*
X4353799Y24798799D01*
X4263244Y24873115D01*
X4159932Y24928336D01*
X4047831Y24962342D01*
X3931250Y24973824D01*
X3493750Y24973824D01*
X3377169Y24962342D01*
X3265068Y24928336D01*
X3161756Y24873115D01*
X3071201Y24798799D01*
X2996885Y24708244D01*
X2964150Y24647000D01*
X2930260Y24647000D01*
X2868048Y24688569D01*
X2726643Y24747141D01*
X2576528Y24777000D01*
X2423472Y24777000D01*
X2273357Y24747141D01*
X2131952Y24688569D01*
X2004691Y24603536D01*
X1896464Y24495309D01*
X1811431Y24368048D01*
X1752859Y24226643D01*
X1723000Y24076528D01*
X1723000Y23923472D01*
X1752859Y23773357D01*
X1811431Y23631952D01*
X1896464Y23504691D01*
X2004691Y23396464D01*
X2131952Y23311431D01*
X2273357Y23252859D01*
X2423472Y23223000D01*
X2576528Y23223000D01*
X2726643Y23252859D01*
X2868048Y23311431D01*
X2995309Y23396464D01*
X3057158Y23458313D01*
X3071201Y23441201D01*
X3161756Y23366885D01*
X3265068Y23311664D01*
X3377169Y23277658D01*
X3493750Y23266176D01*
X3931250Y23266176D01*
X4047831Y23277658D01*
X4159932Y23311664D01*
X4263244Y23366885D01*
X4353799Y23441201D01*
X4428115Y23531756D01*
X4483336Y23635068D01*
X4500000Y23690001D01*
X4516664Y23635068D01*
X4571885Y23531756D01*
X4646201Y23441201D01*
X4736756Y23366885D01*
X4760500Y23354194D01*
X4760501Y15321856D01*
X4597588Y15540269D01*
X4381355Y15735178D01*
X4131252Y15884157D01*
X3963202Y15943769D01*
X4081202Y15992647D01*
X4282167Y16126927D01*
X4453073Y16297833D01*
X4587353Y16498798D01*
X4679847Y16722097D01*
X4727000Y16959151D01*
X4727000Y17200849D01*
X4679847Y17437903D01*
X4587353Y17661202D01*
X4453073Y17862167D01*
X4282167Y18033073D01*
X4081202Y18167353D01*
X3857903Y18259847D01*
X3620849Y18307000D01*
X3379151Y18307000D01*
X3142097Y18259847D01*
X2918798Y18167353D01*
X2717833Y18033073D01*
X2546927Y17862167D01*
X2412647Y17661202D01*
X2320153Y17437903D01*
X2273000Y17200849D01*
X2273000Y16959151D01*
X2320153Y16722097D01*
X2412647Y16498798D01*
X2546927Y16297833D01*
X2717833Y16126927D01*
X2918798Y15992647D01*
X3036798Y15943769D01*
X2868748Y15884157D01*
X2618645Y15735178D01*
X2402412Y15540269D01*
X2228359Y15306920D01*
X2103175Y15044099D01*
X2058524Y14896890D01*
X2179845Y14667000D01*
X3373000Y14667000D01*
X3373000Y14687000D01*
X3627000Y14687000D01*
X3627000Y14667000D01*
X3647000Y14667000D01*
X3647000Y14413000D01*
X3627000Y14413000D01*
X3627000Y14393000D01*
X3373000Y14393000D01*
X3373000Y14413000D01*
X2179845Y14413000D01*
X2058524Y14183110D01*
X2103175Y14035901D01*
X2228359Y13773080D01*
X2402412Y13539731D01*
X2618645Y13344822D01*
X2813380Y13228824D01*
X2650000Y13228824D01*
X2576095Y13221545D01*
X2505030Y13199988D01*
X2439537Y13164981D01*
X2382131Y13117869D01*
X2335019Y13060463D01*
X2300012Y12994970D01*
X2278455Y12923905D01*
X2271176Y12850000D01*
X2271176Y11150000D01*
X2278455Y11076095D01*
X2300012Y11005030D01*
X2335019Y10939537D01*
X2382131Y10882131D01*
X2439537Y10835019D01*
X2505030Y10800012D01*
X2576095Y10778455D01*
X2650000Y10771176D01*
X2973001Y10771176D01*
X2973001Y10505792D01*
X2571034Y10103824D01*
X2243750Y10103824D01*
X2127169Y10092342D01*
X2015068Y10058336D01*
X1911756Y10003115D01*
X1821201Y9928799D01*
X1746885Y9838244D01*
X1691664Y9734932D01*
X1657658Y9622831D01*
X1646176Y9506250D01*
X1646176Y9068750D01*
X1657658Y8952169D01*
X1691664Y8840068D01*
X1746885Y8736756D01*
X1821201Y8646201D01*
X1911756Y8571885D01*
X2015068Y8516664D01*
X2070001Y8500000D01*
X2015068Y8483336D01*
X1911756Y8428115D01*
X1821201Y8353799D01*
X1746885Y8263244D01*
X1691664Y8159932D01*
X1657658Y8047831D01*
X1646176Y7931250D01*
X1646176Y7493750D01*
X1657658Y7377169D01*
X1691664Y7265068D01*
X1746885Y7161756D01*
X1821201Y7071201D01*
X1911756Y6996885D01*
X1973001Y6964149D01*
X1973000Y5778824D01*
X1250000Y5778824D01*
X1176095Y5771545D01*
X1105030Y5749988D01*
X1039537Y5714981D01*
X982131Y5667869D01*
X935019Y5610463D01*
X900012Y5544970D01*
X878455Y5473905D01*
X871176Y5400000D01*
X871176Y3600000D01*
X878455Y3526095D01*
X900012Y3455030D01*
X935019Y3389537D01*
X982131Y3332131D01*
X1039537Y3285019D01*
X1105030Y3250012D01*
X1176095Y3228455D01*
X1250000Y3221176D01*
X1973001Y3221176D01*
X1973000Y2071845D01*
X1896464Y1995309D01*
X1811431Y1868048D01*
X1752859Y1726643D01*
X1723000Y1576528D01*
X1723000Y1423472D01*
X1752859Y1273357D01*
X1811431Y1131952D01*
X1896464Y1004691D01*
X2004691Y896464D01*
X2131952Y811431D01*
X2273357Y752859D01*
X2423472Y723000D01*
X2576528Y723000D01*
X2726643Y752859D01*
X2868048Y811431D01*
X2995309Y896464D01*
X3103536Y1004691D01*
X3188569Y1131952D01*
X3247141Y1273357D01*
X3277000Y1423472D01*
X3277000Y1576528D01*
X3247141Y1726643D01*
X3188569Y1868048D01*
X3103536Y1995309D01*
X3027000Y2071845D01*
X3027000Y3221176D01*
X3750000Y3221176D01*
X3823905Y3228455D01*
X3894970Y3250012D01*
X3960463Y3285019D01*
X4017869Y3332131D01*
X4064981Y3389537D01*
X4099988Y3455030D01*
X4121545Y3526095D01*
X4128824Y3600000D01*
X4611928Y3600000D01*
X4624188Y3475518D01*
X4660498Y3355820D01*
X4719463Y3245506D01*
X4798815Y3148815D01*
X4895506Y3069463D01*
X5005820Y3010498D01*
X5125518Y2974188D01*
X5250000Y2961928D01*
X6214250Y2965000D01*
X6373000Y3123750D01*
X6373000Y4373000D01*
X6627000Y4373000D01*
X6627000Y3123750D01*
X6785750Y2965000D01*
X7750000Y2961928D01*
X7874482Y2974188D01*
X7994180Y3010498D01*
X8104494Y3069463D01*
X8201185Y3148815D01*
X8280537Y3245506D01*
X8339502Y3355820D01*
X8375812Y3475518D01*
X8388072Y3600000D01*
X8387414Y3731750D01*
X8440000Y3731750D01*
X8598750Y3573000D01*
X9673000Y3573000D01*
X9673000Y4176250D01*
X9927000Y4176250D01*
X9927000Y3573000D01*
X11001250Y3573000D01*
X11160000Y3731750D01*
X11148844Y3833996D01*
X11110715Y3953127D01*
X11050078Y4062531D01*
X10969263Y4158003D01*
X10871375Y4235874D01*
X10760175Y4293151D01*
X10639939Y4327634D01*
X10515285Y4337998D01*
X10085750Y4335000D01*
X9927000Y4176250D01*
X9673000Y4176250D01*
X9514250Y4335000D01*
X9084715Y4337998D01*
X8960061Y4327634D01*
X8839825Y4293151D01*
X8728625Y4235874D01*
X8630737Y4158003D01*
X8549922Y4062531D01*
X8489285Y3953127D01*
X8451156Y3833996D01*
X8440000Y3731750D01*
X8387414Y3731750D01*
X8385000Y4214250D01*
X8226250Y4373000D01*
X6627000Y4373000D01*
X6373000Y4373000D01*
X4773750Y4373000D01*
X4615000Y4214250D01*
X4611928Y3600000D01*
X4128824Y3600000D01*
X4128824Y5400000D01*
X4611928Y5400000D01*
X4615000Y4785750D01*
X4773750Y4627000D01*
X6373000Y4627000D01*
X6373000Y5876250D01*
X6627000Y5876250D01*
X6627000Y4627000D01*
X8226250Y4627000D01*
X8385000Y4785750D01*
X8388072Y5400000D01*
X8375812Y5524482D01*
X8339502Y5644180D01*
X8280537Y5754494D01*
X8201185Y5851185D01*
X8104494Y5930537D01*
X7994180Y5989502D01*
X7874482Y6025812D01*
X7750000Y6038072D01*
X6785750Y6035000D01*
X6627000Y5876250D01*
X6373000Y5876250D01*
X6214250Y6035000D01*
X5250000Y6038072D01*
X5125518Y6025812D01*
X5005820Y5989502D01*
X4895506Y5930537D01*
X4798815Y5851185D01*
X4719463Y5754494D01*
X4660498Y5644180D01*
X4624188Y5524482D01*
X4611928Y5400000D01*
X4128824Y5400000D01*
X4121545Y5473905D01*
X4099988Y5544970D01*
X4064981Y5610463D01*
X4017869Y5667869D01*
X3960463Y5714981D01*
X3894970Y5749988D01*
X3823905Y5771545D01*
X3750000Y5778824D01*
X3027000Y5778824D01*
X3027000Y6964150D01*
X3088244Y6996885D01*
X3178799Y7071201D01*
X3253115Y7161756D01*
X3308336Y7265068D01*
X3342342Y7377169D01*
X3353824Y7493750D01*
X3353824Y7931250D01*
X3342342Y8047831D01*
X3308336Y8159932D01*
X3253115Y8263244D01*
X3178799Y8353799D01*
X3088244Y8428115D01*
X2984932Y8483336D01*
X2929999Y8500000D01*
X2984932Y8516664D01*
X3088244Y8571885D01*
X3178799Y8646201D01*
X3253115Y8736756D01*
X3308336Y8840068D01*
X3342342Y8952169D01*
X3353824Y9068750D01*
X3353824Y9396034D01*
X3854344Y9896553D01*
X3874448Y9913052D01*
X3940304Y9993298D01*
X3989239Y10084850D01*
X4019374Y10184190D01*
X4027000Y10261619D01*
X4029549Y10287500D01*
X4027000Y10313381D01*
X4027000Y10771176D01*
X4350000Y10771176D01*
X4423905Y10778455D01*
X4494970Y10800012D01*
X4560463Y10835019D01*
X4617869Y10882131D01*
X4664981Y10939537D01*
X4699988Y11005030D01*
X4721545Y11076095D01*
X4728824Y11150000D01*
X4728824Y12850000D01*
X4721545Y12923905D01*
X4699988Y12994970D01*
X4664981Y13060463D01*
X4617869Y13117869D01*
X4560463Y13164981D01*
X4494970Y13199988D01*
X4423905Y13221545D01*
X4350000Y13228824D01*
X4186620Y13228824D01*
X4381355Y13344822D01*
X4597588Y13539731D01*
X4760501Y13758145D01*
X4760501Y10738391D01*
X4757951Y10712500D01*
X4768126Y10609191D01*
X4798261Y10509851D01*
X4798262Y10509850D01*
X4847197Y10418298D01*
X4913053Y10338052D01*
X4933162Y10321549D01*
X6324053Y8930656D01*
X6340552Y8910552D01*
X6420798Y8844696D01*
X6512350Y8795761D01*
X6517493Y8794201D01*
X6611690Y8765626D01*
X6715000Y8755451D01*
X6740881Y8758000D01*
X7874394Y8758000D01*
X7895012Y8690030D01*
X7930019Y8624537D01*
X7977131Y8567131D01*
X8034537Y8520019D01*
X8100030Y8485012D01*
X8171095Y8463455D01*
X8245000Y8456176D01*
X10155887Y8456176D01*
X9890662Y8190951D01*
X9870553Y8174448D01*
X9813061Y8104394D01*
X9804696Y8094201D01*
X9755761Y8002649D01*
X9725626Y7903309D01*
X9722511Y7871684D01*
X9721095Y7871545D01*
X9650030Y7849988D01*
X9584537Y7814981D01*
X9527131Y7767869D01*
X9480019Y7710463D01*
X9445012Y7644970D01*
X9423455Y7573905D01*
X9416176Y7500000D01*
X9416176Y5500000D01*
X9423455Y5426095D01*
X9445012Y5355030D01*
X9480019Y5289537D01*
X9527131Y5232131D01*
X9584537Y5185019D01*
X9650030Y5150012D01*
X9721095Y5128455D01*
X9795000Y5121176D01*
X10695000Y5121176D01*
X10768905Y5128455D01*
X10839970Y5150012D01*
X10880000Y5171409D01*
X10920030Y5150012D01*
X10991095Y5128455D01*
X10992511Y5128316D01*
X10995626Y5096691D01*
X11025761Y4997351D01*
X11074696Y4905799D01*
X11074697Y4905798D01*
X11140553Y4825552D01*
X11160661Y4809050D01*
X11274045Y4695665D01*
X11290549Y4675555D01*
X11370795Y4609699D01*
X11462347Y4560764D01*
X11545610Y4535506D01*
X11561687Y4530629D01*
X11664997Y4520454D01*
X11690878Y4523003D01*
X12752135Y4523003D01*
X12723000Y4376530D01*
X12723000Y4265877D01*
X12693060Y4229395D01*
X12684695Y4219202D01*
X12635760Y4127650D01*
X12605625Y4028310D01*
X12595450Y3925001D01*
X12598000Y3899111D01*
X12597999Y2900882D01*
X12595450Y2875001D01*
X12597999Y2849121D01*
X12605625Y2771692D01*
X12635760Y2672352D01*
X12684695Y2580799D01*
X12750551Y2500553D01*
X12770665Y2484046D01*
X12784045Y2470666D01*
X12800552Y2450552D01*
X12880798Y2384696D01*
X12972350Y2335761D01*
X13071690Y2305626D01*
X13096176Y2303214D01*
X13096176Y1950000D01*
X13103455Y1876095D01*
X13111371Y1850000D01*
X13103455Y1823905D01*
X13096176Y1750000D01*
X13096176Y1300000D01*
X13103455Y1226095D01*
X13125012Y1155030D01*
X13160019Y1089537D01*
X13207131Y1032131D01*
X13264537Y985019D01*
X13330030Y950012D01*
X13401095Y928455D01*
X13475000Y921176D01*
X14057014Y921176D01*
X14066562Y909542D01*
X14146808Y843686D01*
X14238360Y794751D01*
X14301976Y775453D01*
X14337700Y764616D01*
X14441010Y754441D01*
X14466891Y756990D01*
X17764109Y756990D01*
X17789990Y754441D01*
X17815871Y756990D01*
X17893300Y764616D01*
X17992640Y794751D01*
X18084192Y843686D01*
X18164438Y909542D01*
X18180945Y929656D01*
X18506465Y1255176D01*
X18902500Y1255176D01*
X19022739Y1267018D01*
X19138357Y1302091D01*
X19244911Y1359045D01*
X19338307Y1435693D01*
X19414955Y1529089D01*
X19443236Y1582000D01*
X19536764Y1582000D01*
X19565045Y1529089D01*
X19641693Y1435693D01*
X19735089Y1359045D01*
X19841643Y1302091D01*
X19957261Y1267018D01*
X20077500Y1255176D01*
X20652500Y1255176D01*
X20772739Y1267018D01*
X20888357Y1302091D01*
X20994911Y1359045D01*
X21010229Y1371616D01*
X21059463Y1279506D01*
X21138815Y1182815D01*
X21235506Y1103463D01*
X21345820Y1044498D01*
X21465518Y1008188D01*
X21590000Y995928D01*
X21829250Y999000D01*
X21988000Y1157750D01*
X21988000Y1982000D01*
X22242000Y1982000D01*
X22242000Y1157750D01*
X22400750Y999000D01*
X22640000Y995928D01*
X22764482Y1008188D01*
X22884180Y1044498D01*
X22994494Y1103463D01*
X23091185Y1182815D01*
X23170537Y1279506D01*
X23229502Y1389820D01*
X23265812Y1509518D01*
X23278072Y1634000D01*
X23275000Y1823250D01*
X23116250Y1982000D01*
X22242000Y1982000D01*
X21988000Y1982000D01*
X21968000Y1982000D01*
X21968000Y2236000D01*
X21988000Y2236000D01*
X21988000Y3060250D01*
X22242000Y3060250D01*
X22242000Y2236000D01*
X23116250Y2236000D01*
X23275000Y2394750D01*
X23278072Y2584000D01*
X23265812Y2708482D01*
X23229502Y2828180D01*
X23170537Y2938494D01*
X23091185Y3035185D01*
X22994494Y3114537D01*
X22884180Y3173502D01*
X22764482Y3209812D01*
X22640000Y3222072D01*
X22400750Y3219000D01*
X22242000Y3060250D01*
X21988000Y3060250D01*
X21829250Y3219000D01*
X21590000Y3222072D01*
X21465518Y3209812D01*
X21345820Y3173502D01*
X21235506Y3114537D01*
X21138815Y3035185D01*
X21059463Y2938494D01*
X21010229Y2846384D01*
X20994911Y2858955D01*
X20888357Y2915909D01*
X20772739Y2950982D01*
X20652500Y2962824D01*
X20077500Y2962824D01*
X19957261Y2950982D01*
X19841643Y2915909D01*
X19735089Y2858955D01*
X19641693Y2782307D01*
X19565045Y2688911D01*
X19536764Y2636000D01*
X19443236Y2636000D01*
X19414955Y2688911D01*
X19338307Y2782307D01*
X19244911Y2858955D01*
X19138357Y2915909D01*
X19022739Y2950982D01*
X18902500Y2962824D01*
X18464114Y2962824D01*
X18647466Y3146176D01*
X18662500Y3146176D01*
X18782739Y3158018D01*
X18898357Y3193091D01*
X19004911Y3250045D01*
X19098307Y3326693D01*
X19174955Y3420089D01*
X19203236Y3473000D01*
X19428155Y3473000D01*
X19504691Y3396464D01*
X19631952Y3311431D01*
X19773357Y3252859D01*
X19923472Y3223000D01*
X20076528Y3223000D01*
X20226643Y3252859D01*
X20368048Y3311431D01*
X20495309Y3396464D01*
X20603536Y3504691D01*
X20688569Y3631952D01*
X20747141Y3773357D01*
X20777000Y3923472D01*
X20777000Y4076528D01*
X20747141Y4226643D01*
X20688569Y4368048D01*
X20603536Y4495309D01*
X20575842Y4523003D01*
X27370391Y4523003D01*
X27407579Y4520936D01*
X27447825Y4526641D01*
X27488315Y4530629D01*
X27499156Y4533918D01*
X27510361Y4535506D01*
X27548730Y4548956D01*
X27587655Y4560764D01*
X27597640Y4566101D01*
X27608326Y4569847D01*
X27643331Y4590523D01*
X27679207Y4609699D01*
X27708019Y4633344D01*
X28098001Y4918697D01*
X28098001Y402000D01*
X8747866Y402000D01*
X8777000Y548472D01*
X8777000Y701528D01*
X8768649Y743510D01*
X8839825Y706849D01*
X8960061Y672366D01*
X9084715Y662002D01*
X9514250Y665000D01*
X9673000Y823750D01*
X9673000Y1427000D01*
X9927000Y1427000D01*
X9927000Y823750D01*
X10085750Y665000D01*
X10515285Y662002D01*
X10639939Y672366D01*
X10760175Y706849D01*
X10871375Y764126D01*
X10969263Y841997D01*
X11050078Y937469D01*
X11110715Y1046873D01*
X11148844Y1166004D01*
X11160000Y1268250D01*
X11001250Y1427000D01*
X9927000Y1427000D01*
X9673000Y1427000D01*
X9653000Y1427000D01*
X9653000Y1571176D01*
X10525000Y1571176D01*
X10598905Y1578455D01*
X10669970Y1600012D01*
X10712977Y1623000D01*
X11001250Y1623000D01*
X11160000Y1781750D01*
X11148844Y1883996D01*
X11110715Y2003127D01*
X11050078Y2112531D01*
X10969263Y2208003D01*
X10903824Y2260060D01*
X10903824Y2400000D01*
X10896545Y2473905D01*
X10888629Y2500000D01*
X10896545Y2526095D01*
X10903824Y2600000D01*
X10903824Y2739940D01*
X10969263Y2791997D01*
X11050078Y2887469D01*
X11110715Y2996873D01*
X11148844Y3116004D01*
X11160000Y3218250D01*
X11001250Y3377000D01*
X10712977Y3377000D01*
X10669970Y3399988D01*
X10598905Y3421545D01*
X10525000Y3428824D01*
X9075000Y3428824D01*
X9001095Y3421545D01*
X8930030Y3399988D01*
X8887023Y3377000D01*
X8598750Y3377000D01*
X8440000Y3218250D01*
X8451156Y3116004D01*
X8489285Y2996873D01*
X8549922Y2887469D01*
X8630737Y2791997D01*
X8696176Y2739940D01*
X8696176Y2672984D01*
X8667348Y2664239D01*
X8575796Y2615304D01*
X8495550Y2549448D01*
X8479047Y2529339D01*
X7645662Y1695953D01*
X7625553Y1679450D01*
X7583583Y1628309D01*
X7559696Y1599203D01*
X7510761Y1507651D01*
X7480626Y1408311D01*
X7470451Y1305002D01*
X7473000Y1279121D01*
X7473000Y1196845D01*
X7396464Y1120309D01*
X7311431Y993048D01*
X7252859Y851643D01*
X7223000Y701528D01*
X7223000Y548472D01*
X7252134Y402000D01*
X402000Y402000D01*
X402000Y19740849D01*
X2273000Y19740849D01*
X2273000Y19499151D01*
X2320153Y19262097D01*
X2412647Y19038798D01*
X2546927Y18837833D01*
X2717833Y18666927D01*
X2918798Y18532647D01*
X3142097Y18440153D01*
X3379151Y18393000D01*
X3620849Y18393000D01*
X3857903Y18440153D01*
X4081202Y18532647D01*
X4282167Y18666927D01*
X4453073Y18837833D01*
X4587353Y19038798D01*
X4679847Y19262097D01*
X4727000Y19499151D01*
X4727000Y19740849D01*
X4679847Y19977903D01*
X4587353Y20201202D01*
X4453073Y20402167D01*
X4282167Y20573073D01*
X4081202Y20707353D01*
X3857903Y20799847D01*
X3620849Y20847000D01*
X3379151Y20847000D01*
X3142097Y20799847D01*
X2918798Y20707353D01*
X2717833Y20573073D01*
X2546927Y20402167D01*
X2412647Y20201202D01*
X2320153Y19977903D01*
X2273000Y19740849D01*
X402000Y19740849D01*
X402000Y28076528D01*
X1723000Y28076528D01*
X1723000Y27923472D01*
X1752859Y27773357D01*
X1811431Y27631952D01*
X1896464Y27504691D01*
X2004691Y27396464D01*
X2131952Y27311431D01*
X2273357Y27252859D01*
X2423472Y27223000D01*
X2576528Y27223000D01*
X2726643Y27252859D01*
X2868048Y27311431D01*
X2995309Y27396464D01*
X3003068Y27404223D01*
X3071201Y27321201D01*
X3161756Y27246885D01*
X3265068Y27191664D01*
X3377169Y27157658D01*
X3493750Y27146176D01*
X3931250Y27146176D01*
X4047831Y27157658D01*
X4159932Y27191664D01*
X4263244Y27246885D01*
X4353799Y27321201D01*
X4428115Y27411756D01*
X4483336Y27515068D01*
X4500000Y27570001D01*
X4516664Y27515068D01*
X4571885Y27411756D01*
X4646201Y27321201D01*
X4736756Y27246885D01*
X4840068Y27191664D01*
X4952169Y27157658D01*
X5068750Y27146176D01*
X5506250Y27146176D01*
X5622831Y27157658D01*
X5734932Y27191664D01*
X5838244Y27246885D01*
X5928799Y27321201D01*
X6003115Y27411756D01*
X6035850Y27473000D01*
X7271176Y27473000D01*
X7271176Y26650000D01*
X7278455Y26576095D01*
X7300012Y26505030D01*
X7335019Y26439537D01*
X7382131Y26382131D01*
X7439537Y26335019D01*
X7505030Y26300012D01*
X7576095Y26278455D01*
X7650000Y26271176D01*
X9350000Y26271176D01*
X9423905Y26278455D01*
X9494970Y26300012D01*
X9560463Y26335019D01*
X9617869Y26382131D01*
X9664981Y26439537D01*
X9699988Y26505030D01*
X9721545Y26576095D01*
X9728824Y26650000D01*
X9728824Y26813380D01*
X9844822Y26618645D01*
X10039731Y26402412D01*
X10273080Y26228359D01*
X10535901Y26103175D01*
X10683110Y26058524D01*
X10913000Y26179845D01*
X10913000Y27373000D01*
X10893000Y27373000D01*
X10893000Y27627000D01*
X10913000Y27627000D01*
X10913000Y28820155D01*
X10683110Y28941476D01*
X10535901Y28896825D01*
X10273080Y28771641D01*
X10039731Y28597588D01*
X9844822Y28381355D01*
X9728824Y28186620D01*
X9728824Y28350000D01*
X9721545Y28423905D01*
X9699988Y28494970D01*
X9664981Y28560463D01*
X9617869Y28617869D01*
X9560463Y28664981D01*
X9494970Y28699988D01*
X9423905Y28721545D01*
X9350000Y28728824D01*
X7650000Y28728824D01*
X7576095Y28721545D01*
X7505030Y28699988D01*
X7439537Y28664981D01*
X7382131Y28617869D01*
X7335019Y28560463D01*
X7317133Y28527000D01*
X6035850Y28527000D01*
X6003115Y28588244D01*
X5928799Y28678799D01*
X5838244Y28753115D01*
X5734932Y28808336D01*
X5622831Y28842342D01*
X5506250Y28853824D01*
X5068750Y28853824D01*
X4952169Y28842342D01*
X4840068Y28808336D01*
X4736756Y28753115D01*
X4646201Y28678799D01*
X4571885Y28588244D01*
X4516664Y28484932D01*
X4500000Y28429999D01*
X4483336Y28484932D01*
X4428115Y28588244D01*
X4353799Y28678799D01*
X4263244Y28753115D01*
X4159932Y28808336D01*
X4047831Y28842342D01*
X3931250Y28853824D01*
X3493750Y28853824D01*
X3377169Y28842342D01*
X3265068Y28808336D01*
X3161756Y28753115D01*
X3071201Y28678799D01*
X3003068Y28595777D01*
X2995309Y28603536D01*
X2868048Y28688569D01*
X2726643Y28747141D01*
X2576528Y28777000D01*
X2423472Y28777000D01*
X2273357Y28747141D01*
X2131952Y28688569D01*
X2004691Y28603536D01*
X1896464Y28495309D01*
X1811431Y28368048D01*
X1752859Y28226643D01*
X1723000Y28076528D01*
X402000Y28076528D01*
X402000Y29598000D01*
X28098000Y29598000D01*
X28098000Y15000845D01*
M02*
