%TF.GenerationSoftware,KiCad,Pcbnew,(5.1.6)-1*%
%TF.CreationDate,2021-09-30T15:23:07+02:00*%
%TF.ProjectId,Board,426f6172-642e-46b6-9963-61645f706362,rev?*%
%TF.SameCoordinates,PX367e320PY64168f0*%
%TF.FileFunction,Paste,Bot*%
%TF.FilePolarity,Positive*%
%FSLAX46Y46*%
G04 Gerber Fmt 4.6, Leading zero omitted, Abs format (unit mm)*
G04 Created by KiCad (PCBNEW (5.1.6)-1) date 2021-09-30 15:23:07*
%MOMM*%
%LPD*%
G01*
G04 APERTURE LIST*
%TA.AperFunction,Profile*%
%ADD10C,0.050000*%
%TD*%
%ADD11R,2.200000X2.750000*%
%ADD12R,1.981200X0.558800*%
%ADD13R,0.900000X0.800000*%
G04 APERTURE END LIST*
D10*
X28500000Y0D02*
X0Y0D01*
X28500000Y30000000D02*
X28500000Y0D01*
X0Y30000000D02*
X28500000Y30000000D01*
X0Y0D02*
X0Y30000000D01*
G36*
G01*
X25600000Y14682500D02*
X25600000Y15157500D01*
G75*
G02*
X25837500Y15395000I237500J0D01*
G01*
X26437500Y15395000D01*
G75*
G02*
X26675000Y15157500I0J-237500D01*
G01*
X26675000Y14682500D01*
G75*
G02*
X26437500Y14445000I-237500J0D01*
G01*
X25837500Y14445000D01*
G75*
G02*
X25600000Y14682500I0J237500D01*
G01*
G37*
G36*
G01*
X23875000Y14682500D02*
X23875000Y15157500D01*
G75*
G02*
X24112500Y15395000I237500J0D01*
G01*
X24712500Y15395000D01*
G75*
G02*
X24950000Y15157500I0J-237500D01*
G01*
X24950000Y14682500D01*
G75*
G02*
X24712500Y14445000I-237500J0D01*
G01*
X24112500Y14445000D01*
G75*
G02*
X23875000Y14682500I0J237500D01*
G01*
G37*
D11*
X21850000Y3500000D03*
X17150000Y3500000D03*
X6850000Y4000000D03*
X2150000Y4000000D03*
G36*
G01*
X26125000Y20237500D02*
X26125000Y19762500D01*
G75*
G02*
X25887500Y19525000I-237500J0D01*
G01*
X25287500Y19525000D01*
G75*
G02*
X25050000Y19762500I0J237500D01*
G01*
X25050000Y20237500D01*
G75*
G02*
X25287500Y20475000I237500J0D01*
G01*
X25887500Y20475000D01*
G75*
G02*
X26125000Y20237500I0J-237500D01*
G01*
G37*
G36*
G01*
X27850000Y20237500D02*
X27850000Y19762500D01*
G75*
G02*
X27612500Y19525000I-237500J0D01*
G01*
X27012500Y19525000D01*
G75*
G02*
X26775000Y19762500I0J237500D01*
G01*
X26775000Y20237500D01*
G75*
G02*
X27012500Y20475000I237500J0D01*
G01*
X27612500Y20475000D01*
G75*
G02*
X27850000Y20237500I0J-237500D01*
G01*
G37*
G36*
G01*
X26125000Y18647500D02*
X26125000Y18172500D01*
G75*
G02*
X25887500Y17935000I-237500J0D01*
G01*
X25287500Y17935000D01*
G75*
G02*
X25050000Y18172500I0J237500D01*
G01*
X25050000Y18647500D01*
G75*
G02*
X25287500Y18885000I237500J0D01*
G01*
X25887500Y18885000D01*
G75*
G02*
X26125000Y18647500I0J-237500D01*
G01*
G37*
G36*
G01*
X27850000Y18647500D02*
X27850000Y18172500D01*
G75*
G02*
X27612500Y17935000I-237500J0D01*
G01*
X27012500Y17935000D01*
G75*
G02*
X26775000Y18172500I0J237500D01*
G01*
X26775000Y18647500D01*
G75*
G02*
X27012500Y18885000I237500J0D01*
G01*
X27612500Y18885000D01*
G75*
G02*
X27850000Y18647500I0J-237500D01*
G01*
G37*
G36*
G01*
X25825000Y3262500D02*
X25825000Y3737500D01*
G75*
G02*
X26062500Y3975000I237500J0D01*
G01*
X26662500Y3975000D01*
G75*
G02*
X26900000Y3737500I0J-237500D01*
G01*
X26900000Y3262500D01*
G75*
G02*
X26662500Y3025000I-237500J0D01*
G01*
X26062500Y3025000D01*
G75*
G02*
X25825000Y3262500I0J237500D01*
G01*
G37*
G36*
G01*
X24100000Y3262500D02*
X24100000Y3737500D01*
G75*
G02*
X24337500Y3975000I237500J0D01*
G01*
X24937500Y3975000D01*
G75*
G02*
X25175000Y3737500I0J-237500D01*
G01*
X25175000Y3262500D01*
G75*
G02*
X24937500Y3025000I-237500J0D01*
G01*
X24337500Y3025000D01*
G75*
G02*
X24100000Y3262500I0J237500D01*
G01*
G37*
G36*
G01*
X10325000Y3762500D02*
X10325000Y4237500D01*
G75*
G02*
X10562500Y4475000I237500J0D01*
G01*
X11162500Y4475000D01*
G75*
G02*
X11400000Y4237500I0J-237500D01*
G01*
X11400000Y3762500D01*
G75*
G02*
X11162500Y3525000I-237500J0D01*
G01*
X10562500Y3525000D01*
G75*
G02*
X10325000Y3762500I0J237500D01*
G01*
G37*
G36*
G01*
X8600000Y3762500D02*
X8600000Y4237500D01*
G75*
G02*
X8837500Y4475000I237500J0D01*
G01*
X9437500Y4475000D01*
G75*
G02*
X9675000Y4237500I0J-237500D01*
G01*
X9675000Y3762500D01*
G75*
G02*
X9437500Y3525000I-237500J0D01*
G01*
X8837500Y3525000D01*
G75*
G02*
X8600000Y3762500I0J237500D01*
G01*
G37*
G36*
G01*
X18417500Y11912500D02*
X17942500Y11912500D01*
G75*
G02*
X17705000Y12150000I0J237500D01*
G01*
X17705000Y12750000D01*
G75*
G02*
X17942500Y12987500I237500J0D01*
G01*
X18417500Y12987500D01*
G75*
G02*
X18655000Y12750000I0J-237500D01*
G01*
X18655000Y12150000D01*
G75*
G02*
X18417500Y11912500I-237500J0D01*
G01*
G37*
G36*
G01*
X18417500Y10187500D02*
X17942500Y10187500D01*
G75*
G02*
X17705000Y10425000I0J237500D01*
G01*
X17705000Y11025000D01*
G75*
G02*
X17942500Y11262500I237500J0D01*
G01*
X18417500Y11262500D01*
G75*
G02*
X18655000Y11025000I0J-237500D01*
G01*
X18655000Y10425000D01*
G75*
G02*
X18417500Y10187500I-237500J0D01*
G01*
G37*
G36*
G01*
X14092500Y11229000D02*
X14567500Y11229000D01*
G75*
G02*
X14805000Y10991500I0J-237500D01*
G01*
X14805000Y10391500D01*
G75*
G02*
X14567500Y10154000I-237500J0D01*
G01*
X14092500Y10154000D01*
G75*
G02*
X13855000Y10391500I0J237500D01*
G01*
X13855000Y10991500D01*
G75*
G02*
X14092500Y11229000I237500J0D01*
G01*
G37*
G36*
G01*
X14092500Y12954000D02*
X14567500Y12954000D01*
G75*
G02*
X14805000Y12716500I0J-237500D01*
G01*
X14805000Y12116500D01*
G75*
G02*
X14567500Y11879000I-237500J0D01*
G01*
X14092500Y11879000D01*
G75*
G02*
X13855000Y12116500I0J237500D01*
G01*
X13855000Y12716500D01*
G75*
G02*
X14092500Y12954000I237500J0D01*
G01*
G37*
G36*
G01*
X12367500Y10075000D02*
X11892500Y10075000D01*
G75*
G02*
X11655000Y10312500I0J237500D01*
G01*
X11655000Y10912500D01*
G75*
G02*
X11892500Y11150000I237500J0D01*
G01*
X12367500Y11150000D01*
G75*
G02*
X12605000Y10912500I0J-237500D01*
G01*
X12605000Y10312500D01*
G75*
G02*
X12367500Y10075000I-237500J0D01*
G01*
G37*
G36*
G01*
X12367500Y8350000D02*
X11892500Y8350000D01*
G75*
G02*
X11655000Y8587500I0J237500D01*
G01*
X11655000Y9187500D01*
G75*
G02*
X11892500Y9425000I237500J0D01*
G01*
X12367500Y9425000D01*
G75*
G02*
X12605000Y9187500I0J-237500D01*
G01*
X12605000Y8587500D01*
G75*
G02*
X12367500Y8350000I-237500J0D01*
G01*
G37*
G36*
G01*
X12347500Y13525000D02*
X11872500Y13525000D01*
G75*
G02*
X11635000Y13762500I0J237500D01*
G01*
X11635000Y14362500D01*
G75*
G02*
X11872500Y14600000I237500J0D01*
G01*
X12347500Y14600000D01*
G75*
G02*
X12585000Y14362500I0J-237500D01*
G01*
X12585000Y13762500D01*
G75*
G02*
X12347500Y13525000I-237500J0D01*
G01*
G37*
G36*
G01*
X12347500Y11800000D02*
X11872500Y11800000D01*
G75*
G02*
X11635000Y12037500I0J237500D01*
G01*
X11635000Y12637500D01*
G75*
G02*
X11872500Y12875000I237500J0D01*
G01*
X12347500Y12875000D01*
G75*
G02*
X12585000Y12637500I0J-237500D01*
G01*
X12585000Y12037500D01*
G75*
G02*
X12347500Y11800000I-237500J0D01*
G01*
G37*
G36*
G01*
X11900000Y5349998D02*
X11900000Y6650002D01*
G75*
G02*
X12149998Y6900000I249998J0D01*
G01*
X12975002Y6900000D01*
G75*
G02*
X13225000Y6650002I0J-249998D01*
G01*
X13225000Y5349998D01*
G75*
G02*
X12975002Y5100000I-249998J0D01*
G01*
X12149998Y5100000D01*
G75*
G02*
X11900000Y5349998I0J249998D01*
G01*
G37*
G36*
G01*
X8775000Y5349998D02*
X8775000Y6650002D01*
G75*
G02*
X9024998Y6900000I249998J0D01*
G01*
X9850002Y6900000D01*
G75*
G02*
X10100000Y6650002I0J-249998D01*
G01*
X10100000Y5349998D01*
G75*
G02*
X9850002Y5100000I-249998J0D01*
G01*
X9024998Y5100000D01*
G75*
G02*
X8775000Y5349998I0J249998D01*
G01*
G37*
G36*
G01*
X26900000Y849998D02*
X26900000Y2150002D01*
G75*
G02*
X27149998Y2400000I249998J0D01*
G01*
X27975002Y2400000D01*
G75*
G02*
X28225000Y2150002I0J-249998D01*
G01*
X28225000Y849998D01*
G75*
G02*
X27975002Y600000I-249998J0D01*
G01*
X27149998Y600000D01*
G75*
G02*
X26900000Y849998I0J249998D01*
G01*
G37*
G36*
G01*
X23775000Y849998D02*
X23775000Y2150002D01*
G75*
G02*
X24024998Y2400000I249998J0D01*
G01*
X24850002Y2400000D01*
G75*
G02*
X25100000Y2150002I0J-249998D01*
G01*
X25100000Y849998D01*
G75*
G02*
X24850002Y600000I-249998J0D01*
G01*
X24024998Y600000D01*
G75*
G02*
X23775000Y849998I0J249998D01*
G01*
G37*
G36*
G01*
X11900000Y1349998D02*
X11900000Y2650002D01*
G75*
G02*
X12149998Y2900000I249998J0D01*
G01*
X12975002Y2900000D01*
G75*
G02*
X13225000Y2650002I0J-249998D01*
G01*
X13225000Y1349998D01*
G75*
G02*
X12975002Y1100000I-249998J0D01*
G01*
X12149998Y1100000D01*
G75*
G02*
X11900000Y1349998I0J249998D01*
G01*
G37*
G36*
G01*
X8775000Y1349998D02*
X8775000Y2650002D01*
G75*
G02*
X9024998Y2900000I249998J0D01*
G01*
X9850002Y2900000D01*
G75*
G02*
X10100000Y2650002I0J-249998D01*
G01*
X10100000Y1349998D01*
G75*
G02*
X9850002Y1100000I-249998J0D01*
G01*
X9024998Y1100000D01*
G75*
G02*
X8775000Y1349998I0J249998D01*
G01*
G37*
D12*
X26877600Y13205000D03*
X26877600Y11935000D03*
X26877600Y10665000D03*
X26877600Y9395000D03*
X21950000Y9395000D03*
X21950000Y10665000D03*
X21950000Y11935000D03*
X21950000Y13205000D03*
D13*
X10310000Y12440000D03*
X10310000Y10540000D03*
X8210000Y11490000D03*
G36*
G01*
X24150000Y21737500D02*
X24150000Y21262500D01*
G75*
G02*
X23912500Y21025000I-237500J0D01*
G01*
X23337500Y21025000D01*
G75*
G02*
X23100000Y21262500I0J237500D01*
G01*
X23100000Y21737500D01*
G75*
G02*
X23337500Y21975000I237500J0D01*
G01*
X23912500Y21975000D01*
G75*
G02*
X24150000Y21737500I0J-237500D01*
G01*
G37*
G36*
G01*
X25900000Y21737500D02*
X25900000Y21262500D01*
G75*
G02*
X25662500Y21025000I-237500J0D01*
G01*
X25087500Y21025000D01*
G75*
G02*
X24850000Y21262500I0J237500D01*
G01*
X24850000Y21737500D01*
G75*
G02*
X25087500Y21975000I237500J0D01*
G01*
X25662500Y21975000D01*
G75*
G02*
X25900000Y21737500I0J-237500D01*
G01*
G37*
G36*
G01*
X16251500Y13005500D02*
X16726500Y13005500D01*
G75*
G02*
X16964000Y12768000I0J-237500D01*
G01*
X16964000Y12193000D01*
G75*
G02*
X16726500Y11955500I-237500J0D01*
G01*
X16251500Y11955500D01*
G75*
G02*
X16014000Y12193000I0J237500D01*
G01*
X16014000Y12768000D01*
G75*
G02*
X16251500Y13005500I237500J0D01*
G01*
G37*
G36*
G01*
X16251500Y14755500D02*
X16726500Y14755500D01*
G75*
G02*
X16964000Y14518000I0J-237500D01*
G01*
X16964000Y13943000D01*
G75*
G02*
X16726500Y13705500I-237500J0D01*
G01*
X16251500Y13705500D01*
G75*
G02*
X16014000Y13943000I0J237500D01*
G01*
X16014000Y14518000D01*
G75*
G02*
X16251500Y14755500I237500J0D01*
G01*
G37*
G36*
G01*
X16251500Y11176000D02*
X16726500Y11176000D01*
G75*
G02*
X16964000Y10938500I0J-237500D01*
G01*
X16964000Y10363500D01*
G75*
G02*
X16726500Y10126000I-237500J0D01*
G01*
X16251500Y10126000D01*
G75*
G02*
X16014000Y10363500I0J237500D01*
G01*
X16014000Y10938500D01*
G75*
G02*
X16251500Y11176000I237500J0D01*
G01*
G37*
G36*
G01*
X16251500Y9426000D02*
X16726500Y9426000D01*
G75*
G02*
X16964000Y9188500I0J-237500D01*
G01*
X16964000Y8613500D01*
G75*
G02*
X16726500Y8376000I-237500J0D01*
G01*
X16251500Y8376000D01*
G75*
G02*
X16014000Y8613500I0J237500D01*
G01*
X16014000Y9188500D01*
G75*
G02*
X16251500Y9426000I237500J0D01*
G01*
G37*
G36*
G01*
X4980000Y23892500D02*
X4980000Y24367500D01*
G75*
G02*
X5217500Y24605000I237500J0D01*
G01*
X5792500Y24605000D01*
G75*
G02*
X6030000Y24367500I0J-237500D01*
G01*
X6030000Y23892500D01*
G75*
G02*
X5792500Y23655000I-237500J0D01*
G01*
X5217500Y23655000D01*
G75*
G02*
X4980000Y23892500I0J237500D01*
G01*
G37*
G36*
G01*
X3230000Y23892500D02*
X3230000Y24367500D01*
G75*
G02*
X3467500Y24605000I237500J0D01*
G01*
X4042500Y24605000D01*
G75*
G02*
X4280000Y24367500I0J-237500D01*
G01*
X4280000Y23892500D01*
G75*
G02*
X4042500Y23655000I-237500J0D01*
G01*
X3467500Y23655000D01*
G75*
G02*
X3230000Y23892500I0J237500D01*
G01*
G37*
G36*
G01*
X3230000Y25882500D02*
X3230000Y26357500D01*
G75*
G02*
X3467500Y26595000I237500J0D01*
G01*
X4042500Y26595000D01*
G75*
G02*
X4280000Y26357500I0J-237500D01*
G01*
X4280000Y25882500D01*
G75*
G02*
X4042500Y25645000I-237500J0D01*
G01*
X3467500Y25645000D01*
G75*
G02*
X3230000Y25882500I0J237500D01*
G01*
G37*
G36*
G01*
X4980000Y25882500D02*
X4980000Y26357500D01*
G75*
G02*
X5217500Y26595000I237500J0D01*
G01*
X5792500Y26595000D01*
G75*
G02*
X6030000Y26357500I0J-237500D01*
G01*
X6030000Y25882500D01*
G75*
G02*
X5792500Y25645000I-237500J0D01*
G01*
X5217500Y25645000D01*
G75*
G02*
X4980000Y25882500I0J237500D01*
G01*
G37*
G36*
G01*
X4980000Y27762500D02*
X4980000Y28237500D01*
G75*
G02*
X5217500Y28475000I237500J0D01*
G01*
X5792500Y28475000D01*
G75*
G02*
X6030000Y28237500I0J-237500D01*
G01*
X6030000Y27762500D01*
G75*
G02*
X5792500Y27525000I-237500J0D01*
G01*
X5217500Y27525000D01*
G75*
G02*
X4980000Y27762500I0J237500D01*
G01*
G37*
G36*
G01*
X3230000Y27762500D02*
X3230000Y28237500D01*
G75*
G02*
X3467500Y28475000I237500J0D01*
G01*
X4042500Y28475000D01*
G75*
G02*
X4280000Y28237500I0J-237500D01*
G01*
X4280000Y27762500D01*
G75*
G02*
X4042500Y27525000I-237500J0D01*
G01*
X3467500Y27525000D01*
G75*
G02*
X3230000Y27762500I0J237500D01*
G01*
G37*
G36*
G01*
X19163500Y15601500D02*
X19163500Y15126500D01*
G75*
G02*
X18926000Y14889000I-237500J0D01*
G01*
X18351000Y14889000D01*
G75*
G02*
X18113500Y15126500I0J237500D01*
G01*
X18113500Y15601500D01*
G75*
G02*
X18351000Y15839000I237500J0D01*
G01*
X18926000Y15839000D01*
G75*
G02*
X19163500Y15601500I0J-237500D01*
G01*
G37*
G36*
G01*
X20913500Y15601500D02*
X20913500Y15126500D01*
G75*
G02*
X20676000Y14889000I-237500J0D01*
G01*
X20101000Y14889000D01*
G75*
G02*
X19863500Y15126500I0J237500D01*
G01*
X19863500Y15601500D01*
G75*
G02*
X20101000Y15839000I237500J0D01*
G01*
X20676000Y15839000D01*
G75*
G02*
X20913500Y15601500I0J-237500D01*
G01*
G37*
M02*
