%TF.GenerationSoftware,KiCad,Pcbnew,(5.1.6)-1*%
%TF.CreationDate,2021-09-30T15:23:07+02:00*%
%TF.ProjectId,Board,426f6172-642e-46b6-9963-61645f706362,rev?*%
%TF.SameCoordinates,PX367e320PY64168f0*%
%TF.FileFunction,Copper,L2,Bot*%
%TF.FilePolarity,Positive*%
%FSLAX46Y46*%
G04 Gerber Fmt 4.6, Leading zero omitted, Abs format (unit mm)*
G04 Created by KiCad (PCBNEW (5.1.6)-1) date 2021-09-30 15:23:07*
%MOMM*%
%LPD*%
G01*
G04 APERTURE LIST*
%TA.AperFunction,Profile*%
%ADD10C,0.050000*%
%TD*%
%TA.AperFunction,SMDPad,CuDef*%
%ADD11R,2.200000X2.750000*%
%TD*%
%TA.AperFunction,SMDPad,CuDef*%
%ADD12R,1.981200X0.558800*%
%TD*%
%TA.AperFunction,SMDPad,CuDef*%
%ADD13R,0.900000X0.800000*%
%TD*%
%TA.AperFunction,ComponentPad*%
%ADD14R,1.700000X1.700000*%
%TD*%
%TA.AperFunction,ComponentPad*%
%ADD15O,1.700000X1.700000*%
%TD*%
%TA.AperFunction,ViaPad*%
%ADD16C,0.800000*%
%TD*%
%TA.AperFunction,Conductor*%
%ADD17C,0.300000*%
%TD*%
%TA.AperFunction,Conductor*%
%ADD18C,0.254000*%
%TD*%
G04 APERTURE END LIST*
D10*
X28500000Y0D02*
X0Y0D01*
X28500000Y30000000D02*
X28500000Y0D01*
X0Y30000000D02*
X28500000Y30000000D01*
X0Y0D02*
X0Y30000000D01*
%TA.AperFunction,SMDPad,CuDef*%
G36*
G01*
X25600000Y14682500D02*
X25600000Y15157500D01*
G75*
G02*
X25837500Y15395000I237500J0D01*
G01*
X26437500Y15395000D01*
G75*
G02*
X26675000Y15157500I0J-237500D01*
G01*
X26675000Y14682500D01*
G75*
G02*
X26437500Y14445000I-237500J0D01*
G01*
X25837500Y14445000D01*
G75*
G02*
X25600000Y14682500I0J237500D01*
G01*
G37*
%TD.AperFunction*%
%TA.AperFunction,SMDPad,CuDef*%
G36*
G01*
X23875000Y14682500D02*
X23875000Y15157500D01*
G75*
G02*
X24112500Y15395000I237500J0D01*
G01*
X24712500Y15395000D01*
G75*
G02*
X24950000Y15157500I0J-237500D01*
G01*
X24950000Y14682500D01*
G75*
G02*
X24712500Y14445000I-237500J0D01*
G01*
X24112500Y14445000D01*
G75*
G02*
X23875000Y14682500I0J237500D01*
G01*
G37*
%TD.AperFunction*%
D11*
X21850000Y3500000D03*
X17150000Y3500000D03*
X6850000Y4000000D03*
X2150000Y4000000D03*
%TA.AperFunction,SMDPad,CuDef*%
G36*
G01*
X26125000Y20237500D02*
X26125000Y19762500D01*
G75*
G02*
X25887500Y19525000I-237500J0D01*
G01*
X25287500Y19525000D01*
G75*
G02*
X25050000Y19762500I0J237500D01*
G01*
X25050000Y20237500D01*
G75*
G02*
X25287500Y20475000I237500J0D01*
G01*
X25887500Y20475000D01*
G75*
G02*
X26125000Y20237500I0J-237500D01*
G01*
G37*
%TD.AperFunction*%
%TA.AperFunction,SMDPad,CuDef*%
G36*
G01*
X27850000Y20237500D02*
X27850000Y19762500D01*
G75*
G02*
X27612500Y19525000I-237500J0D01*
G01*
X27012500Y19525000D01*
G75*
G02*
X26775000Y19762500I0J237500D01*
G01*
X26775000Y20237500D01*
G75*
G02*
X27012500Y20475000I237500J0D01*
G01*
X27612500Y20475000D01*
G75*
G02*
X27850000Y20237500I0J-237500D01*
G01*
G37*
%TD.AperFunction*%
%TA.AperFunction,SMDPad,CuDef*%
G36*
G01*
X26125000Y18647500D02*
X26125000Y18172500D01*
G75*
G02*
X25887500Y17935000I-237500J0D01*
G01*
X25287500Y17935000D01*
G75*
G02*
X25050000Y18172500I0J237500D01*
G01*
X25050000Y18647500D01*
G75*
G02*
X25287500Y18885000I237500J0D01*
G01*
X25887500Y18885000D01*
G75*
G02*
X26125000Y18647500I0J-237500D01*
G01*
G37*
%TD.AperFunction*%
%TA.AperFunction,SMDPad,CuDef*%
G36*
G01*
X27850000Y18647500D02*
X27850000Y18172500D01*
G75*
G02*
X27612500Y17935000I-237500J0D01*
G01*
X27012500Y17935000D01*
G75*
G02*
X26775000Y18172500I0J237500D01*
G01*
X26775000Y18647500D01*
G75*
G02*
X27012500Y18885000I237500J0D01*
G01*
X27612500Y18885000D01*
G75*
G02*
X27850000Y18647500I0J-237500D01*
G01*
G37*
%TD.AperFunction*%
%TA.AperFunction,SMDPad,CuDef*%
G36*
G01*
X25825000Y3262500D02*
X25825000Y3737500D01*
G75*
G02*
X26062500Y3975000I237500J0D01*
G01*
X26662500Y3975000D01*
G75*
G02*
X26900000Y3737500I0J-237500D01*
G01*
X26900000Y3262500D01*
G75*
G02*
X26662500Y3025000I-237500J0D01*
G01*
X26062500Y3025000D01*
G75*
G02*
X25825000Y3262500I0J237500D01*
G01*
G37*
%TD.AperFunction*%
%TA.AperFunction,SMDPad,CuDef*%
G36*
G01*
X24100000Y3262500D02*
X24100000Y3737500D01*
G75*
G02*
X24337500Y3975000I237500J0D01*
G01*
X24937500Y3975000D01*
G75*
G02*
X25175000Y3737500I0J-237500D01*
G01*
X25175000Y3262500D01*
G75*
G02*
X24937500Y3025000I-237500J0D01*
G01*
X24337500Y3025000D01*
G75*
G02*
X24100000Y3262500I0J237500D01*
G01*
G37*
%TD.AperFunction*%
%TA.AperFunction,SMDPad,CuDef*%
G36*
G01*
X10325000Y3762500D02*
X10325000Y4237500D01*
G75*
G02*
X10562500Y4475000I237500J0D01*
G01*
X11162500Y4475000D01*
G75*
G02*
X11400000Y4237500I0J-237500D01*
G01*
X11400000Y3762500D01*
G75*
G02*
X11162500Y3525000I-237500J0D01*
G01*
X10562500Y3525000D01*
G75*
G02*
X10325000Y3762500I0J237500D01*
G01*
G37*
%TD.AperFunction*%
%TA.AperFunction,SMDPad,CuDef*%
G36*
G01*
X8600000Y3762500D02*
X8600000Y4237500D01*
G75*
G02*
X8837500Y4475000I237500J0D01*
G01*
X9437500Y4475000D01*
G75*
G02*
X9675000Y4237500I0J-237500D01*
G01*
X9675000Y3762500D01*
G75*
G02*
X9437500Y3525000I-237500J0D01*
G01*
X8837500Y3525000D01*
G75*
G02*
X8600000Y3762500I0J237500D01*
G01*
G37*
%TD.AperFunction*%
%TA.AperFunction,SMDPad,CuDef*%
G36*
G01*
X18417500Y11912500D02*
X17942500Y11912500D01*
G75*
G02*
X17705000Y12150000I0J237500D01*
G01*
X17705000Y12750000D01*
G75*
G02*
X17942500Y12987500I237500J0D01*
G01*
X18417500Y12987500D01*
G75*
G02*
X18655000Y12750000I0J-237500D01*
G01*
X18655000Y12150000D01*
G75*
G02*
X18417500Y11912500I-237500J0D01*
G01*
G37*
%TD.AperFunction*%
%TA.AperFunction,SMDPad,CuDef*%
G36*
G01*
X18417500Y10187500D02*
X17942500Y10187500D01*
G75*
G02*
X17705000Y10425000I0J237500D01*
G01*
X17705000Y11025000D01*
G75*
G02*
X17942500Y11262500I237500J0D01*
G01*
X18417500Y11262500D01*
G75*
G02*
X18655000Y11025000I0J-237500D01*
G01*
X18655000Y10425000D01*
G75*
G02*
X18417500Y10187500I-237500J0D01*
G01*
G37*
%TD.AperFunction*%
%TA.AperFunction,SMDPad,CuDef*%
G36*
G01*
X14092500Y11229000D02*
X14567500Y11229000D01*
G75*
G02*
X14805000Y10991500I0J-237500D01*
G01*
X14805000Y10391500D01*
G75*
G02*
X14567500Y10154000I-237500J0D01*
G01*
X14092500Y10154000D01*
G75*
G02*
X13855000Y10391500I0J237500D01*
G01*
X13855000Y10991500D01*
G75*
G02*
X14092500Y11229000I237500J0D01*
G01*
G37*
%TD.AperFunction*%
%TA.AperFunction,SMDPad,CuDef*%
G36*
G01*
X14092500Y12954000D02*
X14567500Y12954000D01*
G75*
G02*
X14805000Y12716500I0J-237500D01*
G01*
X14805000Y12116500D01*
G75*
G02*
X14567500Y11879000I-237500J0D01*
G01*
X14092500Y11879000D01*
G75*
G02*
X13855000Y12116500I0J237500D01*
G01*
X13855000Y12716500D01*
G75*
G02*
X14092500Y12954000I237500J0D01*
G01*
G37*
%TD.AperFunction*%
%TA.AperFunction,SMDPad,CuDef*%
G36*
G01*
X12367500Y10075000D02*
X11892500Y10075000D01*
G75*
G02*
X11655000Y10312500I0J237500D01*
G01*
X11655000Y10912500D01*
G75*
G02*
X11892500Y11150000I237500J0D01*
G01*
X12367500Y11150000D01*
G75*
G02*
X12605000Y10912500I0J-237500D01*
G01*
X12605000Y10312500D01*
G75*
G02*
X12367500Y10075000I-237500J0D01*
G01*
G37*
%TD.AperFunction*%
%TA.AperFunction,SMDPad,CuDef*%
G36*
G01*
X12367500Y8350000D02*
X11892500Y8350000D01*
G75*
G02*
X11655000Y8587500I0J237500D01*
G01*
X11655000Y9187500D01*
G75*
G02*
X11892500Y9425000I237500J0D01*
G01*
X12367500Y9425000D01*
G75*
G02*
X12605000Y9187500I0J-237500D01*
G01*
X12605000Y8587500D01*
G75*
G02*
X12367500Y8350000I-237500J0D01*
G01*
G37*
%TD.AperFunction*%
%TA.AperFunction,SMDPad,CuDef*%
G36*
G01*
X12347500Y13525000D02*
X11872500Y13525000D01*
G75*
G02*
X11635000Y13762500I0J237500D01*
G01*
X11635000Y14362500D01*
G75*
G02*
X11872500Y14600000I237500J0D01*
G01*
X12347500Y14600000D01*
G75*
G02*
X12585000Y14362500I0J-237500D01*
G01*
X12585000Y13762500D01*
G75*
G02*
X12347500Y13525000I-237500J0D01*
G01*
G37*
%TD.AperFunction*%
%TA.AperFunction,SMDPad,CuDef*%
G36*
G01*
X12347500Y11800000D02*
X11872500Y11800000D01*
G75*
G02*
X11635000Y12037500I0J237500D01*
G01*
X11635000Y12637500D01*
G75*
G02*
X11872500Y12875000I237500J0D01*
G01*
X12347500Y12875000D01*
G75*
G02*
X12585000Y12637500I0J-237500D01*
G01*
X12585000Y12037500D01*
G75*
G02*
X12347500Y11800000I-237500J0D01*
G01*
G37*
%TD.AperFunction*%
%TA.AperFunction,SMDPad,CuDef*%
G36*
G01*
X11900000Y5349998D02*
X11900000Y6650002D01*
G75*
G02*
X12149998Y6900000I249998J0D01*
G01*
X12975002Y6900000D01*
G75*
G02*
X13225000Y6650002I0J-249998D01*
G01*
X13225000Y5349998D01*
G75*
G02*
X12975002Y5100000I-249998J0D01*
G01*
X12149998Y5100000D01*
G75*
G02*
X11900000Y5349998I0J249998D01*
G01*
G37*
%TD.AperFunction*%
%TA.AperFunction,SMDPad,CuDef*%
G36*
G01*
X8775000Y5349998D02*
X8775000Y6650002D01*
G75*
G02*
X9024998Y6900000I249998J0D01*
G01*
X9850002Y6900000D01*
G75*
G02*
X10100000Y6650002I0J-249998D01*
G01*
X10100000Y5349998D01*
G75*
G02*
X9850002Y5100000I-249998J0D01*
G01*
X9024998Y5100000D01*
G75*
G02*
X8775000Y5349998I0J249998D01*
G01*
G37*
%TD.AperFunction*%
%TA.AperFunction,SMDPad,CuDef*%
G36*
G01*
X26900000Y849998D02*
X26900000Y2150002D01*
G75*
G02*
X27149998Y2400000I249998J0D01*
G01*
X27975002Y2400000D01*
G75*
G02*
X28225000Y2150002I0J-249998D01*
G01*
X28225000Y849998D01*
G75*
G02*
X27975002Y600000I-249998J0D01*
G01*
X27149998Y600000D01*
G75*
G02*
X26900000Y849998I0J249998D01*
G01*
G37*
%TD.AperFunction*%
%TA.AperFunction,SMDPad,CuDef*%
G36*
G01*
X23775000Y849998D02*
X23775000Y2150002D01*
G75*
G02*
X24024998Y2400000I249998J0D01*
G01*
X24850002Y2400000D01*
G75*
G02*
X25100000Y2150002I0J-249998D01*
G01*
X25100000Y849998D01*
G75*
G02*
X24850002Y600000I-249998J0D01*
G01*
X24024998Y600000D01*
G75*
G02*
X23775000Y849998I0J249998D01*
G01*
G37*
%TD.AperFunction*%
%TA.AperFunction,SMDPad,CuDef*%
G36*
G01*
X11900000Y1349998D02*
X11900000Y2650002D01*
G75*
G02*
X12149998Y2900000I249998J0D01*
G01*
X12975002Y2900000D01*
G75*
G02*
X13225000Y2650002I0J-249998D01*
G01*
X13225000Y1349998D01*
G75*
G02*
X12975002Y1100000I-249998J0D01*
G01*
X12149998Y1100000D01*
G75*
G02*
X11900000Y1349998I0J249998D01*
G01*
G37*
%TD.AperFunction*%
%TA.AperFunction,SMDPad,CuDef*%
G36*
G01*
X8775000Y1349998D02*
X8775000Y2650002D01*
G75*
G02*
X9024998Y2900000I249998J0D01*
G01*
X9850002Y2900000D01*
G75*
G02*
X10100000Y2650002I0J-249998D01*
G01*
X10100000Y1349998D01*
G75*
G02*
X9850002Y1100000I-249998J0D01*
G01*
X9024998Y1100000D01*
G75*
G02*
X8775000Y1349998I0J249998D01*
G01*
G37*
%TD.AperFunction*%
D12*
X26877600Y13205000D03*
X26877600Y11935000D03*
X26877600Y10665000D03*
X26877600Y9395000D03*
X21950000Y9395000D03*
X21950000Y10665000D03*
X21950000Y11935000D03*
X21950000Y13205000D03*
D13*
X10310000Y12440000D03*
X10310000Y10540000D03*
X8210000Y11490000D03*
%TA.AperFunction,SMDPad,CuDef*%
G36*
G01*
X24150000Y21737500D02*
X24150000Y21262500D01*
G75*
G02*
X23912500Y21025000I-237500J0D01*
G01*
X23337500Y21025000D01*
G75*
G02*
X23100000Y21262500I0J237500D01*
G01*
X23100000Y21737500D01*
G75*
G02*
X23337500Y21975000I237500J0D01*
G01*
X23912500Y21975000D01*
G75*
G02*
X24150000Y21737500I0J-237500D01*
G01*
G37*
%TD.AperFunction*%
%TA.AperFunction,SMDPad,CuDef*%
G36*
G01*
X25900000Y21737500D02*
X25900000Y21262500D01*
G75*
G02*
X25662500Y21025000I-237500J0D01*
G01*
X25087500Y21025000D01*
G75*
G02*
X24850000Y21262500I0J237500D01*
G01*
X24850000Y21737500D01*
G75*
G02*
X25087500Y21975000I237500J0D01*
G01*
X25662500Y21975000D01*
G75*
G02*
X25900000Y21737500I0J-237500D01*
G01*
G37*
%TD.AperFunction*%
%TA.AperFunction,SMDPad,CuDef*%
G36*
G01*
X16251500Y13005500D02*
X16726500Y13005500D01*
G75*
G02*
X16964000Y12768000I0J-237500D01*
G01*
X16964000Y12193000D01*
G75*
G02*
X16726500Y11955500I-237500J0D01*
G01*
X16251500Y11955500D01*
G75*
G02*
X16014000Y12193000I0J237500D01*
G01*
X16014000Y12768000D01*
G75*
G02*
X16251500Y13005500I237500J0D01*
G01*
G37*
%TD.AperFunction*%
%TA.AperFunction,SMDPad,CuDef*%
G36*
G01*
X16251500Y14755500D02*
X16726500Y14755500D01*
G75*
G02*
X16964000Y14518000I0J-237500D01*
G01*
X16964000Y13943000D01*
G75*
G02*
X16726500Y13705500I-237500J0D01*
G01*
X16251500Y13705500D01*
G75*
G02*
X16014000Y13943000I0J237500D01*
G01*
X16014000Y14518000D01*
G75*
G02*
X16251500Y14755500I237500J0D01*
G01*
G37*
%TD.AperFunction*%
%TA.AperFunction,SMDPad,CuDef*%
G36*
G01*
X16251500Y11176000D02*
X16726500Y11176000D01*
G75*
G02*
X16964000Y10938500I0J-237500D01*
G01*
X16964000Y10363500D01*
G75*
G02*
X16726500Y10126000I-237500J0D01*
G01*
X16251500Y10126000D01*
G75*
G02*
X16014000Y10363500I0J237500D01*
G01*
X16014000Y10938500D01*
G75*
G02*
X16251500Y11176000I237500J0D01*
G01*
G37*
%TD.AperFunction*%
%TA.AperFunction,SMDPad,CuDef*%
G36*
G01*
X16251500Y9426000D02*
X16726500Y9426000D01*
G75*
G02*
X16964000Y9188500I0J-237500D01*
G01*
X16964000Y8613500D01*
G75*
G02*
X16726500Y8376000I-237500J0D01*
G01*
X16251500Y8376000D01*
G75*
G02*
X16014000Y8613500I0J237500D01*
G01*
X16014000Y9188500D01*
G75*
G02*
X16251500Y9426000I237500J0D01*
G01*
G37*
%TD.AperFunction*%
%TA.AperFunction,SMDPad,CuDef*%
G36*
G01*
X4980000Y23892500D02*
X4980000Y24367500D01*
G75*
G02*
X5217500Y24605000I237500J0D01*
G01*
X5792500Y24605000D01*
G75*
G02*
X6030000Y24367500I0J-237500D01*
G01*
X6030000Y23892500D01*
G75*
G02*
X5792500Y23655000I-237500J0D01*
G01*
X5217500Y23655000D01*
G75*
G02*
X4980000Y23892500I0J237500D01*
G01*
G37*
%TD.AperFunction*%
%TA.AperFunction,SMDPad,CuDef*%
G36*
G01*
X3230000Y23892500D02*
X3230000Y24367500D01*
G75*
G02*
X3467500Y24605000I237500J0D01*
G01*
X4042500Y24605000D01*
G75*
G02*
X4280000Y24367500I0J-237500D01*
G01*
X4280000Y23892500D01*
G75*
G02*
X4042500Y23655000I-237500J0D01*
G01*
X3467500Y23655000D01*
G75*
G02*
X3230000Y23892500I0J237500D01*
G01*
G37*
%TD.AperFunction*%
%TA.AperFunction,SMDPad,CuDef*%
G36*
G01*
X3230000Y25882500D02*
X3230000Y26357500D01*
G75*
G02*
X3467500Y26595000I237500J0D01*
G01*
X4042500Y26595000D01*
G75*
G02*
X4280000Y26357500I0J-237500D01*
G01*
X4280000Y25882500D01*
G75*
G02*
X4042500Y25645000I-237500J0D01*
G01*
X3467500Y25645000D01*
G75*
G02*
X3230000Y25882500I0J237500D01*
G01*
G37*
%TD.AperFunction*%
%TA.AperFunction,SMDPad,CuDef*%
G36*
G01*
X4980000Y25882500D02*
X4980000Y26357500D01*
G75*
G02*
X5217500Y26595000I237500J0D01*
G01*
X5792500Y26595000D01*
G75*
G02*
X6030000Y26357500I0J-237500D01*
G01*
X6030000Y25882500D01*
G75*
G02*
X5792500Y25645000I-237500J0D01*
G01*
X5217500Y25645000D01*
G75*
G02*
X4980000Y25882500I0J237500D01*
G01*
G37*
%TD.AperFunction*%
%TA.AperFunction,SMDPad,CuDef*%
G36*
G01*
X4980000Y27762500D02*
X4980000Y28237500D01*
G75*
G02*
X5217500Y28475000I237500J0D01*
G01*
X5792500Y28475000D01*
G75*
G02*
X6030000Y28237500I0J-237500D01*
G01*
X6030000Y27762500D01*
G75*
G02*
X5792500Y27525000I-237500J0D01*
G01*
X5217500Y27525000D01*
G75*
G02*
X4980000Y27762500I0J237500D01*
G01*
G37*
%TD.AperFunction*%
%TA.AperFunction,SMDPad,CuDef*%
G36*
G01*
X3230000Y27762500D02*
X3230000Y28237500D01*
G75*
G02*
X3467500Y28475000I237500J0D01*
G01*
X4042500Y28475000D01*
G75*
G02*
X4280000Y28237500I0J-237500D01*
G01*
X4280000Y27762500D01*
G75*
G02*
X4042500Y27525000I-237500J0D01*
G01*
X3467500Y27525000D01*
G75*
G02*
X3230000Y27762500I0J237500D01*
G01*
G37*
%TD.AperFunction*%
%TA.AperFunction,SMDPad,CuDef*%
G36*
G01*
X19163500Y15601500D02*
X19163500Y15126500D01*
G75*
G02*
X18926000Y14889000I-237500J0D01*
G01*
X18351000Y14889000D01*
G75*
G02*
X18113500Y15126500I0J237500D01*
G01*
X18113500Y15601500D01*
G75*
G02*
X18351000Y15839000I237500J0D01*
G01*
X18926000Y15839000D01*
G75*
G02*
X19163500Y15601500I0J-237500D01*
G01*
G37*
%TD.AperFunction*%
%TA.AperFunction,SMDPad,CuDef*%
G36*
G01*
X20913500Y15601500D02*
X20913500Y15126500D01*
G75*
G02*
X20676000Y14889000I-237500J0D01*
G01*
X20101000Y14889000D01*
G75*
G02*
X19863500Y15126500I0J237500D01*
G01*
X19863500Y15601500D01*
G75*
G02*
X20101000Y15839000I237500J0D01*
G01*
X20676000Y15839000D01*
G75*
G02*
X20913500Y15601500I0J-237500D01*
G01*
G37*
%TD.AperFunction*%
D14*
X8500000Y27500000D03*
D15*
X11040000Y27500000D03*
X13580000Y27500000D03*
X16120000Y27500000D03*
X18660000Y27500000D03*
X21200000Y27500000D03*
X23740000Y27500000D03*
X26280000Y27500000D03*
D14*
X3500000Y12000000D03*
D15*
X3500000Y14540000D03*
X3500000Y17080000D03*
X3500000Y19620000D03*
D16*
X19468852Y11468852D03*
X7030331Y11530331D03*
X19500000Y8500000D03*
X24500000Y10000000D03*
X27500000Y14500000D03*
X28000000Y8000000D03*
X2500000Y26000000D03*
X2500000Y28000000D03*
X24000000Y20000000D03*
X20000000Y4000000D03*
X2500000Y24000000D03*
X13500000Y4300002D03*
X2500000Y1500000D03*
X8000000Y625000D03*
X16150000Y20375000D03*
X20500000Y19500000D03*
X13500000Y20500000D03*
X22000000Y21500000D03*
D17*
X18180000Y12450000D02*
X18487704Y12450000D01*
X18487704Y12450000D02*
X19468852Y11468852D01*
X8210000Y11490000D02*
X7070662Y11490000D01*
X7070662Y11490000D02*
X7030331Y11530331D01*
X24455002Y10000000D02*
X24500000Y10000000D01*
X19500000Y8500000D02*
X22955002Y8500000D01*
X22955002Y8500000D02*
X24455002Y10000000D01*
X27500000Y13827400D02*
X26877600Y13205000D01*
X27500000Y14500000D02*
X27500000Y13827400D01*
X28000000Y8272600D02*
X26877600Y9395000D01*
X28000000Y8000000D02*
X28000000Y8272600D01*
X17767866Y14230500D02*
X16489000Y14230500D01*
X20063366Y11935000D02*
X17767866Y14230500D01*
X21950000Y11935000D02*
X20063366Y11935000D01*
X16144000Y14230500D02*
X14330000Y12416500D01*
X16489000Y14230500D02*
X16144000Y14230500D01*
X12189000Y12416500D02*
X12110000Y12337500D01*
X14330000Y12416500D02*
X12189000Y12416500D01*
X10412500Y12337500D02*
X10310000Y12440000D01*
X12110000Y12337500D02*
X10412500Y12337500D01*
X10310000Y12440000D02*
X7560000Y12440000D01*
X7560000Y12440000D02*
X6500000Y13500000D01*
X6500000Y16620000D02*
X3500000Y19620000D01*
X6500000Y13500000D02*
X6500000Y16620000D01*
X12209000Y10691500D02*
X12130000Y10612500D01*
X14330000Y10691500D02*
X12209000Y10691500D01*
X10382500Y10612500D02*
X10310000Y10540000D01*
X12130000Y10612500D02*
X10382500Y10612500D01*
X14698500Y10691500D02*
X16489000Y8901000D01*
X14330000Y10691500D02*
X14698500Y10691500D01*
X17724366Y8901000D02*
X16489000Y8901000D01*
X21950000Y10665000D02*
X20000000Y10665000D01*
X20000000Y10665000D02*
X17724366Y8901000D01*
X6000000Y14580000D02*
X3500000Y17080000D01*
X10310000Y10540000D02*
X7000000Y10500000D01*
X6000000Y11500000D02*
X6000000Y14580000D01*
X7000000Y10500000D02*
X6000000Y11500000D01*
X3755000Y26120000D02*
X2620000Y26120000D01*
X2620000Y26120000D02*
X2500000Y26000000D01*
X2500000Y28000000D02*
X3755000Y28000000D01*
X24412500Y11839500D02*
X24412500Y14920000D01*
X25587000Y10665000D02*
X24412500Y11839500D01*
X26877600Y10665000D02*
X25587000Y10665000D01*
X25587500Y16095000D02*
X24412500Y14920000D01*
X25587500Y18410000D02*
X25587500Y16095000D01*
X25587500Y18410000D02*
X25587500Y19850000D01*
X25375000Y20062500D02*
X25587500Y19850000D01*
X25375000Y21500000D02*
X25375000Y20062500D01*
X25375000Y21500000D02*
X25375000Y21375000D01*
X25375000Y21375000D02*
X24000000Y20000000D01*
X24637500Y2200000D02*
X23937500Y1500000D01*
X24637500Y3500000D02*
X24637500Y2200000D01*
X23850000Y1500000D02*
X21850000Y3500000D01*
X23937500Y1500000D02*
X23850000Y1500000D01*
X25079999Y21795001D02*
X25375000Y21500000D01*
X24316001Y28700001D02*
X25079999Y27936003D01*
X25079999Y27936003D02*
X25079999Y21795001D01*
X9700001Y28700001D02*
X24316001Y28700001D01*
X8500000Y27500000D02*
X9700001Y28700001D01*
X26247598Y10665000D02*
X26877600Y10665000D01*
X24637500Y9054902D02*
X26247598Y10665000D01*
X24637500Y3500000D02*
X24637500Y9054902D01*
X21850000Y3500000D02*
X20500000Y3500000D01*
X20500000Y3500000D02*
X20000000Y4000000D01*
X3625000Y24000000D02*
X3755000Y24130000D01*
X2500000Y24000000D02*
X3625000Y24000000D01*
X16563000Y10725000D02*
X16489000Y10651000D01*
X18180000Y10725000D02*
X16563000Y10725000D01*
X16489000Y10651000D02*
X16489000Y12480500D01*
X14300002Y3500000D02*
X17150000Y3500000D01*
X13500000Y4300002D02*
X14300002Y3500000D01*
X2150000Y4000000D02*
X2150000Y1850000D01*
X2150000Y1850000D02*
X2500000Y1500000D01*
X9437500Y3700000D02*
X9137500Y4000000D01*
X9437500Y2000000D02*
X9437500Y3700000D01*
X9137500Y5700000D02*
X9437500Y6000000D01*
X9137500Y4000000D02*
X9137500Y5700000D01*
X8850000Y6000000D02*
X6850000Y4000000D01*
X9437500Y6000000D02*
X8850000Y6000000D01*
X9437500Y2000000D02*
X9375000Y2000000D01*
X9375000Y2000000D02*
X8000000Y625000D01*
X21950000Y13802500D02*
X20388500Y15364000D01*
X21950000Y13205000D02*
X21950000Y13802500D01*
X16120000Y22380000D02*
X16120000Y27500000D01*
X16150000Y20375000D02*
X16120000Y22380000D01*
X18660000Y27500000D02*
X18660000Y21340000D01*
X18660000Y21340000D02*
X20500000Y19500000D01*
X13500000Y27420000D02*
X13580000Y27500000D01*
X13500000Y20500000D02*
X13500000Y27420000D01*
X22000000Y21500000D02*
X23625000Y21500000D01*
D18*
G36*
X25508176Y9115600D02*
G01*
X25515455Y9041695D01*
X25537012Y8970630D01*
X25572019Y8905137D01*
X25619131Y8847731D01*
X25676537Y8800619D01*
X25742030Y8765612D01*
X25813095Y8744055D01*
X25887000Y8736776D01*
X26790535Y8736776D01*
X27266862Y8260449D01*
X27252859Y8226643D01*
X27223000Y8076528D01*
X27223000Y7923472D01*
X27252859Y7773357D01*
X27311431Y7631952D01*
X27396464Y7504691D01*
X27504691Y7396464D01*
X27631952Y7311431D01*
X27773357Y7252859D01*
X27923472Y7223000D01*
X28076528Y7223000D01*
X28098001Y7227271D01*
X28098001Y3037036D01*
X27848250Y3035000D01*
X27689500Y2876250D01*
X27689500Y1627000D01*
X27709500Y1627000D01*
X27709500Y1373000D01*
X27689500Y1373000D01*
X27689500Y1353000D01*
X27435500Y1353000D01*
X27435500Y1373000D01*
X26423750Y1373000D01*
X26265000Y1214250D01*
X26261928Y600000D01*
X26274188Y475518D01*
X26296489Y402000D01*
X25290559Y402000D01*
X25294646Y405354D01*
X25372848Y500643D01*
X25430958Y609358D01*
X25466741Y727321D01*
X25478824Y849998D01*
X25478824Y2150002D01*
X25466741Y2272679D01*
X25430958Y2390642D01*
X25372848Y2499357D01*
X25294646Y2594646D01*
X25199357Y2672848D01*
X25165784Y2690794D01*
X25173357Y2693091D01*
X25258162Y2738420D01*
X25294463Y2670506D01*
X25373815Y2573815D01*
X25470506Y2494463D01*
X25580820Y2435498D01*
X25700518Y2399188D01*
X25825000Y2386928D01*
X26076750Y2390000D01*
X26235498Y2548748D01*
X26235498Y2390000D01*
X26261978Y2390000D01*
X26265000Y1785750D01*
X26423750Y1627000D01*
X27435500Y1627000D01*
X27435500Y2679791D01*
X27489502Y2780820D01*
X27525812Y2900518D01*
X27538072Y3025000D01*
X27535000Y3214250D01*
X27376250Y3373000D01*
X26489500Y3373000D01*
X26489500Y3353000D01*
X26235500Y3353000D01*
X26235500Y3373000D01*
X26215500Y3373000D01*
X26215500Y3627000D01*
X26235500Y3627000D01*
X26235500Y4451250D01*
X26489500Y4451250D01*
X26489500Y3627000D01*
X27376250Y3627000D01*
X27535000Y3785750D01*
X27538072Y3975000D01*
X27525812Y4099482D01*
X27489502Y4219180D01*
X27430537Y4329494D01*
X27351185Y4426185D01*
X27254494Y4505537D01*
X27144180Y4564502D01*
X27024482Y4600812D01*
X26900000Y4613072D01*
X26648250Y4610000D01*
X26489500Y4451250D01*
X26235500Y4451250D01*
X26076750Y4610000D01*
X25825000Y4613072D01*
X25700518Y4600812D01*
X25580820Y4564502D01*
X25470506Y4505537D01*
X25373815Y4426185D01*
X25294463Y4329494D01*
X25258162Y4261580D01*
X25173357Y4306909D01*
X25164500Y4309596D01*
X25164500Y8836613D01*
X25508176Y9180289D01*
X25508176Y9115600D01*
G37*
X25508176Y9115600D02*
X25515455Y9041695D01*
X25537012Y8970630D01*
X25572019Y8905137D01*
X25619131Y8847731D01*
X25676537Y8800619D01*
X25742030Y8765612D01*
X25813095Y8744055D01*
X25887000Y8736776D01*
X26790535Y8736776D01*
X27266862Y8260449D01*
X27252859Y8226643D01*
X27223000Y8076528D01*
X27223000Y7923472D01*
X27252859Y7773357D01*
X27311431Y7631952D01*
X27396464Y7504691D01*
X27504691Y7396464D01*
X27631952Y7311431D01*
X27773357Y7252859D01*
X27923472Y7223000D01*
X28076528Y7223000D01*
X28098001Y7227271D01*
X28098001Y3037036D01*
X27848250Y3035000D01*
X27689500Y2876250D01*
X27689500Y1627000D01*
X27709500Y1627000D01*
X27709500Y1373000D01*
X27689500Y1373000D01*
X27689500Y1353000D01*
X27435500Y1353000D01*
X27435500Y1373000D01*
X26423750Y1373000D01*
X26265000Y1214250D01*
X26261928Y600000D01*
X26274188Y475518D01*
X26296489Y402000D01*
X25290559Y402000D01*
X25294646Y405354D01*
X25372848Y500643D01*
X25430958Y609358D01*
X25466741Y727321D01*
X25478824Y849998D01*
X25478824Y2150002D01*
X25466741Y2272679D01*
X25430958Y2390642D01*
X25372848Y2499357D01*
X25294646Y2594646D01*
X25199357Y2672848D01*
X25165784Y2690794D01*
X25173357Y2693091D01*
X25258162Y2738420D01*
X25294463Y2670506D01*
X25373815Y2573815D01*
X25470506Y2494463D01*
X25580820Y2435498D01*
X25700518Y2399188D01*
X25825000Y2386928D01*
X26076750Y2390000D01*
X26235498Y2548748D01*
X26235498Y2390000D01*
X26261978Y2390000D01*
X26265000Y1785750D01*
X26423750Y1627000D01*
X27435500Y1627000D01*
X27435500Y2679791D01*
X27489502Y2780820D01*
X27525812Y2900518D01*
X27538072Y3025000D01*
X27535000Y3214250D01*
X27376250Y3373000D01*
X26489500Y3373000D01*
X26489500Y3353000D01*
X26235500Y3353000D01*
X26235500Y3373000D01*
X26215500Y3373000D01*
X26215500Y3627000D01*
X26235500Y3627000D01*
X26235500Y4451250D01*
X26489500Y4451250D01*
X26489500Y3627000D01*
X27376250Y3627000D01*
X27535000Y3785750D01*
X27538072Y3975000D01*
X27525812Y4099482D01*
X27489502Y4219180D01*
X27430537Y4329494D01*
X27351185Y4426185D01*
X27254494Y4505537D01*
X27144180Y4564502D01*
X27024482Y4600812D01*
X26900000Y4613072D01*
X26648250Y4610000D01*
X26489500Y4451250D01*
X26235500Y4451250D01*
X26076750Y4610000D01*
X25825000Y4613072D01*
X25700518Y4600812D01*
X25580820Y4564502D01*
X25470506Y4505537D01*
X25373815Y4426185D01*
X25294463Y4329494D01*
X25258162Y4261580D01*
X25173357Y4306909D01*
X25164500Y4309596D01*
X25164500Y8836613D01*
X25508176Y9180289D01*
X25508176Y9115600D01*
G36*
X28098000Y21062460D02*
G01*
X28094180Y21064502D01*
X27974482Y21100812D01*
X27850000Y21113072D01*
X27598250Y21110000D01*
X27439500Y20951250D01*
X27439500Y20127000D01*
X27459500Y20127000D01*
X27459500Y19873000D01*
X27439500Y19873000D01*
X27439500Y18537000D01*
X27459500Y18537000D01*
X27459500Y18283000D01*
X27439500Y18283000D01*
X27439500Y17458750D01*
X27598250Y17300000D01*
X27850000Y17296928D01*
X27974482Y17309188D01*
X28094180Y17345498D01*
X28098000Y17347540D01*
X28098000Y15000845D01*
X27995309Y15103536D01*
X27868048Y15188569D01*
X27726643Y15247141D01*
X27576528Y15277000D01*
X27423472Y15277000D01*
X27310793Y15254587D01*
X27313072Y15395000D01*
X27300812Y15519482D01*
X27264502Y15639180D01*
X27205537Y15749494D01*
X27126185Y15846185D01*
X27029494Y15925537D01*
X26919180Y15984502D01*
X26799482Y16020812D01*
X26675000Y16033072D01*
X26423250Y16030000D01*
X26264500Y15871250D01*
X26264500Y15047000D01*
X26284500Y15047000D01*
X26284500Y14793000D01*
X26264500Y14793000D01*
X26264500Y14773000D01*
X26010500Y14773000D01*
X26010500Y14793000D01*
X25990500Y14793000D01*
X25990500Y15047000D01*
X26010500Y15047000D01*
X26010500Y15779713D01*
X26027804Y15800798D01*
X26076739Y15892350D01*
X26106874Y15991690D01*
X26114500Y16069119D01*
X26117049Y16095000D01*
X26114500Y16120881D01*
X26114500Y17600404D01*
X26123357Y17603091D01*
X26208162Y17648420D01*
X26244463Y17580506D01*
X26323815Y17483815D01*
X26420506Y17404463D01*
X26530820Y17345498D01*
X26650518Y17309188D01*
X26775000Y17296928D01*
X27026750Y17300000D01*
X27185500Y17458750D01*
X27185500Y18283000D01*
X27165500Y18283000D01*
X27165500Y18537000D01*
X27185500Y18537000D01*
X27185500Y19873000D01*
X27165500Y19873000D01*
X27165500Y20127000D01*
X27185500Y20127000D01*
X27185500Y20951250D01*
X27026750Y21110000D01*
X26775000Y21113072D01*
X26650518Y21100812D01*
X26530820Y21064502D01*
X26420506Y21005537D01*
X26323815Y20926185D01*
X26244463Y20829494D01*
X26208162Y20761580D01*
X26123357Y20806909D01*
X26087467Y20817796D01*
X26098307Y20826693D01*
X26174955Y20920089D01*
X26231909Y21026643D01*
X26266982Y21142261D01*
X26278824Y21262500D01*
X26278824Y21737500D01*
X26266982Y21857739D01*
X26231909Y21973357D01*
X26174955Y22079911D01*
X26098307Y22173307D01*
X26004911Y22249955D01*
X25898357Y22306909D01*
X25782739Y22341982D01*
X25662500Y22353824D01*
X25606999Y22353824D01*
X25606999Y26473985D01*
X25698798Y26412647D01*
X25922097Y26320153D01*
X26159151Y26273000D01*
X26400849Y26273000D01*
X26637903Y26320153D01*
X26861202Y26412647D01*
X27062167Y26546927D01*
X27233073Y26717833D01*
X27367353Y26918798D01*
X27459847Y27142097D01*
X27507000Y27379151D01*
X27507000Y27620849D01*
X27459847Y27857903D01*
X27367353Y28081202D01*
X27233073Y28282167D01*
X27062167Y28453073D01*
X26861202Y28587353D01*
X26637903Y28679847D01*
X26400849Y28727000D01*
X26159151Y28727000D01*
X25922097Y28679847D01*
X25698798Y28587353D01*
X25497833Y28453073D01*
X25403026Y28358266D01*
X24706956Y29054335D01*
X24690449Y29074449D01*
X24610203Y29140305D01*
X24518651Y29189240D01*
X24419311Y29219375D01*
X24341882Y29227001D01*
X24316001Y29229550D01*
X24290120Y29227001D01*
X9725882Y29227001D01*
X9700001Y29229550D01*
X9674120Y29227001D01*
X9596691Y29219375D01*
X9497351Y29189240D01*
X9405799Y29140305D01*
X9325553Y29074449D01*
X9309054Y29054345D01*
X8983534Y28728824D01*
X7650000Y28728824D01*
X7576095Y28721545D01*
X7505030Y28699988D01*
X7439537Y28664981D01*
X7382131Y28617869D01*
X7335019Y28560463D01*
X7300012Y28494970D01*
X7278455Y28423905D01*
X7271176Y28350000D01*
X7271176Y26650000D01*
X7278455Y26576095D01*
X7300012Y26505030D01*
X7335019Y26439537D01*
X7382131Y26382131D01*
X7439537Y26335019D01*
X7505030Y26300012D01*
X7576095Y26278455D01*
X7650000Y26271176D01*
X9350000Y26271176D01*
X9423905Y26278455D01*
X9494970Y26300012D01*
X9560463Y26335019D01*
X9617869Y26382131D01*
X9664981Y26439537D01*
X9699988Y26505030D01*
X9721545Y26576095D01*
X9728824Y26650000D01*
X9728824Y26813380D01*
X9844822Y26618645D01*
X10039731Y26402412D01*
X10273080Y26228359D01*
X10535901Y26103175D01*
X10683110Y26058524D01*
X10913000Y26179845D01*
X10913000Y27373000D01*
X10893000Y27373000D01*
X10893000Y27627000D01*
X10913000Y27627000D01*
X10913000Y27647000D01*
X11167000Y27647000D01*
X11167000Y27627000D01*
X11187000Y27627000D01*
X11187000Y27373000D01*
X11167000Y27373000D01*
X11167000Y26179845D01*
X11396890Y26058524D01*
X11544099Y26103175D01*
X11806920Y26228359D01*
X12040269Y26402412D01*
X12235178Y26618645D01*
X12384157Y26868748D01*
X12443769Y27036798D01*
X12492647Y26918798D01*
X12626927Y26717833D01*
X12797833Y26546927D01*
X12973001Y26429884D01*
X12973000Y21071845D01*
X12896464Y20995309D01*
X12811431Y20868048D01*
X12752859Y20726643D01*
X12723000Y20576528D01*
X12723000Y20423472D01*
X12752859Y20273357D01*
X12811431Y20131952D01*
X12896464Y20004691D01*
X13004691Y19896464D01*
X13131952Y19811431D01*
X13273357Y19752859D01*
X13423472Y19723000D01*
X13576528Y19723000D01*
X13726643Y19752859D01*
X13868048Y19811431D01*
X13995309Y19896464D01*
X14103536Y20004691D01*
X14188569Y20131952D01*
X14247141Y20273357D01*
X14277000Y20423472D01*
X14277000Y20576528D01*
X14247141Y20726643D01*
X14188569Y20868048D01*
X14103536Y20995309D01*
X14027000Y21071845D01*
X14027000Y26357058D01*
X14161202Y26412647D01*
X14362167Y26546927D01*
X14533073Y26717833D01*
X14667353Y26918798D01*
X14759847Y27142097D01*
X14807000Y27379151D01*
X14807000Y27620849D01*
X14759847Y27857903D01*
X14667353Y28081202D01*
X14606015Y28173001D01*
X15093985Y28173001D01*
X15032647Y28081202D01*
X14940153Y27857903D01*
X14893000Y27620849D01*
X14893000Y27379151D01*
X14940153Y27142097D01*
X15032647Y26918798D01*
X15166927Y26717833D01*
X15337833Y26546927D01*
X15538798Y26412647D01*
X15593001Y26390195D01*
X15593000Y22401926D01*
X15592672Y22397993D01*
X15593000Y22376072D01*
X15593000Y22354120D01*
X15593387Y22350188D01*
X15614512Y20938357D01*
X15546464Y20870309D01*
X15461431Y20743048D01*
X15402859Y20601643D01*
X15373000Y20451528D01*
X15373000Y20298472D01*
X15402859Y20148357D01*
X15461431Y20006952D01*
X15546464Y19879691D01*
X15654691Y19771464D01*
X15781952Y19686431D01*
X15923357Y19627859D01*
X16073472Y19598000D01*
X16226528Y19598000D01*
X16376643Y19627859D01*
X16518048Y19686431D01*
X16645309Y19771464D01*
X16753536Y19879691D01*
X16838569Y20006952D01*
X16897141Y20148357D01*
X16927000Y20298472D01*
X16927000Y20451528D01*
X16897141Y20601643D01*
X16838569Y20743048D01*
X16753536Y20870309D01*
X16668373Y20955472D01*
X16647000Y22383888D01*
X16647000Y26390196D01*
X16701202Y26412647D01*
X16902167Y26546927D01*
X17073073Y26717833D01*
X17207353Y26918798D01*
X17299847Y27142097D01*
X17347000Y27379151D01*
X17347000Y27620849D01*
X17299847Y27857903D01*
X17207353Y28081202D01*
X17146015Y28173001D01*
X17633985Y28173001D01*
X17572647Y28081202D01*
X17480153Y27857903D01*
X17433000Y27620849D01*
X17433000Y27379151D01*
X17480153Y27142097D01*
X17572647Y26918798D01*
X17706927Y26717833D01*
X17877833Y26546927D01*
X18078798Y26412647D01*
X18133000Y26390196D01*
X18133001Y21365891D01*
X18130451Y21340000D01*
X18140626Y21236691D01*
X18170761Y21137351D01*
X18212268Y21059696D01*
X18219697Y21045798D01*
X18285553Y20965552D01*
X18305662Y20949049D01*
X19723000Y19531710D01*
X19723000Y19423472D01*
X19752859Y19273357D01*
X19811431Y19131952D01*
X19896464Y19004691D01*
X20004691Y18896464D01*
X20131952Y18811431D01*
X20273357Y18752859D01*
X20423472Y18723000D01*
X20576528Y18723000D01*
X20726643Y18752859D01*
X20868048Y18811431D01*
X20995309Y18896464D01*
X21103536Y19004691D01*
X21188569Y19131952D01*
X21247141Y19273357D01*
X21277000Y19423472D01*
X21277000Y19576528D01*
X21247141Y19726643D01*
X21188569Y19868048D01*
X21103536Y19995309D01*
X20995309Y20103536D01*
X20868048Y20188569D01*
X20726643Y20247141D01*
X20576528Y20277000D01*
X20468290Y20277000D01*
X19187000Y21558289D01*
X19187000Y26390196D01*
X19241202Y26412647D01*
X19442167Y26546927D01*
X19613073Y26717833D01*
X19747353Y26918798D01*
X19839847Y27142097D01*
X19887000Y27379151D01*
X19887000Y27620849D01*
X19839847Y27857903D01*
X19747353Y28081202D01*
X19686015Y28173001D01*
X20173985Y28173001D01*
X20112647Y28081202D01*
X20020153Y27857903D01*
X19973000Y27620849D01*
X19973000Y27379151D01*
X20020153Y27142097D01*
X20112647Y26918798D01*
X20246927Y26717833D01*
X20417833Y26546927D01*
X20618798Y26412647D01*
X20842097Y26320153D01*
X21079151Y26273000D01*
X21320849Y26273000D01*
X21557903Y26320153D01*
X21781202Y26412647D01*
X21982167Y26546927D01*
X22153073Y26717833D01*
X22287353Y26918798D01*
X22379847Y27142097D01*
X22427000Y27379151D01*
X22427000Y27620849D01*
X22379847Y27857903D01*
X22287353Y28081202D01*
X22226015Y28173001D01*
X22713985Y28173001D01*
X22652647Y28081202D01*
X22560153Y27857903D01*
X22513000Y27620849D01*
X22513000Y27379151D01*
X22560153Y27142097D01*
X22652647Y26918798D01*
X22786927Y26717833D01*
X22957833Y26546927D01*
X23158798Y26412647D01*
X23382097Y26320153D01*
X23619151Y26273000D01*
X23860849Y26273000D01*
X24097903Y26320153D01*
X24321202Y26412647D01*
X24522167Y26546927D01*
X24552999Y26577759D01*
X24553000Y22038667D01*
X24518091Y21973357D01*
X24500000Y21913720D01*
X24481909Y21973357D01*
X24424955Y22079911D01*
X24348307Y22173307D01*
X24254911Y22249955D01*
X24148357Y22306909D01*
X24032739Y22341982D01*
X23912500Y22353824D01*
X23337500Y22353824D01*
X23217261Y22341982D01*
X23101643Y22306909D01*
X22995089Y22249955D01*
X22901693Y22173307D01*
X22825045Y22079911D01*
X22796764Y22027000D01*
X22571845Y22027000D01*
X22495309Y22103536D01*
X22368048Y22188569D01*
X22226643Y22247141D01*
X22076528Y22277000D01*
X21923472Y22277000D01*
X21773357Y22247141D01*
X21631952Y22188569D01*
X21504691Y22103536D01*
X21396464Y21995309D01*
X21311431Y21868048D01*
X21252859Y21726643D01*
X21223000Y21576528D01*
X21223000Y21423472D01*
X21252859Y21273357D01*
X21311431Y21131952D01*
X21396464Y21004691D01*
X21504691Y20896464D01*
X21631952Y20811431D01*
X21773357Y20752859D01*
X21923472Y20723000D01*
X22076528Y20723000D01*
X22226643Y20752859D01*
X22368048Y20811431D01*
X22495309Y20896464D01*
X22571845Y20973000D01*
X22796764Y20973000D01*
X22825045Y20920089D01*
X22901693Y20826693D01*
X22995089Y20750045D01*
X23101643Y20693091D01*
X23217261Y20658018D01*
X23337500Y20646176D01*
X23568506Y20646176D01*
X23504691Y20603536D01*
X23396464Y20495309D01*
X23311431Y20368048D01*
X23252859Y20226643D01*
X23223000Y20076528D01*
X23223000Y19923472D01*
X23252859Y19773357D01*
X23311431Y19631952D01*
X23396464Y19504691D01*
X23504691Y19396464D01*
X23631952Y19311431D01*
X23773357Y19252859D01*
X23923472Y19223000D01*
X24076528Y19223000D01*
X24226643Y19252859D01*
X24368048Y19311431D01*
X24495309Y19396464D01*
X24603536Y19504691D01*
X24686902Y19629457D01*
X24718091Y19526643D01*
X24775045Y19420089D01*
X24851693Y19326693D01*
X24945089Y19250045D01*
X25029363Y19205000D01*
X24945089Y19159955D01*
X24851693Y19083307D01*
X24775045Y18989911D01*
X24718091Y18883357D01*
X24683018Y18767739D01*
X24671176Y18647500D01*
X24671176Y18172500D01*
X24683018Y18052261D01*
X24718091Y17936643D01*
X24775045Y17830089D01*
X24851693Y17736693D01*
X24945089Y17660045D01*
X25051643Y17603091D01*
X25060500Y17600404D01*
X25060501Y16313291D01*
X24521035Y15773824D01*
X24112500Y15773824D01*
X23992261Y15761982D01*
X23876643Y15726909D01*
X23770089Y15669955D01*
X23676693Y15593307D01*
X23600045Y15499911D01*
X23543091Y15393357D01*
X23508018Y15277739D01*
X23496176Y15157500D01*
X23496176Y14682500D01*
X23508018Y14562261D01*
X23543091Y14446643D01*
X23600045Y14340089D01*
X23676693Y14246693D01*
X23770089Y14170045D01*
X23876643Y14113091D01*
X23885501Y14110404D01*
X23885500Y11865381D01*
X23882951Y11839500D01*
X23893126Y11736191D01*
X23923261Y11636851D01*
X23972196Y11545298D01*
X24038052Y11465052D01*
X24058166Y11448545D01*
X24782851Y10723859D01*
X24726643Y10747141D01*
X24576528Y10777000D01*
X24423472Y10777000D01*
X24273357Y10747141D01*
X24131952Y10688569D01*
X24004691Y10603536D01*
X23896464Y10495309D01*
X23811431Y10368048D01*
X23752859Y10226643D01*
X23723000Y10076528D01*
X23723000Y10013288D01*
X23552988Y9843276D01*
X23529507Y9920010D01*
X23470275Y10030180D01*
X23390689Y10126679D01*
X23293805Y10205796D01*
X23276799Y10214833D01*
X23290588Y10240630D01*
X23312145Y10311695D01*
X23319424Y10385600D01*
X23319424Y10944400D01*
X23312145Y11018305D01*
X23290588Y11089370D01*
X23255581Y11154863D01*
X23208469Y11212269D01*
X23151063Y11259381D01*
X23085570Y11294388D01*
X23067069Y11300000D01*
X23085570Y11305612D01*
X23151063Y11340619D01*
X23208469Y11387731D01*
X23255581Y11445137D01*
X23290588Y11510630D01*
X23312145Y11581695D01*
X23319424Y11655600D01*
X23319424Y12214400D01*
X23312145Y12288305D01*
X23290588Y12359370D01*
X23255581Y12424863D01*
X23208469Y12482269D01*
X23151063Y12529381D01*
X23085570Y12564388D01*
X23067069Y12570000D01*
X23085570Y12575612D01*
X23151063Y12610619D01*
X23208469Y12657731D01*
X23255581Y12715137D01*
X23290588Y12780630D01*
X23312145Y12851695D01*
X23319424Y12925600D01*
X23319424Y13484400D01*
X23312145Y13558305D01*
X23290588Y13629370D01*
X23255581Y13694863D01*
X23208469Y13752269D01*
X23151063Y13799381D01*
X23085570Y13834388D01*
X23014505Y13855945D01*
X22940600Y13863224D01*
X22473568Y13863224D01*
X22469374Y13905810D01*
X22439239Y14005150D01*
X22390304Y14096702D01*
X22324448Y14176948D01*
X22304339Y14193451D01*
X21292324Y15205465D01*
X21292324Y15601500D01*
X21280482Y15721739D01*
X21245409Y15837357D01*
X21188455Y15943911D01*
X21111807Y16037307D01*
X21018411Y16113955D01*
X20911857Y16170909D01*
X20796239Y16205982D01*
X20676000Y16217824D01*
X20101000Y16217824D01*
X19980761Y16205982D01*
X19865143Y16170909D01*
X19758589Y16113955D01*
X19743271Y16101384D01*
X19694037Y16193494D01*
X19614685Y16290185D01*
X19517994Y16369537D01*
X19407680Y16428502D01*
X19287982Y16464812D01*
X19163500Y16477072D01*
X18924250Y16474000D01*
X18765500Y16315250D01*
X18765500Y15491000D01*
X18785500Y15491000D01*
X18785500Y15237000D01*
X18765500Y15237000D01*
X18765500Y14412750D01*
X18924250Y14254000D01*
X19163500Y14250928D01*
X19287982Y14263188D01*
X19407680Y14299498D01*
X19517994Y14358463D01*
X19614685Y14437815D01*
X19694037Y14534506D01*
X19743271Y14626616D01*
X19758589Y14614045D01*
X19865143Y14557091D01*
X19980761Y14522018D01*
X20101000Y14510176D01*
X20497035Y14510176D01*
X21143986Y13863224D01*
X20959400Y13863224D01*
X20885495Y13855945D01*
X20814430Y13834388D01*
X20748937Y13799381D01*
X20691531Y13752269D01*
X20644419Y13694863D01*
X20609412Y13629370D01*
X20587855Y13558305D01*
X20580576Y13484400D01*
X20580576Y12925600D01*
X20587855Y12851695D01*
X20609412Y12780630D01*
X20644419Y12715137D01*
X20691531Y12657731D01*
X20748937Y12610619D01*
X20814430Y12575612D01*
X20832931Y12570000D01*
X20814430Y12564388D01*
X20748937Y12529381D01*
X20691531Y12482269D01*
X20674897Y12462000D01*
X20281656Y12462000D01*
X18421203Y14322453D01*
X18511500Y14412750D01*
X18511500Y15237000D01*
X17637250Y15237000D01*
X17478500Y15078250D01*
X17475428Y14889000D01*
X17487688Y14764518D01*
X17489817Y14757500D01*
X17293962Y14757500D01*
X17238955Y14860411D01*
X17162307Y14953807D01*
X17068911Y15030455D01*
X16962357Y15087409D01*
X16846739Y15122482D01*
X16726500Y15134324D01*
X16251500Y15134324D01*
X16131261Y15122482D01*
X16015643Y15087409D01*
X15909089Y15030455D01*
X15815693Y14953807D01*
X15739045Y14860411D01*
X15682091Y14753857D01*
X15647018Y14638239D01*
X15635176Y14518000D01*
X15635176Y14466966D01*
X14501035Y13332824D01*
X14092500Y13332824D01*
X13972261Y13320982D01*
X13856643Y13285909D01*
X13750089Y13228955D01*
X13656693Y13152307D01*
X13580045Y13058911D01*
X13523091Y12952357D01*
X13520404Y12943500D01*
X12879417Y12943500D01*
X12871580Y12958162D01*
X12939494Y12994463D01*
X13036185Y13073815D01*
X13115537Y13170506D01*
X13174502Y13280820D01*
X13210812Y13400518D01*
X13223072Y13525000D01*
X13220000Y13776750D01*
X13061250Y13935500D01*
X12237000Y13935500D01*
X12237000Y13915500D01*
X11983000Y13915500D01*
X11983000Y13935500D01*
X11158750Y13935500D01*
X11000000Y13776750D01*
X10996928Y13525000D01*
X11009188Y13400518D01*
X11045498Y13280820D01*
X11104463Y13170506D01*
X11183815Y13073815D01*
X11280506Y12994463D01*
X11348420Y12958162D01*
X11303091Y12873357D01*
X11300404Y12864500D01*
X11136411Y12864500D01*
X11131545Y12913905D01*
X11109988Y12984970D01*
X11074981Y13050463D01*
X11027869Y13107869D01*
X10970463Y13154981D01*
X10904970Y13189988D01*
X10833905Y13211545D01*
X10760000Y13218824D01*
X9860000Y13218824D01*
X9786095Y13211545D01*
X9715030Y13189988D01*
X9649537Y13154981D01*
X9592131Y13107869D01*
X9545019Y13050463D01*
X9510012Y12984970D01*
X9504561Y12967000D01*
X7778290Y12967000D01*
X7027000Y13718289D01*
X7027000Y14600000D01*
X10996928Y14600000D01*
X11000000Y14348250D01*
X11158750Y14189500D01*
X11983000Y14189500D01*
X11983000Y15076250D01*
X12237000Y15076250D01*
X12237000Y14189500D01*
X13061250Y14189500D01*
X13220000Y14348250D01*
X13223072Y14600000D01*
X13210812Y14724482D01*
X13174502Y14844180D01*
X13115537Y14954494D01*
X13036185Y15051185D01*
X12939494Y15130537D01*
X12829180Y15189502D01*
X12709482Y15225812D01*
X12585000Y15238072D01*
X12395750Y15235000D01*
X12237000Y15076250D01*
X11983000Y15076250D01*
X11824250Y15235000D01*
X11635000Y15238072D01*
X11510518Y15225812D01*
X11390820Y15189502D01*
X11280506Y15130537D01*
X11183815Y15051185D01*
X11104463Y14954494D01*
X11045498Y14844180D01*
X11009188Y14724482D01*
X10996928Y14600000D01*
X7027000Y14600000D01*
X7027000Y15839000D01*
X17475428Y15839000D01*
X17478500Y15649750D01*
X17637250Y15491000D01*
X18511500Y15491000D01*
X18511500Y16315250D01*
X18352750Y16474000D01*
X18113500Y16477072D01*
X17989018Y16464812D01*
X17869320Y16428502D01*
X17759006Y16369537D01*
X17662315Y16290185D01*
X17582963Y16193494D01*
X17523998Y16083180D01*
X17487688Y15963482D01*
X17475428Y15839000D01*
X7027000Y15839000D01*
X7027000Y16594119D01*
X7029549Y16620000D01*
X7019374Y16723310D01*
X6989239Y16822649D01*
X6989239Y16822650D01*
X6940304Y16914202D01*
X6874448Y16994448D01*
X6854345Y17010946D01*
X4657395Y19207894D01*
X4679847Y19262097D01*
X4727000Y19499151D01*
X4727000Y19740849D01*
X4679847Y19977903D01*
X4587353Y20201202D01*
X4453073Y20402167D01*
X4282167Y20573073D01*
X4081202Y20707353D01*
X3857903Y20799847D01*
X3620849Y20847000D01*
X3379151Y20847000D01*
X3142097Y20799847D01*
X2918798Y20707353D01*
X2717833Y20573073D01*
X2546927Y20402167D01*
X2412647Y20201202D01*
X2320153Y19977903D01*
X2273000Y19740849D01*
X2273000Y19499151D01*
X2320153Y19262097D01*
X2412647Y19038798D01*
X2546927Y18837833D01*
X2717833Y18666927D01*
X2918798Y18532647D01*
X3142097Y18440153D01*
X3379151Y18393000D01*
X3620849Y18393000D01*
X3857903Y18440153D01*
X3912106Y18462605D01*
X5973001Y16401708D01*
X5973001Y15352289D01*
X4657395Y16667894D01*
X4679847Y16722097D01*
X4727000Y16959151D01*
X4727000Y17200849D01*
X4679847Y17437903D01*
X4587353Y17661202D01*
X4453073Y17862167D01*
X4282167Y18033073D01*
X4081202Y18167353D01*
X3857903Y18259847D01*
X3620849Y18307000D01*
X3379151Y18307000D01*
X3142097Y18259847D01*
X2918798Y18167353D01*
X2717833Y18033073D01*
X2546927Y17862167D01*
X2412647Y17661202D01*
X2320153Y17437903D01*
X2273000Y17200849D01*
X2273000Y16959151D01*
X2320153Y16722097D01*
X2412647Y16498798D01*
X2546927Y16297833D01*
X2717833Y16126927D01*
X2918798Y15992647D01*
X3036798Y15943769D01*
X2868748Y15884157D01*
X2618645Y15735178D01*
X2402412Y15540269D01*
X2228359Y15306920D01*
X2103175Y15044099D01*
X2058524Y14896890D01*
X2179845Y14667000D01*
X3373000Y14667000D01*
X3373000Y14687000D01*
X3627000Y14687000D01*
X3627000Y14667000D01*
X4820155Y14667000D01*
X4940213Y14894497D01*
X5473001Y14361709D01*
X5473000Y11525881D01*
X5470451Y11500000D01*
X5475793Y11445761D01*
X5480626Y11396691D01*
X5510761Y11297351D01*
X5559696Y11205798D01*
X5625552Y11125552D01*
X5645666Y11109045D01*
X6611318Y10143391D01*
X6630105Y10121055D01*
X6668087Y10090644D01*
X6705798Y10059696D01*
X6708635Y10058180D01*
X6711140Y10056174D01*
X6754364Y10033737D01*
X6797351Y10010761D01*
X6800425Y10009829D01*
X6803277Y10008348D01*
X6850048Y9994775D01*
X6896690Y9980626D01*
X6899891Y9980311D01*
X6902974Y9979416D01*
X6951483Y9975229D01*
X7000000Y9970451D01*
X7029058Y9973313D01*
X9507514Y10003264D01*
X9510012Y9995030D01*
X9545019Y9929537D01*
X9592131Y9872131D01*
X9649537Y9825019D01*
X9715030Y9790012D01*
X9786095Y9768455D01*
X9860000Y9761176D01*
X10760000Y9761176D01*
X10833905Y9768455D01*
X10904970Y9790012D01*
X10970463Y9825019D01*
X11027869Y9872131D01*
X11074981Y9929537D01*
X11109988Y9995030D01*
X11131545Y10066095D01*
X11133456Y10085500D01*
X11320404Y10085500D01*
X11323091Y10076643D01*
X11368420Y9991838D01*
X11300506Y9955537D01*
X11203815Y9876185D01*
X11124463Y9779494D01*
X11065498Y9669180D01*
X11029188Y9549482D01*
X11016928Y9425000D01*
X11020000Y9173250D01*
X11178750Y9014500D01*
X12003000Y9014500D01*
X12003000Y9034500D01*
X12257000Y9034500D01*
X12257000Y9014500D01*
X13081250Y9014500D01*
X13240000Y9173250D01*
X13243072Y9425000D01*
X13230812Y9549482D01*
X13194502Y9669180D01*
X13135537Y9779494D01*
X13056185Y9876185D01*
X12959494Y9955537D01*
X12891580Y9991838D01*
X12936909Y10076643D01*
X12963561Y10164500D01*
X13520404Y10164500D01*
X13523091Y10155643D01*
X13580045Y10049089D01*
X13656693Y9955693D01*
X13750089Y9879045D01*
X13856643Y9822091D01*
X13972261Y9787018D01*
X14092500Y9775176D01*
X14567500Y9775176D01*
X14687739Y9787018D01*
X14803357Y9822091D01*
X14815910Y9828801D01*
X15635176Y9009534D01*
X15635176Y8613500D01*
X15647018Y8493261D01*
X15682091Y8377643D01*
X15739045Y8271089D01*
X15815693Y8177693D01*
X15909089Y8101045D01*
X16015643Y8044091D01*
X16131261Y8009018D01*
X16251500Y7997176D01*
X16726500Y7997176D01*
X16846739Y8009018D01*
X16962357Y8044091D01*
X17068911Y8101045D01*
X17162307Y8177693D01*
X17238955Y8271089D01*
X17293962Y8374000D01*
X17717084Y8374000D01*
X17761597Y8372762D01*
X17794468Y8378355D01*
X17827676Y8381626D01*
X17845545Y8387047D01*
X17863936Y8390176D01*
X17895084Y8402074D01*
X17927016Y8411761D01*
X17943482Y8420562D01*
X17960911Y8427220D01*
X17989138Y8444965D01*
X18018568Y8460696D01*
X18053030Y8488978D01*
X20180339Y10138000D01*
X20523174Y10138000D01*
X20509311Y10126679D01*
X20429725Y10030180D01*
X20370493Y9920010D01*
X20333892Y9800400D01*
X20324400Y9680750D01*
X20483150Y9522000D01*
X21823000Y9522000D01*
X21823000Y9542000D01*
X22077000Y9542000D01*
X22077000Y9522000D01*
X22097000Y9522000D01*
X22097000Y9268000D01*
X22077000Y9268000D01*
X22077000Y9248000D01*
X21823000Y9248000D01*
X21823000Y9268000D01*
X20483150Y9268000D01*
X20324400Y9109250D01*
X20330925Y9027000D01*
X20071845Y9027000D01*
X19995309Y9103536D01*
X19868048Y9188569D01*
X19726643Y9247141D01*
X19576528Y9277000D01*
X19423472Y9277000D01*
X19273357Y9247141D01*
X19131952Y9188569D01*
X19004691Y9103536D01*
X18896464Y8995309D01*
X18811431Y8868048D01*
X18752859Y8726643D01*
X18723000Y8576528D01*
X18723000Y8423472D01*
X18752859Y8273357D01*
X18811431Y8131952D01*
X18896464Y8004691D01*
X19004691Y7896464D01*
X19131952Y7811431D01*
X19273357Y7752859D01*
X19423472Y7723000D01*
X19576528Y7723000D01*
X19726643Y7752859D01*
X19868048Y7811431D01*
X19995309Y7896464D01*
X20071845Y7973000D01*
X22929121Y7973000D01*
X22955002Y7970451D01*
X22980883Y7973000D01*
X23058312Y7980626D01*
X23157652Y8010761D01*
X23249204Y8059696D01*
X23329450Y8125552D01*
X23345957Y8145666D01*
X24110501Y8910209D01*
X24110500Y4309596D01*
X24101643Y4306909D01*
X23995089Y4249955D01*
X23901693Y4173307D01*
X23825045Y4079911D01*
X23768091Y3973357D01*
X23733018Y3857739D01*
X23721176Y3737500D01*
X23721176Y3262500D01*
X23733018Y3142261D01*
X23768091Y3026643D01*
X23825045Y2920089D01*
X23901693Y2826693D01*
X23966984Y2773110D01*
X23902321Y2766741D01*
X23784358Y2730958D01*
X23675643Y2672848D01*
X23580354Y2594646D01*
X23544424Y2550866D01*
X23328824Y2766466D01*
X23328824Y4875000D01*
X23321545Y4948905D01*
X23299988Y5019970D01*
X23264981Y5085463D01*
X23217869Y5142869D01*
X23160463Y5189981D01*
X23094970Y5224988D01*
X23023905Y5246545D01*
X22950000Y5253824D01*
X20750000Y5253824D01*
X20676095Y5246545D01*
X20605030Y5224988D01*
X20539537Y5189981D01*
X20482131Y5142869D01*
X20435019Y5085463D01*
X20400012Y5019970D01*
X20378455Y4948905D01*
X20371176Y4875000D01*
X20371176Y4686479D01*
X20368048Y4688569D01*
X20226643Y4747141D01*
X20076528Y4777000D01*
X19923472Y4777000D01*
X19773357Y4747141D01*
X19631952Y4688569D01*
X19504691Y4603536D01*
X19396464Y4495309D01*
X19311431Y4368048D01*
X19252859Y4226643D01*
X19223000Y4076528D01*
X19223000Y3923472D01*
X19252859Y3773357D01*
X19311431Y3631952D01*
X19396464Y3504691D01*
X19504691Y3396464D01*
X19631952Y3311431D01*
X19773357Y3252859D01*
X19923472Y3223000D01*
X20031709Y3223000D01*
X20109053Y3145656D01*
X20125552Y3125552D01*
X20205798Y3059696D01*
X20297350Y3010761D01*
X20371176Y2988366D01*
X20371176Y2125000D01*
X20378455Y2051095D01*
X20400012Y1980030D01*
X20435019Y1914537D01*
X20482131Y1857131D01*
X20539537Y1810019D01*
X20605030Y1775012D01*
X20676095Y1753455D01*
X20750000Y1746176D01*
X22858534Y1746176D01*
X23396176Y1208534D01*
X23396176Y849998D01*
X23408259Y727321D01*
X23444042Y609358D01*
X23502152Y500643D01*
X23580354Y405354D01*
X23584441Y402000D01*
X8747866Y402000D01*
X8777000Y548472D01*
X8777000Y656710D01*
X8864900Y744610D01*
X8902321Y733259D01*
X9024998Y721176D01*
X9850002Y721176D01*
X9972679Y733259D01*
X10090642Y769042D01*
X10199357Y827152D01*
X10294646Y905354D01*
X10372848Y1000643D01*
X10425955Y1100000D01*
X11261928Y1100000D01*
X11274188Y975518D01*
X11310498Y855820D01*
X11369463Y745506D01*
X11448815Y648815D01*
X11545506Y569463D01*
X11655820Y510498D01*
X11775518Y474188D01*
X11900000Y461928D01*
X12276750Y465000D01*
X12435500Y623750D01*
X12435500Y1873000D01*
X12689500Y1873000D01*
X12689500Y623750D01*
X12848250Y465000D01*
X13225000Y461928D01*
X13349482Y474188D01*
X13469180Y510498D01*
X13579494Y569463D01*
X13676185Y648815D01*
X13755537Y745506D01*
X13814502Y855820D01*
X13850812Y975518D01*
X13863072Y1100000D01*
X13860000Y1714250D01*
X13701250Y1873000D01*
X12689500Y1873000D01*
X12435500Y1873000D01*
X11423750Y1873000D01*
X11265000Y1714250D01*
X11261928Y1100000D01*
X10425955Y1100000D01*
X10430958Y1109358D01*
X10466741Y1227321D01*
X10478824Y1349998D01*
X10478824Y2650002D01*
X10466741Y2772679D01*
X10431690Y2888230D01*
X10576750Y2890000D01*
X10735500Y3048750D01*
X10735500Y3873000D01*
X10989500Y3873000D01*
X10989500Y3048750D01*
X11148250Y2890000D01*
X11261985Y2888612D01*
X11265000Y2285750D01*
X11423750Y2127000D01*
X12435500Y2127000D01*
X12435500Y3376250D01*
X12689500Y3376250D01*
X12689500Y2127000D01*
X13701250Y2127000D01*
X13860000Y2285750D01*
X13863072Y2900000D01*
X13850812Y3024482D01*
X13814502Y3144180D01*
X13755537Y3254494D01*
X13676185Y3351185D01*
X13579494Y3430537D01*
X13469180Y3489502D01*
X13349482Y3525812D01*
X13225000Y3538072D01*
X12848250Y3535000D01*
X12689500Y3376250D01*
X12435500Y3376250D01*
X12276750Y3535000D01*
X12037878Y3536948D01*
X12035000Y3714250D01*
X11876250Y3873000D01*
X10989500Y3873000D01*
X10735500Y3873000D01*
X10715500Y3873000D01*
X10715500Y4127000D01*
X10735500Y4127000D01*
X10735500Y4951250D01*
X10989500Y4951250D01*
X10989500Y4127000D01*
X11876250Y4127000D01*
X12035000Y4285750D01*
X12037878Y4463052D01*
X12276750Y4465000D01*
X12435500Y4623750D01*
X12435500Y5873000D01*
X12689500Y5873000D01*
X12689500Y4623750D01*
X12762743Y4550507D01*
X12752859Y4526645D01*
X12723000Y4376530D01*
X12723000Y4223474D01*
X12752859Y4073359D01*
X12811431Y3931954D01*
X12896464Y3804693D01*
X13004691Y3696466D01*
X13131952Y3611433D01*
X13273357Y3552861D01*
X13423472Y3523002D01*
X13531710Y3523002D01*
X13909055Y3145656D01*
X13925554Y3125552D01*
X14005800Y3059696D01*
X14097352Y3010761D01*
X14196692Y2980626D01*
X14300002Y2970451D01*
X14325883Y2973000D01*
X15671176Y2973000D01*
X15671176Y2125000D01*
X15678455Y2051095D01*
X15700012Y1980030D01*
X15735019Y1914537D01*
X15782131Y1857131D01*
X15839537Y1810019D01*
X15905030Y1775012D01*
X15976095Y1753455D01*
X16050000Y1746176D01*
X18250000Y1746176D01*
X18323905Y1753455D01*
X18394970Y1775012D01*
X18460463Y1810019D01*
X18517869Y1857131D01*
X18564981Y1914537D01*
X18599988Y1980030D01*
X18621545Y2051095D01*
X18628824Y2125000D01*
X18628824Y4875000D01*
X18621545Y4948905D01*
X18599988Y5019970D01*
X18564981Y5085463D01*
X18517869Y5142869D01*
X18460463Y5189981D01*
X18394970Y5224988D01*
X18323905Y5246545D01*
X18250000Y5253824D01*
X16050000Y5253824D01*
X15976095Y5246545D01*
X15905030Y5224988D01*
X15839537Y5189981D01*
X15782131Y5142869D01*
X15735019Y5085463D01*
X15700012Y5019970D01*
X15678455Y4948905D01*
X15671176Y4875000D01*
X15671176Y4027000D01*
X14518293Y4027000D01*
X14277000Y4268292D01*
X14277000Y4376530D01*
X14247141Y4526645D01*
X14188569Y4668050D01*
X14103536Y4795311D01*
X13995309Y4903538D01*
X13868048Y4988571D01*
X13852723Y4994919D01*
X13863072Y5100000D01*
X13860000Y5714250D01*
X13701250Y5873000D01*
X12689500Y5873000D01*
X12435500Y5873000D01*
X11423750Y5873000D01*
X11265000Y5714250D01*
X11261985Y5111388D01*
X11148250Y5110000D01*
X10989500Y4951250D01*
X10735500Y4951250D01*
X10576750Y5110000D01*
X10431690Y5111770D01*
X10466741Y5227321D01*
X10478824Y5349998D01*
X10478824Y6650002D01*
X10466741Y6772679D01*
X10430958Y6890642D01*
X10425956Y6900000D01*
X11261928Y6900000D01*
X11265000Y6285750D01*
X11423750Y6127000D01*
X12435500Y6127000D01*
X12435500Y7376250D01*
X12689500Y7376250D01*
X12689500Y6127000D01*
X13701250Y6127000D01*
X13860000Y6285750D01*
X13863072Y6900000D01*
X13850812Y7024482D01*
X13814502Y7144180D01*
X13755537Y7254494D01*
X13676185Y7351185D01*
X13579494Y7430537D01*
X13469180Y7489502D01*
X13349482Y7525812D01*
X13225000Y7538072D01*
X12848250Y7535000D01*
X12689500Y7376250D01*
X12435500Y7376250D01*
X12276750Y7535000D01*
X11900000Y7538072D01*
X11775518Y7525812D01*
X11655820Y7489502D01*
X11545506Y7430537D01*
X11448815Y7351185D01*
X11369463Y7254494D01*
X11310498Y7144180D01*
X11274188Y7024482D01*
X11261928Y6900000D01*
X10425956Y6900000D01*
X10372848Y6999357D01*
X10294646Y7094646D01*
X10199357Y7172848D01*
X10090642Y7230958D01*
X9972679Y7266741D01*
X9850002Y7278824D01*
X9024998Y7278824D01*
X8902321Y7266741D01*
X8784358Y7230958D01*
X8675643Y7172848D01*
X8580354Y7094646D01*
X8502152Y6999357D01*
X8444042Y6890642D01*
X8408259Y6772679D01*
X8396176Y6650002D01*
X8396176Y6291466D01*
X7858534Y5753824D01*
X5750000Y5753824D01*
X5676095Y5746545D01*
X5605030Y5724988D01*
X5539537Y5689981D01*
X5482131Y5642869D01*
X5435019Y5585463D01*
X5400012Y5519970D01*
X5378455Y5448905D01*
X5371176Y5375000D01*
X5371176Y2625000D01*
X5378455Y2551095D01*
X5400012Y2480030D01*
X5435019Y2414537D01*
X5482131Y2357131D01*
X5539537Y2310019D01*
X5605030Y2275012D01*
X5676095Y2253455D01*
X5750000Y2246176D01*
X7950000Y2246176D01*
X8023905Y2253455D01*
X8094970Y2275012D01*
X8160463Y2310019D01*
X8217869Y2357131D01*
X8264981Y2414537D01*
X8299988Y2480030D01*
X8321545Y2551095D01*
X8328824Y2625000D01*
X8328824Y3415484D01*
X8401693Y3326693D01*
X8495089Y3250045D01*
X8601643Y3193091D01*
X8673681Y3171238D01*
X8580354Y3094646D01*
X8502152Y2999357D01*
X8444042Y2890642D01*
X8408259Y2772679D01*
X8396176Y2650002D01*
X8396176Y1766466D01*
X8031710Y1402000D01*
X7923472Y1402000D01*
X7773357Y1372141D01*
X7631952Y1313569D01*
X7504691Y1228536D01*
X7396464Y1120309D01*
X7311431Y993048D01*
X7252859Y851643D01*
X7223000Y701528D01*
X7223000Y548472D01*
X7252134Y402000D01*
X402000Y402000D01*
X402000Y5375000D01*
X671176Y5375000D01*
X671176Y2625000D01*
X678455Y2551095D01*
X700012Y2480030D01*
X735019Y2414537D01*
X782131Y2357131D01*
X839537Y2310019D01*
X905030Y2275012D01*
X976095Y2253455D01*
X1050000Y2246176D01*
X1623001Y2246176D01*
X1623001Y1875890D01*
X1620451Y1850000D01*
X1630626Y1746691D01*
X1660761Y1647351D01*
X1707613Y1559696D01*
X1709697Y1555798D01*
X1723000Y1539588D01*
X1723000Y1423472D01*
X1752859Y1273357D01*
X1811431Y1131952D01*
X1896464Y1004691D01*
X2004691Y896464D01*
X2131952Y811431D01*
X2273357Y752859D01*
X2423472Y723000D01*
X2576528Y723000D01*
X2726643Y752859D01*
X2868048Y811431D01*
X2995309Y896464D01*
X3103536Y1004691D01*
X3188569Y1131952D01*
X3247141Y1273357D01*
X3277000Y1423472D01*
X3277000Y1576528D01*
X3247141Y1726643D01*
X3188569Y1868048D01*
X3103536Y1995309D01*
X2995309Y2103536D01*
X2868048Y2188569D01*
X2728973Y2246176D01*
X3250000Y2246176D01*
X3323905Y2253455D01*
X3394970Y2275012D01*
X3460463Y2310019D01*
X3517869Y2357131D01*
X3564981Y2414537D01*
X3599988Y2480030D01*
X3621545Y2551095D01*
X3628824Y2625000D01*
X3628824Y5375000D01*
X3621545Y5448905D01*
X3599988Y5519970D01*
X3564981Y5585463D01*
X3517869Y5642869D01*
X3460463Y5689981D01*
X3394970Y5724988D01*
X3323905Y5746545D01*
X3250000Y5753824D01*
X1050000Y5753824D01*
X976095Y5746545D01*
X905030Y5724988D01*
X839537Y5689981D01*
X782131Y5642869D01*
X735019Y5585463D01*
X700012Y5519970D01*
X678455Y5448905D01*
X671176Y5375000D01*
X402000Y5375000D01*
X402000Y8350000D01*
X11016928Y8350000D01*
X11029188Y8225518D01*
X11065498Y8105820D01*
X11124463Y7995506D01*
X11203815Y7898815D01*
X11300506Y7819463D01*
X11410820Y7760498D01*
X11530518Y7724188D01*
X11655000Y7711928D01*
X11844250Y7715000D01*
X12003000Y7873750D01*
X12003000Y8760500D01*
X12257000Y8760500D01*
X12257000Y7873750D01*
X12415750Y7715000D01*
X12605000Y7711928D01*
X12729482Y7724188D01*
X12849180Y7760498D01*
X12959494Y7819463D01*
X13056185Y7898815D01*
X13135537Y7995506D01*
X13194502Y8105820D01*
X13230812Y8225518D01*
X13243072Y8350000D01*
X13240000Y8601750D01*
X13081250Y8760500D01*
X12257000Y8760500D01*
X12003000Y8760500D01*
X11178750Y8760500D01*
X11020000Y8601750D01*
X11016928Y8350000D01*
X402000Y8350000D01*
X402000Y14183110D01*
X2058524Y14183110D01*
X2103175Y14035901D01*
X2228359Y13773080D01*
X2402412Y13539731D01*
X2618645Y13344822D01*
X2813380Y13228824D01*
X2650000Y13228824D01*
X2576095Y13221545D01*
X2505030Y13199988D01*
X2439537Y13164981D01*
X2382131Y13117869D01*
X2335019Y13060463D01*
X2300012Y12994970D01*
X2278455Y12923905D01*
X2271176Y12850000D01*
X2271176Y11150000D01*
X2278455Y11076095D01*
X2300012Y11005030D01*
X2335019Y10939537D01*
X2382131Y10882131D01*
X2439537Y10835019D01*
X2505030Y10800012D01*
X2576095Y10778455D01*
X2650000Y10771176D01*
X4350000Y10771176D01*
X4423905Y10778455D01*
X4494970Y10800012D01*
X4560463Y10835019D01*
X4617869Y10882131D01*
X4664981Y10939537D01*
X4699988Y11005030D01*
X4721545Y11076095D01*
X4728824Y11150000D01*
X4728824Y12850000D01*
X4721545Y12923905D01*
X4699988Y12994970D01*
X4664981Y13060463D01*
X4617869Y13117869D01*
X4560463Y13164981D01*
X4494970Y13199988D01*
X4423905Y13221545D01*
X4350000Y13228824D01*
X4186620Y13228824D01*
X4381355Y13344822D01*
X4597588Y13539731D01*
X4771641Y13773080D01*
X4896825Y14035901D01*
X4941476Y14183110D01*
X4820155Y14413000D01*
X3627000Y14413000D01*
X3627000Y14393000D01*
X3373000Y14393000D01*
X3373000Y14413000D01*
X2179845Y14413000D01*
X2058524Y14183110D01*
X402000Y14183110D01*
X402000Y28076528D01*
X1723000Y28076528D01*
X1723000Y27923472D01*
X1752859Y27773357D01*
X1811431Y27631952D01*
X1896464Y27504691D01*
X2004691Y27396464D01*
X2131952Y27311431D01*
X2273357Y27252859D01*
X2423472Y27223000D01*
X2576528Y27223000D01*
X2726643Y27252859D01*
X2868048Y27311431D01*
X2981827Y27387455D01*
X3031693Y27326693D01*
X3125089Y27250045D01*
X3231643Y27193091D01*
X3347261Y27158018D01*
X3467500Y27146176D01*
X4042500Y27146176D01*
X4162739Y27158018D01*
X4278357Y27193091D01*
X4384911Y27250045D01*
X4400229Y27262616D01*
X4449463Y27170506D01*
X4528815Y27073815D01*
X4545649Y27060000D01*
X4528815Y27046185D01*
X4449463Y26949494D01*
X4400229Y26857384D01*
X4384911Y26869955D01*
X4278357Y26926909D01*
X4162739Y26961982D01*
X4042500Y26973824D01*
X3467500Y26973824D01*
X3347261Y26961982D01*
X3231643Y26926909D01*
X3125089Y26869955D01*
X3031693Y26793307D01*
X2955045Y26699911D01*
X2927684Y26648722D01*
X2868048Y26688569D01*
X2726643Y26747141D01*
X2576528Y26777000D01*
X2423472Y26777000D01*
X2273357Y26747141D01*
X2131952Y26688569D01*
X2004691Y26603536D01*
X1896464Y26495309D01*
X1811431Y26368048D01*
X1752859Y26226643D01*
X1723000Y26076528D01*
X1723000Y25923472D01*
X1752859Y25773357D01*
X1811431Y25631952D01*
X1896464Y25504691D01*
X2004691Y25396464D01*
X2131952Y25311431D01*
X2273357Y25252859D01*
X2423472Y25223000D01*
X2576528Y25223000D01*
X2726643Y25252859D01*
X2868048Y25311431D01*
X2995309Y25396464D01*
X3039297Y25440452D01*
X3125089Y25370045D01*
X3231643Y25313091D01*
X3347261Y25278018D01*
X3467500Y25266176D01*
X4042500Y25266176D01*
X4162739Y25278018D01*
X4278357Y25313091D01*
X4384911Y25370045D01*
X4400229Y25382616D01*
X4449463Y25290506D01*
X4528815Y25193815D01*
X4612667Y25125000D01*
X4528815Y25056185D01*
X4449463Y24959494D01*
X4400229Y24867384D01*
X4384911Y24879955D01*
X4278357Y24936909D01*
X4162739Y24971982D01*
X4042500Y24983824D01*
X3467500Y24983824D01*
X3347261Y24971982D01*
X3231643Y24936909D01*
X3125089Y24879955D01*
X3031693Y24803307D01*
X2955045Y24709911D01*
X2923745Y24651353D01*
X2868048Y24688569D01*
X2726643Y24747141D01*
X2576528Y24777000D01*
X2423472Y24777000D01*
X2273357Y24747141D01*
X2131952Y24688569D01*
X2004691Y24603536D01*
X1896464Y24495309D01*
X1811431Y24368048D01*
X1752859Y24226643D01*
X1723000Y24076528D01*
X1723000Y23923472D01*
X1752859Y23773357D01*
X1811431Y23631952D01*
X1896464Y23504691D01*
X2004691Y23396464D01*
X2131952Y23311431D01*
X2273357Y23252859D01*
X2423472Y23223000D01*
X2576528Y23223000D01*
X2726643Y23252859D01*
X2868048Y23311431D01*
X2995309Y23396464D01*
X3044790Y23445945D01*
X3125089Y23380045D01*
X3231643Y23323091D01*
X3347261Y23288018D01*
X3467500Y23276176D01*
X4042500Y23276176D01*
X4162739Y23288018D01*
X4278357Y23323091D01*
X4384911Y23380045D01*
X4400229Y23392616D01*
X4449463Y23300506D01*
X4528815Y23203815D01*
X4625506Y23124463D01*
X4735820Y23065498D01*
X4855518Y23029188D01*
X4980000Y23016928D01*
X5219250Y23020000D01*
X5378000Y23178750D01*
X5378000Y24003000D01*
X5632000Y24003000D01*
X5632000Y23178750D01*
X5790750Y23020000D01*
X6030000Y23016928D01*
X6154482Y23029188D01*
X6274180Y23065498D01*
X6384494Y23124463D01*
X6481185Y23203815D01*
X6560537Y23300506D01*
X6619502Y23410820D01*
X6655812Y23530518D01*
X6668072Y23655000D01*
X6665000Y23844250D01*
X6506250Y24003000D01*
X5632000Y24003000D01*
X5378000Y24003000D01*
X5358000Y24003000D01*
X5358000Y24257000D01*
X5378000Y24257000D01*
X5378000Y25081250D01*
X5334250Y25125000D01*
X5378000Y25168750D01*
X5378000Y25993000D01*
X5632000Y25993000D01*
X5632000Y25168750D01*
X5675750Y25125000D01*
X5632000Y25081250D01*
X5632000Y24257000D01*
X6506250Y24257000D01*
X6665000Y24415750D01*
X6668072Y24605000D01*
X6655812Y24729482D01*
X6619502Y24849180D01*
X6560537Y24959494D01*
X6481185Y25056185D01*
X6397333Y25125000D01*
X6481185Y25193815D01*
X6560537Y25290506D01*
X6619502Y25400820D01*
X6655812Y25520518D01*
X6668072Y25645000D01*
X6665000Y25834250D01*
X6506250Y25993000D01*
X5632000Y25993000D01*
X5378000Y25993000D01*
X5358000Y25993000D01*
X5358000Y26247000D01*
X5378000Y26247000D01*
X5378000Y27873000D01*
X5632000Y27873000D01*
X5632000Y26247000D01*
X6506250Y26247000D01*
X6665000Y26405750D01*
X6668072Y26595000D01*
X6655812Y26719482D01*
X6619502Y26839180D01*
X6560537Y26949494D01*
X6481185Y27046185D01*
X6464351Y27060000D01*
X6481185Y27073815D01*
X6560537Y27170506D01*
X6619502Y27280820D01*
X6655812Y27400518D01*
X6668072Y27525000D01*
X6665000Y27714250D01*
X6506250Y27873000D01*
X5632000Y27873000D01*
X5378000Y27873000D01*
X5358000Y27873000D01*
X5358000Y28127000D01*
X5378000Y28127000D01*
X5378000Y28951250D01*
X5632000Y28951250D01*
X5632000Y28127000D01*
X6506250Y28127000D01*
X6665000Y28285750D01*
X6668072Y28475000D01*
X6655812Y28599482D01*
X6619502Y28719180D01*
X6560537Y28829494D01*
X6481185Y28926185D01*
X6384494Y29005537D01*
X6274180Y29064502D01*
X6154482Y29100812D01*
X6030000Y29113072D01*
X5790750Y29110000D01*
X5632000Y28951250D01*
X5378000Y28951250D01*
X5219250Y29110000D01*
X4980000Y29113072D01*
X4855518Y29100812D01*
X4735820Y29064502D01*
X4625506Y29005537D01*
X4528815Y28926185D01*
X4449463Y28829494D01*
X4400229Y28737384D01*
X4384911Y28749955D01*
X4278357Y28806909D01*
X4162739Y28841982D01*
X4042500Y28853824D01*
X3467500Y28853824D01*
X3347261Y28841982D01*
X3231643Y28806909D01*
X3125089Y28749955D01*
X3031693Y28673307D01*
X2981827Y28612545D01*
X2868048Y28688569D01*
X2726643Y28747141D01*
X2576528Y28777000D01*
X2423472Y28777000D01*
X2273357Y28747141D01*
X2131952Y28688569D01*
X2004691Y28603536D01*
X1896464Y28495309D01*
X1811431Y28368048D01*
X1752859Y28226643D01*
X1723000Y28076528D01*
X402000Y28076528D01*
X402000Y29598000D01*
X28098000Y29598000D01*
X28098000Y21062460D01*
G37*
X28098000Y21062460D02*
X28094180Y21064502D01*
X27974482Y21100812D01*
X27850000Y21113072D01*
X27598250Y21110000D01*
X27439500Y20951250D01*
X27439500Y20127000D01*
X27459500Y20127000D01*
X27459500Y19873000D01*
X27439500Y19873000D01*
X27439500Y18537000D01*
X27459500Y18537000D01*
X27459500Y18283000D01*
X27439500Y18283000D01*
X27439500Y17458750D01*
X27598250Y17300000D01*
X27850000Y17296928D01*
X27974482Y17309188D01*
X28094180Y17345498D01*
X28098000Y17347540D01*
X28098000Y15000845D01*
X27995309Y15103536D01*
X27868048Y15188569D01*
X27726643Y15247141D01*
X27576528Y15277000D01*
X27423472Y15277000D01*
X27310793Y15254587D01*
X27313072Y15395000D01*
X27300812Y15519482D01*
X27264502Y15639180D01*
X27205537Y15749494D01*
X27126185Y15846185D01*
X27029494Y15925537D01*
X26919180Y15984502D01*
X26799482Y16020812D01*
X26675000Y16033072D01*
X26423250Y16030000D01*
X26264500Y15871250D01*
X26264500Y15047000D01*
X26284500Y15047000D01*
X26284500Y14793000D01*
X26264500Y14793000D01*
X26264500Y14773000D01*
X26010500Y14773000D01*
X26010500Y14793000D01*
X25990500Y14793000D01*
X25990500Y15047000D01*
X26010500Y15047000D01*
X26010500Y15779713D01*
X26027804Y15800798D01*
X26076739Y15892350D01*
X26106874Y15991690D01*
X26114500Y16069119D01*
X26117049Y16095000D01*
X26114500Y16120881D01*
X26114500Y17600404D01*
X26123357Y17603091D01*
X26208162Y17648420D01*
X26244463Y17580506D01*
X26323815Y17483815D01*
X26420506Y17404463D01*
X26530820Y17345498D01*
X26650518Y17309188D01*
X26775000Y17296928D01*
X27026750Y17300000D01*
X27185500Y17458750D01*
X27185500Y18283000D01*
X27165500Y18283000D01*
X27165500Y18537000D01*
X27185500Y18537000D01*
X27185500Y19873000D01*
X27165500Y19873000D01*
X27165500Y20127000D01*
X27185500Y20127000D01*
X27185500Y20951250D01*
X27026750Y21110000D01*
X26775000Y21113072D01*
X26650518Y21100812D01*
X26530820Y21064502D01*
X26420506Y21005537D01*
X26323815Y20926185D01*
X26244463Y20829494D01*
X26208162Y20761580D01*
X26123357Y20806909D01*
X26087467Y20817796D01*
X26098307Y20826693D01*
X26174955Y20920089D01*
X26231909Y21026643D01*
X26266982Y21142261D01*
X26278824Y21262500D01*
X26278824Y21737500D01*
X26266982Y21857739D01*
X26231909Y21973357D01*
X26174955Y22079911D01*
X26098307Y22173307D01*
X26004911Y22249955D01*
X25898357Y22306909D01*
X25782739Y22341982D01*
X25662500Y22353824D01*
X25606999Y22353824D01*
X25606999Y26473985D01*
X25698798Y26412647D01*
X25922097Y26320153D01*
X26159151Y26273000D01*
X26400849Y26273000D01*
X26637903Y26320153D01*
X26861202Y26412647D01*
X27062167Y26546927D01*
X27233073Y26717833D01*
X27367353Y26918798D01*
X27459847Y27142097D01*
X27507000Y27379151D01*
X27507000Y27620849D01*
X27459847Y27857903D01*
X27367353Y28081202D01*
X27233073Y28282167D01*
X27062167Y28453073D01*
X26861202Y28587353D01*
X26637903Y28679847D01*
X26400849Y28727000D01*
X26159151Y28727000D01*
X25922097Y28679847D01*
X25698798Y28587353D01*
X25497833Y28453073D01*
X25403026Y28358266D01*
X24706956Y29054335D01*
X24690449Y29074449D01*
X24610203Y29140305D01*
X24518651Y29189240D01*
X24419311Y29219375D01*
X24341882Y29227001D01*
X24316001Y29229550D01*
X24290120Y29227001D01*
X9725882Y29227001D01*
X9700001Y29229550D01*
X9674120Y29227001D01*
X9596691Y29219375D01*
X9497351Y29189240D01*
X9405799Y29140305D01*
X9325553Y29074449D01*
X9309054Y29054345D01*
X8983534Y28728824D01*
X7650000Y28728824D01*
X7576095Y28721545D01*
X7505030Y28699988D01*
X7439537Y28664981D01*
X7382131Y28617869D01*
X7335019Y28560463D01*
X7300012Y28494970D01*
X7278455Y28423905D01*
X7271176Y28350000D01*
X7271176Y26650000D01*
X7278455Y26576095D01*
X7300012Y26505030D01*
X7335019Y26439537D01*
X7382131Y26382131D01*
X7439537Y26335019D01*
X7505030Y26300012D01*
X7576095Y26278455D01*
X7650000Y26271176D01*
X9350000Y26271176D01*
X9423905Y26278455D01*
X9494970Y26300012D01*
X9560463Y26335019D01*
X9617869Y26382131D01*
X9664981Y26439537D01*
X9699988Y26505030D01*
X9721545Y26576095D01*
X9728824Y26650000D01*
X9728824Y26813380D01*
X9844822Y26618645D01*
X10039731Y26402412D01*
X10273080Y26228359D01*
X10535901Y26103175D01*
X10683110Y26058524D01*
X10913000Y26179845D01*
X10913000Y27373000D01*
X10893000Y27373000D01*
X10893000Y27627000D01*
X10913000Y27627000D01*
X10913000Y27647000D01*
X11167000Y27647000D01*
X11167000Y27627000D01*
X11187000Y27627000D01*
X11187000Y27373000D01*
X11167000Y27373000D01*
X11167000Y26179845D01*
X11396890Y26058524D01*
X11544099Y26103175D01*
X11806920Y26228359D01*
X12040269Y26402412D01*
X12235178Y26618645D01*
X12384157Y26868748D01*
X12443769Y27036798D01*
X12492647Y26918798D01*
X12626927Y26717833D01*
X12797833Y26546927D01*
X12973001Y26429884D01*
X12973000Y21071845D01*
X12896464Y20995309D01*
X12811431Y20868048D01*
X12752859Y20726643D01*
X12723000Y20576528D01*
X12723000Y20423472D01*
X12752859Y20273357D01*
X12811431Y20131952D01*
X12896464Y20004691D01*
X13004691Y19896464D01*
X13131952Y19811431D01*
X13273357Y19752859D01*
X13423472Y19723000D01*
X13576528Y19723000D01*
X13726643Y19752859D01*
X13868048Y19811431D01*
X13995309Y19896464D01*
X14103536Y20004691D01*
X14188569Y20131952D01*
X14247141Y20273357D01*
X14277000Y20423472D01*
X14277000Y20576528D01*
X14247141Y20726643D01*
X14188569Y20868048D01*
X14103536Y20995309D01*
X14027000Y21071845D01*
X14027000Y26357058D01*
X14161202Y26412647D01*
X14362167Y26546927D01*
X14533073Y26717833D01*
X14667353Y26918798D01*
X14759847Y27142097D01*
X14807000Y27379151D01*
X14807000Y27620849D01*
X14759847Y27857903D01*
X14667353Y28081202D01*
X14606015Y28173001D01*
X15093985Y28173001D01*
X15032647Y28081202D01*
X14940153Y27857903D01*
X14893000Y27620849D01*
X14893000Y27379151D01*
X14940153Y27142097D01*
X15032647Y26918798D01*
X15166927Y26717833D01*
X15337833Y26546927D01*
X15538798Y26412647D01*
X15593001Y26390195D01*
X15593000Y22401926D01*
X15592672Y22397993D01*
X15593000Y22376072D01*
X15593000Y22354120D01*
X15593387Y22350188D01*
X15614512Y20938357D01*
X15546464Y20870309D01*
X15461431Y20743048D01*
X15402859Y20601643D01*
X15373000Y20451528D01*
X15373000Y20298472D01*
X15402859Y20148357D01*
X15461431Y20006952D01*
X15546464Y19879691D01*
X15654691Y19771464D01*
X15781952Y19686431D01*
X15923357Y19627859D01*
X16073472Y19598000D01*
X16226528Y19598000D01*
X16376643Y19627859D01*
X16518048Y19686431D01*
X16645309Y19771464D01*
X16753536Y19879691D01*
X16838569Y20006952D01*
X16897141Y20148357D01*
X16927000Y20298472D01*
X16927000Y20451528D01*
X16897141Y20601643D01*
X16838569Y20743048D01*
X16753536Y20870309D01*
X16668373Y20955472D01*
X16647000Y22383888D01*
X16647000Y26390196D01*
X16701202Y26412647D01*
X16902167Y26546927D01*
X17073073Y26717833D01*
X17207353Y26918798D01*
X17299847Y27142097D01*
X17347000Y27379151D01*
X17347000Y27620849D01*
X17299847Y27857903D01*
X17207353Y28081202D01*
X17146015Y28173001D01*
X17633985Y28173001D01*
X17572647Y28081202D01*
X17480153Y27857903D01*
X17433000Y27620849D01*
X17433000Y27379151D01*
X17480153Y27142097D01*
X17572647Y26918798D01*
X17706927Y26717833D01*
X17877833Y26546927D01*
X18078798Y26412647D01*
X18133000Y26390196D01*
X18133001Y21365891D01*
X18130451Y21340000D01*
X18140626Y21236691D01*
X18170761Y21137351D01*
X18212268Y21059696D01*
X18219697Y21045798D01*
X18285553Y20965552D01*
X18305662Y20949049D01*
X19723000Y19531710D01*
X19723000Y19423472D01*
X19752859Y19273357D01*
X19811431Y19131952D01*
X19896464Y19004691D01*
X20004691Y18896464D01*
X20131952Y18811431D01*
X20273357Y18752859D01*
X20423472Y18723000D01*
X20576528Y18723000D01*
X20726643Y18752859D01*
X20868048Y18811431D01*
X20995309Y18896464D01*
X21103536Y19004691D01*
X21188569Y19131952D01*
X21247141Y19273357D01*
X21277000Y19423472D01*
X21277000Y19576528D01*
X21247141Y19726643D01*
X21188569Y19868048D01*
X21103536Y19995309D01*
X20995309Y20103536D01*
X20868048Y20188569D01*
X20726643Y20247141D01*
X20576528Y20277000D01*
X20468290Y20277000D01*
X19187000Y21558289D01*
X19187000Y26390196D01*
X19241202Y26412647D01*
X19442167Y26546927D01*
X19613073Y26717833D01*
X19747353Y26918798D01*
X19839847Y27142097D01*
X19887000Y27379151D01*
X19887000Y27620849D01*
X19839847Y27857903D01*
X19747353Y28081202D01*
X19686015Y28173001D01*
X20173985Y28173001D01*
X20112647Y28081202D01*
X20020153Y27857903D01*
X19973000Y27620849D01*
X19973000Y27379151D01*
X20020153Y27142097D01*
X20112647Y26918798D01*
X20246927Y26717833D01*
X20417833Y26546927D01*
X20618798Y26412647D01*
X20842097Y26320153D01*
X21079151Y26273000D01*
X21320849Y26273000D01*
X21557903Y26320153D01*
X21781202Y26412647D01*
X21982167Y26546927D01*
X22153073Y26717833D01*
X22287353Y26918798D01*
X22379847Y27142097D01*
X22427000Y27379151D01*
X22427000Y27620849D01*
X22379847Y27857903D01*
X22287353Y28081202D01*
X22226015Y28173001D01*
X22713985Y28173001D01*
X22652647Y28081202D01*
X22560153Y27857903D01*
X22513000Y27620849D01*
X22513000Y27379151D01*
X22560153Y27142097D01*
X22652647Y26918798D01*
X22786927Y26717833D01*
X22957833Y26546927D01*
X23158798Y26412647D01*
X23382097Y26320153D01*
X23619151Y26273000D01*
X23860849Y26273000D01*
X24097903Y26320153D01*
X24321202Y26412647D01*
X24522167Y26546927D01*
X24552999Y26577759D01*
X24553000Y22038667D01*
X24518091Y21973357D01*
X24500000Y21913720D01*
X24481909Y21973357D01*
X24424955Y22079911D01*
X24348307Y22173307D01*
X24254911Y22249955D01*
X24148357Y22306909D01*
X24032739Y22341982D01*
X23912500Y22353824D01*
X23337500Y22353824D01*
X23217261Y22341982D01*
X23101643Y22306909D01*
X22995089Y22249955D01*
X22901693Y22173307D01*
X22825045Y22079911D01*
X22796764Y22027000D01*
X22571845Y22027000D01*
X22495309Y22103536D01*
X22368048Y22188569D01*
X22226643Y22247141D01*
X22076528Y22277000D01*
X21923472Y22277000D01*
X21773357Y22247141D01*
X21631952Y22188569D01*
X21504691Y22103536D01*
X21396464Y21995309D01*
X21311431Y21868048D01*
X21252859Y21726643D01*
X21223000Y21576528D01*
X21223000Y21423472D01*
X21252859Y21273357D01*
X21311431Y21131952D01*
X21396464Y21004691D01*
X21504691Y20896464D01*
X21631952Y20811431D01*
X21773357Y20752859D01*
X21923472Y20723000D01*
X22076528Y20723000D01*
X22226643Y20752859D01*
X22368048Y20811431D01*
X22495309Y20896464D01*
X22571845Y20973000D01*
X22796764Y20973000D01*
X22825045Y20920089D01*
X22901693Y20826693D01*
X22995089Y20750045D01*
X23101643Y20693091D01*
X23217261Y20658018D01*
X23337500Y20646176D01*
X23568506Y20646176D01*
X23504691Y20603536D01*
X23396464Y20495309D01*
X23311431Y20368048D01*
X23252859Y20226643D01*
X23223000Y20076528D01*
X23223000Y19923472D01*
X23252859Y19773357D01*
X23311431Y19631952D01*
X23396464Y19504691D01*
X23504691Y19396464D01*
X23631952Y19311431D01*
X23773357Y19252859D01*
X23923472Y19223000D01*
X24076528Y19223000D01*
X24226643Y19252859D01*
X24368048Y19311431D01*
X24495309Y19396464D01*
X24603536Y19504691D01*
X24686902Y19629457D01*
X24718091Y19526643D01*
X24775045Y19420089D01*
X24851693Y19326693D01*
X24945089Y19250045D01*
X25029363Y19205000D01*
X24945089Y19159955D01*
X24851693Y19083307D01*
X24775045Y18989911D01*
X24718091Y18883357D01*
X24683018Y18767739D01*
X24671176Y18647500D01*
X24671176Y18172500D01*
X24683018Y18052261D01*
X24718091Y17936643D01*
X24775045Y17830089D01*
X24851693Y17736693D01*
X24945089Y17660045D01*
X25051643Y17603091D01*
X25060500Y17600404D01*
X25060501Y16313291D01*
X24521035Y15773824D01*
X24112500Y15773824D01*
X23992261Y15761982D01*
X23876643Y15726909D01*
X23770089Y15669955D01*
X23676693Y15593307D01*
X23600045Y15499911D01*
X23543091Y15393357D01*
X23508018Y15277739D01*
X23496176Y15157500D01*
X23496176Y14682500D01*
X23508018Y14562261D01*
X23543091Y14446643D01*
X23600045Y14340089D01*
X23676693Y14246693D01*
X23770089Y14170045D01*
X23876643Y14113091D01*
X23885501Y14110404D01*
X23885500Y11865381D01*
X23882951Y11839500D01*
X23893126Y11736191D01*
X23923261Y11636851D01*
X23972196Y11545298D01*
X24038052Y11465052D01*
X24058166Y11448545D01*
X24782851Y10723859D01*
X24726643Y10747141D01*
X24576528Y10777000D01*
X24423472Y10777000D01*
X24273357Y10747141D01*
X24131952Y10688569D01*
X24004691Y10603536D01*
X23896464Y10495309D01*
X23811431Y10368048D01*
X23752859Y10226643D01*
X23723000Y10076528D01*
X23723000Y10013288D01*
X23552988Y9843276D01*
X23529507Y9920010D01*
X23470275Y10030180D01*
X23390689Y10126679D01*
X23293805Y10205796D01*
X23276799Y10214833D01*
X23290588Y10240630D01*
X23312145Y10311695D01*
X23319424Y10385600D01*
X23319424Y10944400D01*
X23312145Y11018305D01*
X23290588Y11089370D01*
X23255581Y11154863D01*
X23208469Y11212269D01*
X23151063Y11259381D01*
X23085570Y11294388D01*
X23067069Y11300000D01*
X23085570Y11305612D01*
X23151063Y11340619D01*
X23208469Y11387731D01*
X23255581Y11445137D01*
X23290588Y11510630D01*
X23312145Y11581695D01*
X23319424Y11655600D01*
X23319424Y12214400D01*
X23312145Y12288305D01*
X23290588Y12359370D01*
X23255581Y12424863D01*
X23208469Y12482269D01*
X23151063Y12529381D01*
X23085570Y12564388D01*
X23067069Y12570000D01*
X23085570Y12575612D01*
X23151063Y12610619D01*
X23208469Y12657731D01*
X23255581Y12715137D01*
X23290588Y12780630D01*
X23312145Y12851695D01*
X23319424Y12925600D01*
X23319424Y13484400D01*
X23312145Y13558305D01*
X23290588Y13629370D01*
X23255581Y13694863D01*
X23208469Y13752269D01*
X23151063Y13799381D01*
X23085570Y13834388D01*
X23014505Y13855945D01*
X22940600Y13863224D01*
X22473568Y13863224D01*
X22469374Y13905810D01*
X22439239Y14005150D01*
X22390304Y14096702D01*
X22324448Y14176948D01*
X22304339Y14193451D01*
X21292324Y15205465D01*
X21292324Y15601500D01*
X21280482Y15721739D01*
X21245409Y15837357D01*
X21188455Y15943911D01*
X21111807Y16037307D01*
X21018411Y16113955D01*
X20911857Y16170909D01*
X20796239Y16205982D01*
X20676000Y16217824D01*
X20101000Y16217824D01*
X19980761Y16205982D01*
X19865143Y16170909D01*
X19758589Y16113955D01*
X19743271Y16101384D01*
X19694037Y16193494D01*
X19614685Y16290185D01*
X19517994Y16369537D01*
X19407680Y16428502D01*
X19287982Y16464812D01*
X19163500Y16477072D01*
X18924250Y16474000D01*
X18765500Y16315250D01*
X18765500Y15491000D01*
X18785500Y15491000D01*
X18785500Y15237000D01*
X18765500Y15237000D01*
X18765500Y14412750D01*
X18924250Y14254000D01*
X19163500Y14250928D01*
X19287982Y14263188D01*
X19407680Y14299498D01*
X19517994Y14358463D01*
X19614685Y14437815D01*
X19694037Y14534506D01*
X19743271Y14626616D01*
X19758589Y14614045D01*
X19865143Y14557091D01*
X19980761Y14522018D01*
X20101000Y14510176D01*
X20497035Y14510176D01*
X21143986Y13863224D01*
X20959400Y13863224D01*
X20885495Y13855945D01*
X20814430Y13834388D01*
X20748937Y13799381D01*
X20691531Y13752269D01*
X20644419Y13694863D01*
X20609412Y13629370D01*
X20587855Y13558305D01*
X20580576Y13484400D01*
X20580576Y12925600D01*
X20587855Y12851695D01*
X20609412Y12780630D01*
X20644419Y12715137D01*
X20691531Y12657731D01*
X20748937Y12610619D01*
X20814430Y12575612D01*
X20832931Y12570000D01*
X20814430Y12564388D01*
X20748937Y12529381D01*
X20691531Y12482269D01*
X20674897Y12462000D01*
X20281656Y12462000D01*
X18421203Y14322453D01*
X18511500Y14412750D01*
X18511500Y15237000D01*
X17637250Y15237000D01*
X17478500Y15078250D01*
X17475428Y14889000D01*
X17487688Y14764518D01*
X17489817Y14757500D01*
X17293962Y14757500D01*
X17238955Y14860411D01*
X17162307Y14953807D01*
X17068911Y15030455D01*
X16962357Y15087409D01*
X16846739Y15122482D01*
X16726500Y15134324D01*
X16251500Y15134324D01*
X16131261Y15122482D01*
X16015643Y15087409D01*
X15909089Y15030455D01*
X15815693Y14953807D01*
X15739045Y14860411D01*
X15682091Y14753857D01*
X15647018Y14638239D01*
X15635176Y14518000D01*
X15635176Y14466966D01*
X14501035Y13332824D01*
X14092500Y13332824D01*
X13972261Y13320982D01*
X13856643Y13285909D01*
X13750089Y13228955D01*
X13656693Y13152307D01*
X13580045Y13058911D01*
X13523091Y12952357D01*
X13520404Y12943500D01*
X12879417Y12943500D01*
X12871580Y12958162D01*
X12939494Y12994463D01*
X13036185Y13073815D01*
X13115537Y13170506D01*
X13174502Y13280820D01*
X13210812Y13400518D01*
X13223072Y13525000D01*
X13220000Y13776750D01*
X13061250Y13935500D01*
X12237000Y13935500D01*
X12237000Y13915500D01*
X11983000Y13915500D01*
X11983000Y13935500D01*
X11158750Y13935500D01*
X11000000Y13776750D01*
X10996928Y13525000D01*
X11009188Y13400518D01*
X11045498Y13280820D01*
X11104463Y13170506D01*
X11183815Y13073815D01*
X11280506Y12994463D01*
X11348420Y12958162D01*
X11303091Y12873357D01*
X11300404Y12864500D01*
X11136411Y12864500D01*
X11131545Y12913905D01*
X11109988Y12984970D01*
X11074981Y13050463D01*
X11027869Y13107869D01*
X10970463Y13154981D01*
X10904970Y13189988D01*
X10833905Y13211545D01*
X10760000Y13218824D01*
X9860000Y13218824D01*
X9786095Y13211545D01*
X9715030Y13189988D01*
X9649537Y13154981D01*
X9592131Y13107869D01*
X9545019Y13050463D01*
X9510012Y12984970D01*
X9504561Y12967000D01*
X7778290Y12967000D01*
X7027000Y13718289D01*
X7027000Y14600000D01*
X10996928Y14600000D01*
X11000000Y14348250D01*
X11158750Y14189500D01*
X11983000Y14189500D01*
X11983000Y15076250D01*
X12237000Y15076250D01*
X12237000Y14189500D01*
X13061250Y14189500D01*
X13220000Y14348250D01*
X13223072Y14600000D01*
X13210812Y14724482D01*
X13174502Y14844180D01*
X13115537Y14954494D01*
X13036185Y15051185D01*
X12939494Y15130537D01*
X12829180Y15189502D01*
X12709482Y15225812D01*
X12585000Y15238072D01*
X12395750Y15235000D01*
X12237000Y15076250D01*
X11983000Y15076250D01*
X11824250Y15235000D01*
X11635000Y15238072D01*
X11510518Y15225812D01*
X11390820Y15189502D01*
X11280506Y15130537D01*
X11183815Y15051185D01*
X11104463Y14954494D01*
X11045498Y14844180D01*
X11009188Y14724482D01*
X10996928Y14600000D01*
X7027000Y14600000D01*
X7027000Y15839000D01*
X17475428Y15839000D01*
X17478500Y15649750D01*
X17637250Y15491000D01*
X18511500Y15491000D01*
X18511500Y16315250D01*
X18352750Y16474000D01*
X18113500Y16477072D01*
X17989018Y16464812D01*
X17869320Y16428502D01*
X17759006Y16369537D01*
X17662315Y16290185D01*
X17582963Y16193494D01*
X17523998Y16083180D01*
X17487688Y15963482D01*
X17475428Y15839000D01*
X7027000Y15839000D01*
X7027000Y16594119D01*
X7029549Y16620000D01*
X7019374Y16723310D01*
X6989239Y16822649D01*
X6989239Y16822650D01*
X6940304Y16914202D01*
X6874448Y16994448D01*
X6854345Y17010946D01*
X4657395Y19207894D01*
X4679847Y19262097D01*
X4727000Y19499151D01*
X4727000Y19740849D01*
X4679847Y19977903D01*
X4587353Y20201202D01*
X4453073Y20402167D01*
X4282167Y20573073D01*
X4081202Y20707353D01*
X3857903Y20799847D01*
X3620849Y20847000D01*
X3379151Y20847000D01*
X3142097Y20799847D01*
X2918798Y20707353D01*
X2717833Y20573073D01*
X2546927Y20402167D01*
X2412647Y20201202D01*
X2320153Y19977903D01*
X2273000Y19740849D01*
X2273000Y19499151D01*
X2320153Y19262097D01*
X2412647Y19038798D01*
X2546927Y18837833D01*
X2717833Y18666927D01*
X2918798Y18532647D01*
X3142097Y18440153D01*
X3379151Y18393000D01*
X3620849Y18393000D01*
X3857903Y18440153D01*
X3912106Y18462605D01*
X5973001Y16401708D01*
X5973001Y15352289D01*
X4657395Y16667894D01*
X4679847Y16722097D01*
X4727000Y16959151D01*
X4727000Y17200849D01*
X4679847Y17437903D01*
X4587353Y17661202D01*
X4453073Y17862167D01*
X4282167Y18033073D01*
X4081202Y18167353D01*
X3857903Y18259847D01*
X3620849Y18307000D01*
X3379151Y18307000D01*
X3142097Y18259847D01*
X2918798Y18167353D01*
X2717833Y18033073D01*
X2546927Y17862167D01*
X2412647Y17661202D01*
X2320153Y17437903D01*
X2273000Y17200849D01*
X2273000Y16959151D01*
X2320153Y16722097D01*
X2412647Y16498798D01*
X2546927Y16297833D01*
X2717833Y16126927D01*
X2918798Y15992647D01*
X3036798Y15943769D01*
X2868748Y15884157D01*
X2618645Y15735178D01*
X2402412Y15540269D01*
X2228359Y15306920D01*
X2103175Y15044099D01*
X2058524Y14896890D01*
X2179845Y14667000D01*
X3373000Y14667000D01*
X3373000Y14687000D01*
X3627000Y14687000D01*
X3627000Y14667000D01*
X4820155Y14667000D01*
X4940213Y14894497D01*
X5473001Y14361709D01*
X5473000Y11525881D01*
X5470451Y11500000D01*
X5475793Y11445761D01*
X5480626Y11396691D01*
X5510761Y11297351D01*
X5559696Y11205798D01*
X5625552Y11125552D01*
X5645666Y11109045D01*
X6611318Y10143391D01*
X6630105Y10121055D01*
X6668087Y10090644D01*
X6705798Y10059696D01*
X6708635Y10058180D01*
X6711140Y10056174D01*
X6754364Y10033737D01*
X6797351Y10010761D01*
X6800425Y10009829D01*
X6803277Y10008348D01*
X6850048Y9994775D01*
X6896690Y9980626D01*
X6899891Y9980311D01*
X6902974Y9979416D01*
X6951483Y9975229D01*
X7000000Y9970451D01*
X7029058Y9973313D01*
X9507514Y10003264D01*
X9510012Y9995030D01*
X9545019Y9929537D01*
X9592131Y9872131D01*
X9649537Y9825019D01*
X9715030Y9790012D01*
X9786095Y9768455D01*
X9860000Y9761176D01*
X10760000Y9761176D01*
X10833905Y9768455D01*
X10904970Y9790012D01*
X10970463Y9825019D01*
X11027869Y9872131D01*
X11074981Y9929537D01*
X11109988Y9995030D01*
X11131545Y10066095D01*
X11133456Y10085500D01*
X11320404Y10085500D01*
X11323091Y10076643D01*
X11368420Y9991838D01*
X11300506Y9955537D01*
X11203815Y9876185D01*
X11124463Y9779494D01*
X11065498Y9669180D01*
X11029188Y9549482D01*
X11016928Y9425000D01*
X11020000Y9173250D01*
X11178750Y9014500D01*
X12003000Y9014500D01*
X12003000Y9034500D01*
X12257000Y9034500D01*
X12257000Y9014500D01*
X13081250Y9014500D01*
X13240000Y9173250D01*
X13243072Y9425000D01*
X13230812Y9549482D01*
X13194502Y9669180D01*
X13135537Y9779494D01*
X13056185Y9876185D01*
X12959494Y9955537D01*
X12891580Y9991838D01*
X12936909Y10076643D01*
X12963561Y10164500D01*
X13520404Y10164500D01*
X13523091Y10155643D01*
X13580045Y10049089D01*
X13656693Y9955693D01*
X13750089Y9879045D01*
X13856643Y9822091D01*
X13972261Y9787018D01*
X14092500Y9775176D01*
X14567500Y9775176D01*
X14687739Y9787018D01*
X14803357Y9822091D01*
X14815910Y9828801D01*
X15635176Y9009534D01*
X15635176Y8613500D01*
X15647018Y8493261D01*
X15682091Y8377643D01*
X15739045Y8271089D01*
X15815693Y8177693D01*
X15909089Y8101045D01*
X16015643Y8044091D01*
X16131261Y8009018D01*
X16251500Y7997176D01*
X16726500Y7997176D01*
X16846739Y8009018D01*
X16962357Y8044091D01*
X17068911Y8101045D01*
X17162307Y8177693D01*
X17238955Y8271089D01*
X17293962Y8374000D01*
X17717084Y8374000D01*
X17761597Y8372762D01*
X17794468Y8378355D01*
X17827676Y8381626D01*
X17845545Y8387047D01*
X17863936Y8390176D01*
X17895084Y8402074D01*
X17927016Y8411761D01*
X17943482Y8420562D01*
X17960911Y8427220D01*
X17989138Y8444965D01*
X18018568Y8460696D01*
X18053030Y8488978D01*
X20180339Y10138000D01*
X20523174Y10138000D01*
X20509311Y10126679D01*
X20429725Y10030180D01*
X20370493Y9920010D01*
X20333892Y9800400D01*
X20324400Y9680750D01*
X20483150Y9522000D01*
X21823000Y9522000D01*
X21823000Y9542000D01*
X22077000Y9542000D01*
X22077000Y9522000D01*
X22097000Y9522000D01*
X22097000Y9268000D01*
X22077000Y9268000D01*
X22077000Y9248000D01*
X21823000Y9248000D01*
X21823000Y9268000D01*
X20483150Y9268000D01*
X20324400Y9109250D01*
X20330925Y9027000D01*
X20071845Y9027000D01*
X19995309Y9103536D01*
X19868048Y9188569D01*
X19726643Y9247141D01*
X19576528Y9277000D01*
X19423472Y9277000D01*
X19273357Y9247141D01*
X19131952Y9188569D01*
X19004691Y9103536D01*
X18896464Y8995309D01*
X18811431Y8868048D01*
X18752859Y8726643D01*
X18723000Y8576528D01*
X18723000Y8423472D01*
X18752859Y8273357D01*
X18811431Y8131952D01*
X18896464Y8004691D01*
X19004691Y7896464D01*
X19131952Y7811431D01*
X19273357Y7752859D01*
X19423472Y7723000D01*
X19576528Y7723000D01*
X19726643Y7752859D01*
X19868048Y7811431D01*
X19995309Y7896464D01*
X20071845Y7973000D01*
X22929121Y7973000D01*
X22955002Y7970451D01*
X22980883Y7973000D01*
X23058312Y7980626D01*
X23157652Y8010761D01*
X23249204Y8059696D01*
X23329450Y8125552D01*
X23345957Y8145666D01*
X24110501Y8910209D01*
X24110500Y4309596D01*
X24101643Y4306909D01*
X23995089Y4249955D01*
X23901693Y4173307D01*
X23825045Y4079911D01*
X23768091Y3973357D01*
X23733018Y3857739D01*
X23721176Y3737500D01*
X23721176Y3262500D01*
X23733018Y3142261D01*
X23768091Y3026643D01*
X23825045Y2920089D01*
X23901693Y2826693D01*
X23966984Y2773110D01*
X23902321Y2766741D01*
X23784358Y2730958D01*
X23675643Y2672848D01*
X23580354Y2594646D01*
X23544424Y2550866D01*
X23328824Y2766466D01*
X23328824Y4875000D01*
X23321545Y4948905D01*
X23299988Y5019970D01*
X23264981Y5085463D01*
X23217869Y5142869D01*
X23160463Y5189981D01*
X23094970Y5224988D01*
X23023905Y5246545D01*
X22950000Y5253824D01*
X20750000Y5253824D01*
X20676095Y5246545D01*
X20605030Y5224988D01*
X20539537Y5189981D01*
X20482131Y5142869D01*
X20435019Y5085463D01*
X20400012Y5019970D01*
X20378455Y4948905D01*
X20371176Y4875000D01*
X20371176Y4686479D01*
X20368048Y4688569D01*
X20226643Y4747141D01*
X20076528Y4777000D01*
X19923472Y4777000D01*
X19773357Y4747141D01*
X19631952Y4688569D01*
X19504691Y4603536D01*
X19396464Y4495309D01*
X19311431Y4368048D01*
X19252859Y4226643D01*
X19223000Y4076528D01*
X19223000Y3923472D01*
X19252859Y3773357D01*
X19311431Y3631952D01*
X19396464Y3504691D01*
X19504691Y3396464D01*
X19631952Y3311431D01*
X19773357Y3252859D01*
X19923472Y3223000D01*
X20031709Y3223000D01*
X20109053Y3145656D01*
X20125552Y3125552D01*
X20205798Y3059696D01*
X20297350Y3010761D01*
X20371176Y2988366D01*
X20371176Y2125000D01*
X20378455Y2051095D01*
X20400012Y1980030D01*
X20435019Y1914537D01*
X20482131Y1857131D01*
X20539537Y1810019D01*
X20605030Y1775012D01*
X20676095Y1753455D01*
X20750000Y1746176D01*
X22858534Y1746176D01*
X23396176Y1208534D01*
X23396176Y849998D01*
X23408259Y727321D01*
X23444042Y609358D01*
X23502152Y500643D01*
X23580354Y405354D01*
X23584441Y402000D01*
X8747866Y402000D01*
X8777000Y548472D01*
X8777000Y656710D01*
X8864900Y744610D01*
X8902321Y733259D01*
X9024998Y721176D01*
X9850002Y721176D01*
X9972679Y733259D01*
X10090642Y769042D01*
X10199357Y827152D01*
X10294646Y905354D01*
X10372848Y1000643D01*
X10425955Y1100000D01*
X11261928Y1100000D01*
X11274188Y975518D01*
X11310498Y855820D01*
X11369463Y745506D01*
X11448815Y648815D01*
X11545506Y569463D01*
X11655820Y510498D01*
X11775518Y474188D01*
X11900000Y461928D01*
X12276750Y465000D01*
X12435500Y623750D01*
X12435500Y1873000D01*
X12689500Y1873000D01*
X12689500Y623750D01*
X12848250Y465000D01*
X13225000Y461928D01*
X13349482Y474188D01*
X13469180Y510498D01*
X13579494Y569463D01*
X13676185Y648815D01*
X13755537Y745506D01*
X13814502Y855820D01*
X13850812Y975518D01*
X13863072Y1100000D01*
X13860000Y1714250D01*
X13701250Y1873000D01*
X12689500Y1873000D01*
X12435500Y1873000D01*
X11423750Y1873000D01*
X11265000Y1714250D01*
X11261928Y1100000D01*
X10425955Y1100000D01*
X10430958Y1109358D01*
X10466741Y1227321D01*
X10478824Y1349998D01*
X10478824Y2650002D01*
X10466741Y2772679D01*
X10431690Y2888230D01*
X10576750Y2890000D01*
X10735500Y3048750D01*
X10735500Y3873000D01*
X10989500Y3873000D01*
X10989500Y3048750D01*
X11148250Y2890000D01*
X11261985Y2888612D01*
X11265000Y2285750D01*
X11423750Y2127000D01*
X12435500Y2127000D01*
X12435500Y3376250D01*
X12689500Y3376250D01*
X12689500Y2127000D01*
X13701250Y2127000D01*
X13860000Y2285750D01*
X13863072Y2900000D01*
X13850812Y3024482D01*
X13814502Y3144180D01*
X13755537Y3254494D01*
X13676185Y3351185D01*
X13579494Y3430537D01*
X13469180Y3489502D01*
X13349482Y3525812D01*
X13225000Y3538072D01*
X12848250Y3535000D01*
X12689500Y3376250D01*
X12435500Y3376250D01*
X12276750Y3535000D01*
X12037878Y3536948D01*
X12035000Y3714250D01*
X11876250Y3873000D01*
X10989500Y3873000D01*
X10735500Y3873000D01*
X10715500Y3873000D01*
X10715500Y4127000D01*
X10735500Y4127000D01*
X10735500Y4951250D01*
X10989500Y4951250D01*
X10989500Y4127000D01*
X11876250Y4127000D01*
X12035000Y4285750D01*
X12037878Y4463052D01*
X12276750Y4465000D01*
X12435500Y4623750D01*
X12435500Y5873000D01*
X12689500Y5873000D01*
X12689500Y4623750D01*
X12762743Y4550507D01*
X12752859Y4526645D01*
X12723000Y4376530D01*
X12723000Y4223474D01*
X12752859Y4073359D01*
X12811431Y3931954D01*
X12896464Y3804693D01*
X13004691Y3696466D01*
X13131952Y3611433D01*
X13273357Y3552861D01*
X13423472Y3523002D01*
X13531710Y3523002D01*
X13909055Y3145656D01*
X13925554Y3125552D01*
X14005800Y3059696D01*
X14097352Y3010761D01*
X14196692Y2980626D01*
X14300002Y2970451D01*
X14325883Y2973000D01*
X15671176Y2973000D01*
X15671176Y2125000D01*
X15678455Y2051095D01*
X15700012Y1980030D01*
X15735019Y1914537D01*
X15782131Y1857131D01*
X15839537Y1810019D01*
X15905030Y1775012D01*
X15976095Y1753455D01*
X16050000Y1746176D01*
X18250000Y1746176D01*
X18323905Y1753455D01*
X18394970Y1775012D01*
X18460463Y1810019D01*
X18517869Y1857131D01*
X18564981Y1914537D01*
X18599988Y1980030D01*
X18621545Y2051095D01*
X18628824Y2125000D01*
X18628824Y4875000D01*
X18621545Y4948905D01*
X18599988Y5019970D01*
X18564981Y5085463D01*
X18517869Y5142869D01*
X18460463Y5189981D01*
X18394970Y5224988D01*
X18323905Y5246545D01*
X18250000Y5253824D01*
X16050000Y5253824D01*
X15976095Y5246545D01*
X15905030Y5224988D01*
X15839537Y5189981D01*
X15782131Y5142869D01*
X15735019Y5085463D01*
X15700012Y5019970D01*
X15678455Y4948905D01*
X15671176Y4875000D01*
X15671176Y4027000D01*
X14518293Y4027000D01*
X14277000Y4268292D01*
X14277000Y4376530D01*
X14247141Y4526645D01*
X14188569Y4668050D01*
X14103536Y4795311D01*
X13995309Y4903538D01*
X13868048Y4988571D01*
X13852723Y4994919D01*
X13863072Y5100000D01*
X13860000Y5714250D01*
X13701250Y5873000D01*
X12689500Y5873000D01*
X12435500Y5873000D01*
X11423750Y5873000D01*
X11265000Y5714250D01*
X11261985Y5111388D01*
X11148250Y5110000D01*
X10989500Y4951250D01*
X10735500Y4951250D01*
X10576750Y5110000D01*
X10431690Y5111770D01*
X10466741Y5227321D01*
X10478824Y5349998D01*
X10478824Y6650002D01*
X10466741Y6772679D01*
X10430958Y6890642D01*
X10425956Y6900000D01*
X11261928Y6900000D01*
X11265000Y6285750D01*
X11423750Y6127000D01*
X12435500Y6127000D01*
X12435500Y7376250D01*
X12689500Y7376250D01*
X12689500Y6127000D01*
X13701250Y6127000D01*
X13860000Y6285750D01*
X13863072Y6900000D01*
X13850812Y7024482D01*
X13814502Y7144180D01*
X13755537Y7254494D01*
X13676185Y7351185D01*
X13579494Y7430537D01*
X13469180Y7489502D01*
X13349482Y7525812D01*
X13225000Y7538072D01*
X12848250Y7535000D01*
X12689500Y7376250D01*
X12435500Y7376250D01*
X12276750Y7535000D01*
X11900000Y7538072D01*
X11775518Y7525812D01*
X11655820Y7489502D01*
X11545506Y7430537D01*
X11448815Y7351185D01*
X11369463Y7254494D01*
X11310498Y7144180D01*
X11274188Y7024482D01*
X11261928Y6900000D01*
X10425956Y6900000D01*
X10372848Y6999357D01*
X10294646Y7094646D01*
X10199357Y7172848D01*
X10090642Y7230958D01*
X9972679Y7266741D01*
X9850002Y7278824D01*
X9024998Y7278824D01*
X8902321Y7266741D01*
X8784358Y7230958D01*
X8675643Y7172848D01*
X8580354Y7094646D01*
X8502152Y6999357D01*
X8444042Y6890642D01*
X8408259Y6772679D01*
X8396176Y6650002D01*
X8396176Y6291466D01*
X7858534Y5753824D01*
X5750000Y5753824D01*
X5676095Y5746545D01*
X5605030Y5724988D01*
X5539537Y5689981D01*
X5482131Y5642869D01*
X5435019Y5585463D01*
X5400012Y5519970D01*
X5378455Y5448905D01*
X5371176Y5375000D01*
X5371176Y2625000D01*
X5378455Y2551095D01*
X5400012Y2480030D01*
X5435019Y2414537D01*
X5482131Y2357131D01*
X5539537Y2310019D01*
X5605030Y2275012D01*
X5676095Y2253455D01*
X5750000Y2246176D01*
X7950000Y2246176D01*
X8023905Y2253455D01*
X8094970Y2275012D01*
X8160463Y2310019D01*
X8217869Y2357131D01*
X8264981Y2414537D01*
X8299988Y2480030D01*
X8321545Y2551095D01*
X8328824Y2625000D01*
X8328824Y3415484D01*
X8401693Y3326693D01*
X8495089Y3250045D01*
X8601643Y3193091D01*
X8673681Y3171238D01*
X8580354Y3094646D01*
X8502152Y2999357D01*
X8444042Y2890642D01*
X8408259Y2772679D01*
X8396176Y2650002D01*
X8396176Y1766466D01*
X8031710Y1402000D01*
X7923472Y1402000D01*
X7773357Y1372141D01*
X7631952Y1313569D01*
X7504691Y1228536D01*
X7396464Y1120309D01*
X7311431Y993048D01*
X7252859Y851643D01*
X7223000Y701528D01*
X7223000Y548472D01*
X7252134Y402000D01*
X402000Y402000D01*
X402000Y5375000D01*
X671176Y5375000D01*
X671176Y2625000D01*
X678455Y2551095D01*
X700012Y2480030D01*
X735019Y2414537D01*
X782131Y2357131D01*
X839537Y2310019D01*
X905030Y2275012D01*
X976095Y2253455D01*
X1050000Y2246176D01*
X1623001Y2246176D01*
X1623001Y1875890D01*
X1620451Y1850000D01*
X1630626Y1746691D01*
X1660761Y1647351D01*
X1707613Y1559696D01*
X1709697Y1555798D01*
X1723000Y1539588D01*
X1723000Y1423472D01*
X1752859Y1273357D01*
X1811431Y1131952D01*
X1896464Y1004691D01*
X2004691Y896464D01*
X2131952Y811431D01*
X2273357Y752859D01*
X2423472Y723000D01*
X2576528Y723000D01*
X2726643Y752859D01*
X2868048Y811431D01*
X2995309Y896464D01*
X3103536Y1004691D01*
X3188569Y1131952D01*
X3247141Y1273357D01*
X3277000Y1423472D01*
X3277000Y1576528D01*
X3247141Y1726643D01*
X3188569Y1868048D01*
X3103536Y1995309D01*
X2995309Y2103536D01*
X2868048Y2188569D01*
X2728973Y2246176D01*
X3250000Y2246176D01*
X3323905Y2253455D01*
X3394970Y2275012D01*
X3460463Y2310019D01*
X3517869Y2357131D01*
X3564981Y2414537D01*
X3599988Y2480030D01*
X3621545Y2551095D01*
X3628824Y2625000D01*
X3628824Y5375000D01*
X3621545Y5448905D01*
X3599988Y5519970D01*
X3564981Y5585463D01*
X3517869Y5642869D01*
X3460463Y5689981D01*
X3394970Y5724988D01*
X3323905Y5746545D01*
X3250000Y5753824D01*
X1050000Y5753824D01*
X976095Y5746545D01*
X905030Y5724988D01*
X839537Y5689981D01*
X782131Y5642869D01*
X735019Y5585463D01*
X700012Y5519970D01*
X678455Y5448905D01*
X671176Y5375000D01*
X402000Y5375000D01*
X402000Y8350000D01*
X11016928Y8350000D01*
X11029188Y8225518D01*
X11065498Y8105820D01*
X11124463Y7995506D01*
X11203815Y7898815D01*
X11300506Y7819463D01*
X11410820Y7760498D01*
X11530518Y7724188D01*
X11655000Y7711928D01*
X11844250Y7715000D01*
X12003000Y7873750D01*
X12003000Y8760500D01*
X12257000Y8760500D01*
X12257000Y7873750D01*
X12415750Y7715000D01*
X12605000Y7711928D01*
X12729482Y7724188D01*
X12849180Y7760498D01*
X12959494Y7819463D01*
X13056185Y7898815D01*
X13135537Y7995506D01*
X13194502Y8105820D01*
X13230812Y8225518D01*
X13243072Y8350000D01*
X13240000Y8601750D01*
X13081250Y8760500D01*
X12257000Y8760500D01*
X12003000Y8760500D01*
X11178750Y8760500D01*
X11020000Y8601750D01*
X11016928Y8350000D01*
X402000Y8350000D01*
X402000Y14183110D01*
X2058524Y14183110D01*
X2103175Y14035901D01*
X2228359Y13773080D01*
X2402412Y13539731D01*
X2618645Y13344822D01*
X2813380Y13228824D01*
X2650000Y13228824D01*
X2576095Y13221545D01*
X2505030Y13199988D01*
X2439537Y13164981D01*
X2382131Y13117869D01*
X2335019Y13060463D01*
X2300012Y12994970D01*
X2278455Y12923905D01*
X2271176Y12850000D01*
X2271176Y11150000D01*
X2278455Y11076095D01*
X2300012Y11005030D01*
X2335019Y10939537D01*
X2382131Y10882131D01*
X2439537Y10835019D01*
X2505030Y10800012D01*
X2576095Y10778455D01*
X2650000Y10771176D01*
X4350000Y10771176D01*
X4423905Y10778455D01*
X4494970Y10800012D01*
X4560463Y10835019D01*
X4617869Y10882131D01*
X4664981Y10939537D01*
X4699988Y11005030D01*
X4721545Y11076095D01*
X4728824Y11150000D01*
X4728824Y12850000D01*
X4721545Y12923905D01*
X4699988Y12994970D01*
X4664981Y13060463D01*
X4617869Y13117869D01*
X4560463Y13164981D01*
X4494970Y13199988D01*
X4423905Y13221545D01*
X4350000Y13228824D01*
X4186620Y13228824D01*
X4381355Y13344822D01*
X4597588Y13539731D01*
X4771641Y13773080D01*
X4896825Y14035901D01*
X4941476Y14183110D01*
X4820155Y14413000D01*
X3627000Y14413000D01*
X3627000Y14393000D01*
X3373000Y14393000D01*
X3373000Y14413000D01*
X2179845Y14413000D01*
X2058524Y14183110D01*
X402000Y14183110D01*
X402000Y28076528D01*
X1723000Y28076528D01*
X1723000Y27923472D01*
X1752859Y27773357D01*
X1811431Y27631952D01*
X1896464Y27504691D01*
X2004691Y27396464D01*
X2131952Y27311431D01*
X2273357Y27252859D01*
X2423472Y27223000D01*
X2576528Y27223000D01*
X2726643Y27252859D01*
X2868048Y27311431D01*
X2981827Y27387455D01*
X3031693Y27326693D01*
X3125089Y27250045D01*
X3231643Y27193091D01*
X3347261Y27158018D01*
X3467500Y27146176D01*
X4042500Y27146176D01*
X4162739Y27158018D01*
X4278357Y27193091D01*
X4384911Y27250045D01*
X4400229Y27262616D01*
X4449463Y27170506D01*
X4528815Y27073815D01*
X4545649Y27060000D01*
X4528815Y27046185D01*
X4449463Y26949494D01*
X4400229Y26857384D01*
X4384911Y26869955D01*
X4278357Y26926909D01*
X4162739Y26961982D01*
X4042500Y26973824D01*
X3467500Y26973824D01*
X3347261Y26961982D01*
X3231643Y26926909D01*
X3125089Y26869955D01*
X3031693Y26793307D01*
X2955045Y26699911D01*
X2927684Y26648722D01*
X2868048Y26688569D01*
X2726643Y26747141D01*
X2576528Y26777000D01*
X2423472Y26777000D01*
X2273357Y26747141D01*
X2131952Y26688569D01*
X2004691Y26603536D01*
X1896464Y26495309D01*
X1811431Y26368048D01*
X1752859Y26226643D01*
X1723000Y26076528D01*
X1723000Y25923472D01*
X1752859Y25773357D01*
X1811431Y25631952D01*
X1896464Y25504691D01*
X2004691Y25396464D01*
X2131952Y25311431D01*
X2273357Y25252859D01*
X2423472Y25223000D01*
X2576528Y25223000D01*
X2726643Y25252859D01*
X2868048Y25311431D01*
X2995309Y25396464D01*
X3039297Y25440452D01*
X3125089Y25370045D01*
X3231643Y25313091D01*
X3347261Y25278018D01*
X3467500Y25266176D01*
X4042500Y25266176D01*
X4162739Y25278018D01*
X4278357Y25313091D01*
X4384911Y25370045D01*
X4400229Y25382616D01*
X4449463Y25290506D01*
X4528815Y25193815D01*
X4612667Y25125000D01*
X4528815Y25056185D01*
X4449463Y24959494D01*
X4400229Y24867384D01*
X4384911Y24879955D01*
X4278357Y24936909D01*
X4162739Y24971982D01*
X4042500Y24983824D01*
X3467500Y24983824D01*
X3347261Y24971982D01*
X3231643Y24936909D01*
X3125089Y24879955D01*
X3031693Y24803307D01*
X2955045Y24709911D01*
X2923745Y24651353D01*
X2868048Y24688569D01*
X2726643Y24747141D01*
X2576528Y24777000D01*
X2423472Y24777000D01*
X2273357Y24747141D01*
X2131952Y24688569D01*
X2004691Y24603536D01*
X1896464Y24495309D01*
X1811431Y24368048D01*
X1752859Y24226643D01*
X1723000Y24076528D01*
X1723000Y23923472D01*
X1752859Y23773357D01*
X1811431Y23631952D01*
X1896464Y23504691D01*
X2004691Y23396464D01*
X2131952Y23311431D01*
X2273357Y23252859D01*
X2423472Y23223000D01*
X2576528Y23223000D01*
X2726643Y23252859D01*
X2868048Y23311431D01*
X2995309Y23396464D01*
X3044790Y23445945D01*
X3125089Y23380045D01*
X3231643Y23323091D01*
X3347261Y23288018D01*
X3467500Y23276176D01*
X4042500Y23276176D01*
X4162739Y23288018D01*
X4278357Y23323091D01*
X4384911Y23380045D01*
X4400229Y23392616D01*
X4449463Y23300506D01*
X4528815Y23203815D01*
X4625506Y23124463D01*
X4735820Y23065498D01*
X4855518Y23029188D01*
X4980000Y23016928D01*
X5219250Y23020000D01*
X5378000Y23178750D01*
X5378000Y24003000D01*
X5632000Y24003000D01*
X5632000Y23178750D01*
X5790750Y23020000D01*
X6030000Y23016928D01*
X6154482Y23029188D01*
X6274180Y23065498D01*
X6384494Y23124463D01*
X6481185Y23203815D01*
X6560537Y23300506D01*
X6619502Y23410820D01*
X6655812Y23530518D01*
X6668072Y23655000D01*
X6665000Y23844250D01*
X6506250Y24003000D01*
X5632000Y24003000D01*
X5378000Y24003000D01*
X5358000Y24003000D01*
X5358000Y24257000D01*
X5378000Y24257000D01*
X5378000Y25081250D01*
X5334250Y25125000D01*
X5378000Y25168750D01*
X5378000Y25993000D01*
X5632000Y25993000D01*
X5632000Y25168750D01*
X5675750Y25125000D01*
X5632000Y25081250D01*
X5632000Y24257000D01*
X6506250Y24257000D01*
X6665000Y24415750D01*
X6668072Y24605000D01*
X6655812Y24729482D01*
X6619502Y24849180D01*
X6560537Y24959494D01*
X6481185Y25056185D01*
X6397333Y25125000D01*
X6481185Y25193815D01*
X6560537Y25290506D01*
X6619502Y25400820D01*
X6655812Y25520518D01*
X6668072Y25645000D01*
X6665000Y25834250D01*
X6506250Y25993000D01*
X5632000Y25993000D01*
X5378000Y25993000D01*
X5358000Y25993000D01*
X5358000Y26247000D01*
X5378000Y26247000D01*
X5378000Y27873000D01*
X5632000Y27873000D01*
X5632000Y26247000D01*
X6506250Y26247000D01*
X6665000Y26405750D01*
X6668072Y26595000D01*
X6655812Y26719482D01*
X6619502Y26839180D01*
X6560537Y26949494D01*
X6481185Y27046185D01*
X6464351Y27060000D01*
X6481185Y27073815D01*
X6560537Y27170506D01*
X6619502Y27280820D01*
X6655812Y27400518D01*
X6668072Y27525000D01*
X6665000Y27714250D01*
X6506250Y27873000D01*
X5632000Y27873000D01*
X5378000Y27873000D01*
X5358000Y27873000D01*
X5358000Y28127000D01*
X5378000Y28127000D01*
X5378000Y28951250D01*
X5632000Y28951250D01*
X5632000Y28127000D01*
X6506250Y28127000D01*
X6665000Y28285750D01*
X6668072Y28475000D01*
X6655812Y28599482D01*
X6619502Y28719180D01*
X6560537Y28829494D01*
X6481185Y28926185D01*
X6384494Y29005537D01*
X6274180Y29064502D01*
X6154482Y29100812D01*
X6030000Y29113072D01*
X5790750Y29110000D01*
X5632000Y28951250D01*
X5378000Y28951250D01*
X5219250Y29110000D01*
X4980000Y29113072D01*
X4855518Y29100812D01*
X4735820Y29064502D01*
X4625506Y29005537D01*
X4528815Y28926185D01*
X4449463Y28829494D01*
X4400229Y28737384D01*
X4384911Y28749955D01*
X4278357Y28806909D01*
X4162739Y28841982D01*
X4042500Y28853824D01*
X3467500Y28853824D01*
X3347261Y28841982D01*
X3231643Y28806909D01*
X3125089Y28749955D01*
X3031693Y28673307D01*
X2981827Y28612545D01*
X2868048Y28688569D01*
X2726643Y28747141D01*
X2576528Y28777000D01*
X2423472Y28777000D01*
X2273357Y28747141D01*
X2131952Y28688569D01*
X2004691Y28603536D01*
X1896464Y28495309D01*
X1811431Y28368048D01*
X1752859Y28226643D01*
X1723000Y28076528D01*
X402000Y28076528D01*
X402000Y29598000D01*
X28098000Y29598000D01*
X28098000Y21062460D01*
G36*
X19672415Y11580661D02*
G01*
X19688918Y11560552D01*
X19769164Y11494696D01*
X19832567Y11460807D01*
X19860716Y11445761D01*
X19960056Y11415626D01*
X20063365Y11405451D01*
X20089246Y11408000D01*
X20674897Y11408000D01*
X20691531Y11387731D01*
X20748937Y11340619D01*
X20814430Y11305612D01*
X20832931Y11300000D01*
X20814430Y11294388D01*
X20748937Y11259381D01*
X20691531Y11212269D01*
X20674897Y11192000D01*
X20007282Y11192000D01*
X19962768Y11193238D01*
X19929896Y11187644D01*
X19896690Y11184374D01*
X19878821Y11178953D01*
X19860430Y11175824D01*
X19829277Y11163924D01*
X19797350Y11154239D01*
X19780891Y11145442D01*
X19763454Y11138781D01*
X19735218Y11121029D01*
X19705798Y11105304D01*
X19671335Y11077021D01*
X19033824Y10582843D01*
X19033824Y11025000D01*
X19021982Y11145239D01*
X18986909Y11260857D01*
X18941580Y11345662D01*
X19009494Y11381963D01*
X19106185Y11461315D01*
X19185537Y11558006D01*
X19244502Y11668320D01*
X19280812Y11788018D01*
X19293072Y11912500D01*
X19292485Y11960591D01*
X19672415Y11580661D01*
G37*
X19672415Y11580661D02*
X19688918Y11560552D01*
X19769164Y11494696D01*
X19832567Y11460807D01*
X19860716Y11445761D01*
X19960056Y11415626D01*
X20063365Y11405451D01*
X20089246Y11408000D01*
X20674897Y11408000D01*
X20691531Y11387731D01*
X20748937Y11340619D01*
X20814430Y11305612D01*
X20832931Y11300000D01*
X20814430Y11294388D01*
X20748937Y11259381D01*
X20691531Y11212269D01*
X20674897Y11192000D01*
X20007282Y11192000D01*
X19962768Y11193238D01*
X19929896Y11187644D01*
X19896690Y11184374D01*
X19878821Y11178953D01*
X19860430Y11175824D01*
X19829277Y11163924D01*
X19797350Y11154239D01*
X19780891Y11145442D01*
X19763454Y11138781D01*
X19735218Y11121029D01*
X19705798Y11105304D01*
X19671335Y11077021D01*
X19033824Y10582843D01*
X19033824Y11025000D01*
X19021982Y11145239D01*
X18986909Y11260857D01*
X18941580Y11345662D01*
X19009494Y11381963D01*
X19106185Y11461315D01*
X19185537Y11558006D01*
X19244502Y11668320D01*
X19280812Y11788018D01*
X19293072Y11912500D01*
X19292485Y11960591D01*
X19672415Y11580661D01*
G36*
X7158868Y12095842D02*
G01*
X7134188Y12014482D01*
X7121928Y11890000D01*
X7125000Y11775750D01*
X7283750Y11617000D01*
X8083000Y11617000D01*
X8083000Y11637000D01*
X8337000Y11637000D01*
X8337000Y11617000D01*
X9136250Y11617000D01*
X9295000Y11775750D01*
X9298072Y11890000D01*
X9295807Y11913000D01*
X9504561Y11913000D01*
X9510012Y11895030D01*
X9545019Y11829537D01*
X9592131Y11772131D01*
X9649537Y11725019D01*
X9715030Y11690012D01*
X9786095Y11668455D01*
X9860000Y11661176D01*
X10760000Y11661176D01*
X10833905Y11668455D01*
X10904970Y11690012D01*
X10970463Y11725019D01*
X11027869Y11772131D01*
X11059358Y11810500D01*
X11300404Y11810500D01*
X11303091Y11801643D01*
X11360045Y11695089D01*
X11436693Y11601693D01*
X11530089Y11525045D01*
X11633717Y11469655D01*
X11550089Y11424955D01*
X11456693Y11348307D01*
X11380045Y11254911D01*
X11323091Y11148357D01*
X11320404Y11139500D01*
X11080841Y11139500D01*
X11074981Y11150463D01*
X11027869Y11207869D01*
X10970463Y11254981D01*
X10904970Y11289988D01*
X10833905Y11311545D01*
X10760000Y11318824D01*
X9860000Y11318824D01*
X9786095Y11311545D01*
X9715030Y11289988D01*
X9649537Y11254981D01*
X9592131Y11207869D01*
X9545019Y11150463D01*
X9510012Y11084970D01*
X9501609Y11057269D01*
X9294602Y11054767D01*
X9298072Y11090000D01*
X9295000Y11204250D01*
X9136250Y11363000D01*
X8337000Y11363000D01*
X8337000Y11343000D01*
X8083000Y11343000D01*
X8083000Y11363000D01*
X7283750Y11363000D01*
X7125000Y11204250D01*
X7122802Y11122489D01*
X6527000Y11718289D01*
X6527000Y12727711D01*
X7158868Y12095842D01*
G37*
X7158868Y12095842D02*
X7134188Y12014482D01*
X7121928Y11890000D01*
X7125000Y11775750D01*
X7283750Y11617000D01*
X8083000Y11617000D01*
X8083000Y11637000D01*
X8337000Y11637000D01*
X8337000Y11617000D01*
X9136250Y11617000D01*
X9295000Y11775750D01*
X9298072Y11890000D01*
X9295807Y11913000D01*
X9504561Y11913000D01*
X9510012Y11895030D01*
X9545019Y11829537D01*
X9592131Y11772131D01*
X9649537Y11725019D01*
X9715030Y11690012D01*
X9786095Y11668455D01*
X9860000Y11661176D01*
X10760000Y11661176D01*
X10833905Y11668455D01*
X10904970Y11690012D01*
X10970463Y11725019D01*
X11027869Y11772131D01*
X11059358Y11810500D01*
X11300404Y11810500D01*
X11303091Y11801643D01*
X11360045Y11695089D01*
X11436693Y11601693D01*
X11530089Y11525045D01*
X11633717Y11469655D01*
X11550089Y11424955D01*
X11456693Y11348307D01*
X11380045Y11254911D01*
X11323091Y11148357D01*
X11320404Y11139500D01*
X11080841Y11139500D01*
X11074981Y11150463D01*
X11027869Y11207869D01*
X10970463Y11254981D01*
X10904970Y11289988D01*
X10833905Y11311545D01*
X10760000Y11318824D01*
X9860000Y11318824D01*
X9786095Y11311545D01*
X9715030Y11289988D01*
X9649537Y11254981D01*
X9592131Y11207869D01*
X9545019Y11150463D01*
X9510012Y11084970D01*
X9501609Y11057269D01*
X9294602Y11054767D01*
X9298072Y11090000D01*
X9295000Y11204250D01*
X9136250Y11363000D01*
X8337000Y11363000D01*
X8337000Y11343000D01*
X8083000Y11343000D01*
X8083000Y11363000D01*
X7283750Y11363000D01*
X7125000Y11204250D01*
X7122802Y11122489D01*
X6527000Y11718289D01*
X6527000Y12727711D01*
X7158868Y12095842D01*
G36*
X25069463Y14090506D02*
G01*
X25148815Y13993815D01*
X25245506Y13914463D01*
X25355820Y13855498D01*
X25475518Y13819188D01*
X25600000Y13806928D01*
X25692774Y13808060D01*
X25676537Y13799381D01*
X25619131Y13752269D01*
X25572019Y13694863D01*
X25537012Y13629370D01*
X25515455Y13558305D01*
X25508176Y13484400D01*
X25508176Y12925600D01*
X25515455Y12851695D01*
X25537012Y12780630D01*
X25550801Y12754833D01*
X25533795Y12745796D01*
X25436911Y12666679D01*
X25357325Y12570180D01*
X25298093Y12460010D01*
X25261492Y12340400D01*
X25252000Y12220750D01*
X25410750Y12062000D01*
X26750600Y12062000D01*
X26750600Y12082000D01*
X27004600Y12082000D01*
X27004600Y12062000D01*
X27024600Y12062000D01*
X27024600Y11808000D01*
X27004600Y11808000D01*
X27004600Y11788000D01*
X26750600Y11788000D01*
X26750600Y11808000D01*
X25410750Y11808000D01*
X25300020Y11697270D01*
X24939500Y12057789D01*
X24939500Y14110404D01*
X24948357Y14113091D01*
X25033162Y14158420D01*
X25069463Y14090506D01*
G37*
X25069463Y14090506D02*
X25148815Y13993815D01*
X25245506Y13914463D01*
X25355820Y13855498D01*
X25475518Y13819188D01*
X25600000Y13806928D01*
X25692774Y13808060D01*
X25676537Y13799381D01*
X25619131Y13752269D01*
X25572019Y13694863D01*
X25537012Y13629370D01*
X25515455Y13558305D01*
X25508176Y13484400D01*
X25508176Y12925600D01*
X25515455Y12851695D01*
X25537012Y12780630D01*
X25550801Y12754833D01*
X25533795Y12745796D01*
X25436911Y12666679D01*
X25357325Y12570180D01*
X25298093Y12460010D01*
X25261492Y12340400D01*
X25252000Y12220750D01*
X25410750Y12062000D01*
X26750600Y12062000D01*
X26750600Y12082000D01*
X27004600Y12082000D01*
X27004600Y12062000D01*
X27024600Y12062000D01*
X27024600Y11808000D01*
X27004600Y11808000D01*
X27004600Y11788000D01*
X26750600Y11788000D01*
X26750600Y11808000D01*
X25410750Y11808000D01*
X25300020Y11697270D01*
X24939500Y12057789D01*
X24939500Y14110404D01*
X24948357Y14113091D01*
X25033162Y14158420D01*
X25069463Y14090506D01*
G36*
X18307000Y12577000D02*
G01*
X18327000Y12577000D01*
X18327000Y12323000D01*
X18307000Y12323000D01*
X18307000Y12303000D01*
X18053000Y12303000D01*
X18053000Y12323000D01*
X18033000Y12323000D01*
X18033000Y12577000D01*
X18053000Y12577000D01*
X18053000Y12597000D01*
X18307000Y12597000D01*
X18307000Y12577000D01*
G37*
X18307000Y12577000D02*
X18327000Y12577000D01*
X18327000Y12323000D01*
X18307000Y12323000D01*
X18307000Y12303000D01*
X18053000Y12303000D01*
X18053000Y12323000D01*
X18033000Y12323000D01*
X18033000Y12577000D01*
X18053000Y12577000D01*
X18053000Y12597000D01*
X18307000Y12597000D01*
X18307000Y12577000D01*
M02*
