%TF.GenerationSoftware,KiCad,Pcbnew,(5.1.6)-1*%
%TF.CreationDate,2021-09-30T15:23:08+02:00*%
%TF.ProjectId,Board,426f6172-642e-46b6-9963-61645f706362,rev?*%
%TF.SameCoordinates,PX367e320PY64168f0*%
%TF.FileFunction,Soldermask,Top*%
%TF.FilePolarity,Negative*%
%FSLAX46Y46*%
G04 Gerber Fmt 4.6, Leading zero omitted, Abs format (unit mm)*
G04 Created by KiCad (PCBNEW (5.1.6)-1) date 2021-09-30 15:23:08*
%MOMM*%
%LPD*%
G01*
G04 APERTURE LIST*
%TA.AperFunction,Profile*%
%ADD10C,0.050000*%
%TD*%
%ADD11R,1.550000X0.550000*%
%ADD12R,2.600000X1.900000*%
%ADD13R,5.100000X5.100000*%
%ADD14R,1.000000X2.100000*%
%ADD15R,2.100000X1.000000*%
%ADD16R,1.800000X1.800000*%
%ADD17O,1.800000X1.800000*%
%ADD18C,0.900000*%
G04 APERTURE END LIST*
D10*
X28500000Y0D02*
X0Y0D01*
X28500000Y30000000D02*
X28500000Y0D01*
X0Y30000000D02*
X28500000Y30000000D01*
X0Y0D02*
X0Y30000000D01*
D11*
X14200000Y3475000D03*
X14200000Y2825000D03*
X14200000Y2175000D03*
X14200000Y1525000D03*
X9800000Y1525000D03*
X9800000Y2175000D03*
X9800000Y2825000D03*
X9800000Y3475000D03*
D12*
X6500000Y4500000D03*
X2500000Y4500000D03*
G36*
G01*
X4800000Y23838750D02*
X4800000Y24401250D01*
G75*
G02*
X5043750Y24645000I243750J0D01*
G01*
X5531250Y24645000D01*
G75*
G02*
X5775000Y24401250I0J-243750D01*
G01*
X5775000Y23838750D01*
G75*
G02*
X5531250Y23595000I-243750J0D01*
G01*
X5043750Y23595000D01*
G75*
G02*
X4800000Y23838750I0J243750D01*
G01*
G37*
G36*
G01*
X3225000Y23838750D02*
X3225000Y24401250D01*
G75*
G02*
X3468750Y24645000I243750J0D01*
G01*
X3956250Y24645000D01*
G75*
G02*
X4200000Y24401250I0J-243750D01*
G01*
X4200000Y23838750D01*
G75*
G02*
X3956250Y23595000I-243750J0D01*
G01*
X3468750Y23595000D01*
G75*
G02*
X3225000Y23838750I0J243750D01*
G01*
G37*
G36*
G01*
X3225000Y25868750D02*
X3225000Y26431250D01*
G75*
G02*
X3468750Y26675000I243750J0D01*
G01*
X3956250Y26675000D01*
G75*
G02*
X4200000Y26431250I0J-243750D01*
G01*
X4200000Y25868750D01*
G75*
G02*
X3956250Y25625000I-243750J0D01*
G01*
X3468750Y25625000D01*
G75*
G02*
X3225000Y25868750I0J243750D01*
G01*
G37*
G36*
G01*
X4800000Y25868750D02*
X4800000Y26431250D01*
G75*
G02*
X5043750Y26675000I243750J0D01*
G01*
X5531250Y26675000D01*
G75*
G02*
X5775000Y26431250I0J-243750D01*
G01*
X5775000Y25868750D01*
G75*
G02*
X5531250Y25625000I-243750J0D01*
G01*
X5043750Y25625000D01*
G75*
G02*
X4800000Y25868750I0J243750D01*
G01*
G37*
G36*
G01*
X3225000Y27718750D02*
X3225000Y28281250D01*
G75*
G02*
X3468750Y28525000I243750J0D01*
G01*
X3956250Y28525000D01*
G75*
G02*
X4200000Y28281250I0J-243750D01*
G01*
X4200000Y27718750D01*
G75*
G02*
X3956250Y27475000I-243750J0D01*
G01*
X3468750Y27475000D01*
G75*
G02*
X3225000Y27718750I0J243750D01*
G01*
G37*
G36*
G01*
X4800000Y27718750D02*
X4800000Y28281250D01*
G75*
G02*
X5043750Y28525000I243750J0D01*
G01*
X5531250Y28525000D01*
G75*
G02*
X5775000Y28281250I0J-243750D01*
G01*
X5775000Y27718750D01*
G75*
G02*
X5531250Y27475000I-243750J0D01*
G01*
X5043750Y27475000D01*
G75*
G02*
X4800000Y27718750I0J243750D01*
G01*
G37*
G36*
G01*
X2781250Y7225000D02*
X2218750Y7225000D01*
G75*
G02*
X1975000Y7468750I0J243750D01*
G01*
X1975000Y7956250D01*
G75*
G02*
X2218750Y8200000I243750J0D01*
G01*
X2781250Y8200000D01*
G75*
G02*
X3025000Y7956250I0J-243750D01*
G01*
X3025000Y7468750D01*
G75*
G02*
X2781250Y7225000I-243750J0D01*
G01*
G37*
G36*
G01*
X2781250Y8800000D02*
X2218750Y8800000D01*
G75*
G02*
X1975000Y9043750I0J243750D01*
G01*
X1975000Y9531250D01*
G75*
G02*
X2218750Y9775000I243750J0D01*
G01*
X2781250Y9775000D01*
G75*
G02*
X3025000Y9531250I0J-243750D01*
G01*
X3025000Y9043750D01*
G75*
G02*
X2781250Y8800000I-243750J0D01*
G01*
G37*
D13*
X19255000Y16000000D03*
D14*
X26755000Y23500000D03*
X25485000Y23500000D03*
X24215000Y23500000D03*
X22945000Y23500000D03*
X21675000Y23500000D03*
X20405000Y23500000D03*
X19135000Y23500000D03*
X17865000Y23500000D03*
X16595000Y23500000D03*
X15325000Y23500000D03*
X14055000Y23500000D03*
X12785000Y23500000D03*
X11515000Y23500000D03*
X10245000Y23500000D03*
D15*
X9245000Y20715000D03*
X9245000Y19445000D03*
X9245000Y18175000D03*
X9245000Y16905000D03*
X9245000Y15635000D03*
X9245000Y14365000D03*
X9245000Y13095000D03*
X9245000Y11825000D03*
X9245000Y10555000D03*
X9245000Y9285000D03*
D14*
X10245000Y6500000D03*
X11515000Y6500000D03*
X12785000Y6500000D03*
X14055000Y6500000D03*
X15325000Y6500000D03*
X16595000Y6500000D03*
X17865000Y6500000D03*
X19135000Y6500000D03*
X20405000Y6500000D03*
X21675000Y6500000D03*
X22945000Y6500000D03*
X24215000Y6500000D03*
X25485000Y6500000D03*
X26755000Y6500000D03*
G36*
G01*
X18950000Y4262500D02*
X18950000Y3737500D01*
G75*
G02*
X18687500Y3475000I-262500J0D01*
G01*
X18062500Y3475000D01*
G75*
G02*
X17800000Y3737500I0J262500D01*
G01*
X17800000Y4262500D01*
G75*
G02*
X18062500Y4525000I262500J0D01*
G01*
X18687500Y4525000D01*
G75*
G02*
X18950000Y4262500I0J-262500D01*
G01*
G37*
G36*
G01*
X17200000Y4262500D02*
X17200000Y3737500D01*
G75*
G02*
X16937500Y3475000I-262500J0D01*
G01*
X16312500Y3475000D01*
G75*
G02*
X16050000Y3737500I0J262500D01*
G01*
X16050000Y4262500D01*
G75*
G02*
X16312500Y4525000I262500J0D01*
G01*
X16937500Y4525000D01*
G75*
G02*
X17200000Y4262500I0J-262500D01*
G01*
G37*
G36*
G01*
X16290000Y1846500D02*
X16290000Y2371500D01*
G75*
G02*
X16552500Y2634000I262500J0D01*
G01*
X17177500Y2634000D01*
G75*
G02*
X17440000Y2371500I0J-262500D01*
G01*
X17440000Y1846500D01*
G75*
G02*
X17177500Y1584000I-262500J0D01*
G01*
X16552500Y1584000D01*
G75*
G02*
X16290000Y1846500I0J262500D01*
G01*
G37*
G36*
G01*
X18040000Y1846500D02*
X18040000Y2371500D01*
G75*
G02*
X18302500Y2634000I262500J0D01*
G01*
X18927500Y2634000D01*
G75*
G02*
X19190000Y2371500I0J-262500D01*
G01*
X19190000Y1846500D01*
G75*
G02*
X18927500Y1584000I-262500J0D01*
G01*
X18302500Y1584000D01*
G75*
G02*
X18040000Y1846500I0J262500D01*
G01*
G37*
G36*
G01*
X19790000Y1846500D02*
X19790000Y2371500D01*
G75*
G02*
X20052500Y2634000I262500J0D01*
G01*
X20677500Y2634000D01*
G75*
G02*
X20940000Y2371500I0J-262500D01*
G01*
X20940000Y1846500D01*
G75*
G02*
X20677500Y1584000I-262500J0D01*
G01*
X20052500Y1584000D01*
G75*
G02*
X19790000Y1846500I0J262500D01*
G01*
G37*
G36*
G01*
X21540000Y1846500D02*
X21540000Y2371500D01*
G75*
G02*
X21802500Y2634000I262500J0D01*
G01*
X22427500Y2634000D01*
G75*
G02*
X22690000Y2371500I0J-262500D01*
G01*
X22690000Y1846500D01*
G75*
G02*
X22427500Y1584000I-262500J0D01*
G01*
X21802500Y1584000D01*
G75*
G02*
X21540000Y1846500I0J262500D01*
G01*
G37*
D16*
X8500000Y27500000D03*
D17*
X11040000Y27500000D03*
X13580000Y27500000D03*
X16120000Y27500000D03*
X18660000Y27500000D03*
X21200000Y27500000D03*
X23740000Y27500000D03*
X26280000Y27500000D03*
D16*
X3500000Y12000000D03*
D17*
X3500000Y14540000D03*
X3500000Y17080000D03*
X3500000Y19620000D03*
D18*
X19468852Y11468852D03*
X7030331Y11530331D03*
X19500000Y8500000D03*
X24500000Y10000000D03*
X27500000Y14500000D03*
X28000000Y8000000D03*
X2500000Y26000000D03*
X2500000Y28000000D03*
X24000000Y20000000D03*
X20000000Y4000000D03*
X2500000Y24000000D03*
X13500000Y4300002D03*
X2500000Y1500000D03*
X8000000Y625000D03*
X16150000Y20375000D03*
X20500000Y19500000D03*
X13500000Y20500000D03*
X22000000Y21500000D03*
M02*
