%TF.GenerationSoftware,KiCad,Pcbnew,(5.1.6)-1*%
%TF.CreationDate,2021-09-30T15:23:07+02:00*%
%TF.ProjectId,Board,426f6172-642e-46b6-9963-61645f706362,rev?*%
%TF.SameCoordinates,PX367e320PY64168f0*%
%TF.FileFunction,Paste,Top*%
%TF.FilePolarity,Positive*%
%FSLAX46Y46*%
G04 Gerber Fmt 4.6, Leading zero omitted, Abs format (unit mm)*
G04 Created by KiCad (PCBNEW (5.1.6)-1) date 2021-09-30 15:23:07*
%MOMM*%
%LPD*%
G01*
G04 APERTURE LIST*
%TA.AperFunction,Profile*%
%ADD10C,0.050000*%
%TD*%
%ADD11R,1.450000X0.450000*%
%ADD12R,2.500000X1.800000*%
%ADD13R,5.000000X5.000000*%
%ADD14R,0.900000X2.000000*%
%ADD15R,2.000000X0.900000*%
G04 APERTURE END LIST*
D10*
X28500000Y0D02*
X0Y0D01*
X28500000Y30000000D02*
X28500000Y0D01*
X0Y30000000D02*
X28500000Y30000000D01*
X0Y0D02*
X0Y30000000D01*
D11*
X14200000Y3475000D03*
X14200000Y2825000D03*
X14200000Y2175000D03*
X14200000Y1525000D03*
X9800000Y1525000D03*
X9800000Y2175000D03*
X9800000Y2825000D03*
X9800000Y3475000D03*
D12*
X6500000Y4500000D03*
X2500000Y4500000D03*
G36*
G01*
X4850000Y23863750D02*
X4850000Y24376250D01*
G75*
G02*
X5068750Y24595000I218750J0D01*
G01*
X5506250Y24595000D01*
G75*
G02*
X5725000Y24376250I0J-218750D01*
G01*
X5725000Y23863750D01*
G75*
G02*
X5506250Y23645000I-218750J0D01*
G01*
X5068750Y23645000D01*
G75*
G02*
X4850000Y23863750I0J218750D01*
G01*
G37*
G36*
G01*
X3275000Y23863750D02*
X3275000Y24376250D01*
G75*
G02*
X3493750Y24595000I218750J0D01*
G01*
X3931250Y24595000D01*
G75*
G02*
X4150000Y24376250I0J-218750D01*
G01*
X4150000Y23863750D01*
G75*
G02*
X3931250Y23645000I-218750J0D01*
G01*
X3493750Y23645000D01*
G75*
G02*
X3275000Y23863750I0J218750D01*
G01*
G37*
G36*
G01*
X3275000Y25893750D02*
X3275000Y26406250D01*
G75*
G02*
X3493750Y26625000I218750J0D01*
G01*
X3931250Y26625000D01*
G75*
G02*
X4150000Y26406250I0J-218750D01*
G01*
X4150000Y25893750D01*
G75*
G02*
X3931250Y25675000I-218750J0D01*
G01*
X3493750Y25675000D01*
G75*
G02*
X3275000Y25893750I0J218750D01*
G01*
G37*
G36*
G01*
X4850000Y25893750D02*
X4850000Y26406250D01*
G75*
G02*
X5068750Y26625000I218750J0D01*
G01*
X5506250Y26625000D01*
G75*
G02*
X5725000Y26406250I0J-218750D01*
G01*
X5725000Y25893750D01*
G75*
G02*
X5506250Y25675000I-218750J0D01*
G01*
X5068750Y25675000D01*
G75*
G02*
X4850000Y25893750I0J218750D01*
G01*
G37*
G36*
G01*
X3275000Y27743750D02*
X3275000Y28256250D01*
G75*
G02*
X3493750Y28475000I218750J0D01*
G01*
X3931250Y28475000D01*
G75*
G02*
X4150000Y28256250I0J-218750D01*
G01*
X4150000Y27743750D01*
G75*
G02*
X3931250Y27525000I-218750J0D01*
G01*
X3493750Y27525000D01*
G75*
G02*
X3275000Y27743750I0J218750D01*
G01*
G37*
G36*
G01*
X4850000Y27743750D02*
X4850000Y28256250D01*
G75*
G02*
X5068750Y28475000I218750J0D01*
G01*
X5506250Y28475000D01*
G75*
G02*
X5725000Y28256250I0J-218750D01*
G01*
X5725000Y27743750D01*
G75*
G02*
X5506250Y27525000I-218750J0D01*
G01*
X5068750Y27525000D01*
G75*
G02*
X4850000Y27743750I0J218750D01*
G01*
G37*
G36*
G01*
X2756250Y7275000D02*
X2243750Y7275000D01*
G75*
G02*
X2025000Y7493750I0J218750D01*
G01*
X2025000Y7931250D01*
G75*
G02*
X2243750Y8150000I218750J0D01*
G01*
X2756250Y8150000D01*
G75*
G02*
X2975000Y7931250I0J-218750D01*
G01*
X2975000Y7493750D01*
G75*
G02*
X2756250Y7275000I-218750J0D01*
G01*
G37*
G36*
G01*
X2756250Y8850000D02*
X2243750Y8850000D01*
G75*
G02*
X2025000Y9068750I0J218750D01*
G01*
X2025000Y9506250D01*
G75*
G02*
X2243750Y9725000I218750J0D01*
G01*
X2756250Y9725000D01*
G75*
G02*
X2975000Y9506250I0J-218750D01*
G01*
X2975000Y9068750D01*
G75*
G02*
X2756250Y8850000I-218750J0D01*
G01*
G37*
D13*
X19255000Y16000000D03*
D14*
X26755000Y23500000D03*
X25485000Y23500000D03*
X24215000Y23500000D03*
X22945000Y23500000D03*
X21675000Y23500000D03*
X20405000Y23500000D03*
X19135000Y23500000D03*
X17865000Y23500000D03*
X16595000Y23500000D03*
X15325000Y23500000D03*
X14055000Y23500000D03*
X12785000Y23500000D03*
X11515000Y23500000D03*
X10245000Y23500000D03*
D15*
X9245000Y20715000D03*
X9245000Y19445000D03*
X9245000Y18175000D03*
X9245000Y16905000D03*
X9245000Y15635000D03*
X9245000Y14365000D03*
X9245000Y13095000D03*
X9245000Y11825000D03*
X9245000Y10555000D03*
X9245000Y9285000D03*
D14*
X10245000Y6500000D03*
X11515000Y6500000D03*
X12785000Y6500000D03*
X14055000Y6500000D03*
X15325000Y6500000D03*
X16595000Y6500000D03*
X17865000Y6500000D03*
X19135000Y6500000D03*
X20405000Y6500000D03*
X21675000Y6500000D03*
X22945000Y6500000D03*
X24215000Y6500000D03*
X25485000Y6500000D03*
X26755000Y6500000D03*
G36*
G01*
X18900000Y4237500D02*
X18900000Y3762500D01*
G75*
G02*
X18662500Y3525000I-237500J0D01*
G01*
X18087500Y3525000D01*
G75*
G02*
X17850000Y3762500I0J237500D01*
G01*
X17850000Y4237500D01*
G75*
G02*
X18087500Y4475000I237500J0D01*
G01*
X18662500Y4475000D01*
G75*
G02*
X18900000Y4237500I0J-237500D01*
G01*
G37*
G36*
G01*
X17150000Y4237500D02*
X17150000Y3762500D01*
G75*
G02*
X16912500Y3525000I-237500J0D01*
G01*
X16337500Y3525000D01*
G75*
G02*
X16100000Y3762500I0J237500D01*
G01*
X16100000Y4237500D01*
G75*
G02*
X16337500Y4475000I237500J0D01*
G01*
X16912500Y4475000D01*
G75*
G02*
X17150000Y4237500I0J-237500D01*
G01*
G37*
G36*
G01*
X16340000Y1871500D02*
X16340000Y2346500D01*
G75*
G02*
X16577500Y2584000I237500J0D01*
G01*
X17152500Y2584000D01*
G75*
G02*
X17390000Y2346500I0J-237500D01*
G01*
X17390000Y1871500D01*
G75*
G02*
X17152500Y1634000I-237500J0D01*
G01*
X16577500Y1634000D01*
G75*
G02*
X16340000Y1871500I0J237500D01*
G01*
G37*
G36*
G01*
X18090000Y1871500D02*
X18090000Y2346500D01*
G75*
G02*
X18327500Y2584000I237500J0D01*
G01*
X18902500Y2584000D01*
G75*
G02*
X19140000Y2346500I0J-237500D01*
G01*
X19140000Y1871500D01*
G75*
G02*
X18902500Y1634000I-237500J0D01*
G01*
X18327500Y1634000D01*
G75*
G02*
X18090000Y1871500I0J237500D01*
G01*
G37*
G36*
G01*
X19840000Y1871500D02*
X19840000Y2346500D01*
G75*
G02*
X20077500Y2584000I237500J0D01*
G01*
X20652500Y2584000D01*
G75*
G02*
X20890000Y2346500I0J-237500D01*
G01*
X20890000Y1871500D01*
G75*
G02*
X20652500Y1634000I-237500J0D01*
G01*
X20077500Y1634000D01*
G75*
G02*
X19840000Y1871500I0J237500D01*
G01*
G37*
G36*
G01*
X21590000Y1871500D02*
X21590000Y2346500D01*
G75*
G02*
X21827500Y2584000I237500J0D01*
G01*
X22402500Y2584000D01*
G75*
G02*
X22640000Y2346500I0J-237500D01*
G01*
X22640000Y1871500D01*
G75*
G02*
X22402500Y1634000I-237500J0D01*
G01*
X21827500Y1634000D01*
G75*
G02*
X21590000Y1871500I0J237500D01*
G01*
G37*
M02*
