%TF.GenerationSoftware,KiCad,Pcbnew,(5.1.6)-1*%
%TF.CreationDate,2021-09-30T15:23:08+02:00*%
%TF.ProjectId,Board,426f6172-642e-46b6-9963-61645f706362,rev?*%
%TF.SameCoordinates,PX367e320PY64168f0*%
%TF.FileFunction,Soldermask,Bot*%
%TF.FilePolarity,Negative*%
%FSLAX46Y46*%
G04 Gerber Fmt 4.6, Leading zero omitted, Abs format (unit mm)*
G04 Created by KiCad (PCBNEW (5.1.6)-1) date 2021-09-30 15:23:08*
%MOMM*%
%LPD*%
G01*
G04 APERTURE LIST*
%TA.AperFunction,Profile*%
%ADD10C,0.050000*%
%TD*%
%ADD11R,2.300000X2.850000*%
%ADD12R,2.081200X0.658800*%
%ADD13R,1.000000X0.900000*%
%ADD14R,1.800000X1.800000*%
%ADD15O,1.800000X1.800000*%
%ADD16C,0.900000*%
G04 APERTURE END LIST*
D10*
X28500000Y0D02*
X0Y0D01*
X28500000Y30000000D02*
X28500000Y0D01*
X0Y30000000D02*
X28500000Y30000000D01*
X0Y0D02*
X0Y30000000D01*
G36*
G01*
X25550000Y14657500D02*
X25550000Y15182500D01*
G75*
G02*
X25812500Y15445000I262500J0D01*
G01*
X26462500Y15445000D01*
G75*
G02*
X26725000Y15182500I0J-262500D01*
G01*
X26725000Y14657500D01*
G75*
G02*
X26462500Y14395000I-262500J0D01*
G01*
X25812500Y14395000D01*
G75*
G02*
X25550000Y14657500I0J262500D01*
G01*
G37*
G36*
G01*
X23825000Y14657500D02*
X23825000Y15182500D01*
G75*
G02*
X24087500Y15445000I262500J0D01*
G01*
X24737500Y15445000D01*
G75*
G02*
X25000000Y15182500I0J-262500D01*
G01*
X25000000Y14657500D01*
G75*
G02*
X24737500Y14395000I-262500J0D01*
G01*
X24087500Y14395000D01*
G75*
G02*
X23825000Y14657500I0J262500D01*
G01*
G37*
D11*
X21850000Y3500000D03*
X17150000Y3500000D03*
X6850000Y4000000D03*
X2150000Y4000000D03*
G36*
G01*
X26175000Y20262500D02*
X26175000Y19737500D01*
G75*
G02*
X25912500Y19475000I-262500J0D01*
G01*
X25262500Y19475000D01*
G75*
G02*
X25000000Y19737500I0J262500D01*
G01*
X25000000Y20262500D01*
G75*
G02*
X25262500Y20525000I262500J0D01*
G01*
X25912500Y20525000D01*
G75*
G02*
X26175000Y20262500I0J-262500D01*
G01*
G37*
G36*
G01*
X27900000Y20262500D02*
X27900000Y19737500D01*
G75*
G02*
X27637500Y19475000I-262500J0D01*
G01*
X26987500Y19475000D01*
G75*
G02*
X26725000Y19737500I0J262500D01*
G01*
X26725000Y20262500D01*
G75*
G02*
X26987500Y20525000I262500J0D01*
G01*
X27637500Y20525000D01*
G75*
G02*
X27900000Y20262500I0J-262500D01*
G01*
G37*
G36*
G01*
X26175000Y18672500D02*
X26175000Y18147500D01*
G75*
G02*
X25912500Y17885000I-262500J0D01*
G01*
X25262500Y17885000D01*
G75*
G02*
X25000000Y18147500I0J262500D01*
G01*
X25000000Y18672500D01*
G75*
G02*
X25262500Y18935000I262500J0D01*
G01*
X25912500Y18935000D01*
G75*
G02*
X26175000Y18672500I0J-262500D01*
G01*
G37*
G36*
G01*
X27900000Y18672500D02*
X27900000Y18147500D01*
G75*
G02*
X27637500Y17885000I-262500J0D01*
G01*
X26987500Y17885000D01*
G75*
G02*
X26725000Y18147500I0J262500D01*
G01*
X26725000Y18672500D01*
G75*
G02*
X26987500Y18935000I262500J0D01*
G01*
X27637500Y18935000D01*
G75*
G02*
X27900000Y18672500I0J-262500D01*
G01*
G37*
G36*
G01*
X25775000Y3237500D02*
X25775000Y3762500D01*
G75*
G02*
X26037500Y4025000I262500J0D01*
G01*
X26687500Y4025000D01*
G75*
G02*
X26950000Y3762500I0J-262500D01*
G01*
X26950000Y3237500D01*
G75*
G02*
X26687500Y2975000I-262500J0D01*
G01*
X26037500Y2975000D01*
G75*
G02*
X25775000Y3237500I0J262500D01*
G01*
G37*
G36*
G01*
X24050000Y3237500D02*
X24050000Y3762500D01*
G75*
G02*
X24312500Y4025000I262500J0D01*
G01*
X24962500Y4025000D01*
G75*
G02*
X25225000Y3762500I0J-262500D01*
G01*
X25225000Y3237500D01*
G75*
G02*
X24962500Y2975000I-262500J0D01*
G01*
X24312500Y2975000D01*
G75*
G02*
X24050000Y3237500I0J262500D01*
G01*
G37*
G36*
G01*
X10275000Y3737500D02*
X10275000Y4262500D01*
G75*
G02*
X10537500Y4525000I262500J0D01*
G01*
X11187500Y4525000D01*
G75*
G02*
X11450000Y4262500I0J-262500D01*
G01*
X11450000Y3737500D01*
G75*
G02*
X11187500Y3475000I-262500J0D01*
G01*
X10537500Y3475000D01*
G75*
G02*
X10275000Y3737500I0J262500D01*
G01*
G37*
G36*
G01*
X8550000Y3737500D02*
X8550000Y4262500D01*
G75*
G02*
X8812500Y4525000I262500J0D01*
G01*
X9462500Y4525000D01*
G75*
G02*
X9725000Y4262500I0J-262500D01*
G01*
X9725000Y3737500D01*
G75*
G02*
X9462500Y3475000I-262500J0D01*
G01*
X8812500Y3475000D01*
G75*
G02*
X8550000Y3737500I0J262500D01*
G01*
G37*
G36*
G01*
X18442500Y11862500D02*
X17917500Y11862500D01*
G75*
G02*
X17655000Y12125000I0J262500D01*
G01*
X17655000Y12775000D01*
G75*
G02*
X17917500Y13037500I262500J0D01*
G01*
X18442500Y13037500D01*
G75*
G02*
X18705000Y12775000I0J-262500D01*
G01*
X18705000Y12125000D01*
G75*
G02*
X18442500Y11862500I-262500J0D01*
G01*
G37*
G36*
G01*
X18442500Y10137500D02*
X17917500Y10137500D01*
G75*
G02*
X17655000Y10400000I0J262500D01*
G01*
X17655000Y11050000D01*
G75*
G02*
X17917500Y11312500I262500J0D01*
G01*
X18442500Y11312500D01*
G75*
G02*
X18705000Y11050000I0J-262500D01*
G01*
X18705000Y10400000D01*
G75*
G02*
X18442500Y10137500I-262500J0D01*
G01*
G37*
G36*
G01*
X14067500Y11279000D02*
X14592500Y11279000D01*
G75*
G02*
X14855000Y11016500I0J-262500D01*
G01*
X14855000Y10366500D01*
G75*
G02*
X14592500Y10104000I-262500J0D01*
G01*
X14067500Y10104000D01*
G75*
G02*
X13805000Y10366500I0J262500D01*
G01*
X13805000Y11016500D01*
G75*
G02*
X14067500Y11279000I262500J0D01*
G01*
G37*
G36*
G01*
X14067500Y13004000D02*
X14592500Y13004000D01*
G75*
G02*
X14855000Y12741500I0J-262500D01*
G01*
X14855000Y12091500D01*
G75*
G02*
X14592500Y11829000I-262500J0D01*
G01*
X14067500Y11829000D01*
G75*
G02*
X13805000Y12091500I0J262500D01*
G01*
X13805000Y12741500D01*
G75*
G02*
X14067500Y13004000I262500J0D01*
G01*
G37*
G36*
G01*
X12392500Y10025000D02*
X11867500Y10025000D01*
G75*
G02*
X11605000Y10287500I0J262500D01*
G01*
X11605000Y10937500D01*
G75*
G02*
X11867500Y11200000I262500J0D01*
G01*
X12392500Y11200000D01*
G75*
G02*
X12655000Y10937500I0J-262500D01*
G01*
X12655000Y10287500D01*
G75*
G02*
X12392500Y10025000I-262500J0D01*
G01*
G37*
G36*
G01*
X12392500Y8300000D02*
X11867500Y8300000D01*
G75*
G02*
X11605000Y8562500I0J262500D01*
G01*
X11605000Y9212500D01*
G75*
G02*
X11867500Y9475000I262500J0D01*
G01*
X12392500Y9475000D01*
G75*
G02*
X12655000Y9212500I0J-262500D01*
G01*
X12655000Y8562500D01*
G75*
G02*
X12392500Y8300000I-262500J0D01*
G01*
G37*
G36*
G01*
X12372500Y13475000D02*
X11847500Y13475000D01*
G75*
G02*
X11585000Y13737500I0J262500D01*
G01*
X11585000Y14387500D01*
G75*
G02*
X11847500Y14650000I262500J0D01*
G01*
X12372500Y14650000D01*
G75*
G02*
X12635000Y14387500I0J-262500D01*
G01*
X12635000Y13737500D01*
G75*
G02*
X12372500Y13475000I-262500J0D01*
G01*
G37*
G36*
G01*
X12372500Y11750000D02*
X11847500Y11750000D01*
G75*
G02*
X11585000Y12012500I0J262500D01*
G01*
X11585000Y12662500D01*
G75*
G02*
X11847500Y12925000I262500J0D01*
G01*
X12372500Y12925000D01*
G75*
G02*
X12635000Y12662500I0J-262500D01*
G01*
X12635000Y12012500D01*
G75*
G02*
X12372500Y11750000I-262500J0D01*
G01*
G37*
G36*
G01*
X11850000Y5318866D02*
X11850000Y6681134D01*
G75*
G02*
X12118866Y6950000I268866J0D01*
G01*
X13006134Y6950000D01*
G75*
G02*
X13275000Y6681134I0J-268866D01*
G01*
X13275000Y5318866D01*
G75*
G02*
X13006134Y5050000I-268866J0D01*
G01*
X12118866Y5050000D01*
G75*
G02*
X11850000Y5318866I0J268866D01*
G01*
G37*
G36*
G01*
X8725000Y5318866D02*
X8725000Y6681134D01*
G75*
G02*
X8993866Y6950000I268866J0D01*
G01*
X9881134Y6950000D01*
G75*
G02*
X10150000Y6681134I0J-268866D01*
G01*
X10150000Y5318866D01*
G75*
G02*
X9881134Y5050000I-268866J0D01*
G01*
X8993866Y5050000D01*
G75*
G02*
X8725000Y5318866I0J268866D01*
G01*
G37*
G36*
G01*
X26850000Y818866D02*
X26850000Y2181134D01*
G75*
G02*
X27118866Y2450000I268866J0D01*
G01*
X28006134Y2450000D01*
G75*
G02*
X28275000Y2181134I0J-268866D01*
G01*
X28275000Y818866D01*
G75*
G02*
X28006134Y550000I-268866J0D01*
G01*
X27118866Y550000D01*
G75*
G02*
X26850000Y818866I0J268866D01*
G01*
G37*
G36*
G01*
X23725000Y818866D02*
X23725000Y2181134D01*
G75*
G02*
X23993866Y2450000I268866J0D01*
G01*
X24881134Y2450000D01*
G75*
G02*
X25150000Y2181134I0J-268866D01*
G01*
X25150000Y818866D01*
G75*
G02*
X24881134Y550000I-268866J0D01*
G01*
X23993866Y550000D01*
G75*
G02*
X23725000Y818866I0J268866D01*
G01*
G37*
G36*
G01*
X11850000Y1318866D02*
X11850000Y2681134D01*
G75*
G02*
X12118866Y2950000I268866J0D01*
G01*
X13006134Y2950000D01*
G75*
G02*
X13275000Y2681134I0J-268866D01*
G01*
X13275000Y1318866D01*
G75*
G02*
X13006134Y1050000I-268866J0D01*
G01*
X12118866Y1050000D01*
G75*
G02*
X11850000Y1318866I0J268866D01*
G01*
G37*
G36*
G01*
X8725000Y1318866D02*
X8725000Y2681134D01*
G75*
G02*
X8993866Y2950000I268866J0D01*
G01*
X9881134Y2950000D01*
G75*
G02*
X10150000Y2681134I0J-268866D01*
G01*
X10150000Y1318866D01*
G75*
G02*
X9881134Y1050000I-268866J0D01*
G01*
X8993866Y1050000D01*
G75*
G02*
X8725000Y1318866I0J268866D01*
G01*
G37*
D12*
X26877600Y13205000D03*
X26877600Y11935000D03*
X26877600Y10665000D03*
X26877600Y9395000D03*
X21950000Y9395000D03*
X21950000Y10665000D03*
X21950000Y11935000D03*
X21950000Y13205000D03*
D13*
X10310000Y12440000D03*
X10310000Y10540000D03*
X8210000Y11490000D03*
G36*
G01*
X24200000Y21762500D02*
X24200000Y21237500D01*
G75*
G02*
X23937500Y20975000I-262500J0D01*
G01*
X23312500Y20975000D01*
G75*
G02*
X23050000Y21237500I0J262500D01*
G01*
X23050000Y21762500D01*
G75*
G02*
X23312500Y22025000I262500J0D01*
G01*
X23937500Y22025000D01*
G75*
G02*
X24200000Y21762500I0J-262500D01*
G01*
G37*
G36*
G01*
X25950000Y21762500D02*
X25950000Y21237500D01*
G75*
G02*
X25687500Y20975000I-262500J0D01*
G01*
X25062500Y20975000D01*
G75*
G02*
X24800000Y21237500I0J262500D01*
G01*
X24800000Y21762500D01*
G75*
G02*
X25062500Y22025000I262500J0D01*
G01*
X25687500Y22025000D01*
G75*
G02*
X25950000Y21762500I0J-262500D01*
G01*
G37*
G36*
G01*
X16226500Y13055500D02*
X16751500Y13055500D01*
G75*
G02*
X17014000Y12793000I0J-262500D01*
G01*
X17014000Y12168000D01*
G75*
G02*
X16751500Y11905500I-262500J0D01*
G01*
X16226500Y11905500D01*
G75*
G02*
X15964000Y12168000I0J262500D01*
G01*
X15964000Y12793000D01*
G75*
G02*
X16226500Y13055500I262500J0D01*
G01*
G37*
G36*
G01*
X16226500Y14805500D02*
X16751500Y14805500D01*
G75*
G02*
X17014000Y14543000I0J-262500D01*
G01*
X17014000Y13918000D01*
G75*
G02*
X16751500Y13655500I-262500J0D01*
G01*
X16226500Y13655500D01*
G75*
G02*
X15964000Y13918000I0J262500D01*
G01*
X15964000Y14543000D01*
G75*
G02*
X16226500Y14805500I262500J0D01*
G01*
G37*
G36*
G01*
X16226500Y11226000D02*
X16751500Y11226000D01*
G75*
G02*
X17014000Y10963500I0J-262500D01*
G01*
X17014000Y10338500D01*
G75*
G02*
X16751500Y10076000I-262500J0D01*
G01*
X16226500Y10076000D01*
G75*
G02*
X15964000Y10338500I0J262500D01*
G01*
X15964000Y10963500D01*
G75*
G02*
X16226500Y11226000I262500J0D01*
G01*
G37*
G36*
G01*
X16226500Y9476000D02*
X16751500Y9476000D01*
G75*
G02*
X17014000Y9213500I0J-262500D01*
G01*
X17014000Y8588500D01*
G75*
G02*
X16751500Y8326000I-262500J0D01*
G01*
X16226500Y8326000D01*
G75*
G02*
X15964000Y8588500I0J262500D01*
G01*
X15964000Y9213500D01*
G75*
G02*
X16226500Y9476000I262500J0D01*
G01*
G37*
G36*
G01*
X4930000Y23867500D02*
X4930000Y24392500D01*
G75*
G02*
X5192500Y24655000I262500J0D01*
G01*
X5817500Y24655000D01*
G75*
G02*
X6080000Y24392500I0J-262500D01*
G01*
X6080000Y23867500D01*
G75*
G02*
X5817500Y23605000I-262500J0D01*
G01*
X5192500Y23605000D01*
G75*
G02*
X4930000Y23867500I0J262500D01*
G01*
G37*
G36*
G01*
X3180000Y23867500D02*
X3180000Y24392500D01*
G75*
G02*
X3442500Y24655000I262500J0D01*
G01*
X4067500Y24655000D01*
G75*
G02*
X4330000Y24392500I0J-262500D01*
G01*
X4330000Y23867500D01*
G75*
G02*
X4067500Y23605000I-262500J0D01*
G01*
X3442500Y23605000D01*
G75*
G02*
X3180000Y23867500I0J262500D01*
G01*
G37*
G36*
G01*
X3180000Y25857500D02*
X3180000Y26382500D01*
G75*
G02*
X3442500Y26645000I262500J0D01*
G01*
X4067500Y26645000D01*
G75*
G02*
X4330000Y26382500I0J-262500D01*
G01*
X4330000Y25857500D01*
G75*
G02*
X4067500Y25595000I-262500J0D01*
G01*
X3442500Y25595000D01*
G75*
G02*
X3180000Y25857500I0J262500D01*
G01*
G37*
G36*
G01*
X4930000Y25857500D02*
X4930000Y26382500D01*
G75*
G02*
X5192500Y26645000I262500J0D01*
G01*
X5817500Y26645000D01*
G75*
G02*
X6080000Y26382500I0J-262500D01*
G01*
X6080000Y25857500D01*
G75*
G02*
X5817500Y25595000I-262500J0D01*
G01*
X5192500Y25595000D01*
G75*
G02*
X4930000Y25857500I0J262500D01*
G01*
G37*
G36*
G01*
X4930000Y27737500D02*
X4930000Y28262500D01*
G75*
G02*
X5192500Y28525000I262500J0D01*
G01*
X5817500Y28525000D01*
G75*
G02*
X6080000Y28262500I0J-262500D01*
G01*
X6080000Y27737500D01*
G75*
G02*
X5817500Y27475000I-262500J0D01*
G01*
X5192500Y27475000D01*
G75*
G02*
X4930000Y27737500I0J262500D01*
G01*
G37*
G36*
G01*
X3180000Y27737500D02*
X3180000Y28262500D01*
G75*
G02*
X3442500Y28525000I262500J0D01*
G01*
X4067500Y28525000D01*
G75*
G02*
X4330000Y28262500I0J-262500D01*
G01*
X4330000Y27737500D01*
G75*
G02*
X4067500Y27475000I-262500J0D01*
G01*
X3442500Y27475000D01*
G75*
G02*
X3180000Y27737500I0J262500D01*
G01*
G37*
G36*
G01*
X19213500Y15626500D02*
X19213500Y15101500D01*
G75*
G02*
X18951000Y14839000I-262500J0D01*
G01*
X18326000Y14839000D01*
G75*
G02*
X18063500Y15101500I0J262500D01*
G01*
X18063500Y15626500D01*
G75*
G02*
X18326000Y15889000I262500J0D01*
G01*
X18951000Y15889000D01*
G75*
G02*
X19213500Y15626500I0J-262500D01*
G01*
G37*
G36*
G01*
X20963500Y15626500D02*
X20963500Y15101500D01*
G75*
G02*
X20701000Y14839000I-262500J0D01*
G01*
X20076000Y14839000D01*
G75*
G02*
X19813500Y15101500I0J262500D01*
G01*
X19813500Y15626500D01*
G75*
G02*
X20076000Y15889000I262500J0D01*
G01*
X20701000Y15889000D01*
G75*
G02*
X20963500Y15626500I0J-262500D01*
G01*
G37*
D14*
X8500000Y27500000D03*
D15*
X11040000Y27500000D03*
X13580000Y27500000D03*
X16120000Y27500000D03*
X18660000Y27500000D03*
X21200000Y27500000D03*
X23740000Y27500000D03*
X26280000Y27500000D03*
D14*
X3500000Y12000000D03*
D15*
X3500000Y14540000D03*
X3500000Y17080000D03*
X3500000Y19620000D03*
D16*
X19468852Y11468852D03*
X7030331Y11530331D03*
X19500000Y8500000D03*
X24500000Y10000000D03*
X27500000Y14500000D03*
X28000000Y8000000D03*
X2500000Y26000000D03*
X2500000Y28000000D03*
X24000000Y20000000D03*
X20000000Y4000000D03*
X2500000Y24000000D03*
X13500000Y4300002D03*
X2500000Y1500000D03*
X8000000Y625000D03*
X16150000Y20375000D03*
X20500000Y19500000D03*
X13500000Y20500000D03*
X22000000Y21500000D03*
M02*
