%TF.GenerationSoftware,KiCad,Pcbnew,(5.1.8)-1*%
%TF.CreationDate,2020-12-02T11:58:54+01:00*%
%TF.ProjectId,Board,426f6172-642e-46b6-9963-61645f706362,rev?*%
%TF.SameCoordinates,PX253b400PY7a67730*%
%TF.FileFunction,Soldermask,Top*%
%TF.FilePolarity,Negative*%
%FSLAX46Y46*%
G04 Gerber Fmt 4.6, Leading zero omitted, Abs format (unit mm)*
G04 Created by KiCad (PCBNEW (5.1.8)-1) date 2020-12-02 11:58:54*
%MOMM*%
%LPD*%
G01*
G04 APERTURE LIST*
%TA.AperFunction,Profile*%
%ADD10C,0.050000*%
%TD*%
%ADD11O,1.800000X1.800000*%
%ADD12C,1.700000*%
%ADD13C,1.000000*%
%ADD14C,5.700000*%
%ADD15O,1.700000X1.700000*%
%ADD16C,4.100000*%
%ADD17C,1.624000*%
%ADD18C,1.608000*%
%ADD19C,1.900000*%
%ADD20C,0.900000*%
G04 APERTURE END LIST*
D10*
X0Y70000000D02*
X0Y0D01*
X87500000Y70000000D02*
X0Y70000000D01*
X87500000Y0D02*
X87500000Y70000000D01*
X0Y0D02*
X87500000Y0D01*
D11*
X72160000Y51430000D03*
X72160000Y53970000D03*
X74700000Y51430000D03*
X74700000Y53970000D03*
X77240000Y51430000D03*
X77240000Y53970000D03*
X79780000Y51430000D03*
X79780000Y53970000D03*
X82320000Y51430000D03*
G36*
G01*
X81470000Y54870000D02*
X83170000Y54870000D01*
G75*
G02*
X83220000Y54820000I0J-50000D01*
G01*
X83220000Y53120000D01*
G75*
G02*
X83170000Y53070000I-50000J0D01*
G01*
X81470000Y53070000D01*
G75*
G02*
X81420000Y53120000I0J50000D01*
G01*
X81420000Y54820000D01*
G75*
G02*
X81470000Y54870000I50000J0D01*
G01*
G37*
D12*
X39262000Y22374000D03*
X41802000Y22374000D03*
X44342000Y22374000D03*
X46882000Y22374000D03*
X49422000Y22374000D03*
X51962000Y22374000D03*
X54502000Y22374000D03*
X57042000Y22374000D03*
X59582000Y22374000D03*
X62122000Y22374000D03*
X64662000Y22374000D03*
X67202000Y22374000D03*
X69742000Y22374000D03*
X72282000Y22374000D03*
X74822000Y22374000D03*
X39262000Y47774000D03*
X41802000Y47774000D03*
X44342000Y47774000D03*
X46882000Y47774000D03*
X49422000Y47774000D03*
X51962000Y47774000D03*
X54502000Y47774000D03*
X57042000Y47774000D03*
X59582000Y47774000D03*
X62122000Y47774000D03*
X64662000Y47774000D03*
X67202000Y47774000D03*
X69742000Y47774000D03*
X72282000Y47774000D03*
X74822000Y47774000D03*
D13*
X8000000Y54500000D03*
D14*
X83800000Y6600000D03*
X83800000Y61600000D03*
X8800000Y61600000D03*
X8800000Y6600000D03*
D15*
X30270000Y41050000D03*
G36*
G01*
X21800000Y40250000D02*
X21800000Y41850000D01*
G75*
G02*
X21850000Y41900000I50000J0D01*
G01*
X23450000Y41900000D01*
G75*
G02*
X23500000Y41850000I0J-50000D01*
G01*
X23500000Y40250000D01*
G75*
G02*
X23450000Y40200000I-50000J0D01*
G01*
X21850000Y40200000D01*
G75*
G02*
X21800000Y40250000I0J50000D01*
G01*
G37*
D16*
X7200000Y21810000D03*
X7200000Y46810000D03*
D12*
X4660000Y30155000D03*
X4660000Y32925000D03*
X4660000Y35695000D03*
X4660000Y38465000D03*
X7500000Y28770000D03*
X7500000Y31540000D03*
X7500000Y34310000D03*
X7500000Y37080000D03*
G36*
G01*
X6700000Y40700000D02*
X8300000Y40700000D01*
G75*
G02*
X8350000Y40650000I0J-50000D01*
G01*
X8350000Y39050000D01*
G75*
G02*
X8300000Y39000000I-50000J0D01*
G01*
X6700000Y39000000D01*
G75*
G02*
X6650000Y39050000I0J50000D01*
G01*
X6650000Y40650000D01*
G75*
G02*
X6700000Y40700000I50000J0D01*
G01*
G37*
D17*
X44030000Y11130000D03*
X48910000Y11130000D03*
X53790000Y11130000D03*
X58670000Y11130000D03*
X63550000Y11130000D03*
X68430000Y11130000D03*
X73310000Y11130000D03*
X78190000Y11130000D03*
X44030000Y6130000D03*
X48910000Y6130000D03*
X53790000Y6130000D03*
X58670000Y6130000D03*
X63550000Y6130000D03*
X68430000Y6130000D03*
X73310000Y6130000D03*
X78190000Y6130000D03*
G36*
G01*
X31194000Y38914000D02*
X31194000Y37406000D01*
G75*
G02*
X31144000Y37356000I-50000J0D01*
G01*
X29636000Y37356000D01*
G75*
G02*
X29586000Y37406000I0J50000D01*
G01*
X29586000Y38914000D01*
G75*
G02*
X29636000Y38964000I50000J0D01*
G01*
X31144000Y38964000D01*
G75*
G02*
X31194000Y38914000I0J-50000D01*
G01*
G37*
D18*
X30390000Y30540000D03*
X22770000Y30540000D03*
X22770000Y38160000D03*
X17690000Y38160000D03*
X17690000Y30540000D03*
X12610000Y30540000D03*
X12610000Y38160000D03*
G36*
G01*
X36130000Y56205000D02*
X36130000Y58955000D01*
G75*
G02*
X36180000Y59005000I50000J0D01*
G01*
X38380000Y59005000D01*
G75*
G02*
X38430000Y58955000I0J-50000D01*
G01*
X38430000Y56205000D01*
G75*
G02*
X38380000Y56155000I-50000J0D01*
G01*
X36180000Y56155000D01*
G75*
G02*
X36130000Y56205000I0J50000D01*
G01*
G37*
G36*
G01*
X31430000Y56205000D02*
X31430000Y58955000D01*
G75*
G02*
X31480000Y59005000I50000J0D01*
G01*
X33680000Y59005000D01*
G75*
G02*
X33730000Y58955000I0J-50000D01*
G01*
X33730000Y56205000D01*
G75*
G02*
X33680000Y56155000I-50000J0D01*
G01*
X31480000Y56155000D01*
G75*
G02*
X31430000Y56205000I0J50000D01*
G01*
G37*
G36*
G01*
X31000000Y23055000D02*
X31000000Y20305000D01*
G75*
G02*
X30950000Y20255000I-50000J0D01*
G01*
X28750000Y20255000D01*
G75*
G02*
X28700000Y20305000I0J50000D01*
G01*
X28700000Y23055000D01*
G75*
G02*
X28750000Y23105000I50000J0D01*
G01*
X30950000Y23105000D01*
G75*
G02*
X31000000Y23055000I0J-50000D01*
G01*
G37*
G36*
G01*
X26300000Y23055000D02*
X26300000Y20305000D01*
G75*
G02*
X26250000Y20255000I-50000J0D01*
G01*
X24050000Y20255000D01*
G75*
G02*
X24000000Y20305000I0J50000D01*
G01*
X24000000Y23055000D01*
G75*
G02*
X24050000Y23105000I50000J0D01*
G01*
X26250000Y23105000D01*
G75*
G02*
X26300000Y23055000I0J-50000D01*
G01*
G37*
G36*
G01*
X35055000Y53830000D02*
X36505000Y53830000D01*
G75*
G02*
X36555000Y53780000I0J-50000D01*
G01*
X36555000Y53330000D01*
G75*
G02*
X36505000Y53280000I-50000J0D01*
G01*
X35055000Y53280000D01*
G75*
G02*
X35005000Y53330000I0J50000D01*
G01*
X35005000Y53780000D01*
G75*
G02*
X35055000Y53830000I50000J0D01*
G01*
G37*
G36*
G01*
X35055000Y53180000D02*
X36505000Y53180000D01*
G75*
G02*
X36555000Y53130000I0J-50000D01*
G01*
X36555000Y52680000D01*
G75*
G02*
X36505000Y52630000I-50000J0D01*
G01*
X35055000Y52630000D01*
G75*
G02*
X35005000Y52680000I0J50000D01*
G01*
X35005000Y53130000D01*
G75*
G02*
X35055000Y53180000I50000J0D01*
G01*
G37*
G36*
G01*
X35055000Y52530000D02*
X36505000Y52530000D01*
G75*
G02*
X36555000Y52480000I0J-50000D01*
G01*
X36555000Y52030000D01*
G75*
G02*
X36505000Y51980000I-50000J0D01*
G01*
X35055000Y51980000D01*
G75*
G02*
X35005000Y52030000I0J50000D01*
G01*
X35005000Y52480000D01*
G75*
G02*
X35055000Y52530000I50000J0D01*
G01*
G37*
G36*
G01*
X35055000Y51880000D02*
X36505000Y51880000D01*
G75*
G02*
X36555000Y51830000I0J-50000D01*
G01*
X36555000Y51380000D01*
G75*
G02*
X36505000Y51330000I-50000J0D01*
G01*
X35055000Y51330000D01*
G75*
G02*
X35005000Y51380000I0J50000D01*
G01*
X35005000Y51830000D01*
G75*
G02*
X35055000Y51880000I50000J0D01*
G01*
G37*
G36*
G01*
X30655000Y51880000D02*
X32105000Y51880000D01*
G75*
G02*
X32155000Y51830000I0J-50000D01*
G01*
X32155000Y51380000D01*
G75*
G02*
X32105000Y51330000I-50000J0D01*
G01*
X30655000Y51330000D01*
G75*
G02*
X30605000Y51380000I0J50000D01*
G01*
X30605000Y51830000D01*
G75*
G02*
X30655000Y51880000I50000J0D01*
G01*
G37*
G36*
G01*
X30655000Y52530000D02*
X32105000Y52530000D01*
G75*
G02*
X32155000Y52480000I0J-50000D01*
G01*
X32155000Y52030000D01*
G75*
G02*
X32105000Y51980000I-50000J0D01*
G01*
X30655000Y51980000D01*
G75*
G02*
X30605000Y52030000I0J50000D01*
G01*
X30605000Y52480000D01*
G75*
G02*
X30655000Y52530000I50000J0D01*
G01*
G37*
G36*
G01*
X30655000Y53180000D02*
X32105000Y53180000D01*
G75*
G02*
X32155000Y53130000I0J-50000D01*
G01*
X32155000Y52680000D01*
G75*
G02*
X32105000Y52630000I-50000J0D01*
G01*
X30655000Y52630000D01*
G75*
G02*
X30605000Y52680000I0J50000D01*
G01*
X30605000Y53130000D01*
G75*
G02*
X30655000Y53180000I50000J0D01*
G01*
G37*
G36*
G01*
X30655000Y53830000D02*
X32105000Y53830000D01*
G75*
G02*
X32155000Y53780000I0J-50000D01*
G01*
X32155000Y53330000D01*
G75*
G02*
X32105000Y53280000I-50000J0D01*
G01*
X30655000Y53280000D01*
G75*
G02*
X30605000Y53330000I0J50000D01*
G01*
X30605000Y53780000D01*
G75*
G02*
X30655000Y53830000I50000J0D01*
G01*
G37*
G36*
G01*
X41906500Y51105000D02*
X42431500Y51105000D01*
G75*
G02*
X42694000Y50842500I0J-262500D01*
G01*
X42694000Y50292500D01*
G75*
G02*
X42431500Y50030000I-262500J0D01*
G01*
X41906500Y50030000D01*
G75*
G02*
X41644000Y50292500I0J262500D01*
G01*
X41644000Y50842500D01*
G75*
G02*
X41906500Y51105000I262500J0D01*
G01*
G37*
G36*
G01*
X41906500Y52930000D02*
X42431500Y52930000D01*
G75*
G02*
X42694000Y52667500I0J-262500D01*
G01*
X42694000Y52117500D01*
G75*
G02*
X42431500Y51855000I-262500J0D01*
G01*
X41906500Y51855000D01*
G75*
G02*
X41644000Y52117500I0J262500D01*
G01*
X41644000Y52667500D01*
G75*
G02*
X41906500Y52930000I262500J0D01*
G01*
G37*
G36*
G01*
X41906500Y54605000D02*
X42431500Y54605000D01*
G75*
G02*
X42694000Y54342500I0J-262500D01*
G01*
X42694000Y53792500D01*
G75*
G02*
X42431500Y53530000I-262500J0D01*
G01*
X41906500Y53530000D01*
G75*
G02*
X41644000Y53792500I0J262500D01*
G01*
X41644000Y54342500D01*
G75*
G02*
X41906500Y54605000I262500J0D01*
G01*
G37*
G36*
G01*
X41906500Y56430000D02*
X42431500Y56430000D01*
G75*
G02*
X42694000Y56167500I0J-262500D01*
G01*
X42694000Y55617500D01*
G75*
G02*
X42431500Y55355000I-262500J0D01*
G01*
X41906500Y55355000D01*
G75*
G02*
X41644000Y55617500I0J262500D01*
G01*
X41644000Y56167500D01*
G75*
G02*
X41906500Y56430000I262500J0D01*
G01*
G37*
G36*
G01*
X52232500Y61165000D02*
X51707500Y61165000D01*
G75*
G02*
X51445000Y61427500I0J262500D01*
G01*
X51445000Y61977500D01*
G75*
G02*
X51707500Y62240000I262500J0D01*
G01*
X52232500Y62240000D01*
G75*
G02*
X52495000Y61977500I0J-262500D01*
G01*
X52495000Y61427500D01*
G75*
G02*
X52232500Y61165000I-262500J0D01*
G01*
G37*
G36*
G01*
X52232500Y59340000D02*
X51707500Y59340000D01*
G75*
G02*
X51445000Y59602500I0J262500D01*
G01*
X51445000Y60152500D01*
G75*
G02*
X51707500Y60415000I262500J0D01*
G01*
X52232500Y60415000D01*
G75*
G02*
X52495000Y60152500I0J-262500D01*
G01*
X52495000Y59602500D01*
G75*
G02*
X52232500Y59340000I-262500J0D01*
G01*
G37*
G36*
G01*
X67462500Y61157500D02*
X66937500Y61157500D01*
G75*
G02*
X66675000Y61420000I0J262500D01*
G01*
X66675000Y61970000D01*
G75*
G02*
X66937500Y62232500I262500J0D01*
G01*
X67462500Y62232500D01*
G75*
G02*
X67725000Y61970000I0J-262500D01*
G01*
X67725000Y61420000D01*
G75*
G02*
X67462500Y61157500I-262500J0D01*
G01*
G37*
G36*
G01*
X67462500Y59332500D02*
X66937500Y59332500D01*
G75*
G02*
X66675000Y59595000I0J262500D01*
G01*
X66675000Y60145000D01*
G75*
G02*
X66937500Y60407500I262500J0D01*
G01*
X67462500Y60407500D01*
G75*
G02*
X67725000Y60145000I0J-262500D01*
G01*
X67725000Y59595000D01*
G75*
G02*
X67462500Y59332500I-262500J0D01*
G01*
G37*
G36*
G01*
X62392500Y61167500D02*
X61867500Y61167500D01*
G75*
G02*
X61605000Y61430000I0J262500D01*
G01*
X61605000Y61980000D01*
G75*
G02*
X61867500Y62242500I262500J0D01*
G01*
X62392500Y62242500D01*
G75*
G02*
X62655000Y61980000I0J-262500D01*
G01*
X62655000Y61430000D01*
G75*
G02*
X62392500Y61167500I-262500J0D01*
G01*
G37*
G36*
G01*
X62392500Y59342500D02*
X61867500Y59342500D01*
G75*
G02*
X61605000Y59605000I0J262500D01*
G01*
X61605000Y60155000D01*
G75*
G02*
X61867500Y60417500I262500J0D01*
G01*
X62392500Y60417500D01*
G75*
G02*
X62655000Y60155000I0J-262500D01*
G01*
X62655000Y59605000D01*
G75*
G02*
X62392500Y59342500I-262500J0D01*
G01*
G37*
G36*
G01*
X57312500Y61167500D02*
X56787500Y61167500D01*
G75*
G02*
X56525000Y61430000I0J262500D01*
G01*
X56525000Y61980000D01*
G75*
G02*
X56787500Y62242500I262500J0D01*
G01*
X57312500Y62242500D01*
G75*
G02*
X57575000Y61980000I0J-262500D01*
G01*
X57575000Y61430000D01*
G75*
G02*
X57312500Y61167500I-262500J0D01*
G01*
G37*
G36*
G01*
X57312500Y59342500D02*
X56787500Y59342500D01*
G75*
G02*
X56525000Y59605000I0J262500D01*
G01*
X56525000Y60155000D01*
G75*
G02*
X56787500Y60417500I262500J0D01*
G01*
X57312500Y60417500D01*
G75*
G02*
X57575000Y60155000I0J-262500D01*
G01*
X57575000Y59605000D01*
G75*
G02*
X57312500Y59342500I-262500J0D01*
G01*
G37*
G36*
G01*
X47757500Y51015000D02*
X48282500Y51015000D01*
G75*
G02*
X48545000Y50752500I0J-262500D01*
G01*
X48545000Y50202500D01*
G75*
G02*
X48282500Y49940000I-262500J0D01*
G01*
X47757500Y49940000D01*
G75*
G02*
X47495000Y50202500I0J262500D01*
G01*
X47495000Y50752500D01*
G75*
G02*
X47757500Y51015000I262500J0D01*
G01*
G37*
G36*
G01*
X47757500Y52840000D02*
X48282500Y52840000D01*
G75*
G02*
X48545000Y52577500I0J-262500D01*
G01*
X48545000Y52027500D01*
G75*
G02*
X48282500Y51765000I-262500J0D01*
G01*
X47757500Y51765000D01*
G75*
G02*
X47495000Y52027500I0J262500D01*
G01*
X47495000Y52577500D01*
G75*
G02*
X47757500Y52840000I262500J0D01*
G01*
G37*
G36*
G01*
X38242500Y53267500D02*
X37717500Y53267500D01*
G75*
G02*
X37455000Y53530000I0J262500D01*
G01*
X37455000Y54080000D01*
G75*
G02*
X37717500Y54342500I262500J0D01*
G01*
X38242500Y54342500D01*
G75*
G02*
X38505000Y54080000I0J-262500D01*
G01*
X38505000Y53530000D01*
G75*
G02*
X38242500Y53267500I-262500J0D01*
G01*
G37*
G36*
G01*
X38242500Y51442500D02*
X37717500Y51442500D01*
G75*
G02*
X37455000Y51705000I0J262500D01*
G01*
X37455000Y52255000D01*
G75*
G02*
X37717500Y52517500I262500J0D01*
G01*
X38242500Y52517500D01*
G75*
G02*
X38505000Y52255000I0J-262500D01*
G01*
X38505000Y51705000D01*
G75*
G02*
X38242500Y51442500I-262500J0D01*
G01*
G37*
G36*
G01*
X43617500Y54705000D02*
X44142500Y54705000D01*
G75*
G02*
X44405000Y54442500I0J-262500D01*
G01*
X44405000Y53792500D01*
G75*
G02*
X44142500Y53530000I-262500J0D01*
G01*
X43617500Y53530000D01*
G75*
G02*
X43355000Y53792500I0J262500D01*
G01*
X43355000Y54442500D01*
G75*
G02*
X43617500Y54705000I262500J0D01*
G01*
G37*
G36*
G01*
X43617500Y56430000D02*
X44142500Y56430000D01*
G75*
G02*
X44405000Y56167500I0J-262500D01*
G01*
X44405000Y55517500D01*
G75*
G02*
X44142500Y55255000I-262500J0D01*
G01*
X43617500Y55255000D01*
G75*
G02*
X43355000Y55517500I0J262500D01*
G01*
X43355000Y56167500D01*
G75*
G02*
X43617500Y56430000I262500J0D01*
G01*
G37*
G36*
G01*
X27032500Y53347500D02*
X26507500Y53347500D01*
G75*
G02*
X26245000Y53610000I0J262500D01*
G01*
X26245000Y54260000D01*
G75*
G02*
X26507500Y54522500I262500J0D01*
G01*
X27032500Y54522500D01*
G75*
G02*
X27295000Y54260000I0J-262500D01*
G01*
X27295000Y53610000D01*
G75*
G02*
X27032500Y53347500I-262500J0D01*
G01*
G37*
G36*
G01*
X27032500Y51622500D02*
X26507500Y51622500D01*
G75*
G02*
X26245000Y51885000I0J262500D01*
G01*
X26245000Y52535000D01*
G75*
G02*
X26507500Y52797500I262500J0D01*
G01*
X27032500Y52797500D01*
G75*
G02*
X27295000Y52535000I0J-262500D01*
G01*
X27295000Y51885000D01*
G75*
G02*
X27032500Y51622500I-262500J0D01*
G01*
G37*
G36*
G01*
X73525000Y66142500D02*
X73525000Y65617500D01*
G75*
G02*
X73262500Y65355000I-262500J0D01*
G01*
X72612500Y65355000D01*
G75*
G02*
X72350000Y65617500I0J262500D01*
G01*
X72350000Y66142500D01*
G75*
G02*
X72612500Y66405000I262500J0D01*
G01*
X73262500Y66405000D01*
G75*
G02*
X73525000Y66142500I0J-262500D01*
G01*
G37*
G36*
G01*
X75250000Y66142500D02*
X75250000Y65617500D01*
G75*
G02*
X74987500Y65355000I-262500J0D01*
G01*
X74337500Y65355000D01*
G75*
G02*
X74075000Y65617500I0J262500D01*
G01*
X74075000Y66142500D01*
G75*
G02*
X74337500Y66405000I262500J0D01*
G01*
X74987500Y66405000D01*
G75*
G02*
X75250000Y66142500I0J-262500D01*
G01*
G37*
G36*
G01*
X42655000Y57842500D02*
X42655000Y57317500D01*
G75*
G02*
X42392500Y57055000I-262500J0D01*
G01*
X41767500Y57055000D01*
G75*
G02*
X41505000Y57317500I0J262500D01*
G01*
X41505000Y57842500D01*
G75*
G02*
X41767500Y58105000I262500J0D01*
G01*
X42392500Y58105000D01*
G75*
G02*
X42655000Y57842500I0J-262500D01*
G01*
G37*
G36*
G01*
X44405000Y57842500D02*
X44405000Y57317500D01*
G75*
G02*
X44142500Y57055000I-262500J0D01*
G01*
X43517500Y57055000D01*
G75*
G02*
X43255000Y57317500I0J262500D01*
G01*
X43255000Y57842500D01*
G75*
G02*
X43517500Y58105000I262500J0D01*
G01*
X44142500Y58105000D01*
G75*
G02*
X44405000Y57842500I0J-262500D01*
G01*
G37*
G36*
G01*
X27845000Y49972500D02*
X27845000Y49447500D01*
G75*
G02*
X27582500Y49185000I-262500J0D01*
G01*
X26957500Y49185000D01*
G75*
G02*
X26695000Y49447500I0J262500D01*
G01*
X26695000Y49972500D01*
G75*
G02*
X26957500Y50235000I262500J0D01*
G01*
X27582500Y50235000D01*
G75*
G02*
X27845000Y49972500I0J-262500D01*
G01*
G37*
G36*
G01*
X29595000Y49972500D02*
X29595000Y49447500D01*
G75*
G02*
X29332500Y49185000I-262500J0D01*
G01*
X28707500Y49185000D01*
G75*
G02*
X28445000Y49447500I0J262500D01*
G01*
X28445000Y49972500D01*
G75*
G02*
X28707500Y50235000I262500J0D01*
G01*
X29332500Y50235000D01*
G75*
G02*
X29595000Y49972500I0J-262500D01*
G01*
G37*
G36*
G01*
X32218865Y16200000D02*
X33581135Y16200000D01*
G75*
G02*
X33850000Y15931135I0J-268865D01*
G01*
X33850000Y15043865D01*
G75*
G02*
X33581135Y14775000I-268865J0D01*
G01*
X32218865Y14775000D01*
G75*
G02*
X31950000Y15043865I0J268865D01*
G01*
X31950000Y15931135D01*
G75*
G02*
X32218865Y16200000I268865J0D01*
G01*
G37*
G36*
G01*
X32218865Y19325000D02*
X33581135Y19325000D01*
G75*
G02*
X33850000Y19056135I0J-268865D01*
G01*
X33850000Y18168865D01*
G75*
G02*
X33581135Y17900000I-268865J0D01*
G01*
X32218865Y17900000D01*
G75*
G02*
X31950000Y18168865I0J268865D01*
G01*
X31950000Y19056135D01*
G75*
G02*
X32218865Y19325000I268865J0D01*
G01*
G37*
G36*
G01*
X39298865Y55087500D02*
X40661135Y55087500D01*
G75*
G02*
X40930000Y54818635I0J-268865D01*
G01*
X40930000Y53931365D01*
G75*
G02*
X40661135Y53662500I-268865J0D01*
G01*
X39298865Y53662500D01*
G75*
G02*
X39030000Y53931365I0J268865D01*
G01*
X39030000Y54818635D01*
G75*
G02*
X39298865Y55087500I268865J0D01*
G01*
G37*
G36*
G01*
X39298865Y58212500D02*
X40661135Y58212500D01*
G75*
G02*
X40930000Y57943635I0J-268865D01*
G01*
X40930000Y57056365D01*
G75*
G02*
X40661135Y56787500I-268865J0D01*
G01*
X39298865Y56787500D01*
G75*
G02*
X39030000Y57056365I0J268865D01*
G01*
X39030000Y57943635D01*
G75*
G02*
X39298865Y58212500I268865J0D01*
G01*
G37*
G36*
G01*
X29451135Y54622500D02*
X28088865Y54622500D01*
G75*
G02*
X27820000Y54891365I0J268865D01*
G01*
X27820000Y55778635D01*
G75*
G02*
X28088865Y56047500I268865J0D01*
G01*
X29451135Y56047500D01*
G75*
G02*
X29720000Y55778635I0J-268865D01*
G01*
X29720000Y54891365D01*
G75*
G02*
X29451135Y54622500I-268865J0D01*
G01*
G37*
G36*
G01*
X29451135Y51497500D02*
X28088865Y51497500D01*
G75*
G02*
X27820000Y51766365I0J268865D01*
G01*
X27820000Y52653635D01*
G75*
G02*
X28088865Y52922500I268865J0D01*
G01*
X29451135Y52922500D01*
G75*
G02*
X29720000Y52653635I0J-268865D01*
G01*
X29720000Y51766365D01*
G75*
G02*
X29451135Y51497500I-268865J0D01*
G01*
G37*
G36*
G01*
X13537500Y23218608D02*
X13537500Y20301392D01*
G75*
G02*
X13271108Y20035000I-266392J0D01*
G01*
X12178892Y20035000D01*
G75*
G02*
X11912500Y20301392I0J266392D01*
G01*
X11912500Y23218608D01*
G75*
G02*
X12178892Y23485000I266392J0D01*
G01*
X13271108Y23485000D01*
G75*
G02*
X13537500Y23218608I0J-266392D01*
G01*
G37*
G36*
G01*
X19512500Y23218608D02*
X19512500Y20301392D01*
G75*
G02*
X19246108Y20035000I-266392J0D01*
G01*
X18153892Y20035000D01*
G75*
G02*
X17887500Y20301392I0J266392D01*
G01*
X17887500Y23218608D01*
G75*
G02*
X18153892Y23485000I266392J0D01*
G01*
X19246108Y23485000D01*
G75*
G02*
X19512500Y23218608I0J-266392D01*
G01*
G37*
G36*
G01*
X20760000Y18660000D02*
X22560000Y18660000D01*
G75*
G02*
X22610000Y18610000I0J-50000D01*
G01*
X22610000Y16110000D01*
G75*
G02*
X22560000Y16060000I-50000J0D01*
G01*
X20760000Y16060000D01*
G75*
G02*
X20710000Y16110000I0J50000D01*
G01*
X20710000Y18610000D01*
G75*
G02*
X20760000Y18660000I50000J0D01*
G01*
G37*
G36*
G01*
X20760000Y22660000D02*
X22560000Y22660000D01*
G75*
G02*
X22610000Y22610000I0J-50000D01*
G01*
X22610000Y20110000D01*
G75*
G02*
X22560000Y20060000I-50000J0D01*
G01*
X20760000Y20060000D01*
G75*
G02*
X20710000Y20110000I0J50000D01*
G01*
X20710000Y22610000D01*
G75*
G02*
X20760000Y22660000I50000J0D01*
G01*
G37*
X13990000Y44040000D03*
X21610000Y44040000D03*
X21610000Y49120000D03*
X13990000Y49120000D03*
X13990000Y54200000D03*
X21610000Y54200000D03*
X21610000Y61820000D03*
G36*
G01*
X13236000Y62624000D02*
X14744000Y62624000D01*
G75*
G02*
X14794000Y62574000I0J-50000D01*
G01*
X14794000Y61066000D01*
G75*
G02*
X14744000Y61016000I-50000J0D01*
G01*
X13236000Y61016000D01*
G75*
G02*
X13186000Y61066000I0J50000D01*
G01*
X13186000Y62574000D01*
G75*
G02*
X13236000Y62624000I50000J0D01*
G01*
G37*
G36*
G01*
X22720000Y65900000D02*
X22720000Y64300000D01*
G75*
G02*
X22670000Y64250000I-50000J0D01*
G01*
X21070000Y64250000D01*
G75*
G02*
X21020000Y64300000I0J50000D01*
G01*
X21020000Y65900000D01*
G75*
G02*
X21070000Y65950000I50000J0D01*
G01*
X22670000Y65950000D01*
G75*
G02*
X22720000Y65900000I0J-50000D01*
G01*
G37*
D15*
X14250000Y65100000D03*
G36*
G01*
X51060000Y58440000D02*
X52860000Y58440000D01*
G75*
G02*
X52910000Y58390000I0J-50000D01*
G01*
X52910000Y56590000D01*
G75*
G02*
X52860000Y56540000I-50000J0D01*
G01*
X51060000Y56540000D01*
G75*
G02*
X51010000Y56590000I0J50000D01*
G01*
X51010000Y58390000D01*
G75*
G02*
X51060000Y58440000I50000J0D01*
G01*
G37*
D19*
X51960000Y54950000D03*
G36*
G01*
X72410000Y56170000D02*
X71410000Y56170000D01*
G75*
G02*
X71360000Y56220000I0J50000D01*
G01*
X71360000Y59020000D01*
G75*
G02*
X71410000Y59070000I50000J0D01*
G01*
X72410000Y59070000D01*
G75*
G02*
X72460000Y59020000I0J-50000D01*
G01*
X72460000Y56220000D01*
G75*
G02*
X72410000Y56170000I-50000J0D01*
G01*
G37*
G36*
G01*
X72410000Y61970000D02*
X71410000Y61970000D01*
G75*
G02*
X71360000Y62020000I0J50000D01*
G01*
X71360000Y64820000D01*
G75*
G02*
X71410000Y64870000I50000J0D01*
G01*
X72410000Y64870000D01*
G75*
G02*
X72460000Y64820000I0J-50000D01*
G01*
X72460000Y62020000D01*
G75*
G02*
X72410000Y61970000I-50000J0D01*
G01*
G37*
G36*
G01*
X76410000Y56170000D02*
X75410000Y56170000D01*
G75*
G02*
X75360000Y56220000I0J50000D01*
G01*
X75360000Y59020000D01*
G75*
G02*
X75410000Y59070000I50000J0D01*
G01*
X76410000Y59070000D01*
G75*
G02*
X76460000Y59020000I0J-50000D01*
G01*
X76460000Y56220000D01*
G75*
G02*
X76410000Y56170000I-50000J0D01*
G01*
G37*
G36*
G01*
X76410000Y61970000D02*
X75410000Y61970000D01*
G75*
G02*
X75360000Y62020000I0J50000D01*
G01*
X75360000Y64820000D01*
G75*
G02*
X75410000Y64870000I50000J0D01*
G01*
X76410000Y64870000D01*
G75*
G02*
X76460000Y64820000I0J-50000D01*
G01*
X76460000Y62020000D01*
G75*
G02*
X76410000Y61970000I-50000J0D01*
G01*
G37*
G36*
G01*
X66060000Y58440000D02*
X67860000Y58440000D01*
G75*
G02*
X67910000Y58390000I0J-50000D01*
G01*
X67910000Y56590000D01*
G75*
G02*
X67860000Y56540000I-50000J0D01*
G01*
X66060000Y56540000D01*
G75*
G02*
X66010000Y56590000I0J50000D01*
G01*
X66010000Y58390000D01*
G75*
G02*
X66060000Y58440000I50000J0D01*
G01*
G37*
X66960000Y54950000D03*
G36*
G01*
X61060000Y58440000D02*
X62860000Y58440000D01*
G75*
G02*
X62910000Y58390000I0J-50000D01*
G01*
X62910000Y56590000D01*
G75*
G02*
X62860000Y56540000I-50000J0D01*
G01*
X61060000Y56540000D01*
G75*
G02*
X61010000Y56590000I0J50000D01*
G01*
X61010000Y58390000D01*
G75*
G02*
X61060000Y58440000I50000J0D01*
G01*
G37*
X61960000Y54950000D03*
G36*
G01*
X56060000Y58440000D02*
X57860000Y58440000D01*
G75*
G02*
X57910000Y58390000I0J-50000D01*
G01*
X57910000Y56590000D01*
G75*
G02*
X57860000Y56540000I-50000J0D01*
G01*
X56060000Y56540000D01*
G75*
G02*
X56010000Y56590000I0J50000D01*
G01*
X56010000Y58390000D01*
G75*
G02*
X56060000Y58440000I50000J0D01*
G01*
G37*
X56960000Y54950000D03*
D20*
X65000000Y2500000D03*
X75000000Y2500000D03*
X85000000Y12500000D03*
X85000000Y22500000D03*
X85000000Y32500000D03*
X85000000Y42500000D03*
X85000000Y52500000D03*
X75000000Y67500000D03*
X65000000Y67500000D03*
X55000000Y67500000D03*
X45000000Y67500000D03*
X35000000Y67500000D03*
X25000000Y67500000D03*
X15000000Y67500000D03*
X5000000Y67500000D03*
X5000000Y52500000D03*
X5000000Y12500000D03*
X54720000Y35060000D03*
X31380000Y50580000D03*
X31380000Y54600000D03*
X45560000Y34450000D03*
X71940000Y27430000D03*
X53500000Y52000000D03*
X72500000Y33900000D03*
X73700000Y31700000D03*
X58400000Y53300000D03*
X14000000Y46350000D03*
X62200000Y44650000D03*
X52900000Y45550000D03*
X39150000Y42450000D03*
X45100000Y42400000D03*
X39300000Y38950000D03*
X45400000Y39800000D03*
X45400000Y59800000D03*
X48600000Y59000000D03*
X37950000Y55350000D03*
X40000000Y56000000D03*
X26250000Y45450000D03*
X33850000Y45450000D03*
X39200000Y45500000D03*
X43450000Y45600000D03*
X57200000Y40500000D03*
X57200000Y37300000D03*
X56150000Y32150000D03*
X57250000Y34550000D03*
X58900000Y44650000D03*
X59050000Y40650000D03*
X62300000Y40650000D03*
X66650000Y40650000D03*
X66400000Y44650000D03*
X71500000Y39550000D03*
X70950000Y35950000D03*
X72550000Y37500000D03*
X69000000Y34150000D03*
X66850000Y32300000D03*
X63150000Y30900000D03*
X58550000Y30900000D03*
X61100000Y30900000D03*
X63250000Y27600000D03*
X61150000Y27600000D03*
X58550000Y27600000D03*
X55600000Y27600000D03*
X33100000Y24400000D03*
X35950000Y24350000D03*
X33100000Y27150000D03*
X35950000Y39300000D03*
X33400000Y39750000D03*
X51400000Y14000000D03*
X51450000Y18850000D03*
X37050000Y19800000D03*
X34950000Y14900000D03*
X41050000Y19300000D03*
X41050000Y16100000D03*
X51850000Y8400000D03*
X56050000Y8450000D03*
X61200000Y8300000D03*
X66100000Y8300000D03*
X69950000Y8600000D03*
X35950000Y27050000D03*
X72600000Y17850000D03*
X69500000Y21000000D03*
X28550000Y38550000D03*
X28600000Y30600000D03*
X23350000Y34650000D03*
X69950000Y13500000D03*
X65900000Y13600000D03*
X61650000Y13500000D03*
X57850000Y18850000D03*
X58300000Y13600000D03*
X44000000Y50500000D03*
X75750000Y44750000D03*
X76000000Y41000000D03*
X49390000Y49790000D03*
X70520000Y1680000D03*
X60270000Y2330000D03*
X51240000Y1860000D03*
X55830000Y2380000D03*
X46660000Y3740000D03*
X46470000Y1540000D03*
X42120000Y1630000D03*
X24910000Y5000000D03*
X9510000Y17700000D03*
X68470000Y63020000D03*
X65750000Y64050000D03*
X65840000Y59750000D03*
X55780000Y63130000D03*
X51210000Y64570000D03*
X1291667Y68557500D03*
X1291667Y61557500D03*
X1291667Y54557500D03*
X1291667Y47557500D03*
X1291667Y40557500D03*
X1291667Y33557500D03*
X1291667Y26557500D03*
X1291667Y19557500D03*
X1291667Y12557500D03*
X1291667Y5557500D03*
X4291667Y1557500D03*
X5291667Y65557500D03*
X5291667Y58557500D03*
X5291667Y50557500D03*
X5291667Y43557500D03*
X5291667Y16557500D03*
X5291667Y9557500D03*
X9291667Y68557500D03*
X9291667Y55557500D03*
X9291667Y31557500D03*
X9291667Y13557500D03*
X10291667Y48557500D03*
X10291667Y41557500D03*
X10291667Y21557500D03*
X10291667Y2557500D03*
X12291667Y64557500D03*
X12291667Y35557500D03*
X12291667Y27557500D03*
X12291667Y9557500D03*
X13291667Y58557500D03*
X13291667Y17557500D03*
X14291667Y51557500D03*
X15291667Y23557500D03*
X15291667Y5557500D03*
X16291667Y32557500D03*
X16291667Y13557500D03*
X17291667Y68557500D03*
X17291667Y61557500D03*
X17291667Y47557500D03*
X18291667Y55557500D03*
X18291667Y41557500D03*
X19291667Y28557500D03*
X19291667Y18557500D03*
X19291667Y9557500D03*
X20291667Y36557500D03*
X22291667Y59557500D03*
X22291667Y14557500D03*
X22291667Y5557500D03*
X23291667Y67557500D03*
X23291667Y46557500D03*
X23291667Y32557500D03*
X23291667Y25557500D03*
X24291667Y54557500D03*
X25291667Y41557500D03*
X25291667Y10557500D03*
X25291667Y1557500D03*
X26291667Y63557500D03*
X26291667Y18557500D03*
X27291667Y28557500D03*
X28291667Y58557500D03*
X28291667Y6557500D03*
X29291667Y68557500D03*
X29291667Y14557500D03*
X30291667Y24557500D03*
X31291667Y2557500D03*
X32291667Y64557500D03*
X32291667Y41557500D03*
X32291667Y10557500D03*
X33291667Y51557500D03*
X35291667Y60557500D03*
X35291667Y6557500D03*
X36291667Y22557500D03*
X37291667Y68557500D03*
X37291667Y45557500D03*
X37291667Y37557500D03*
X37291667Y30557500D03*
X37291667Y16557500D03*
X37291667Y1557500D03*
X39291667Y63557500D03*
X39291667Y11557500D03*
X40291667Y26557500D03*
X41291667Y42557500D03*
X41291667Y5557500D03*
X42291667Y59557500D03*
X43291667Y67557500D03*
X43291667Y20557500D03*
X44291667Y30557500D03*
X44291667Y14557500D03*
X44291667Y1557500D03*
X45291667Y8557500D03*
X46291667Y63557500D03*
X46291667Y44557500D03*
X46291667Y25557500D03*
X48291667Y55557500D03*
X48291667Y39557500D03*
X49291667Y68557500D03*
X49291667Y3557500D03*
X50291667Y16557500D03*
X51291667Y51557500D03*
X51291667Y10557500D03*
X52291667Y26557500D03*
X53291667Y65557500D03*
X53291667Y43557500D03*
X53291667Y20557500D03*
X54291667Y59557500D03*
X55291667Y4557500D03*
X57291667Y68557500D03*
X57291667Y24557500D03*
X58291667Y16557500D03*
X59291667Y63557500D03*
X59291667Y56557500D03*
X59291667Y38557500D03*
X61291667Y33557500D03*
X61291667Y11557500D03*
X62291667Y3557500D03*
X63291667Y67557500D03*
X63291667Y25557500D03*
X64291667Y54557500D03*
X64291667Y45557500D03*
X65291667Y37557500D03*
X65291667Y16557500D03*
X66291667Y6557500D03*
X67291667Y50557500D03*
X68291667Y65557500D03*
X68291667Y1557500D03*
X69291667Y59557500D03*
X69291667Y40557500D03*
X69291667Y24557500D03*
X70291667Y18557500D03*
X70291667Y11557500D03*
X72291667Y68557500D03*
X73291667Y3557500D03*
X74291667Y63557500D03*
X74291667Y15557500D03*
X75291667Y9557500D03*
X77291667Y31557500D03*
X77291667Y24557500D03*
X78291667Y67557500D03*
X78291667Y18557500D03*
X78291667Y1557500D03*
X81291667Y28557500D03*
X81291667Y11557500D03*
X83291667Y65557500D03*
X84291667Y44557500D03*
X84291667Y36557500D03*
X84291667Y24557500D03*
X84291667Y17557500D03*
X84291667Y2557500D03*
X86291667Y54557500D03*
X86291667Y30557500D03*
X56000000Y40950000D03*
X47980000Y60760000D03*
X75943722Y60806278D03*
X73490000Y42390000D03*
X83200000Y42500000D03*
X52700000Y40400000D03*
X56900000Y42400000D03*
X69700000Y42400000D03*
X10350000Y24600000D03*
X10250000Y37900000D03*
X36450000Y47850000D03*
X50500000Y61650000D03*
X68120000Y26860000D03*
X45787500Y57087500D03*
X53279415Y29320585D03*
X64414000Y29364000D03*
X48000000Y29300000D03*
X45800000Y54650000D03*
X53750000Y37250000D03*
X39960000Y52220000D03*
X39930000Y59360000D03*
X50800000Y30150000D03*
X51100000Y40950000D03*
X34484902Y20154902D03*
X30550000Y48200000D03*
X35700000Y43200000D03*
M02*
