M48
; DRILL file {KiCad (5.1.6)-1} date 11/25/20 15:36:56
; FORMAT={-:-/ absolute / metric / decimal}
; #@! TF.CreationDate,2020-11-25T15:36:56+01:00
; #@! TF.GenerationSoftware,Kicad,Pcbnew,(5.1.6)-1
FMAT,2
METRIC
T1C0.400
T2C0.500
T3C0.800
T4C0.900
T5C1.000
T6C1.040
T7C3.200
%
G90
G05
T1
X40.332Y-60.325
X40.332Y-64.325
X40.332Y-68.325
X40.332Y-72.325
X40.332Y-76.325
X40.332Y-80.325
X40.332Y-84.325
X40.332Y-88.325
X40.332Y-92.325
X40.332Y-96.325
X40.332Y-100.325
X40.332Y-104.325
X40.332Y-108.325
X40.332Y-112.325
X40.332Y-116.325
X40.332Y-120.325
X40.332Y-124.325
X42.332Y-62.325
X42.332Y-66.325
X42.332Y-70.325
X42.332Y-74.325
X42.332Y-78.325
X42.332Y-82.325
X42.332Y-86.325
X42.332Y-90.325
X42.332Y-94.325
X42.332Y-98.325
X42.332Y-102.325
X42.332Y-106.325
X42.332Y-110.325
X42.332Y-114.325
X42.332Y-118.325
X42.332Y-122.325
X42.332Y-126.325
X44.04Y-60.85
X44.04Y-75.85
X44.04Y-115.85
X44.332Y-64.325
X44.332Y-72.325
X44.332Y-84.325
X44.332Y-104.325
X44.332Y-112.325
X44.332Y-124.325
X46.332Y-60.325
X46.332Y-75.325
X46.332Y-86.325
X46.332Y-110.325
X46.332Y-114.325
X46.332Y-126.325
X47.332Y-71.325
X47.332Y-78.325
X47.332Y-117.325
X48.332Y-62.325
X48.332Y-112.325
X49.29Y-90.45
X49.332Y-73.325
X49.332Y-84.325
X49.332Y-98.325
X49.332Y-109.325
X49.332Y-115.325
X49.39Y-103.75
X50.332Y-60.325
X50.332Y-70.325
X50.332Y-76.325
X50.332Y-101.325
X50.332Y-118.325
X50.332Y-125.325
X50.44Y-96.35
X51.332Y-63.325
X51.332Y-111.325
X52.332Y-68.325
X52.332Y-72.325
X52.332Y-103.325
X52.332Y-114.325
X52.79Y-95.4
X53.04Y-82.0
X53.332Y-77.325
X53.332Y-92.325
X53.332Y-109.325
X53.84Y-87.9
X54.04Y-60.85
X54.04Y-125.85
X54.332Y-101.325
X54.332Y-105.325
X54.332Y-112.325
X55.332Y-63.325
X55.332Y-90.325
X55.332Y-95.325
X56.09Y-86.7
X56.332Y-60.325
X56.332Y-66.325
X56.332Y-70.325
X56.332Y-74.325
X56.332Y-80.325
X56.332Y-103.325
X56.332Y-110.325
X56.332Y-114.325
X56.332Y-126.325
X57.332Y-83.325
X57.332Y-93.325
X58.332Y-62.325
X58.332Y-68.325
X58.332Y-72.325
X58.332Y-87.325
X58.332Y-100.325
X58.332Y-112.325
X59.332Y-81.325
X59.332Y-95.325
X60.332Y-60.325
X60.332Y-70.325
X60.332Y-89.325
X60.332Y-98.325
X60.332Y-102.325
X60.332Y-114.325
X60.332Y-126.325
X61.332Y-92.325
X62.332Y-68.325
X62.332Y-72.325
X62.332Y-79.325
X62.332Y-100.325
X63.332Y-63.325
X63.332Y-75.325
X63.332Y-82.325
X63.332Y-94.325
X63.332Y-103.325
X63.332Y-110.325
X64.04Y-60.85
X64.04Y-125.85
X64.332Y-70.325
X64.332Y-113.325
X65.29Y-82.9
X65.332Y-65.325
X65.332Y-87.325
X65.332Y-92.325
X65.332Y-99.325
X66.332Y-60.325
X66.332Y-68.325
X66.332Y-102.325
X66.332Y-111.325
X66.332Y-126.325
X67.332Y-63.325
X67.332Y-71.325
X67.332Y-89.325
X67.332Y-114.325
X68.332Y-98.325
X68.332Y-104.325
X68.332Y-109.325
X69.332Y-61.325
X69.332Y-65.325
X69.332Y-101.325
X69.332Y-112.325
X69.59Y-80.15
X70.332Y-126.325
X70.42Y-73.75
X70.42Y-77.77
X71.332Y-63.325
X71.332Y-114.325
X72.14Y-101.2
X72.14Y-103.95
X72.332Y-60.325
X72.332Y-77.325
X72.44Y-88.6
X72.89Y-82.9
X73.332Y-65.325
X73.525Y-108.195
X73.89Y-110.75
X74.04Y-60.85
X74.04Y-125.85
X74.332Y-79.325
X74.332Y-113.325
X74.74Y-85.15
X74.99Y-89.05
X74.99Y-101.3
X74.99Y-104.0
X75.332Y-63.325
X75.332Y-68.325
X76.09Y-108.55
X76.332Y-60.325
X76.332Y-91.325
X76.332Y-96.325
X76.332Y-115.325
X76.332Y-119.325
X76.332Y-123.325
X76.99Y-73.0
X77.332Y-65.325
X77.332Y-100.325
X77.332Y-112.325
X77.332Y-126.325
X78.19Y-85.9
X78.24Y-82.85
X78.332Y-62.325
X78.332Y-103.325
X78.332Y-108.325
X78.332Y-117.325
X78.332Y-121.325
X78.34Y-89.4
X78.97Y-68.99
X79.0Y-76.13
X79.04Y-72.35
X79.332Y-97.325
X79.332Y-114.325
X79.332Y-124.325
X80.09Y-109.05
X80.09Y-112.25
X80.332Y-60.325
X80.332Y-64.325
X80.332Y-85.325
X80.332Y-89.325
X80.332Y-101.325
X80.332Y-119.325
X81.332Y-122.325
X81.332Y-126.325
X82.332Y-62.325
X82.332Y-103.325
X82.332Y-108.325
X82.332Y-112.325
X82.49Y-82.75
X83.332Y-65.325
X83.332Y-78.325
X83.332Y-100.325
X83.332Y-115.325
X83.332Y-120.325
X84.04Y-60.85
X84.04Y-125.85
X84.14Y-85.95
X84.44Y-68.55
X84.44Y-88.55
X84.6Y-93.9
X84.828Y-71.263
X85.332Y-63.325
X85.332Y-102.325
X85.332Y-113.325
X85.332Y-117.325
X85.332Y-122.325
X86.04Y-83.65
X86.332Y-60.325
X86.332Y-125.325
X87.02Y-67.59
X87.04Y-99.05
X87.332Y-65.325
X87.332Y-115.325
X87.332Y-119.325
X87.64Y-69.35
X88.332Y-62.325
X88.332Y-71.325
X88.332Y-101.325
X88.332Y-112.325
X88.39Y-77.35
X89.332Y-124.325
X89.83Y-85.54
X89.84Y-98.2
X90.332Y-60.325
X90.332Y-64.325
X90.332Y-76.325
X90.332Y-116.325
X90.44Y-114.35
X90.49Y-109.5
X90.89Y-119.95
X91.332Y-102.325
X91.332Y-126.325
X91.74Y-87.95
X91.94Y-82.8
X92.319Y-99.029
X92.332Y-62.325
X92.54Y-76.35
X93.332Y-65.325
X93.332Y-69.325
X93.332Y-73.325
X93.76Y-93.29
X94.04Y-60.85
X94.04Y-125.85
X94.332Y-76.325
X94.332Y-103.325
X94.64Y-100.75
X95.09Y-119.9
X95.19Y-96.2
X95.332Y-63.325
X95.332Y-117.325
X95.332Y-122.325
X95.94Y-85.95
X96.24Y-87.85
X96.24Y-91.05
X96.29Y-93.8
X96.332Y-60.325
X96.332Y-111.325
X96.332Y-125.325
X96.89Y-109.5
X97.34Y-114.75
X97.44Y-75.05
X97.59Y-97.45
X97.59Y-100.75
X97.94Y-83.7
X98.09Y-87.7
X98.332Y-62.325
X98.332Y-66.325
X98.332Y-70.325
X98.332Y-90.325
X98.332Y-94.325
X98.332Y-103.325
X99.332Y-110.325
X99.332Y-124.325
X100.14Y-97.45
X100.19Y-100.75
X100.24Y-120.05
X100.332Y-60.325
X100.332Y-64.325
X100.332Y-78.325
X100.332Y-92.325
X100.332Y-117.325
X100.69Y-114.85
X101.24Y-83.7
X101.332Y-95.325
X101.332Y-112.325
X101.332Y-126.325
X101.34Y-87.7
X102.19Y-97.45
X102.29Y-100.75
X102.332Y-62.325
X102.332Y-90.325
X102.332Y-103.325
X103.332Y-65.325
X103.332Y-69.325
X103.332Y-75.325
X103.332Y-83.325
X103.332Y-87.325
X103.332Y-93.325
X103.454Y-98.986
X104.04Y-60.85
X104.04Y-125.85
X104.332Y-117.325
X104.332Y-122.325
X104.94Y-114.75
X105.14Y-120.05
X105.332Y-63.325
X105.332Y-77.325
X105.332Y-91.325
X105.44Y-83.7
X105.69Y-87.7
X105.89Y-96.05
X106.332Y-60.325
X106.332Y-94.325
X106.332Y-103.325
X106.332Y-124.325
X106.69Y-109.0
X107.16Y-101.49
X107.332Y-75.325
X107.332Y-89.325
X108.04Y-94.2
X108.332Y-62.325
X108.332Y-66.325
X108.332Y-70.325
X108.332Y-78.325
X108.332Y-111.325
X108.332Y-126.325
X108.74Y-85.95
X108.99Y-114.85
X108.99Y-119.75
X109.332Y-73.325
X109.332Y-108.325
X109.332Y-117.325
X109.332Y-122.325
X109.99Y-92.4
X110.332Y-60.325
X110.332Y-76.325
X110.54Y-88.8
X110.98Y-100.92
X111.332Y-110.325
X111.332Y-114.325
X111.332Y-119.325
X111.332Y-124.325
X111.54Y-94.45
X111.59Y-90.85
X112.332Y-62.325
X112.332Y-78.325
X112.53Y-85.96
X112.74Y-96.65
X113.332Y-65.325
X113.332Y-70.325
X113.332Y-75.325
X113.332Y-108.325
X113.332Y-112.325
X114.04Y-60.85
X114.04Y-125.85
X114.332Y-80.325
X114.332Y-84.325
X114.332Y-115.325
X114.332Y-120.325
X114.99Y-67.9
X115.332Y-96.325
X115.332Y-100.325
X115.332Y-104.325
X115.332Y-110.325
X115.332Y-123.325
X116.332Y-60.325
X116.332Y-73.325
X116.332Y-107.325
X116.332Y-113.325
X116.332Y-126.325
X117.332Y-63.325
X117.332Y-67.325
X117.332Y-98.325
X117.332Y-102.325
X118.332Y-70.325
X118.332Y-95.325
X118.332Y-105.325
X118.332Y-109.325
X118.332Y-119.325
X118.332Y-124.325
X119.332Y-61.325
X119.332Y-74.325
X119.332Y-100.325
X119.332Y-112.325
X120.332Y-79.325
X120.332Y-83.325
X120.332Y-87.325
X120.332Y-91.325
X120.332Y-97.325
X120.332Y-103.325
X120.332Y-107.325
X120.332Y-116.325
X120.332Y-126.325
X121.332Y-71.325
X122.24Y-85.85
X122.332Y-60.325
X122.332Y-75.325
X122.332Y-114.325
X123.332Y-78.325
X123.332Y-82.325
X123.332Y-88.325
X123.332Y-92.325
X123.332Y-98.325
X123.332Y-102.325
X123.332Y-108.325
X124.04Y-75.85
X124.04Y-85.85
X124.04Y-95.85
X124.04Y-105.85
X124.04Y-115.85
X124.332Y-62.325
X124.332Y-72.325
X124.332Y-111.325
X124.332Y-126.325
X125.332Y-80.325
X125.332Y-90.325
X125.332Y-100.325
X125.332Y-118.325
T2
X114.87Y-76.37
X114.87Y-77.37
X115.87Y-76.37
X115.87Y-77.37
X116.87Y-76.37
X116.87Y-77.37
X117.87Y-76.37
X117.87Y-77.37
X118.87Y-76.37
X118.87Y-77.37
T3
X53.29Y-63.25
X60.91Y-63.25
X63.09Y-87.3
X70.71Y-87.3
T4
X106.0Y-70.86
X106.0Y-73.4
X101.0Y-70.86
X101.0Y-73.4
X96.0Y-70.86
X96.0Y-73.4
X91.0Y-70.86
X91.0Y-73.4
T5
X53.03Y-66.53
X53.03Y-74.15
X53.03Y-79.23
X53.03Y-84.31
X60.65Y-66.53
X60.65Y-74.15
X60.65Y-79.23
X60.65Y-84.31
X52.96Y-90.23
X52.96Y-97.85
X58.04Y-90.23
X58.04Y-97.85
X63.12Y-90.23
X63.12Y-97.85
X70.74Y-90.23
X70.74Y-97.85
X44.2Y-89.935
X44.2Y-92.705
X44.2Y-95.475
X44.2Y-98.245
X47.04Y-88.55
X47.04Y-91.32
X47.04Y-94.09
X47.04Y-96.86
X47.04Y-99.63
X83.07Y-117.22
X83.07Y-122.22
X87.95Y-117.22
X87.95Y-122.22
X92.83Y-117.22
X92.83Y-122.22
X97.71Y-117.22
X97.71Y-122.22
X102.59Y-117.22
X102.59Y-122.22
X107.47Y-117.22
X107.47Y-122.22
X112.35Y-117.22
X112.35Y-122.22
X117.23Y-117.22
X117.23Y-122.22
T6
X76.943Y-80.597
X77.07Y-105.87
X79.483Y-80.597
X79.61Y-105.87
X82.023Y-80.597
X82.15Y-105.87
X84.563Y-80.597
X84.69Y-105.87
X87.103Y-80.597
X87.23Y-105.87
X89.643Y-80.597
X89.77Y-105.87
X92.183Y-80.597
X92.31Y-105.87
X94.723Y-80.597
X94.85Y-105.87
X97.263Y-80.597
X97.39Y-105.87
X99.803Y-80.597
X99.93Y-105.87
X102.343Y-80.597
X102.47Y-105.87
X104.883Y-80.597
X105.01Y-105.87
X107.423Y-80.597
X107.55Y-105.87
X109.963Y-80.597
X110.09Y-105.87
X112.503Y-80.597
X112.63Y-105.87
T7
X46.74Y-81.59
X46.74Y-106.59
X47.84Y-121.75
X47.84Y-66.75
X122.84Y-66.75
X122.84Y-121.75
T0
M30
