%TF.GenerationSoftware,KiCad,Pcbnew,(5.1.6)-1*%
%TF.CreationDate,2020-11-25T15:36:35+01:00*%
%TF.ProjectId,Board,426f6172-642e-46b6-9963-61645f706362,rev?*%
%TF.SameCoordinates,Original*%
%TF.FileFunction,Paste,Bot*%
%TF.FilePolarity,Positive*%
%FSLAX46Y46*%
G04 Gerber Fmt 4.6, Leading zero omitted, Abs format (unit mm)*
G04 Created by KiCad (PCBNEW (5.1.6)-1) date 2020-11-25 15:36:35*
%MOMM*%
%LPD*%
G01*
G04 APERTURE LIST*
%ADD10R,0.600000X1.000000*%
%ADD11R,0.900000X0.800000*%
%ADD12R,2.290000X2.120000*%
%ADD13R,1.981200X0.558800*%
G04 APERTURE END LIST*
%TO.C,C18*%
G36*
G01*
X73312500Y-100377500D02*
X73787500Y-100377500D01*
G75*
G02*
X74025000Y-100615000I0J-237500D01*
G01*
X74025000Y-101215000D01*
G75*
G02*
X73787500Y-101452500I-237500J0D01*
G01*
X73312500Y-101452500D01*
G75*
G02*
X73075000Y-101215000I0J237500D01*
G01*
X73075000Y-100615000D01*
G75*
G02*
X73312500Y-100377500I237500J0D01*
G01*
G37*
G36*
G01*
X73312500Y-98652500D02*
X73787500Y-98652500D01*
G75*
G02*
X74025000Y-98890000I0J-237500D01*
G01*
X74025000Y-99490000D01*
G75*
G02*
X73787500Y-99727500I-237500J0D01*
G01*
X73312500Y-99727500D01*
G75*
G02*
X73075000Y-99490000I0J237500D01*
G01*
X73075000Y-98890000D01*
G75*
G02*
X73312500Y-98652500I237500J0D01*
G01*
G37*
%TD*%
%TO.C,C17*%
G36*
G01*
X90400000Y-90677500D02*
X90400000Y-90202500D01*
G75*
G02*
X90637500Y-89965000I237500J0D01*
G01*
X91237500Y-89965000D01*
G75*
G02*
X91475000Y-90202500I0J-237500D01*
G01*
X91475000Y-90677500D01*
G75*
G02*
X91237500Y-90915000I-237500J0D01*
G01*
X90637500Y-90915000D01*
G75*
G02*
X90400000Y-90677500I0J237500D01*
G01*
G37*
G36*
G01*
X88675000Y-90677500D02*
X88675000Y-90202500D01*
G75*
G02*
X88912500Y-89965000I237500J0D01*
G01*
X89512500Y-89965000D01*
G75*
G02*
X89750000Y-90202500I0J-237500D01*
G01*
X89750000Y-90677500D01*
G75*
G02*
X89512500Y-90915000I-237500J0D01*
G01*
X88912500Y-90915000D01*
G75*
G02*
X88675000Y-90677500I0J237500D01*
G01*
G37*
%TD*%
%TO.C,R21*%
G36*
G01*
X83888500Y-89758500D02*
X83888500Y-90233500D01*
G75*
G02*
X83651000Y-90471000I-237500J0D01*
G01*
X83151000Y-90471000D01*
G75*
G02*
X82913500Y-90233500I0J237500D01*
G01*
X82913500Y-89758500D01*
G75*
G02*
X83151000Y-89521000I237500J0D01*
G01*
X83651000Y-89521000D01*
G75*
G02*
X83888500Y-89758500I0J-237500D01*
G01*
G37*
G36*
G01*
X85713500Y-89758500D02*
X85713500Y-90233500D01*
G75*
G02*
X85476000Y-90471000I-237500J0D01*
G01*
X84976000Y-90471000D01*
G75*
G02*
X84738500Y-90233500I0J237500D01*
G01*
X84738500Y-89758500D01*
G75*
G02*
X84976000Y-89521000I237500J0D01*
G01*
X85476000Y-89521000D01*
G75*
G02*
X85713500Y-89758500I0J-237500D01*
G01*
G37*
%TD*%
%TO.C,R18*%
G36*
G01*
X58767500Y-75672500D02*
X58292500Y-75672500D01*
G75*
G02*
X58055000Y-75435000I0J237500D01*
G01*
X58055000Y-74935000D01*
G75*
G02*
X58292500Y-74697500I237500J0D01*
G01*
X58767500Y-74697500D01*
G75*
G02*
X59005000Y-74935000I0J-237500D01*
G01*
X59005000Y-75435000D01*
G75*
G02*
X58767500Y-75672500I-237500J0D01*
G01*
G37*
G36*
G01*
X58767500Y-77497500D02*
X58292500Y-77497500D01*
G75*
G02*
X58055000Y-77260000I0J237500D01*
G01*
X58055000Y-76760000D01*
G75*
G02*
X58292500Y-76522500I237500J0D01*
G01*
X58767500Y-76522500D01*
G75*
G02*
X59005000Y-76760000I0J-237500D01*
G01*
X59005000Y-77260000D01*
G75*
G02*
X58767500Y-77497500I-237500J0D01*
G01*
G37*
%TD*%
%TO.C,R17*%
G36*
G01*
X61472500Y-77317500D02*
X61472500Y-76842500D01*
G75*
G02*
X61710000Y-76605000I237500J0D01*
G01*
X62210000Y-76605000D01*
G75*
G02*
X62447500Y-76842500I0J-237500D01*
G01*
X62447500Y-77317500D01*
G75*
G02*
X62210000Y-77555000I-237500J0D01*
G01*
X61710000Y-77555000D01*
G75*
G02*
X61472500Y-77317500I0J237500D01*
G01*
G37*
G36*
G01*
X59647500Y-77317500D02*
X59647500Y-76842500D01*
G75*
G02*
X59885000Y-76605000I237500J0D01*
G01*
X60385000Y-76605000D01*
G75*
G02*
X60622500Y-76842500I0J-237500D01*
G01*
X60622500Y-77317500D01*
G75*
G02*
X60385000Y-77555000I-237500J0D01*
G01*
X59885000Y-77555000D01*
G75*
G02*
X59647500Y-77317500I0J237500D01*
G01*
G37*
%TD*%
%TO.C,R12*%
G36*
G01*
X114675000Y-94652500D02*
X114675000Y-95127500D01*
G75*
G02*
X114437500Y-95365000I-237500J0D01*
G01*
X113937500Y-95365000D01*
G75*
G02*
X113700000Y-95127500I0J237500D01*
G01*
X113700000Y-94652500D01*
G75*
G02*
X113937500Y-94415000I237500J0D01*
G01*
X114437500Y-94415000D01*
G75*
G02*
X114675000Y-94652500I0J-237500D01*
G01*
G37*
G36*
G01*
X116500000Y-94652500D02*
X116500000Y-95127500D01*
G75*
G02*
X116262500Y-95365000I-237500J0D01*
G01*
X115762500Y-95365000D01*
G75*
G02*
X115525000Y-95127500I0J237500D01*
G01*
X115525000Y-94652500D01*
G75*
G02*
X115762500Y-94415000I237500J0D01*
G01*
X116262500Y-94415000D01*
G75*
G02*
X116500000Y-94652500I0J-237500D01*
G01*
G37*
%TD*%
%TO.C,R11*%
G36*
G01*
X114675000Y-93102500D02*
X114675000Y-93577500D01*
G75*
G02*
X114437500Y-93815000I-237500J0D01*
G01*
X113937500Y-93815000D01*
G75*
G02*
X113700000Y-93577500I0J237500D01*
G01*
X113700000Y-93102500D01*
G75*
G02*
X113937500Y-92865000I237500J0D01*
G01*
X114437500Y-92865000D01*
G75*
G02*
X114675000Y-93102500I0J-237500D01*
G01*
G37*
G36*
G01*
X116500000Y-93102500D02*
X116500000Y-93577500D01*
G75*
G02*
X116262500Y-93815000I-237500J0D01*
G01*
X115762500Y-93815000D01*
G75*
G02*
X115525000Y-93577500I0J237500D01*
G01*
X115525000Y-93102500D01*
G75*
G02*
X115762500Y-92865000I237500J0D01*
G01*
X116262500Y-92865000D01*
G75*
G02*
X116500000Y-93102500I0J-237500D01*
G01*
G37*
%TD*%
%TO.C,R10*%
G36*
G01*
X114675000Y-91552500D02*
X114675000Y-92027500D01*
G75*
G02*
X114437500Y-92265000I-237500J0D01*
G01*
X113937500Y-92265000D01*
G75*
G02*
X113700000Y-92027500I0J237500D01*
G01*
X113700000Y-91552500D01*
G75*
G02*
X113937500Y-91315000I237500J0D01*
G01*
X114437500Y-91315000D01*
G75*
G02*
X114675000Y-91552500I0J-237500D01*
G01*
G37*
G36*
G01*
X116500000Y-91552500D02*
X116500000Y-92027500D01*
G75*
G02*
X116262500Y-92265000I-237500J0D01*
G01*
X115762500Y-92265000D01*
G75*
G02*
X115525000Y-92027500I0J237500D01*
G01*
X115525000Y-91552500D01*
G75*
G02*
X115762500Y-91315000I237500J0D01*
G01*
X116262500Y-91315000D01*
G75*
G02*
X116500000Y-91552500I0J-237500D01*
G01*
G37*
%TD*%
%TO.C,R9*%
G36*
G01*
X114675000Y-90002500D02*
X114675000Y-90477500D01*
G75*
G02*
X114437500Y-90715000I-237500J0D01*
G01*
X113937500Y-90715000D01*
G75*
G02*
X113700000Y-90477500I0J237500D01*
G01*
X113700000Y-90002500D01*
G75*
G02*
X113937500Y-89765000I237500J0D01*
G01*
X114437500Y-89765000D01*
G75*
G02*
X114675000Y-90002500I0J-237500D01*
G01*
G37*
G36*
G01*
X116500000Y-90002500D02*
X116500000Y-90477500D01*
G75*
G02*
X116262500Y-90715000I-237500J0D01*
G01*
X115762500Y-90715000D01*
G75*
G02*
X115525000Y-90477500I0J237500D01*
G01*
X115525000Y-90002500D01*
G75*
G02*
X115762500Y-89765000I237500J0D01*
G01*
X116262500Y-89765000D01*
G75*
G02*
X116500000Y-90002500I0J-237500D01*
G01*
G37*
%TD*%
%TO.C,R7*%
G36*
G01*
X81051500Y-96009000D02*
X81526500Y-96009000D01*
G75*
G02*
X81764000Y-96246500I0J-237500D01*
G01*
X81764000Y-96746500D01*
G75*
G02*
X81526500Y-96984000I-237500J0D01*
G01*
X81051500Y-96984000D01*
G75*
G02*
X80814000Y-96746500I0J237500D01*
G01*
X80814000Y-96246500D01*
G75*
G02*
X81051500Y-96009000I237500J0D01*
G01*
G37*
G36*
G01*
X81051500Y-94184000D02*
X81526500Y-94184000D01*
G75*
G02*
X81764000Y-94421500I0J-237500D01*
G01*
X81764000Y-94921500D01*
G75*
G02*
X81526500Y-95159000I-237500J0D01*
G01*
X81051500Y-95159000D01*
G75*
G02*
X80814000Y-94921500I0J237500D01*
G01*
X80814000Y-94421500D01*
G75*
G02*
X81051500Y-94184000I237500J0D01*
G01*
G37*
%TD*%
%TO.C,R6*%
G36*
G01*
X81051500Y-92429500D02*
X81526500Y-92429500D01*
G75*
G02*
X81764000Y-92667000I0J-237500D01*
G01*
X81764000Y-93167000D01*
G75*
G02*
X81526500Y-93404500I-237500J0D01*
G01*
X81051500Y-93404500D01*
G75*
G02*
X80814000Y-93167000I0J237500D01*
G01*
X80814000Y-92667000D01*
G75*
G02*
X81051500Y-92429500I237500J0D01*
G01*
G37*
G36*
G01*
X81051500Y-90604500D02*
X81526500Y-90604500D01*
G75*
G02*
X81764000Y-90842000I0J-237500D01*
G01*
X81764000Y-91342000D01*
G75*
G02*
X81526500Y-91579500I-237500J0D01*
G01*
X81051500Y-91579500D01*
G75*
G02*
X80814000Y-91342000I0J237500D01*
G01*
X80814000Y-90842000D01*
G75*
G02*
X81051500Y-90604500I237500J0D01*
G01*
G37*
%TD*%
%TO.C,R5*%
G36*
G01*
X73152500Y-96462500D02*
X73152500Y-96937500D01*
G75*
G02*
X72915000Y-97175000I-237500J0D01*
G01*
X72415000Y-97175000D01*
G75*
G02*
X72177500Y-96937500I0J237500D01*
G01*
X72177500Y-96462500D01*
G75*
G02*
X72415000Y-96225000I237500J0D01*
G01*
X72915000Y-96225000D01*
G75*
G02*
X73152500Y-96462500I0J-237500D01*
G01*
G37*
G36*
G01*
X74977500Y-96462500D02*
X74977500Y-96937500D01*
G75*
G02*
X74740000Y-97175000I-237500J0D01*
G01*
X74240000Y-97175000D01*
G75*
G02*
X74002500Y-96937500I0J237500D01*
G01*
X74002500Y-96462500D01*
G75*
G02*
X74240000Y-96225000I237500J0D01*
G01*
X74740000Y-96225000D01*
G75*
G02*
X74977500Y-96462500I0J-237500D01*
G01*
G37*
%TD*%
%TO.C,R4*%
G36*
G01*
X73107500Y-90712500D02*
X73107500Y-91187500D01*
G75*
G02*
X72870000Y-91425000I-237500J0D01*
G01*
X72370000Y-91425000D01*
G75*
G02*
X72132500Y-91187500I0J237500D01*
G01*
X72132500Y-90712500D01*
G75*
G02*
X72370000Y-90475000I237500J0D01*
G01*
X72870000Y-90475000D01*
G75*
G02*
X73107500Y-90712500I0J-237500D01*
G01*
G37*
G36*
G01*
X74932500Y-90712500D02*
X74932500Y-91187500D01*
G75*
G02*
X74695000Y-91425000I-237500J0D01*
G01*
X74195000Y-91425000D01*
G75*
G02*
X73957500Y-91187500I0J237500D01*
G01*
X73957500Y-90712500D01*
G75*
G02*
X74195000Y-90475000I237500J0D01*
G01*
X74695000Y-90475000D01*
G75*
G02*
X74932500Y-90712500I0J-237500D01*
G01*
G37*
%TD*%
%TO.C,R2*%
G36*
G01*
X86852500Y-110167500D02*
X87327500Y-110167500D01*
G75*
G02*
X87565000Y-110405000I0J-237500D01*
G01*
X87565000Y-110905000D01*
G75*
G02*
X87327500Y-111142500I-237500J0D01*
G01*
X86852500Y-111142500D01*
G75*
G02*
X86615000Y-110905000I0J237500D01*
G01*
X86615000Y-110405000D01*
G75*
G02*
X86852500Y-110167500I237500J0D01*
G01*
G37*
G36*
G01*
X86852500Y-108342500D02*
X87327500Y-108342500D01*
G75*
G02*
X87565000Y-108580000I0J-237500D01*
G01*
X87565000Y-109080000D01*
G75*
G02*
X87327500Y-109317500I-237500J0D01*
G01*
X86852500Y-109317500D01*
G75*
G02*
X86615000Y-109080000I0J237500D01*
G01*
X86615000Y-108580000D01*
G75*
G02*
X86852500Y-108342500I237500J0D01*
G01*
G37*
%TD*%
%TO.C,R1*%
G36*
G01*
X84117500Y-109317500D02*
X83642500Y-109317500D01*
G75*
G02*
X83405000Y-109080000I0J237500D01*
G01*
X83405000Y-108580000D01*
G75*
G02*
X83642500Y-108342500I237500J0D01*
G01*
X84117500Y-108342500D01*
G75*
G02*
X84355000Y-108580000I0J-237500D01*
G01*
X84355000Y-109080000D01*
G75*
G02*
X84117500Y-109317500I-237500J0D01*
G01*
G37*
G36*
G01*
X84117500Y-111142500D02*
X83642500Y-111142500D01*
G75*
G02*
X83405000Y-110905000I0J237500D01*
G01*
X83405000Y-110405000D01*
G75*
G02*
X83642500Y-110167500I237500J0D01*
G01*
X84117500Y-110167500D01*
G75*
G02*
X84355000Y-110405000I0J-237500D01*
G01*
X84355000Y-110905000D01*
G75*
G02*
X84117500Y-111142500I-237500J0D01*
G01*
G37*
%TD*%
%TO.C,C15*%
G36*
G01*
X111970000Y-84797500D02*
X111970000Y-84322500D01*
G75*
G02*
X112207500Y-84085000I237500J0D01*
G01*
X112807500Y-84085000D01*
G75*
G02*
X113045000Y-84322500I0J-237500D01*
G01*
X113045000Y-84797500D01*
G75*
G02*
X112807500Y-85035000I-237500J0D01*
G01*
X112207500Y-85035000D01*
G75*
G02*
X111970000Y-84797500I0J237500D01*
G01*
G37*
G36*
G01*
X110245000Y-84797500D02*
X110245000Y-84322500D01*
G75*
G02*
X110482500Y-84085000I237500J0D01*
G01*
X111082500Y-84085000D01*
G75*
G02*
X111320000Y-84322500I0J-237500D01*
G01*
X111320000Y-84797500D01*
G75*
G02*
X111082500Y-85035000I-237500J0D01*
G01*
X110482500Y-85035000D01*
G75*
G02*
X110245000Y-84797500I0J237500D01*
G01*
G37*
%TD*%
%TO.C,C14*%
G36*
G01*
X111970000Y-82887500D02*
X111970000Y-82412500D01*
G75*
G02*
X112207500Y-82175000I237500J0D01*
G01*
X112807500Y-82175000D01*
G75*
G02*
X113045000Y-82412500I0J-237500D01*
G01*
X113045000Y-82887500D01*
G75*
G02*
X112807500Y-83125000I-237500J0D01*
G01*
X112207500Y-83125000D01*
G75*
G02*
X111970000Y-82887500I0J237500D01*
G01*
G37*
G36*
G01*
X110245000Y-82887500D02*
X110245000Y-82412500D01*
G75*
G02*
X110482500Y-82175000I237500J0D01*
G01*
X111082500Y-82175000D01*
G75*
G02*
X111320000Y-82412500I0J-237500D01*
G01*
X111320000Y-82887500D01*
G75*
G02*
X111082500Y-83125000I-237500J0D01*
G01*
X110482500Y-83125000D01*
G75*
G02*
X110245000Y-82887500I0J237500D01*
G01*
G37*
%TD*%
%TO.C,C13*%
G36*
G01*
X112093000Y-104117500D02*
X112093000Y-103642500D01*
G75*
G02*
X112330500Y-103405000I237500J0D01*
G01*
X112930500Y-103405000D01*
G75*
G02*
X113168000Y-103642500I0J-237500D01*
G01*
X113168000Y-104117500D01*
G75*
G02*
X112930500Y-104355000I-237500J0D01*
G01*
X112330500Y-104355000D01*
G75*
G02*
X112093000Y-104117500I0J237500D01*
G01*
G37*
G36*
G01*
X110368000Y-104117500D02*
X110368000Y-103642500D01*
G75*
G02*
X110605500Y-103405000I237500J0D01*
G01*
X111205500Y-103405000D01*
G75*
G02*
X111443000Y-103642500I0J-237500D01*
G01*
X111443000Y-104117500D01*
G75*
G02*
X111205500Y-104355000I-237500J0D01*
G01*
X110605500Y-104355000D01*
G75*
G02*
X110368000Y-104117500I0J237500D01*
G01*
G37*
%TD*%
%TO.C,C12*%
G36*
G01*
X111443000Y-101852500D02*
X111443000Y-102327500D01*
G75*
G02*
X111205500Y-102565000I-237500J0D01*
G01*
X110605500Y-102565000D01*
G75*
G02*
X110368000Y-102327500I0J237500D01*
G01*
X110368000Y-101852500D01*
G75*
G02*
X110605500Y-101615000I237500J0D01*
G01*
X111205500Y-101615000D01*
G75*
G02*
X111443000Y-101852500I0J-237500D01*
G01*
G37*
G36*
G01*
X113168000Y-101852500D02*
X113168000Y-102327500D01*
G75*
G02*
X112930500Y-102565000I-237500J0D01*
G01*
X112330500Y-102565000D01*
G75*
G02*
X112093000Y-102327500I0J237500D01*
G01*
X112093000Y-101852500D01*
G75*
G02*
X112330500Y-101615000I237500J0D01*
G01*
X112930500Y-101615000D01*
G75*
G02*
X113168000Y-101852500I0J-237500D01*
G01*
G37*
%TD*%
%TO.C,C11*%
G36*
G01*
X63207500Y-65365000D02*
X62732500Y-65365000D01*
G75*
G02*
X62495000Y-65127500I0J237500D01*
G01*
X62495000Y-64527500D01*
G75*
G02*
X62732500Y-64290000I237500J0D01*
G01*
X63207500Y-64290000D01*
G75*
G02*
X63445000Y-64527500I0J-237500D01*
G01*
X63445000Y-65127500D01*
G75*
G02*
X63207500Y-65365000I-237500J0D01*
G01*
G37*
G36*
G01*
X63207500Y-67090000D02*
X62732500Y-67090000D01*
G75*
G02*
X62495000Y-66852500I0J237500D01*
G01*
X62495000Y-66252500D01*
G75*
G02*
X62732500Y-66015000I237500J0D01*
G01*
X63207500Y-66015000D01*
G75*
G02*
X63445000Y-66252500I0J-237500D01*
G01*
X63445000Y-66852500D01*
G75*
G02*
X63207500Y-67090000I-237500J0D01*
G01*
G37*
%TD*%
%TO.C,C7*%
G36*
G01*
X83217500Y-93447500D02*
X82742500Y-93447500D01*
G75*
G02*
X82505000Y-93210000I0J237500D01*
G01*
X82505000Y-92610000D01*
G75*
G02*
X82742500Y-92372500I237500J0D01*
G01*
X83217500Y-92372500D01*
G75*
G02*
X83455000Y-92610000I0J-237500D01*
G01*
X83455000Y-93210000D01*
G75*
G02*
X83217500Y-93447500I-237500J0D01*
G01*
G37*
G36*
G01*
X83217500Y-95172500D02*
X82742500Y-95172500D01*
G75*
G02*
X82505000Y-94935000I0J237500D01*
G01*
X82505000Y-94335000D01*
G75*
G02*
X82742500Y-94097500I237500J0D01*
G01*
X83217500Y-94097500D01*
G75*
G02*
X83455000Y-94335000I0J-237500D01*
G01*
X83455000Y-94935000D01*
G75*
G02*
X83217500Y-95172500I-237500J0D01*
G01*
G37*
%TD*%
%TO.C,C6*%
G36*
G01*
X78892500Y-94131000D02*
X79367500Y-94131000D01*
G75*
G02*
X79605000Y-94368500I0J-237500D01*
G01*
X79605000Y-94968500D01*
G75*
G02*
X79367500Y-95206000I-237500J0D01*
G01*
X78892500Y-95206000D01*
G75*
G02*
X78655000Y-94968500I0J237500D01*
G01*
X78655000Y-94368500D01*
G75*
G02*
X78892500Y-94131000I237500J0D01*
G01*
G37*
G36*
G01*
X78892500Y-92406000D02*
X79367500Y-92406000D01*
G75*
G02*
X79605000Y-92643500I0J-237500D01*
G01*
X79605000Y-93243500D01*
G75*
G02*
X79367500Y-93481000I-237500J0D01*
G01*
X78892500Y-93481000D01*
G75*
G02*
X78655000Y-93243500I0J237500D01*
G01*
X78655000Y-92643500D01*
G75*
G02*
X78892500Y-92406000I237500J0D01*
G01*
G37*
%TD*%
%TO.C,C5*%
G36*
G01*
X69157500Y-95155000D02*
X68682500Y-95155000D01*
G75*
G02*
X68445000Y-94917500I0J237500D01*
G01*
X68445000Y-94317500D01*
G75*
G02*
X68682500Y-94080000I237500J0D01*
G01*
X69157500Y-94080000D01*
G75*
G02*
X69395000Y-94317500I0J-237500D01*
G01*
X69395000Y-94917500D01*
G75*
G02*
X69157500Y-95155000I-237500J0D01*
G01*
G37*
G36*
G01*
X69157500Y-96880000D02*
X68682500Y-96880000D01*
G75*
G02*
X68445000Y-96642500I0J237500D01*
G01*
X68445000Y-96042500D01*
G75*
G02*
X68682500Y-95805000I237500J0D01*
G01*
X69157500Y-95805000D01*
G75*
G02*
X69395000Y-96042500I0J-237500D01*
G01*
X69395000Y-96642500D01*
G75*
G02*
X69157500Y-96880000I-237500J0D01*
G01*
G37*
%TD*%
%TO.C,C4*%
G36*
G01*
X69137500Y-91705000D02*
X68662500Y-91705000D01*
G75*
G02*
X68425000Y-91467500I0J237500D01*
G01*
X68425000Y-90867500D01*
G75*
G02*
X68662500Y-90630000I237500J0D01*
G01*
X69137500Y-90630000D01*
G75*
G02*
X69375000Y-90867500I0J-237500D01*
G01*
X69375000Y-91467500D01*
G75*
G02*
X69137500Y-91705000I-237500J0D01*
G01*
G37*
G36*
G01*
X69137500Y-93430000D02*
X68662500Y-93430000D01*
G75*
G02*
X68425000Y-93192500I0J237500D01*
G01*
X68425000Y-92592500D01*
G75*
G02*
X68662500Y-92355000I237500J0D01*
G01*
X69137500Y-92355000D01*
G75*
G02*
X69375000Y-92592500I0J-237500D01*
G01*
X69375000Y-93192500D01*
G75*
G02*
X69137500Y-93430000I-237500J0D01*
G01*
G37*
%TD*%
%TO.C,C1*%
G36*
G01*
X85252500Y-110067500D02*
X85727500Y-110067500D01*
G75*
G02*
X85965000Y-110305000I0J-237500D01*
G01*
X85965000Y-110905000D01*
G75*
G02*
X85727500Y-111142500I-237500J0D01*
G01*
X85252500Y-111142500D01*
G75*
G02*
X85015000Y-110905000I0J237500D01*
G01*
X85015000Y-110305000D01*
G75*
G02*
X85252500Y-110067500I237500J0D01*
G01*
G37*
G36*
G01*
X85252500Y-108342500D02*
X85727500Y-108342500D01*
G75*
G02*
X85965000Y-108580000I0J-237500D01*
G01*
X85965000Y-109180000D01*
G75*
G02*
X85727500Y-109417500I-237500J0D01*
G01*
X85252500Y-109417500D01*
G75*
G02*
X85015000Y-109180000I0J237500D01*
G01*
X85015000Y-108580000D01*
G75*
G02*
X85252500Y-108342500I237500J0D01*
G01*
G37*
%TD*%
D10*
%TO.C,L2*%
X71272000Y-94426000D03*
X75822000Y-94426000D03*
X71272000Y-93176000D03*
X75822000Y-93176000D03*
%TD*%
D11*
%TO.C,Q1*%
X56850000Y-77010000D03*
X56850000Y-78910000D03*
X54850000Y-77960000D03*
%TD*%
D12*
%TO.C,D2*%
X108220000Y-99210000D03*
X112540000Y-99210000D03*
%TD*%
D13*
%TO.C,IC1*%
X91677600Y-92155000D03*
X91677600Y-93425000D03*
X91677600Y-94695000D03*
X91677600Y-95965000D03*
X86750000Y-95965000D03*
X86750000Y-94695000D03*
X86750000Y-93425000D03*
X86750000Y-92155000D03*
%TD*%
D11*
%TO.C,D1*%
X67100000Y-92790000D03*
X67100000Y-94690000D03*
X65000000Y-93740000D03*
%TD*%
M02*
