M48
; DRILL file {KiCad (5.1.6)-1} date 11/25/20 14:52:30
; FORMAT={-:-/ absolute / metric / decimal}
; #@! TF.CreationDate,2020-11-25T14:52:30+01:00
; #@! TF.GenerationSoftware,Kicad,Pcbnew,(5.1.6)-1
; #@! TF.FileFunction,Plated,1,2,PTH
FMAT,2
METRIC
T1C0.400
T2C0.500
T3C0.800
T4C0.900
T5C1.000
T6C1.040
T7C3.200
%
G90
G05
T1
X44.04Y-60.85
X44.04Y-75.85
X44.04Y-115.85
X49.29Y-90.45
X49.39Y-103.75
X53.04Y-82.0
X54.04Y-60.85
X54.04Y-125.85
X64.04Y-60.85
X64.04Y-125.85
X69.59Y-80.15
X70.42Y-73.75
X70.42Y-77.77
X73.525Y-108.195
X74.04Y-60.85
X74.04Y-125.85
X74.74Y-85.15
X76.99Y-73.0
X78.19Y-85.9
X78.34Y-89.4
X78.97Y-68.99
X79.0Y-76.13
X79.04Y-72.35
X84.04Y-60.85
X84.04Y-125.85
X84.14Y-85.95
X84.44Y-68.55
X84.44Y-88.55
X84.6Y-93.9
X84.828Y-71.263
X86.04Y-83.65
X87.02Y-67.59
X87.04Y-99.05
X87.64Y-69.35
X88.39Y-77.35
X89.83Y-85.54
X89.84Y-98.2
X91.74Y-87.95
X91.94Y-82.8
X92.319Y-99.029
X92.54Y-76.35
X93.76Y-93.29
X94.04Y-60.85
X94.04Y-125.85
X95.94Y-85.95
X97.44Y-75.05
X101.24Y-83.65
X103.454Y-98.986
X104.04Y-60.85
X104.04Y-125.85
X107.16Y-101.49
X108.04Y-90.95
X108.74Y-85.95
X110.98Y-100.92
X111.54Y-94.45
X112.53Y-85.96
X112.74Y-96.65
X114.04Y-60.85
X114.04Y-125.85
X114.99Y-67.9
X122.24Y-85.85
X124.04Y-75.85
X124.04Y-85.85
X124.04Y-95.85
X124.04Y-105.85
X124.04Y-115.85
T2
X114.87Y-76.37
X114.87Y-77.37
X115.87Y-76.37
X115.87Y-77.37
X116.87Y-76.37
X116.87Y-77.37
X117.87Y-76.37
X117.87Y-77.37
X118.87Y-76.37
X118.87Y-77.37
T3
X53.29Y-63.25
X60.91Y-63.25
X63.09Y-87.3
X70.71Y-87.3
T4
X106.0Y-70.86
X106.0Y-73.4
X101.0Y-70.86
X101.0Y-73.4
X96.0Y-70.86
X96.0Y-73.4
X91.0Y-70.86
X91.0Y-73.4
T5
X53.03Y-66.53
X53.03Y-74.15
X53.03Y-79.23
X53.03Y-84.31
X60.65Y-66.53
X60.65Y-74.15
X60.65Y-79.23
X60.65Y-84.31
X52.96Y-90.23
X52.96Y-97.85
X58.04Y-90.23
X58.04Y-97.85
X63.12Y-90.23
X63.12Y-97.85
X70.74Y-90.23
X70.74Y-97.85
X44.2Y-89.935
X44.2Y-92.705
X44.2Y-95.475
X44.2Y-98.245
X47.04Y-88.55
X47.04Y-91.32
X47.04Y-94.09
X47.04Y-96.86
X47.04Y-99.63
X83.07Y-117.22
X83.07Y-122.22
X87.95Y-117.22
X87.95Y-122.22
X92.83Y-117.22
X92.83Y-122.22
X97.71Y-117.22
X97.71Y-122.22
X102.59Y-117.22
X102.59Y-122.22
X107.47Y-117.22
X107.47Y-122.22
X112.35Y-117.22
X112.35Y-122.22
X117.23Y-117.22
X117.23Y-122.22
T6
X76.943Y-80.597
X77.07Y-105.87
X79.483Y-80.597
X79.61Y-105.87
X82.023Y-80.597
X82.15Y-105.87
X84.563Y-80.597
X84.69Y-105.87
X87.103Y-80.597
X87.23Y-105.87
X89.643Y-80.597
X89.77Y-105.87
X92.183Y-80.597
X92.31Y-105.87
X94.723Y-80.597
X94.85Y-105.87
X97.263Y-80.597
X97.39Y-105.87
X99.803Y-80.597
X99.93Y-105.87
X102.343Y-80.597
X102.47Y-105.87
X104.883Y-80.597
X105.01Y-105.87
X107.423Y-80.597
X107.55Y-105.87
X109.963Y-80.597
X110.09Y-105.87
X112.503Y-80.597
X112.63Y-105.87
T7
X46.74Y-81.59
X46.74Y-106.59
X47.84Y-121.75
X47.84Y-66.75
X122.84Y-66.75
X122.84Y-121.75
T0
M30
