%FSLAX45Y45*%
G04 Gerber Fmt 4.5, Leading zero omitted, Abs format (unit mm)*
G04 Created by KiCad (PCBNEW (5.1.8)-1) date 2020-11-24 12:39:23*
%MOMM*%
%LPD*%
G01*
G04 APERTURE LIST*
%TA.AperFunction,Profile*%
%ADD10C,0.050000*%
%TD*%
%ADD11C,0.200000*%
%ADD12C,0.300000*%
G04 APERTURE END LIST*
D10*
X3904000Y-5835000D02*
X3904000Y-12835000D01*
X12654000Y-5835000D02*
X3904000Y-5835000D01*
X12654000Y-12835000D02*
X12654000Y-5835000D01*
X3904000Y-12835000D02*
X12654000Y-12835000D01*
D11*
X4310000Y-7125000D02*
X4350000Y-7165000D01*
X4350000Y-7125000D02*
X4310000Y-7165000D01*
X4310000Y-11625000D02*
X4350000Y-11665000D01*
X4350000Y-11625000D02*
X4310000Y-11665000D01*
X5310000Y-6125000D02*
X5350000Y-6165000D01*
X5350000Y-6125000D02*
X5310000Y-6165000D01*
X5310000Y-12625000D02*
X5350000Y-12665000D01*
X5350000Y-12625000D02*
X5310000Y-12665000D01*
X6310000Y-6125000D02*
X6350000Y-6165000D01*
X6350000Y-6125000D02*
X6310000Y-6165000D01*
X6310000Y-12625000D02*
X6350000Y-12665000D01*
X6350000Y-12625000D02*
X6310000Y-12665000D01*
X6357000Y-9354000D02*
X6397000Y-9394000D01*
X6397000Y-9354000D02*
X6357000Y-9394000D01*
X6870000Y-8945000D02*
X6910000Y-8985000D01*
X6910000Y-8945000D02*
X6870000Y-8985000D01*
X6872000Y-9765000D02*
X6912000Y-9805000D01*
X6912000Y-9765000D02*
X6872000Y-9805000D01*
X7310000Y-6125000D02*
X7350000Y-6165000D01*
X7350000Y-6125000D02*
X7310000Y-6165000D01*
X7310000Y-12625000D02*
X7350000Y-12665000D01*
X7350000Y-12625000D02*
X7310000Y-12665000D01*
X7430000Y-10897000D02*
X7470000Y-10937000D01*
X7470000Y-10897000D02*
X7430000Y-10937000D01*
X7734000Y-9615000D02*
X7774000Y-9655000D01*
X7774000Y-9615000D02*
X7734000Y-9655000D01*
X8272000Y-7072000D02*
X8312000Y-7112000D01*
X8312000Y-7072000D02*
X8272000Y-7112000D01*
X8284000Y-7615000D02*
X8324000Y-7655000D01*
X8324000Y-7615000D02*
X8284000Y-7655000D01*
X8310000Y-6125000D02*
X8350000Y-6165000D01*
X8350000Y-6125000D02*
X8310000Y-6165000D01*
X8310000Y-12625000D02*
X8350000Y-12665000D01*
X8350000Y-12625000D02*
X8310000Y-12665000D01*
X8311000Y-8843000D02*
X8351000Y-8883000D01*
X8351000Y-8843000D02*
X8311000Y-8883000D01*
X8430000Y-9353000D02*
X8470000Y-9393000D01*
X8470000Y-9353000D02*
X8430000Y-9393000D01*
X8653000Y-9739000D02*
X8693000Y-9779000D01*
X8693000Y-9739000D02*
X8653000Y-9779000D01*
X8884000Y-7615000D02*
X8924000Y-7655000D01*
X8924000Y-7615000D02*
X8884000Y-7655000D01*
X9184000Y-8815000D02*
X9224000Y-8855000D01*
X9224000Y-8815000D02*
X9184000Y-8855000D01*
X9310000Y-6125000D02*
X9350000Y-6165000D01*
X9350000Y-6125000D02*
X9310000Y-6165000D01*
X9310000Y-12625000D02*
X9350000Y-12665000D01*
X9350000Y-12625000D02*
X9310000Y-12665000D01*
X9634000Y-7765000D02*
X9674000Y-7805000D01*
X9674000Y-7765000D02*
X9634000Y-7805000D01*
X9834000Y-6865000D02*
X9874000Y-6905000D01*
X9874000Y-6865000D02*
X9834000Y-6905000D01*
X10234000Y-7565000D02*
X10274000Y-7605000D01*
X10274000Y-7565000D02*
X10234000Y-7605000D01*
X10310000Y-6125000D02*
X10350000Y-6165000D01*
X10350000Y-6125000D02*
X10310000Y-6165000D01*
X10310000Y-12625000D02*
X10350000Y-12665000D01*
X10350000Y-12625000D02*
X10310000Y-12665000D01*
X10734000Y-8915000D02*
X10774000Y-8955000D01*
X10774000Y-8915000D02*
X10734000Y-8955000D01*
X10734000Y-10365000D02*
X10774000Y-10405000D01*
X10774000Y-10365000D02*
X10734000Y-10405000D01*
X11084000Y-10065000D02*
X11124000Y-10105000D01*
X11124000Y-10065000D02*
X11084000Y-10105000D01*
X11184000Y-7365000D02*
X11224000Y-7405000D01*
X11224000Y-7365000D02*
X11184000Y-7405000D01*
X11310000Y-6125000D02*
X11350000Y-6165000D01*
X11350000Y-6125000D02*
X11310000Y-6165000D01*
X11310000Y-12625000D02*
X11350000Y-12665000D01*
X11350000Y-12625000D02*
X11310000Y-12665000D01*
X11434000Y-7915000D02*
X11474000Y-7955000D01*
X11474000Y-7915000D02*
X11434000Y-7955000D01*
X12310000Y-6125000D02*
X12350000Y-6165000D01*
X12350000Y-6125000D02*
X12310000Y-6165000D01*
X12310000Y-7125000D02*
X12350000Y-7165000D01*
X12350000Y-7125000D02*
X12310000Y-7165000D01*
X12310000Y-8125000D02*
X12350000Y-8165000D01*
X12350000Y-8125000D02*
X12310000Y-8165000D01*
X12310000Y-9125000D02*
X12350000Y-9165000D01*
X12350000Y-9125000D02*
X12310000Y-9165000D01*
X12310000Y-9625000D02*
X12350000Y-9665000D01*
X12350000Y-9625000D02*
X12310000Y-9665000D01*
X12310000Y-10625000D02*
X12350000Y-10665000D01*
X12350000Y-10625000D02*
X12310000Y-10665000D01*
X12310000Y-11625000D02*
X12350000Y-11665000D01*
X12350000Y-11625000D02*
X12310000Y-11665000D01*
X12310000Y-12625000D02*
X12350000Y-12665000D01*
X12350000Y-12625000D02*
X12310000Y-12665000D01*
X11512000Y-7637000D02*
G75*
G03*
X11512000Y-7637000I-25000J0D01*
G01*
X11512000Y-7737000D02*
G75*
G03*
X11512000Y-7737000I-25000J0D01*
G01*
X11612000Y-7637000D02*
G75*
G03*
X11612000Y-7637000I-25000J0D01*
G01*
X11612000Y-7737000D02*
G75*
G03*
X11612000Y-7737000I-25000J0D01*
G01*
X11712000Y-7637000D02*
G75*
G03*
X11712000Y-7637000I-25000J0D01*
G01*
X11712000Y-7737000D02*
G75*
G03*
X11712000Y-7737000I-25000J0D01*
G01*
X11812000Y-7637000D02*
G75*
G03*
X11812000Y-7637000I-25000J0D01*
G01*
X11812000Y-7737000D02*
G75*
G03*
X11812000Y-7737000I-25000J0D01*
G01*
X11912000Y-7637000D02*
G75*
G03*
X11912000Y-7637000I-25000J0D01*
G01*
X11912000Y-7737000D02*
G75*
G03*
X11912000Y-7737000I-25000J0D01*
G01*
X5329000Y-6285000D02*
X5329000Y-6365000D01*
X5289000Y-6325000D02*
X5369000Y-6325000D01*
X6091000Y-6285000D02*
X6091000Y-6365000D01*
X6051000Y-6325000D02*
X6131000Y-6325000D01*
X9639820Y-7117820D02*
X9639820Y-7054180D01*
X9576180Y-7054180D01*
X9576180Y-7117820D01*
X9639820Y-7117820D01*
X9639820Y-7371820D02*
X9639820Y-7308180D01*
X9576180Y-7308180D01*
X9576180Y-7371820D01*
X9639820Y-7371820D01*
X9131820Y-7117820D02*
X9131820Y-7054180D01*
X9068180Y-7054180D01*
X9068180Y-7117820D01*
X9131820Y-7117820D01*
X9131820Y-7371820D02*
X9131820Y-7308180D01*
X9068180Y-7308180D01*
X9068180Y-7371820D01*
X9131820Y-7371820D01*
X10655820Y-7117820D02*
X10655820Y-7054180D01*
X10592180Y-7054180D01*
X10592180Y-7117820D01*
X10655820Y-7117820D01*
X10655820Y-7371820D02*
X10655820Y-7308180D01*
X10592180Y-7308180D01*
X10592180Y-7371820D01*
X10655820Y-7371820D01*
X10147820Y-7117820D02*
X10147820Y-7054180D01*
X10084180Y-7054180D01*
X10084180Y-7117820D01*
X10147820Y-7117820D01*
X10147820Y-7371820D02*
X10147820Y-7308180D01*
X10084180Y-7308180D01*
X10084180Y-7371820D01*
X10147820Y-7371820D01*
X4379000Y-9035500D02*
X4429000Y-8985500D01*
X4379000Y-8935500D01*
X4329000Y-8985500D01*
X4379000Y-9035500D01*
X4379000Y-9312500D02*
X4429000Y-9262500D01*
X4379000Y-9212500D01*
X4329000Y-9262500D01*
X4379000Y-9312500D01*
X4379000Y-9589500D02*
X4429000Y-9539500D01*
X4379000Y-9489500D01*
X4329000Y-9539500D01*
X4379000Y-9589500D01*
X4379000Y-9866500D02*
X4429000Y-9816500D01*
X4379000Y-9766500D01*
X4329000Y-9816500D01*
X4379000Y-9866500D01*
X4663000Y-8897000D02*
X4713000Y-8847000D01*
X4663000Y-8797000D01*
X4613000Y-8847000D01*
X4663000Y-8897000D01*
X4663000Y-9174000D02*
X4713000Y-9124000D01*
X4663000Y-9074000D01*
X4613000Y-9124000D01*
X4663000Y-9174000D01*
X4663000Y-9451000D02*
X4713000Y-9401000D01*
X4663000Y-9351000D01*
X4613000Y-9401000D01*
X4663000Y-9451000D01*
X4663000Y-9728000D02*
X4713000Y-9678000D01*
X4663000Y-9628000D01*
X4613000Y-9678000D01*
X4663000Y-9728000D01*
X4663000Y-10005000D02*
X4713000Y-9955000D01*
X4663000Y-9905000D01*
X4613000Y-9955000D01*
X4663000Y-10005000D01*
X5296000Y-9073000D02*
X5346000Y-9023000D01*
X5296000Y-8973000D01*
X5246000Y-9023000D01*
X5296000Y-9073000D01*
X5296000Y-9835000D02*
X5346000Y-9785000D01*
X5296000Y-9735000D01*
X5246000Y-9785000D01*
X5296000Y-9835000D01*
X5804000Y-9073000D02*
X5854000Y-9023000D01*
X5804000Y-8973000D01*
X5754000Y-9023000D01*
X5804000Y-9073000D01*
X5804000Y-9835000D02*
X5854000Y-9785000D01*
X5804000Y-9735000D01*
X5754000Y-9785000D01*
X5804000Y-9835000D01*
X6312000Y-9073000D02*
X6362000Y-9023000D01*
X6312000Y-8973000D01*
X6262000Y-9023000D01*
X6312000Y-9073000D01*
X6312000Y-9835000D02*
X6362000Y-9785000D01*
X6312000Y-9735000D01*
X6262000Y-9785000D01*
X6312000Y-9835000D01*
X7074000Y-9073000D02*
X7124000Y-9023000D01*
X7074000Y-8973000D01*
X7024000Y-9023000D01*
X7074000Y-9073000D01*
X7074000Y-9835000D02*
X7124000Y-9785000D01*
X7074000Y-9735000D01*
X7024000Y-9785000D01*
X7074000Y-9835000D01*
X8307000Y-11772000D02*
X8357000Y-11722000D01*
X8307000Y-11672000D01*
X8257000Y-11722000D01*
X8307000Y-11772000D01*
X8307000Y-12272000D02*
X8357000Y-12222000D01*
X8307000Y-12172000D01*
X8257000Y-12222000D01*
X8307000Y-12272000D01*
X8795000Y-11772000D02*
X8845000Y-11722000D01*
X8795000Y-11672000D01*
X8745000Y-11722000D01*
X8795000Y-11772000D01*
X8795000Y-12272000D02*
X8845000Y-12222000D01*
X8795000Y-12172000D01*
X8745000Y-12222000D01*
X8795000Y-12272000D01*
X9283000Y-11772000D02*
X9333000Y-11722000D01*
X9283000Y-11672000D01*
X9233000Y-11722000D01*
X9283000Y-11772000D01*
X9283000Y-12272000D02*
X9333000Y-12222000D01*
X9283000Y-12172000D01*
X9233000Y-12222000D01*
X9283000Y-12272000D01*
X9771000Y-11772000D02*
X9821000Y-11722000D01*
X9771000Y-11672000D01*
X9721000Y-11722000D01*
X9771000Y-11772000D01*
X9771000Y-12272000D02*
X9821000Y-12222000D01*
X9771000Y-12172000D01*
X9721000Y-12222000D01*
X9771000Y-12272000D01*
X10259000Y-11772000D02*
X10309000Y-11722000D01*
X10259000Y-11672000D01*
X10209000Y-11722000D01*
X10259000Y-11772000D01*
X10259000Y-12272000D02*
X10309000Y-12222000D01*
X10259000Y-12172000D01*
X10209000Y-12222000D01*
X10259000Y-12272000D01*
X10747000Y-11772000D02*
X10797000Y-11722000D01*
X10747000Y-11672000D01*
X10697000Y-11722000D01*
X10747000Y-11772000D01*
X10747000Y-12272000D02*
X10797000Y-12222000D01*
X10747000Y-12172000D01*
X10697000Y-12222000D01*
X10747000Y-12272000D01*
X11235000Y-11772000D02*
X11285000Y-11722000D01*
X11235000Y-11672000D01*
X11185000Y-11722000D01*
X11235000Y-11772000D01*
X11235000Y-12272000D02*
X11285000Y-12222000D01*
X11235000Y-12172000D01*
X11185000Y-12222000D01*
X11235000Y-12272000D01*
X11723000Y-11772000D02*
X11773000Y-11722000D01*
X11723000Y-11672000D01*
X11673000Y-11722000D01*
X11723000Y-11772000D01*
X11723000Y-12272000D02*
X11773000Y-12222000D01*
X11723000Y-12172000D01*
X11673000Y-12222000D01*
X11723000Y-12272000D01*
X5303000Y-6703000D02*
X5353000Y-6653000D01*
X5303000Y-6603000D01*
X5253000Y-6653000D01*
X5303000Y-6703000D01*
X5303000Y-7465000D02*
X5353000Y-7415000D01*
X5303000Y-7365000D01*
X5253000Y-7415000D01*
X5303000Y-7465000D01*
X5303000Y-7973000D02*
X5353000Y-7923000D01*
X5303000Y-7873000D01*
X5253000Y-7923000D01*
X5303000Y-7973000D01*
X5303000Y-8481000D02*
X5353000Y-8431000D01*
X5303000Y-8381000D01*
X5253000Y-8431000D01*
X5303000Y-8481000D01*
X6065000Y-6703000D02*
X6115000Y-6653000D01*
X6065000Y-6603000D01*
X6015000Y-6653000D01*
X6065000Y-6703000D01*
X6065000Y-7465000D02*
X6115000Y-7415000D01*
X6065000Y-7365000D01*
X6015000Y-7415000D01*
X6065000Y-7465000D01*
X6065000Y-7973000D02*
X6115000Y-7923000D01*
X6065000Y-7873000D01*
X6015000Y-7923000D01*
X6065000Y-7973000D01*
X6065000Y-8481000D02*
X6115000Y-8431000D01*
X6065000Y-8381000D01*
X6015000Y-8431000D01*
X6065000Y-8481000D01*
X7642300Y-8007700D02*
X7746300Y-8111700D01*
X7746300Y-8007700D02*
X7642300Y-8111700D01*
X7746300Y-8059700D02*
G75*
G03*
X7746300Y-8059700I-52000J0D01*
G01*
X7655000Y-10535000D02*
X7759000Y-10639000D01*
X7759000Y-10535000D02*
X7655000Y-10639000D01*
X7759000Y-10587000D02*
G75*
G03*
X7759000Y-10587000I-52000J0D01*
G01*
X7896300Y-8007700D02*
X8000300Y-8111700D01*
X8000300Y-8007700D02*
X7896300Y-8111700D01*
X8000300Y-8059700D02*
G75*
G03*
X8000300Y-8059700I-52000J0D01*
G01*
X7909000Y-10535000D02*
X8013000Y-10639000D01*
X8013000Y-10535000D02*
X7909000Y-10639000D01*
X8013000Y-10587000D02*
G75*
G03*
X8013000Y-10587000I-52000J0D01*
G01*
X8150300Y-8007700D02*
X8254300Y-8111700D01*
X8254300Y-8007700D02*
X8150300Y-8111700D01*
X8254300Y-8059700D02*
G75*
G03*
X8254300Y-8059700I-52000J0D01*
G01*
X8163000Y-10535000D02*
X8267000Y-10639000D01*
X8267000Y-10535000D02*
X8163000Y-10639000D01*
X8267000Y-10587000D02*
G75*
G03*
X8267000Y-10587000I-52000J0D01*
G01*
X8404300Y-8007700D02*
X8508300Y-8111700D01*
X8508300Y-8007700D02*
X8404300Y-8111700D01*
X8508300Y-8059700D02*
G75*
G03*
X8508300Y-8059700I-52000J0D01*
G01*
X8417000Y-10535000D02*
X8521000Y-10639000D01*
X8521000Y-10535000D02*
X8417000Y-10639000D01*
X8521000Y-10587000D02*
G75*
G03*
X8521000Y-10587000I-52000J0D01*
G01*
X8658300Y-8007700D02*
X8762300Y-8111700D01*
X8762300Y-8007700D02*
X8658300Y-8111700D01*
X8762300Y-8059700D02*
G75*
G03*
X8762300Y-8059700I-52000J0D01*
G01*
X8671000Y-10535000D02*
X8775000Y-10639000D01*
X8775000Y-10535000D02*
X8671000Y-10639000D01*
X8775000Y-10587000D02*
G75*
G03*
X8775000Y-10587000I-52000J0D01*
G01*
X8912300Y-8007700D02*
X9016300Y-8111700D01*
X9016300Y-8007700D02*
X8912300Y-8111700D01*
X9016300Y-8059700D02*
G75*
G03*
X9016300Y-8059700I-52000J0D01*
G01*
X8925000Y-10535000D02*
X9029000Y-10639000D01*
X9029000Y-10535000D02*
X8925000Y-10639000D01*
X9029000Y-10587000D02*
G75*
G03*
X9029000Y-10587000I-52000J0D01*
G01*
X9166300Y-8007700D02*
X9270300Y-8111700D01*
X9270300Y-8007700D02*
X9166300Y-8111700D01*
X9270300Y-8059700D02*
G75*
G03*
X9270300Y-8059700I-52000J0D01*
G01*
X9179000Y-10535000D02*
X9283000Y-10639000D01*
X9283000Y-10535000D02*
X9179000Y-10639000D01*
X9283000Y-10587000D02*
G75*
G03*
X9283000Y-10587000I-52000J0D01*
G01*
X9420300Y-8007700D02*
X9524300Y-8111700D01*
X9524300Y-8007700D02*
X9420300Y-8111700D01*
X9524300Y-8059700D02*
G75*
G03*
X9524300Y-8059700I-52000J0D01*
G01*
X9433000Y-10535000D02*
X9537000Y-10639000D01*
X9537000Y-10535000D02*
X9433000Y-10639000D01*
X9537000Y-10587000D02*
G75*
G03*
X9537000Y-10587000I-52000J0D01*
G01*
X9674300Y-8007700D02*
X9778300Y-8111700D01*
X9778300Y-8007700D02*
X9674300Y-8111700D01*
X9778300Y-8059700D02*
G75*
G03*
X9778300Y-8059700I-52000J0D01*
G01*
X9687000Y-10535000D02*
X9791000Y-10639000D01*
X9791000Y-10535000D02*
X9687000Y-10639000D01*
X9791000Y-10587000D02*
G75*
G03*
X9791000Y-10587000I-52000J0D01*
G01*
X9928300Y-8007700D02*
X10032300Y-8111700D01*
X10032300Y-8007700D02*
X9928300Y-8111700D01*
X10032300Y-8059700D02*
G75*
G03*
X10032300Y-8059700I-52000J0D01*
G01*
X9941000Y-10535000D02*
X10045000Y-10639000D01*
X10045000Y-10535000D02*
X9941000Y-10639000D01*
X10045000Y-10587000D02*
G75*
G03*
X10045000Y-10587000I-52000J0D01*
G01*
X10182300Y-8007700D02*
X10286300Y-8111700D01*
X10286300Y-8007700D02*
X10182300Y-8111700D01*
X10286300Y-8059700D02*
G75*
G03*
X10286300Y-8059700I-52000J0D01*
G01*
X10195000Y-10535000D02*
X10299000Y-10639000D01*
X10299000Y-10535000D02*
X10195000Y-10639000D01*
X10299000Y-10587000D02*
G75*
G03*
X10299000Y-10587000I-52000J0D01*
G01*
X10436300Y-8007700D02*
X10540300Y-8111700D01*
X10540300Y-8007700D02*
X10436300Y-8111700D01*
X10540300Y-8059700D02*
G75*
G03*
X10540300Y-8059700I-52000J0D01*
G01*
X10449000Y-10535000D02*
X10553000Y-10639000D01*
X10553000Y-10535000D02*
X10449000Y-10639000D01*
X10553000Y-10587000D02*
G75*
G03*
X10553000Y-10587000I-52000J0D01*
G01*
X10690300Y-8007700D02*
X10794300Y-8111700D01*
X10794300Y-8007700D02*
X10690300Y-8111700D01*
X10794300Y-8059700D02*
G75*
G03*
X10794300Y-8059700I-52000J0D01*
G01*
X10703000Y-10535000D02*
X10807000Y-10639000D01*
X10807000Y-10535000D02*
X10703000Y-10639000D01*
X10807000Y-10587000D02*
G75*
G03*
X10807000Y-10587000I-52000J0D01*
G01*
X10944300Y-8007700D02*
X11048300Y-8111700D01*
X11048300Y-8007700D02*
X10944300Y-8111700D01*
X11048300Y-8059700D02*
G75*
G03*
X11048300Y-8059700I-52000J0D01*
G01*
X10957000Y-10535000D02*
X11061000Y-10639000D01*
X11061000Y-10535000D02*
X10957000Y-10639000D01*
X11061000Y-10587000D02*
G75*
G03*
X11061000Y-10587000I-52000J0D01*
G01*
X11198300Y-8007700D02*
X11302300Y-8111700D01*
X11302300Y-8007700D02*
X11198300Y-8111700D01*
X11302300Y-8059700D02*
G75*
G03*
X11302300Y-8059700I-52000J0D01*
G01*
X11211000Y-10535000D02*
X11315000Y-10639000D01*
X11315000Y-10535000D02*
X11211000Y-10639000D01*
X11315000Y-10587000D02*
G75*
G03*
X11315000Y-10587000I-52000J0D01*
G01*
X12094000Y-11852500D02*
X12414000Y-12172500D01*
X12414000Y-11852500D02*
X12094000Y-12172500D01*
X12254000Y-11852500D02*
X12254000Y-12172500D01*
X12094000Y-12012500D02*
X12414000Y-12012500D01*
X4594000Y-11852500D02*
X4914000Y-12172500D01*
X4914000Y-11852500D02*
X4594000Y-12172500D01*
X4754000Y-11852500D02*
X4754000Y-12172500D01*
X4594000Y-12012500D02*
X4914000Y-12012500D01*
X4594000Y-6352500D02*
X4914000Y-6672500D01*
X4914000Y-6352500D02*
X4594000Y-6672500D01*
X4754000Y-6352500D02*
X4754000Y-6672500D01*
X4594000Y-6512500D02*
X4914000Y-6512500D01*
X4473000Y-7991000D02*
X4793000Y-8311000D01*
X4793000Y-7991000D02*
X4473000Y-8311000D01*
X4633000Y-7991000D02*
X4633000Y-8311000D01*
X4473000Y-8151000D02*
X4793000Y-8151000D01*
X4473000Y-10491000D02*
X4793000Y-10811000D01*
X4793000Y-10491000D02*
X4473000Y-10811000D01*
X4633000Y-10491000D02*
X4633000Y-10811000D01*
X4473000Y-10651000D02*
X4793000Y-10651000D01*
D12*
X4187928Y-13303214D02*
X4187928Y-13003214D01*
X4259357Y-13003214D01*
X4302214Y-13017500D01*
X4330786Y-13046071D01*
X4345071Y-13074643D01*
X4359357Y-13131786D01*
X4359357Y-13174643D01*
X4345071Y-13231786D01*
X4330786Y-13260357D01*
X4302214Y-13288929D01*
X4259357Y-13303214D01*
X4187928Y-13303214D01*
X4487928Y-13303214D02*
X4487928Y-13103214D01*
X4487928Y-13160357D02*
X4502214Y-13131786D01*
X4516500Y-13117500D01*
X4545071Y-13103214D01*
X4573643Y-13103214D01*
X4673643Y-13303214D02*
X4673643Y-13103214D01*
X4673643Y-13003214D02*
X4659357Y-13017500D01*
X4673643Y-13031786D01*
X4687928Y-13017500D01*
X4673643Y-13003214D01*
X4673643Y-13031786D01*
X4859357Y-13303214D02*
X4830786Y-13288929D01*
X4816500Y-13260357D01*
X4816500Y-13003214D01*
X5016500Y-13303214D02*
X4987928Y-13288929D01*
X4973643Y-13260357D01*
X4973643Y-13003214D01*
X5359357Y-13303214D02*
X5359357Y-13003214D01*
X5459357Y-13217500D01*
X5559357Y-13003214D01*
X5559357Y-13303214D01*
X5830786Y-13303214D02*
X5830786Y-13146071D01*
X5816500Y-13117500D01*
X5787928Y-13103214D01*
X5730786Y-13103214D01*
X5702214Y-13117500D01*
X5830786Y-13288929D02*
X5802214Y-13303214D01*
X5730786Y-13303214D01*
X5702214Y-13288929D01*
X5687928Y-13260357D01*
X5687928Y-13231786D01*
X5702214Y-13203214D01*
X5730786Y-13188929D01*
X5802214Y-13188929D01*
X5830786Y-13174643D01*
X5973643Y-13103214D02*
X5973643Y-13403214D01*
X5973643Y-13117500D02*
X6002214Y-13103214D01*
X6059357Y-13103214D01*
X6087928Y-13117500D01*
X6102214Y-13131786D01*
X6116500Y-13160357D01*
X6116500Y-13246071D01*
X6102214Y-13274643D01*
X6087928Y-13288929D01*
X6059357Y-13303214D01*
X6002214Y-13303214D01*
X5973643Y-13288929D01*
X6245071Y-13274643D02*
X6259357Y-13288929D01*
X6245071Y-13303214D01*
X6230786Y-13288929D01*
X6245071Y-13274643D01*
X6245071Y-13303214D01*
X6245071Y-13117500D02*
X6259357Y-13131786D01*
X6245071Y-13146071D01*
X6230786Y-13131786D01*
X6245071Y-13117500D01*
X6245071Y-13146071D01*
X3861500Y-13777500D02*
X3901500Y-13817500D01*
X3901500Y-13777500D02*
X3861500Y-13817500D01*
X4245071Y-13633214D02*
X4273643Y-13633214D01*
X4302214Y-13647500D01*
X4316500Y-13661786D01*
X4330786Y-13690357D01*
X4345071Y-13747500D01*
X4345071Y-13818929D01*
X4330786Y-13876071D01*
X4316500Y-13904643D01*
X4302214Y-13918929D01*
X4273643Y-13933214D01*
X4245071Y-13933214D01*
X4216500Y-13918929D01*
X4202214Y-13904643D01*
X4187928Y-13876071D01*
X4173643Y-13818929D01*
X4173643Y-13747500D01*
X4187928Y-13690357D01*
X4202214Y-13661786D01*
X4216500Y-13647500D01*
X4245071Y-13633214D01*
X4473643Y-13904643D02*
X4487928Y-13918929D01*
X4473643Y-13933214D01*
X4459357Y-13918929D01*
X4473643Y-13904643D01*
X4473643Y-13933214D01*
X4745071Y-13733214D02*
X4745071Y-13933214D01*
X4673643Y-13618929D02*
X4602214Y-13833214D01*
X4787928Y-13833214D01*
X4959357Y-13633214D02*
X4987928Y-13633214D01*
X5016500Y-13647500D01*
X5030786Y-13661786D01*
X5045071Y-13690357D01*
X5059357Y-13747500D01*
X5059357Y-13818929D01*
X5045071Y-13876071D01*
X5030786Y-13904643D01*
X5016500Y-13918929D01*
X4987928Y-13933214D01*
X4959357Y-13933214D01*
X4930786Y-13918929D01*
X4916500Y-13904643D01*
X4902214Y-13876071D01*
X4887928Y-13818929D01*
X4887928Y-13747500D01*
X4902214Y-13690357D01*
X4916500Y-13661786D01*
X4930786Y-13647500D01*
X4959357Y-13633214D01*
X5187928Y-13933214D02*
X5187928Y-13733214D01*
X5187928Y-13761786D02*
X5202214Y-13747500D01*
X5230786Y-13733214D01*
X5273643Y-13733214D01*
X5302214Y-13747500D01*
X5316500Y-13776071D01*
X5316500Y-13933214D01*
X5316500Y-13776071D02*
X5330786Y-13747500D01*
X5359357Y-13733214D01*
X5402214Y-13733214D01*
X5430786Y-13747500D01*
X5445071Y-13776071D01*
X5445071Y-13933214D01*
X5587928Y-13933214D02*
X5587928Y-13733214D01*
X5587928Y-13761786D02*
X5602214Y-13747500D01*
X5630786Y-13733214D01*
X5673643Y-13733214D01*
X5702214Y-13747500D01*
X5716500Y-13776071D01*
X5716500Y-13933214D01*
X5716500Y-13776071D02*
X5730786Y-13747500D01*
X5759357Y-13733214D01*
X5802214Y-13733214D01*
X5830786Y-13747500D01*
X5845071Y-13776071D01*
X5845071Y-13933214D01*
X6430786Y-13618929D02*
X6173643Y-14004643D01*
X6816500Y-13633214D02*
X6845071Y-13633214D01*
X6873643Y-13647500D01*
X6887928Y-13661786D01*
X6902214Y-13690357D01*
X6916500Y-13747500D01*
X6916500Y-13818929D01*
X6902214Y-13876071D01*
X6887928Y-13904643D01*
X6873643Y-13918929D01*
X6845071Y-13933214D01*
X6816500Y-13933214D01*
X6787928Y-13918929D01*
X6773643Y-13904643D01*
X6759357Y-13876071D01*
X6745071Y-13818929D01*
X6745071Y-13747500D01*
X6759357Y-13690357D01*
X6773643Y-13661786D01*
X6787928Y-13647500D01*
X6816500Y-13633214D01*
X7045071Y-13904643D02*
X7059357Y-13918929D01*
X7045071Y-13933214D01*
X7030786Y-13918929D01*
X7045071Y-13904643D01*
X7045071Y-13933214D01*
X7245071Y-13633214D02*
X7273643Y-13633214D01*
X7302214Y-13647500D01*
X7316500Y-13661786D01*
X7330786Y-13690357D01*
X7345071Y-13747500D01*
X7345071Y-13818929D01*
X7330786Y-13876071D01*
X7316500Y-13904643D01*
X7302214Y-13918929D01*
X7273643Y-13933214D01*
X7245071Y-13933214D01*
X7216500Y-13918929D01*
X7202214Y-13904643D01*
X7187928Y-13876071D01*
X7173643Y-13818929D01*
X7173643Y-13747500D01*
X7187928Y-13690357D01*
X7202214Y-13661786D01*
X7216500Y-13647500D01*
X7245071Y-13633214D01*
X7630786Y-13933214D02*
X7459357Y-13933214D01*
X7545071Y-13933214D02*
X7545071Y-13633214D01*
X7516500Y-13676071D01*
X7487928Y-13704643D01*
X7459357Y-13718929D01*
X7887928Y-13633214D02*
X7830786Y-13633214D01*
X7802214Y-13647500D01*
X7787928Y-13661786D01*
X7759357Y-13704643D01*
X7745071Y-13761786D01*
X7745071Y-13876071D01*
X7759357Y-13904643D01*
X7773643Y-13918929D01*
X7802214Y-13933214D01*
X7859357Y-13933214D01*
X7887928Y-13918929D01*
X7902214Y-13904643D01*
X7916500Y-13876071D01*
X7916500Y-13804643D01*
X7902214Y-13776071D01*
X7887928Y-13761786D01*
X7859357Y-13747500D01*
X7802214Y-13747500D01*
X7773643Y-13761786D01*
X7759357Y-13776071D01*
X7745071Y-13804643D01*
X8030786Y-13633214D02*
X8030786Y-13690357D01*
X8145071Y-13633214D02*
X8145071Y-13690357D01*
X8587928Y-14047500D02*
X8573643Y-14033214D01*
X8545071Y-13990357D01*
X8530786Y-13961786D01*
X8516500Y-13918929D01*
X8502214Y-13847500D01*
X8502214Y-13790357D01*
X8516500Y-13718929D01*
X8530786Y-13676071D01*
X8545071Y-13647500D01*
X8573643Y-13604643D01*
X8587928Y-13590357D01*
X8830786Y-13733214D02*
X8830786Y-13933214D01*
X8759357Y-13618929D02*
X8687928Y-13833214D01*
X8873643Y-13833214D01*
X9116500Y-13733214D02*
X9116500Y-13933214D01*
X9045071Y-13618929D02*
X8973643Y-13833214D01*
X9159357Y-13833214D01*
X9502214Y-13933214D02*
X9502214Y-13633214D01*
X9630786Y-13933214D02*
X9630786Y-13776071D01*
X9616500Y-13747500D01*
X9587928Y-13733214D01*
X9545071Y-13733214D01*
X9516500Y-13747500D01*
X9502214Y-13761786D01*
X9816500Y-13933214D02*
X9787928Y-13918929D01*
X9773643Y-13904643D01*
X9759357Y-13876071D01*
X9759357Y-13790357D01*
X9773643Y-13761786D01*
X9787928Y-13747500D01*
X9816500Y-13733214D01*
X9859357Y-13733214D01*
X9887928Y-13747500D01*
X9902214Y-13761786D01*
X9916500Y-13790357D01*
X9916500Y-13876071D01*
X9902214Y-13904643D01*
X9887928Y-13918929D01*
X9859357Y-13933214D01*
X9816500Y-13933214D01*
X10087928Y-13933214D02*
X10059357Y-13918929D01*
X10045071Y-13890357D01*
X10045071Y-13633214D01*
X10316500Y-13918929D02*
X10287928Y-13933214D01*
X10230786Y-13933214D01*
X10202214Y-13918929D01*
X10187928Y-13890357D01*
X10187928Y-13776071D01*
X10202214Y-13747500D01*
X10230786Y-13733214D01*
X10287928Y-13733214D01*
X10316500Y-13747500D01*
X10330786Y-13776071D01*
X10330786Y-13804643D01*
X10187928Y-13833214D01*
X10445071Y-13918929D02*
X10473643Y-13933214D01*
X10530786Y-13933214D01*
X10559357Y-13918929D01*
X10573643Y-13890357D01*
X10573643Y-13876071D01*
X10559357Y-13847500D01*
X10530786Y-13833214D01*
X10487928Y-13833214D01*
X10459357Y-13818929D01*
X10445071Y-13790357D01*
X10445071Y-13776071D01*
X10459357Y-13747500D01*
X10487928Y-13733214D01*
X10530786Y-13733214D01*
X10559357Y-13747500D01*
X10673643Y-14047500D02*
X10687928Y-14033214D01*
X10716500Y-13990357D01*
X10730786Y-13961786D01*
X10745071Y-13918929D01*
X10759357Y-13847500D01*
X10759357Y-13790357D01*
X10745071Y-13718929D01*
X10730786Y-13676071D01*
X10716500Y-13647500D01*
X10687928Y-13604643D01*
X10673643Y-13590357D01*
X3901500Y-14193500D02*
G75*
G03*
X3901500Y-14193500I-25000J0D01*
G01*
X4245071Y-14029214D02*
X4273643Y-14029214D01*
X4302214Y-14043500D01*
X4316500Y-14057786D01*
X4330786Y-14086357D01*
X4345071Y-14143500D01*
X4345071Y-14214929D01*
X4330786Y-14272071D01*
X4316500Y-14300643D01*
X4302214Y-14314929D01*
X4273643Y-14329214D01*
X4245071Y-14329214D01*
X4216500Y-14314929D01*
X4202214Y-14300643D01*
X4187928Y-14272071D01*
X4173643Y-14214929D01*
X4173643Y-14143500D01*
X4187928Y-14086357D01*
X4202214Y-14057786D01*
X4216500Y-14043500D01*
X4245071Y-14029214D01*
X4473643Y-14300643D02*
X4487928Y-14314929D01*
X4473643Y-14329214D01*
X4459357Y-14314929D01*
X4473643Y-14300643D01*
X4473643Y-14329214D01*
X4759357Y-14029214D02*
X4616500Y-14029214D01*
X4602214Y-14172071D01*
X4616500Y-14157786D01*
X4645071Y-14143500D01*
X4716500Y-14143500D01*
X4745071Y-14157786D01*
X4759357Y-14172071D01*
X4773643Y-14200643D01*
X4773643Y-14272071D01*
X4759357Y-14300643D01*
X4745071Y-14314929D01*
X4716500Y-14329214D01*
X4645071Y-14329214D01*
X4616500Y-14314929D01*
X4602214Y-14300643D01*
X4959357Y-14029214D02*
X4987928Y-14029214D01*
X5016500Y-14043500D01*
X5030786Y-14057786D01*
X5045071Y-14086357D01*
X5059357Y-14143500D01*
X5059357Y-14214929D01*
X5045071Y-14272071D01*
X5030786Y-14300643D01*
X5016500Y-14314929D01*
X4987928Y-14329214D01*
X4959357Y-14329214D01*
X4930786Y-14314929D01*
X4916500Y-14300643D01*
X4902214Y-14272071D01*
X4887928Y-14214929D01*
X4887928Y-14143500D01*
X4902214Y-14086357D01*
X4916500Y-14057786D01*
X4930786Y-14043500D01*
X4959357Y-14029214D01*
X5187928Y-14329214D02*
X5187928Y-14129214D01*
X5187928Y-14157786D02*
X5202214Y-14143500D01*
X5230786Y-14129214D01*
X5273643Y-14129214D01*
X5302214Y-14143500D01*
X5316500Y-14172071D01*
X5316500Y-14329214D01*
X5316500Y-14172071D02*
X5330786Y-14143500D01*
X5359357Y-14129214D01*
X5402214Y-14129214D01*
X5430786Y-14143500D01*
X5445071Y-14172071D01*
X5445071Y-14329214D01*
X5587928Y-14329214D02*
X5587928Y-14129214D01*
X5587928Y-14157786D02*
X5602214Y-14143500D01*
X5630786Y-14129214D01*
X5673643Y-14129214D01*
X5702214Y-14143500D01*
X5716500Y-14172071D01*
X5716500Y-14329214D01*
X5716500Y-14172071D02*
X5730786Y-14143500D01*
X5759357Y-14129214D01*
X5802214Y-14129214D01*
X5830786Y-14143500D01*
X5845071Y-14172071D01*
X5845071Y-14329214D01*
X6430786Y-14014929D02*
X6173643Y-14400643D01*
X6816500Y-14029214D02*
X6845071Y-14029214D01*
X6873643Y-14043500D01*
X6887928Y-14057786D01*
X6902214Y-14086357D01*
X6916500Y-14143500D01*
X6916500Y-14214929D01*
X6902214Y-14272071D01*
X6887928Y-14300643D01*
X6873643Y-14314929D01*
X6845071Y-14329214D01*
X6816500Y-14329214D01*
X6787928Y-14314929D01*
X6773643Y-14300643D01*
X6759357Y-14272071D01*
X6745071Y-14214929D01*
X6745071Y-14143500D01*
X6759357Y-14086357D01*
X6773643Y-14057786D01*
X6787928Y-14043500D01*
X6816500Y-14029214D01*
X7045071Y-14300643D02*
X7059357Y-14314929D01*
X7045071Y-14329214D01*
X7030786Y-14314929D01*
X7045071Y-14300643D01*
X7045071Y-14329214D01*
X7245071Y-14029214D02*
X7273643Y-14029214D01*
X7302214Y-14043500D01*
X7316500Y-14057786D01*
X7330786Y-14086357D01*
X7345071Y-14143500D01*
X7345071Y-14214929D01*
X7330786Y-14272071D01*
X7316500Y-14300643D01*
X7302214Y-14314929D01*
X7273643Y-14329214D01*
X7245071Y-14329214D01*
X7216500Y-14314929D01*
X7202214Y-14300643D01*
X7187928Y-14272071D01*
X7173643Y-14214929D01*
X7173643Y-14143500D01*
X7187928Y-14086357D01*
X7202214Y-14057786D01*
X7216500Y-14043500D01*
X7245071Y-14029214D01*
X7459357Y-14057786D02*
X7473643Y-14043500D01*
X7502214Y-14029214D01*
X7573643Y-14029214D01*
X7602214Y-14043500D01*
X7616500Y-14057786D01*
X7630786Y-14086357D01*
X7630786Y-14114929D01*
X7616500Y-14157786D01*
X7445071Y-14329214D01*
X7630786Y-14329214D01*
X7816500Y-14029214D02*
X7845071Y-14029214D01*
X7873643Y-14043500D01*
X7887928Y-14057786D01*
X7902214Y-14086357D01*
X7916500Y-14143500D01*
X7916500Y-14214929D01*
X7902214Y-14272071D01*
X7887928Y-14300643D01*
X7873643Y-14314929D01*
X7845071Y-14329214D01*
X7816500Y-14329214D01*
X7787928Y-14314929D01*
X7773643Y-14300643D01*
X7759357Y-14272071D01*
X7745071Y-14214929D01*
X7745071Y-14143500D01*
X7759357Y-14086357D01*
X7773643Y-14057786D01*
X7787928Y-14043500D01*
X7816500Y-14029214D01*
X8030786Y-14029214D02*
X8030786Y-14086357D01*
X8145071Y-14029214D02*
X8145071Y-14086357D01*
X8587928Y-14443500D02*
X8573643Y-14429214D01*
X8545071Y-14386357D01*
X8530786Y-14357786D01*
X8516500Y-14314929D01*
X8502214Y-14243500D01*
X8502214Y-14186357D01*
X8516500Y-14114929D01*
X8530786Y-14072071D01*
X8545071Y-14043500D01*
X8573643Y-14000643D01*
X8587928Y-13986357D01*
X8859357Y-14329214D02*
X8687928Y-14329214D01*
X8773643Y-14329214D02*
X8773643Y-14029214D01*
X8745071Y-14072071D01*
X8716500Y-14100643D01*
X8687928Y-14114929D01*
X9045071Y-14029214D02*
X9073643Y-14029214D01*
X9102214Y-14043500D01*
X9116500Y-14057786D01*
X9130786Y-14086357D01*
X9145071Y-14143500D01*
X9145071Y-14214929D01*
X9130786Y-14272071D01*
X9116500Y-14300643D01*
X9102214Y-14314929D01*
X9073643Y-14329214D01*
X9045071Y-14329214D01*
X9016500Y-14314929D01*
X9002214Y-14300643D01*
X8987928Y-14272071D01*
X8973643Y-14214929D01*
X8973643Y-14143500D01*
X8987928Y-14086357D01*
X9002214Y-14057786D01*
X9016500Y-14043500D01*
X9045071Y-14029214D01*
X9502214Y-14329214D02*
X9502214Y-14029214D01*
X9630786Y-14329214D02*
X9630786Y-14172071D01*
X9616500Y-14143500D01*
X9587928Y-14129214D01*
X9545071Y-14129214D01*
X9516500Y-14143500D01*
X9502214Y-14157786D01*
X9816500Y-14329214D02*
X9787928Y-14314929D01*
X9773643Y-14300643D01*
X9759357Y-14272071D01*
X9759357Y-14186357D01*
X9773643Y-14157786D01*
X9787928Y-14143500D01*
X9816500Y-14129214D01*
X9859357Y-14129214D01*
X9887928Y-14143500D01*
X9902214Y-14157786D01*
X9916500Y-14186357D01*
X9916500Y-14272071D01*
X9902214Y-14300643D01*
X9887928Y-14314929D01*
X9859357Y-14329214D01*
X9816500Y-14329214D01*
X10087928Y-14329214D02*
X10059357Y-14314929D01*
X10045071Y-14286357D01*
X10045071Y-14029214D01*
X10316500Y-14314929D02*
X10287928Y-14329214D01*
X10230786Y-14329214D01*
X10202214Y-14314929D01*
X10187928Y-14286357D01*
X10187928Y-14172071D01*
X10202214Y-14143500D01*
X10230786Y-14129214D01*
X10287928Y-14129214D01*
X10316500Y-14143500D01*
X10330786Y-14172071D01*
X10330786Y-14200643D01*
X10187928Y-14229214D01*
X10445071Y-14314929D02*
X10473643Y-14329214D01*
X10530786Y-14329214D01*
X10559357Y-14314929D01*
X10573643Y-14286357D01*
X10573643Y-14272071D01*
X10559357Y-14243500D01*
X10530786Y-14229214D01*
X10487928Y-14229214D01*
X10459357Y-14214929D01*
X10445071Y-14186357D01*
X10445071Y-14172071D01*
X10459357Y-14143500D01*
X10487928Y-14129214D01*
X10530786Y-14129214D01*
X10559357Y-14143500D01*
X10673643Y-14443500D02*
X10687928Y-14429214D01*
X10716500Y-14386357D01*
X10730786Y-14357786D01*
X10745071Y-14314929D01*
X10759357Y-14243500D01*
X10759357Y-14186357D01*
X10745071Y-14114929D01*
X10730786Y-14072071D01*
X10716500Y-14043500D01*
X10687928Y-14000643D01*
X10673643Y-13986357D01*
X3861500Y-14549500D02*
X3861500Y-14629500D01*
X3821500Y-14589500D02*
X3901500Y-14589500D01*
X4245071Y-14425214D02*
X4273643Y-14425214D01*
X4302214Y-14439500D01*
X4316500Y-14453786D01*
X4330786Y-14482357D01*
X4345071Y-14539500D01*
X4345071Y-14610929D01*
X4330786Y-14668071D01*
X4316500Y-14696643D01*
X4302214Y-14710929D01*
X4273643Y-14725214D01*
X4245071Y-14725214D01*
X4216500Y-14710929D01*
X4202214Y-14696643D01*
X4187928Y-14668071D01*
X4173643Y-14610929D01*
X4173643Y-14539500D01*
X4187928Y-14482357D01*
X4202214Y-14453786D01*
X4216500Y-14439500D01*
X4245071Y-14425214D01*
X4473643Y-14696643D02*
X4487928Y-14710929D01*
X4473643Y-14725214D01*
X4459357Y-14710929D01*
X4473643Y-14696643D01*
X4473643Y-14725214D01*
X4659357Y-14553786D02*
X4630786Y-14539500D01*
X4616500Y-14525214D01*
X4602214Y-14496643D01*
X4602214Y-14482357D01*
X4616500Y-14453786D01*
X4630786Y-14439500D01*
X4659357Y-14425214D01*
X4716500Y-14425214D01*
X4745071Y-14439500D01*
X4759357Y-14453786D01*
X4773643Y-14482357D01*
X4773643Y-14496643D01*
X4759357Y-14525214D01*
X4745071Y-14539500D01*
X4716500Y-14553786D01*
X4659357Y-14553786D01*
X4630786Y-14568071D01*
X4616500Y-14582357D01*
X4602214Y-14610929D01*
X4602214Y-14668071D01*
X4616500Y-14696643D01*
X4630786Y-14710929D01*
X4659357Y-14725214D01*
X4716500Y-14725214D01*
X4745071Y-14710929D01*
X4759357Y-14696643D01*
X4773643Y-14668071D01*
X4773643Y-14610929D01*
X4759357Y-14582357D01*
X4745071Y-14568071D01*
X4716500Y-14553786D01*
X4959357Y-14425214D02*
X4987928Y-14425214D01*
X5016500Y-14439500D01*
X5030786Y-14453786D01*
X5045071Y-14482357D01*
X5059357Y-14539500D01*
X5059357Y-14610929D01*
X5045071Y-14668071D01*
X5030786Y-14696643D01*
X5016500Y-14710929D01*
X4987928Y-14725214D01*
X4959357Y-14725214D01*
X4930786Y-14710929D01*
X4916500Y-14696643D01*
X4902214Y-14668071D01*
X4887928Y-14610929D01*
X4887928Y-14539500D01*
X4902214Y-14482357D01*
X4916500Y-14453786D01*
X4930786Y-14439500D01*
X4959357Y-14425214D01*
X5187928Y-14725214D02*
X5187928Y-14525214D01*
X5187928Y-14553786D02*
X5202214Y-14539500D01*
X5230786Y-14525214D01*
X5273643Y-14525214D01*
X5302214Y-14539500D01*
X5316500Y-14568071D01*
X5316500Y-14725214D01*
X5316500Y-14568071D02*
X5330786Y-14539500D01*
X5359357Y-14525214D01*
X5402214Y-14525214D01*
X5430786Y-14539500D01*
X5445071Y-14568071D01*
X5445071Y-14725214D01*
X5587928Y-14725214D02*
X5587928Y-14525214D01*
X5587928Y-14553786D02*
X5602214Y-14539500D01*
X5630786Y-14525214D01*
X5673643Y-14525214D01*
X5702214Y-14539500D01*
X5716500Y-14568071D01*
X5716500Y-14725214D01*
X5716500Y-14568071D02*
X5730786Y-14539500D01*
X5759357Y-14525214D01*
X5802214Y-14525214D01*
X5830786Y-14539500D01*
X5845071Y-14568071D01*
X5845071Y-14725214D01*
X6430786Y-14410929D02*
X6173643Y-14796643D01*
X6816500Y-14425214D02*
X6845071Y-14425214D01*
X6873643Y-14439500D01*
X6887928Y-14453786D01*
X6902214Y-14482357D01*
X6916500Y-14539500D01*
X6916500Y-14610929D01*
X6902214Y-14668071D01*
X6887928Y-14696643D01*
X6873643Y-14710929D01*
X6845071Y-14725214D01*
X6816500Y-14725214D01*
X6787928Y-14710929D01*
X6773643Y-14696643D01*
X6759357Y-14668071D01*
X6745071Y-14610929D01*
X6745071Y-14539500D01*
X6759357Y-14482357D01*
X6773643Y-14453786D01*
X6787928Y-14439500D01*
X6816500Y-14425214D01*
X7045071Y-14696643D02*
X7059357Y-14710929D01*
X7045071Y-14725214D01*
X7030786Y-14710929D01*
X7045071Y-14696643D01*
X7045071Y-14725214D01*
X7245071Y-14425214D02*
X7273643Y-14425214D01*
X7302214Y-14439500D01*
X7316500Y-14453786D01*
X7330786Y-14482357D01*
X7345071Y-14539500D01*
X7345071Y-14610929D01*
X7330786Y-14668071D01*
X7316500Y-14696643D01*
X7302214Y-14710929D01*
X7273643Y-14725214D01*
X7245071Y-14725214D01*
X7216500Y-14710929D01*
X7202214Y-14696643D01*
X7187928Y-14668071D01*
X7173643Y-14610929D01*
X7173643Y-14539500D01*
X7187928Y-14482357D01*
X7202214Y-14453786D01*
X7216500Y-14439500D01*
X7245071Y-14425214D01*
X7445071Y-14425214D02*
X7630786Y-14425214D01*
X7530786Y-14539500D01*
X7573643Y-14539500D01*
X7602214Y-14553786D01*
X7616500Y-14568071D01*
X7630786Y-14596643D01*
X7630786Y-14668071D01*
X7616500Y-14696643D01*
X7602214Y-14710929D01*
X7573643Y-14725214D01*
X7487928Y-14725214D01*
X7459357Y-14710929D01*
X7445071Y-14696643D01*
X7916500Y-14725214D02*
X7745071Y-14725214D01*
X7830786Y-14725214D02*
X7830786Y-14425214D01*
X7802214Y-14468071D01*
X7773643Y-14496643D01*
X7745071Y-14510929D01*
X8030786Y-14425214D02*
X8030786Y-14482357D01*
X8145071Y-14425214D02*
X8145071Y-14482357D01*
X8587928Y-14839500D02*
X8573643Y-14825214D01*
X8545071Y-14782357D01*
X8530786Y-14753786D01*
X8516500Y-14710929D01*
X8502214Y-14639500D01*
X8502214Y-14582357D01*
X8516500Y-14510929D01*
X8530786Y-14468071D01*
X8545071Y-14439500D01*
X8573643Y-14396643D01*
X8587928Y-14382357D01*
X8687928Y-14453786D02*
X8702214Y-14439500D01*
X8730786Y-14425214D01*
X8802214Y-14425214D01*
X8830786Y-14439500D01*
X8845071Y-14453786D01*
X8859357Y-14482357D01*
X8859357Y-14510929D01*
X8845071Y-14553786D01*
X8673643Y-14725214D01*
X8859357Y-14725214D01*
X9216500Y-14725214D02*
X9216500Y-14425214D01*
X9345071Y-14725214D02*
X9345071Y-14568071D01*
X9330786Y-14539500D01*
X9302214Y-14525214D01*
X9259357Y-14525214D01*
X9230786Y-14539500D01*
X9216500Y-14553786D01*
X9530786Y-14725214D02*
X9502214Y-14710929D01*
X9487928Y-14696643D01*
X9473643Y-14668071D01*
X9473643Y-14582357D01*
X9487928Y-14553786D01*
X9502214Y-14539500D01*
X9530786Y-14525214D01*
X9573643Y-14525214D01*
X9602214Y-14539500D01*
X9616500Y-14553786D01*
X9630786Y-14582357D01*
X9630786Y-14668071D01*
X9616500Y-14696643D01*
X9602214Y-14710929D01*
X9573643Y-14725214D01*
X9530786Y-14725214D01*
X9802214Y-14725214D02*
X9773643Y-14710929D01*
X9759357Y-14682357D01*
X9759357Y-14425214D01*
X10030786Y-14710929D02*
X10002214Y-14725214D01*
X9945071Y-14725214D01*
X9916500Y-14710929D01*
X9902214Y-14682357D01*
X9902214Y-14568071D01*
X9916500Y-14539500D01*
X9945071Y-14525214D01*
X10002214Y-14525214D01*
X10030786Y-14539500D01*
X10045071Y-14568071D01*
X10045071Y-14596643D01*
X9902214Y-14625214D01*
X10159357Y-14710929D02*
X10187928Y-14725214D01*
X10245071Y-14725214D01*
X10273643Y-14710929D01*
X10287928Y-14682357D01*
X10287928Y-14668071D01*
X10273643Y-14639500D01*
X10245071Y-14625214D01*
X10202214Y-14625214D01*
X10173643Y-14610929D01*
X10159357Y-14582357D01*
X10159357Y-14568071D01*
X10173643Y-14539500D01*
X10202214Y-14525214D01*
X10245071Y-14525214D01*
X10273643Y-14539500D01*
X10387928Y-14839500D02*
X10402214Y-14825214D01*
X10430786Y-14782357D01*
X10445071Y-14753786D01*
X10459357Y-14710929D01*
X10473643Y-14639500D01*
X10473643Y-14582357D01*
X10459357Y-14510929D01*
X10445071Y-14468071D01*
X10430786Y-14439500D01*
X10402214Y-14396643D01*
X10387928Y-14382357D01*
X3888320Y-15017320D02*
X3888320Y-14953680D01*
X3824680Y-14953680D01*
X3824680Y-15017320D01*
X3888320Y-15017320D01*
X4245071Y-14821214D02*
X4273643Y-14821214D01*
X4302214Y-14835500D01*
X4316500Y-14849786D01*
X4330786Y-14878357D01*
X4345071Y-14935500D01*
X4345071Y-15006929D01*
X4330786Y-15064071D01*
X4316500Y-15092643D01*
X4302214Y-15106929D01*
X4273643Y-15121214D01*
X4245071Y-15121214D01*
X4216500Y-15106929D01*
X4202214Y-15092643D01*
X4187928Y-15064071D01*
X4173643Y-15006929D01*
X4173643Y-14935500D01*
X4187928Y-14878357D01*
X4202214Y-14849786D01*
X4216500Y-14835500D01*
X4245071Y-14821214D01*
X4473643Y-15092643D02*
X4487928Y-15106929D01*
X4473643Y-15121214D01*
X4459357Y-15106929D01*
X4473643Y-15092643D01*
X4473643Y-15121214D01*
X4630786Y-15121214D02*
X4687928Y-15121214D01*
X4716500Y-15106929D01*
X4730786Y-15092643D01*
X4759357Y-15049786D01*
X4773643Y-14992643D01*
X4773643Y-14878357D01*
X4759357Y-14849786D01*
X4745071Y-14835500D01*
X4716500Y-14821214D01*
X4659357Y-14821214D01*
X4630786Y-14835500D01*
X4616500Y-14849786D01*
X4602214Y-14878357D01*
X4602214Y-14949786D01*
X4616500Y-14978357D01*
X4630786Y-14992643D01*
X4659357Y-15006929D01*
X4716500Y-15006929D01*
X4745071Y-14992643D01*
X4759357Y-14978357D01*
X4773643Y-14949786D01*
X4959357Y-14821214D02*
X4987928Y-14821214D01*
X5016500Y-14835500D01*
X5030786Y-14849786D01*
X5045071Y-14878357D01*
X5059357Y-14935500D01*
X5059357Y-15006929D01*
X5045071Y-15064071D01*
X5030786Y-15092643D01*
X5016500Y-15106929D01*
X4987928Y-15121214D01*
X4959357Y-15121214D01*
X4930786Y-15106929D01*
X4916500Y-15092643D01*
X4902214Y-15064071D01*
X4887928Y-15006929D01*
X4887928Y-14935500D01*
X4902214Y-14878357D01*
X4916500Y-14849786D01*
X4930786Y-14835500D01*
X4959357Y-14821214D01*
X5187928Y-15121214D02*
X5187928Y-14921214D01*
X5187928Y-14949786D02*
X5202214Y-14935500D01*
X5230786Y-14921214D01*
X5273643Y-14921214D01*
X5302214Y-14935500D01*
X5316500Y-14964071D01*
X5316500Y-15121214D01*
X5316500Y-14964071D02*
X5330786Y-14935500D01*
X5359357Y-14921214D01*
X5402214Y-14921214D01*
X5430786Y-14935500D01*
X5445071Y-14964071D01*
X5445071Y-15121214D01*
X5587928Y-15121214D02*
X5587928Y-14921214D01*
X5587928Y-14949786D02*
X5602214Y-14935500D01*
X5630786Y-14921214D01*
X5673643Y-14921214D01*
X5702214Y-14935500D01*
X5716500Y-14964071D01*
X5716500Y-15121214D01*
X5716500Y-14964071D02*
X5730786Y-14935500D01*
X5759357Y-14921214D01*
X5802214Y-14921214D01*
X5830786Y-14935500D01*
X5845071Y-14964071D01*
X5845071Y-15121214D01*
X6430786Y-14806929D02*
X6173643Y-15192643D01*
X6816500Y-14821214D02*
X6845071Y-14821214D01*
X6873643Y-14835500D01*
X6887928Y-14849786D01*
X6902214Y-14878357D01*
X6916500Y-14935500D01*
X6916500Y-15006929D01*
X6902214Y-15064071D01*
X6887928Y-15092643D01*
X6873643Y-15106929D01*
X6845071Y-15121214D01*
X6816500Y-15121214D01*
X6787928Y-15106929D01*
X6773643Y-15092643D01*
X6759357Y-15064071D01*
X6745071Y-15006929D01*
X6745071Y-14935500D01*
X6759357Y-14878357D01*
X6773643Y-14849786D01*
X6787928Y-14835500D01*
X6816500Y-14821214D01*
X7045071Y-15092643D02*
X7059357Y-15106929D01*
X7045071Y-15121214D01*
X7030786Y-15106929D01*
X7045071Y-15092643D01*
X7045071Y-15121214D01*
X7245071Y-14821214D02*
X7273643Y-14821214D01*
X7302214Y-14835500D01*
X7316500Y-14849786D01*
X7330786Y-14878357D01*
X7345071Y-14935500D01*
X7345071Y-15006929D01*
X7330786Y-15064071D01*
X7316500Y-15092643D01*
X7302214Y-15106929D01*
X7273643Y-15121214D01*
X7245071Y-15121214D01*
X7216500Y-15106929D01*
X7202214Y-15092643D01*
X7187928Y-15064071D01*
X7173643Y-15006929D01*
X7173643Y-14935500D01*
X7187928Y-14878357D01*
X7202214Y-14849786D01*
X7216500Y-14835500D01*
X7245071Y-14821214D01*
X7445071Y-14821214D02*
X7630786Y-14821214D01*
X7530786Y-14935500D01*
X7573643Y-14935500D01*
X7602214Y-14949786D01*
X7616500Y-14964071D01*
X7630786Y-14992643D01*
X7630786Y-15064071D01*
X7616500Y-15092643D01*
X7602214Y-15106929D01*
X7573643Y-15121214D01*
X7487928Y-15121214D01*
X7459357Y-15106929D01*
X7445071Y-15092643D01*
X7902214Y-14821214D02*
X7759357Y-14821214D01*
X7745071Y-14964071D01*
X7759357Y-14949786D01*
X7787928Y-14935500D01*
X7859357Y-14935500D01*
X7887928Y-14949786D01*
X7902214Y-14964071D01*
X7916500Y-14992643D01*
X7916500Y-15064071D01*
X7902214Y-15092643D01*
X7887928Y-15106929D01*
X7859357Y-15121214D01*
X7787928Y-15121214D01*
X7759357Y-15106929D01*
X7745071Y-15092643D01*
X8030786Y-14821214D02*
X8030786Y-14878357D01*
X8145071Y-14821214D02*
X8145071Y-14878357D01*
X8587928Y-15235500D02*
X8573643Y-15221214D01*
X8545071Y-15178357D01*
X8530786Y-15149786D01*
X8516500Y-15106929D01*
X8502214Y-15035500D01*
X8502214Y-14978357D01*
X8516500Y-14906929D01*
X8530786Y-14864071D01*
X8545071Y-14835500D01*
X8573643Y-14792643D01*
X8587928Y-14778357D01*
X8745071Y-14949786D02*
X8716500Y-14935500D01*
X8702214Y-14921214D01*
X8687928Y-14892643D01*
X8687928Y-14878357D01*
X8702214Y-14849786D01*
X8716500Y-14835500D01*
X8745071Y-14821214D01*
X8802214Y-14821214D01*
X8830786Y-14835500D01*
X8845071Y-14849786D01*
X8859357Y-14878357D01*
X8859357Y-14892643D01*
X8845071Y-14921214D01*
X8830786Y-14935500D01*
X8802214Y-14949786D01*
X8745071Y-14949786D01*
X8716500Y-14964071D01*
X8702214Y-14978357D01*
X8687928Y-15006929D01*
X8687928Y-15064071D01*
X8702214Y-15092643D01*
X8716500Y-15106929D01*
X8745071Y-15121214D01*
X8802214Y-15121214D01*
X8830786Y-15106929D01*
X8845071Y-15092643D01*
X8859357Y-15064071D01*
X8859357Y-15006929D01*
X8845071Y-14978357D01*
X8830786Y-14964071D01*
X8802214Y-14949786D01*
X9216500Y-15121214D02*
X9216500Y-14821214D01*
X9345071Y-15121214D02*
X9345071Y-14964071D01*
X9330786Y-14935500D01*
X9302214Y-14921214D01*
X9259357Y-14921214D01*
X9230786Y-14935500D01*
X9216500Y-14949786D01*
X9530786Y-15121214D02*
X9502214Y-15106929D01*
X9487928Y-15092643D01*
X9473643Y-15064071D01*
X9473643Y-14978357D01*
X9487928Y-14949786D01*
X9502214Y-14935500D01*
X9530786Y-14921214D01*
X9573643Y-14921214D01*
X9602214Y-14935500D01*
X9616500Y-14949786D01*
X9630786Y-14978357D01*
X9630786Y-15064071D01*
X9616500Y-15092643D01*
X9602214Y-15106929D01*
X9573643Y-15121214D01*
X9530786Y-15121214D01*
X9802214Y-15121214D02*
X9773643Y-15106929D01*
X9759357Y-15078357D01*
X9759357Y-14821214D01*
X10030786Y-15106929D02*
X10002214Y-15121214D01*
X9945071Y-15121214D01*
X9916500Y-15106929D01*
X9902214Y-15078357D01*
X9902214Y-14964071D01*
X9916500Y-14935500D01*
X9945071Y-14921214D01*
X10002214Y-14921214D01*
X10030786Y-14935500D01*
X10045071Y-14964071D01*
X10045071Y-14992643D01*
X9902214Y-15021214D01*
X10159357Y-15106929D02*
X10187928Y-15121214D01*
X10245071Y-15121214D01*
X10273643Y-15106929D01*
X10287928Y-15078357D01*
X10287928Y-15064071D01*
X10273643Y-15035500D01*
X10245071Y-15021214D01*
X10202214Y-15021214D01*
X10173643Y-15006929D01*
X10159357Y-14978357D01*
X10159357Y-14964071D01*
X10173643Y-14935500D01*
X10202214Y-14921214D01*
X10245071Y-14921214D01*
X10273643Y-14935500D01*
X10387928Y-15235500D02*
X10402214Y-15221214D01*
X10430786Y-15178357D01*
X10445071Y-15149786D01*
X10459357Y-15106929D01*
X10473643Y-15035500D01*
X10473643Y-14978357D01*
X10459357Y-14906929D01*
X10445071Y-14864071D01*
X10430786Y-14835500D01*
X10402214Y-14792643D01*
X10387928Y-14778357D01*
X3851500Y-15431500D02*
X3901500Y-15381500D01*
X3851500Y-15331500D01*
X3801500Y-15381500D01*
X3851500Y-15431500D01*
X4345071Y-15517214D02*
X4173643Y-15517214D01*
X4259357Y-15517214D02*
X4259357Y-15217214D01*
X4230786Y-15260071D01*
X4202214Y-15288643D01*
X4173643Y-15302929D01*
X4473643Y-15488643D02*
X4487928Y-15502929D01*
X4473643Y-15517214D01*
X4459357Y-15502929D01*
X4473643Y-15488643D01*
X4473643Y-15517214D01*
X4673643Y-15217214D02*
X4702214Y-15217214D01*
X4730786Y-15231500D01*
X4745071Y-15245786D01*
X4759357Y-15274357D01*
X4773643Y-15331500D01*
X4773643Y-15402929D01*
X4759357Y-15460071D01*
X4745071Y-15488643D01*
X4730786Y-15502929D01*
X4702214Y-15517214D01*
X4673643Y-15517214D01*
X4645071Y-15502929D01*
X4630786Y-15488643D01*
X4616500Y-15460071D01*
X4602214Y-15402929D01*
X4602214Y-15331500D01*
X4616500Y-15274357D01*
X4630786Y-15245786D01*
X4645071Y-15231500D01*
X4673643Y-15217214D01*
X4959357Y-15217214D02*
X4987928Y-15217214D01*
X5016500Y-15231500D01*
X5030786Y-15245786D01*
X5045071Y-15274357D01*
X5059357Y-15331500D01*
X5059357Y-15402929D01*
X5045071Y-15460071D01*
X5030786Y-15488643D01*
X5016500Y-15502929D01*
X4987928Y-15517214D01*
X4959357Y-15517214D01*
X4930786Y-15502929D01*
X4916500Y-15488643D01*
X4902214Y-15460071D01*
X4887928Y-15402929D01*
X4887928Y-15331500D01*
X4902214Y-15274357D01*
X4916500Y-15245786D01*
X4930786Y-15231500D01*
X4959357Y-15217214D01*
X5187928Y-15517214D02*
X5187928Y-15317214D01*
X5187928Y-15345786D02*
X5202214Y-15331500D01*
X5230786Y-15317214D01*
X5273643Y-15317214D01*
X5302214Y-15331500D01*
X5316500Y-15360071D01*
X5316500Y-15517214D01*
X5316500Y-15360071D02*
X5330786Y-15331500D01*
X5359357Y-15317214D01*
X5402214Y-15317214D01*
X5430786Y-15331500D01*
X5445071Y-15360071D01*
X5445071Y-15517214D01*
X5587928Y-15517214D02*
X5587928Y-15317214D01*
X5587928Y-15345786D02*
X5602214Y-15331500D01*
X5630786Y-15317214D01*
X5673643Y-15317214D01*
X5702214Y-15331500D01*
X5716500Y-15360071D01*
X5716500Y-15517214D01*
X5716500Y-15360071D02*
X5730786Y-15331500D01*
X5759357Y-15317214D01*
X5802214Y-15317214D01*
X5830786Y-15331500D01*
X5845071Y-15360071D01*
X5845071Y-15517214D01*
X6430786Y-15202929D02*
X6173643Y-15588643D01*
X6816500Y-15217214D02*
X6845071Y-15217214D01*
X6873643Y-15231500D01*
X6887928Y-15245786D01*
X6902214Y-15274357D01*
X6916500Y-15331500D01*
X6916500Y-15402929D01*
X6902214Y-15460071D01*
X6887928Y-15488643D01*
X6873643Y-15502929D01*
X6845071Y-15517214D01*
X6816500Y-15517214D01*
X6787928Y-15502929D01*
X6773643Y-15488643D01*
X6759357Y-15460071D01*
X6745071Y-15402929D01*
X6745071Y-15331500D01*
X6759357Y-15274357D01*
X6773643Y-15245786D01*
X6787928Y-15231500D01*
X6816500Y-15217214D01*
X7045071Y-15488643D02*
X7059357Y-15502929D01*
X7045071Y-15517214D01*
X7030786Y-15502929D01*
X7045071Y-15488643D01*
X7045071Y-15517214D01*
X7245071Y-15217214D02*
X7273643Y-15217214D01*
X7302214Y-15231500D01*
X7316500Y-15245786D01*
X7330786Y-15274357D01*
X7345071Y-15331500D01*
X7345071Y-15402929D01*
X7330786Y-15460071D01*
X7316500Y-15488643D01*
X7302214Y-15502929D01*
X7273643Y-15517214D01*
X7245071Y-15517214D01*
X7216500Y-15502929D01*
X7202214Y-15488643D01*
X7187928Y-15460071D01*
X7173643Y-15402929D01*
X7173643Y-15331500D01*
X7187928Y-15274357D01*
X7202214Y-15245786D01*
X7216500Y-15231500D01*
X7245071Y-15217214D01*
X7445071Y-15217214D02*
X7630786Y-15217214D01*
X7530786Y-15331500D01*
X7573643Y-15331500D01*
X7602214Y-15345786D01*
X7616500Y-15360071D01*
X7630786Y-15388643D01*
X7630786Y-15460071D01*
X7616500Y-15488643D01*
X7602214Y-15502929D01*
X7573643Y-15517214D01*
X7487928Y-15517214D01*
X7459357Y-15502929D01*
X7445071Y-15488643D01*
X7773643Y-15517214D02*
X7830786Y-15517214D01*
X7859357Y-15502929D01*
X7873643Y-15488643D01*
X7902214Y-15445786D01*
X7916500Y-15388643D01*
X7916500Y-15274357D01*
X7902214Y-15245786D01*
X7887928Y-15231500D01*
X7859357Y-15217214D01*
X7802214Y-15217214D01*
X7773643Y-15231500D01*
X7759357Y-15245786D01*
X7745071Y-15274357D01*
X7745071Y-15345786D01*
X7759357Y-15374357D01*
X7773643Y-15388643D01*
X7802214Y-15402929D01*
X7859357Y-15402929D01*
X7887928Y-15388643D01*
X7902214Y-15374357D01*
X7916500Y-15345786D01*
X8030786Y-15217214D02*
X8030786Y-15274357D01*
X8145071Y-15217214D02*
X8145071Y-15274357D01*
X8587928Y-15631500D02*
X8573643Y-15617214D01*
X8545071Y-15574357D01*
X8530786Y-15545786D01*
X8516500Y-15502929D01*
X8502214Y-15431500D01*
X8502214Y-15374357D01*
X8516500Y-15302929D01*
X8530786Y-15260071D01*
X8545071Y-15231500D01*
X8573643Y-15188643D01*
X8587928Y-15174357D01*
X8830786Y-15317214D02*
X8830786Y-15517214D01*
X8759357Y-15202929D02*
X8687928Y-15417214D01*
X8873643Y-15417214D01*
X9145071Y-15517214D02*
X8973643Y-15517214D01*
X9059357Y-15517214D02*
X9059357Y-15217214D01*
X9030786Y-15260071D01*
X9002214Y-15288643D01*
X8973643Y-15302929D01*
X9502214Y-15517214D02*
X9502214Y-15217214D01*
X9630786Y-15517214D02*
X9630786Y-15360071D01*
X9616500Y-15331500D01*
X9587928Y-15317214D01*
X9545071Y-15317214D01*
X9516500Y-15331500D01*
X9502214Y-15345786D01*
X9816500Y-15517214D02*
X9787928Y-15502929D01*
X9773643Y-15488643D01*
X9759357Y-15460071D01*
X9759357Y-15374357D01*
X9773643Y-15345786D01*
X9787928Y-15331500D01*
X9816500Y-15317214D01*
X9859357Y-15317214D01*
X9887928Y-15331500D01*
X9902214Y-15345786D01*
X9916500Y-15374357D01*
X9916500Y-15460071D01*
X9902214Y-15488643D01*
X9887928Y-15502929D01*
X9859357Y-15517214D01*
X9816500Y-15517214D01*
X10087928Y-15517214D02*
X10059357Y-15502929D01*
X10045071Y-15474357D01*
X10045071Y-15217214D01*
X10316500Y-15502929D02*
X10287928Y-15517214D01*
X10230786Y-15517214D01*
X10202214Y-15502929D01*
X10187928Y-15474357D01*
X10187928Y-15360071D01*
X10202214Y-15331500D01*
X10230786Y-15317214D01*
X10287928Y-15317214D01*
X10316500Y-15331500D01*
X10330786Y-15360071D01*
X10330786Y-15388643D01*
X10187928Y-15417214D01*
X10445071Y-15502929D02*
X10473643Y-15517214D01*
X10530786Y-15517214D01*
X10559357Y-15502929D01*
X10573643Y-15474357D01*
X10573643Y-15460071D01*
X10559357Y-15431500D01*
X10530786Y-15417214D01*
X10487928Y-15417214D01*
X10459357Y-15402929D01*
X10445071Y-15374357D01*
X10445071Y-15360071D01*
X10459357Y-15331500D01*
X10487928Y-15317214D01*
X10530786Y-15317214D01*
X10559357Y-15331500D01*
X10673643Y-15631500D02*
X10687928Y-15617214D01*
X10716500Y-15574357D01*
X10730786Y-15545786D01*
X10745071Y-15502929D01*
X10759357Y-15431500D01*
X10759357Y-15374357D01*
X10745071Y-15302929D01*
X10730786Y-15260071D01*
X10716500Y-15231500D01*
X10687928Y-15188643D01*
X10673643Y-15174357D01*
X3797500Y-15725500D02*
X3901500Y-15829500D01*
X3901500Y-15725500D02*
X3797500Y-15829500D01*
X3901500Y-15777500D02*
G75*
G03*
X3901500Y-15777500I-52000J0D01*
G01*
X4345071Y-15913214D02*
X4173643Y-15913214D01*
X4259357Y-15913214D02*
X4259357Y-15613214D01*
X4230786Y-15656071D01*
X4202214Y-15684643D01*
X4173643Y-15698929D01*
X4473643Y-15884643D02*
X4487928Y-15898929D01*
X4473643Y-15913214D01*
X4459357Y-15898929D01*
X4473643Y-15884643D01*
X4473643Y-15913214D01*
X4673643Y-15613214D02*
X4702214Y-15613214D01*
X4730786Y-15627500D01*
X4745071Y-15641786D01*
X4759357Y-15670357D01*
X4773643Y-15727500D01*
X4773643Y-15798929D01*
X4759357Y-15856071D01*
X4745071Y-15884643D01*
X4730786Y-15898929D01*
X4702214Y-15913214D01*
X4673643Y-15913214D01*
X4645071Y-15898929D01*
X4630786Y-15884643D01*
X4616500Y-15856071D01*
X4602214Y-15798929D01*
X4602214Y-15727500D01*
X4616500Y-15670357D01*
X4630786Y-15641786D01*
X4645071Y-15627500D01*
X4673643Y-15613214D01*
X5030786Y-15713214D02*
X5030786Y-15913214D01*
X4959357Y-15598929D02*
X4887928Y-15813214D01*
X5073643Y-15813214D01*
X5187928Y-15913214D02*
X5187928Y-15713214D01*
X5187928Y-15741786D02*
X5202214Y-15727500D01*
X5230786Y-15713214D01*
X5273643Y-15713214D01*
X5302214Y-15727500D01*
X5316500Y-15756071D01*
X5316500Y-15913214D01*
X5316500Y-15756071D02*
X5330786Y-15727500D01*
X5359357Y-15713214D01*
X5402214Y-15713214D01*
X5430786Y-15727500D01*
X5445071Y-15756071D01*
X5445071Y-15913214D01*
X5587928Y-15913214D02*
X5587928Y-15713214D01*
X5587928Y-15741786D02*
X5602214Y-15727500D01*
X5630786Y-15713214D01*
X5673643Y-15713214D01*
X5702214Y-15727500D01*
X5716500Y-15756071D01*
X5716500Y-15913214D01*
X5716500Y-15756071D02*
X5730786Y-15727500D01*
X5759357Y-15713214D01*
X5802214Y-15713214D01*
X5830786Y-15727500D01*
X5845071Y-15756071D01*
X5845071Y-15913214D01*
X6430786Y-15598929D02*
X6173643Y-15984643D01*
X6816500Y-15613214D02*
X6845071Y-15613214D01*
X6873643Y-15627500D01*
X6887928Y-15641786D01*
X6902214Y-15670357D01*
X6916500Y-15727500D01*
X6916500Y-15798929D01*
X6902214Y-15856071D01*
X6887928Y-15884643D01*
X6873643Y-15898929D01*
X6845071Y-15913214D01*
X6816500Y-15913214D01*
X6787928Y-15898929D01*
X6773643Y-15884643D01*
X6759357Y-15856071D01*
X6745071Y-15798929D01*
X6745071Y-15727500D01*
X6759357Y-15670357D01*
X6773643Y-15641786D01*
X6787928Y-15627500D01*
X6816500Y-15613214D01*
X7045071Y-15884643D02*
X7059357Y-15898929D01*
X7045071Y-15913214D01*
X7030786Y-15898929D01*
X7045071Y-15884643D01*
X7045071Y-15913214D01*
X7245071Y-15613214D02*
X7273643Y-15613214D01*
X7302214Y-15627500D01*
X7316500Y-15641786D01*
X7330786Y-15670357D01*
X7345071Y-15727500D01*
X7345071Y-15798929D01*
X7330786Y-15856071D01*
X7316500Y-15884643D01*
X7302214Y-15898929D01*
X7273643Y-15913214D01*
X7245071Y-15913214D01*
X7216500Y-15898929D01*
X7202214Y-15884643D01*
X7187928Y-15856071D01*
X7173643Y-15798929D01*
X7173643Y-15727500D01*
X7187928Y-15670357D01*
X7202214Y-15641786D01*
X7216500Y-15627500D01*
X7245071Y-15613214D01*
X7602214Y-15713214D02*
X7602214Y-15913214D01*
X7530786Y-15598929D02*
X7459357Y-15813214D01*
X7645071Y-15813214D01*
X7916500Y-15913214D02*
X7745071Y-15913214D01*
X7830786Y-15913214D02*
X7830786Y-15613214D01*
X7802214Y-15656071D01*
X7773643Y-15684643D01*
X7745071Y-15698929D01*
X8030786Y-15613214D02*
X8030786Y-15670357D01*
X8145071Y-15613214D02*
X8145071Y-15670357D01*
X8587928Y-16027500D02*
X8573643Y-16013214D01*
X8545071Y-15970357D01*
X8530786Y-15941786D01*
X8516500Y-15898929D01*
X8502214Y-15827500D01*
X8502214Y-15770357D01*
X8516500Y-15698929D01*
X8530786Y-15656071D01*
X8545071Y-15627500D01*
X8573643Y-15584643D01*
X8587928Y-15570357D01*
X8673643Y-15613214D02*
X8859357Y-15613214D01*
X8759357Y-15727500D01*
X8802214Y-15727500D01*
X8830786Y-15741786D01*
X8845071Y-15756071D01*
X8859357Y-15784643D01*
X8859357Y-15856071D01*
X8845071Y-15884643D01*
X8830786Y-15898929D01*
X8802214Y-15913214D01*
X8716500Y-15913214D01*
X8687928Y-15898929D01*
X8673643Y-15884643D01*
X9045071Y-15613214D02*
X9073643Y-15613214D01*
X9102214Y-15627500D01*
X9116500Y-15641786D01*
X9130786Y-15670357D01*
X9145071Y-15727500D01*
X9145071Y-15798929D01*
X9130786Y-15856071D01*
X9116500Y-15884643D01*
X9102214Y-15898929D01*
X9073643Y-15913214D01*
X9045071Y-15913214D01*
X9016500Y-15898929D01*
X9002214Y-15884643D01*
X8987928Y-15856071D01*
X8973643Y-15798929D01*
X8973643Y-15727500D01*
X8987928Y-15670357D01*
X9002214Y-15641786D01*
X9016500Y-15627500D01*
X9045071Y-15613214D01*
X9502214Y-15913214D02*
X9502214Y-15613214D01*
X9630786Y-15913214D02*
X9630786Y-15756071D01*
X9616500Y-15727500D01*
X9587928Y-15713214D01*
X9545071Y-15713214D01*
X9516500Y-15727500D01*
X9502214Y-15741786D01*
X9816500Y-15913214D02*
X9787928Y-15898929D01*
X9773643Y-15884643D01*
X9759357Y-15856071D01*
X9759357Y-15770357D01*
X9773643Y-15741786D01*
X9787928Y-15727500D01*
X9816500Y-15713214D01*
X9859357Y-15713214D01*
X9887928Y-15727500D01*
X9902214Y-15741786D01*
X9916500Y-15770357D01*
X9916500Y-15856071D01*
X9902214Y-15884643D01*
X9887928Y-15898929D01*
X9859357Y-15913214D01*
X9816500Y-15913214D01*
X10087928Y-15913214D02*
X10059357Y-15898929D01*
X10045071Y-15870357D01*
X10045071Y-15613214D01*
X10316500Y-15898929D02*
X10287928Y-15913214D01*
X10230786Y-15913214D01*
X10202214Y-15898929D01*
X10187928Y-15870357D01*
X10187928Y-15756071D01*
X10202214Y-15727500D01*
X10230786Y-15713214D01*
X10287928Y-15713214D01*
X10316500Y-15727500D01*
X10330786Y-15756071D01*
X10330786Y-15784643D01*
X10187928Y-15813214D01*
X10445071Y-15898929D02*
X10473643Y-15913214D01*
X10530786Y-15913214D01*
X10559357Y-15898929D01*
X10573643Y-15870357D01*
X10573643Y-15856071D01*
X10559357Y-15827500D01*
X10530786Y-15813214D01*
X10487928Y-15813214D01*
X10459357Y-15798929D01*
X10445071Y-15770357D01*
X10445071Y-15756071D01*
X10459357Y-15727500D01*
X10487928Y-15713214D01*
X10530786Y-15713214D01*
X10559357Y-15727500D01*
X10673643Y-16027500D02*
X10687928Y-16013214D01*
X10716500Y-15970357D01*
X10730786Y-15941786D01*
X10745071Y-15898929D01*
X10759357Y-15827500D01*
X10759357Y-15770357D01*
X10745071Y-15698929D01*
X10730786Y-15656071D01*
X10716500Y-15627500D01*
X10687928Y-15584643D01*
X10673643Y-15570357D01*
X3581500Y-16013500D02*
X3901500Y-16333500D01*
X3901500Y-16013500D02*
X3581500Y-16333500D01*
X3741500Y-16013500D02*
X3741500Y-16333500D01*
X3581500Y-16173500D02*
X3901500Y-16173500D01*
X4159357Y-16009214D02*
X4345071Y-16009214D01*
X4245071Y-16123500D01*
X4287928Y-16123500D01*
X4316500Y-16137786D01*
X4330786Y-16152071D01*
X4345071Y-16180643D01*
X4345071Y-16252071D01*
X4330786Y-16280643D01*
X4316500Y-16294929D01*
X4287928Y-16309214D01*
X4202214Y-16309214D01*
X4173643Y-16294929D01*
X4159357Y-16280643D01*
X4473643Y-16280643D02*
X4487928Y-16294929D01*
X4473643Y-16309214D01*
X4459357Y-16294929D01*
X4473643Y-16280643D01*
X4473643Y-16309214D01*
X4602214Y-16037786D02*
X4616500Y-16023500D01*
X4645071Y-16009214D01*
X4716500Y-16009214D01*
X4745071Y-16023500D01*
X4759357Y-16037786D01*
X4773643Y-16066357D01*
X4773643Y-16094929D01*
X4759357Y-16137786D01*
X4587928Y-16309214D01*
X4773643Y-16309214D01*
X4959357Y-16009214D02*
X4987928Y-16009214D01*
X5016500Y-16023500D01*
X5030786Y-16037786D01*
X5045071Y-16066357D01*
X5059357Y-16123500D01*
X5059357Y-16194929D01*
X5045071Y-16252071D01*
X5030786Y-16280643D01*
X5016500Y-16294929D01*
X4987928Y-16309214D01*
X4959357Y-16309214D01*
X4930786Y-16294929D01*
X4916500Y-16280643D01*
X4902214Y-16252071D01*
X4887928Y-16194929D01*
X4887928Y-16123500D01*
X4902214Y-16066357D01*
X4916500Y-16037786D01*
X4930786Y-16023500D01*
X4959357Y-16009214D01*
X5187928Y-16309214D02*
X5187928Y-16109214D01*
X5187928Y-16137786D02*
X5202214Y-16123500D01*
X5230786Y-16109214D01*
X5273643Y-16109214D01*
X5302214Y-16123500D01*
X5316500Y-16152071D01*
X5316500Y-16309214D01*
X5316500Y-16152071D02*
X5330786Y-16123500D01*
X5359357Y-16109214D01*
X5402214Y-16109214D01*
X5430786Y-16123500D01*
X5445071Y-16152071D01*
X5445071Y-16309214D01*
X5587928Y-16309214D02*
X5587928Y-16109214D01*
X5587928Y-16137786D02*
X5602214Y-16123500D01*
X5630786Y-16109214D01*
X5673643Y-16109214D01*
X5702214Y-16123500D01*
X5716500Y-16152071D01*
X5716500Y-16309214D01*
X5716500Y-16152071D02*
X5730786Y-16123500D01*
X5759357Y-16109214D01*
X5802214Y-16109214D01*
X5830786Y-16123500D01*
X5845071Y-16152071D01*
X5845071Y-16309214D01*
X6430786Y-15994929D02*
X6173643Y-16380643D01*
X6816500Y-16009214D02*
X6845071Y-16009214D01*
X6873643Y-16023500D01*
X6887928Y-16037786D01*
X6902214Y-16066357D01*
X6916500Y-16123500D01*
X6916500Y-16194929D01*
X6902214Y-16252071D01*
X6887928Y-16280643D01*
X6873643Y-16294929D01*
X6845071Y-16309214D01*
X6816500Y-16309214D01*
X6787928Y-16294929D01*
X6773643Y-16280643D01*
X6759357Y-16252071D01*
X6745071Y-16194929D01*
X6745071Y-16123500D01*
X6759357Y-16066357D01*
X6773643Y-16037786D01*
X6787928Y-16023500D01*
X6816500Y-16009214D01*
X7045071Y-16280643D02*
X7059357Y-16294929D01*
X7045071Y-16309214D01*
X7030786Y-16294929D01*
X7045071Y-16280643D01*
X7045071Y-16309214D01*
X7345071Y-16309214D02*
X7173643Y-16309214D01*
X7259357Y-16309214D02*
X7259357Y-16009214D01*
X7230786Y-16052071D01*
X7202214Y-16080643D01*
X7173643Y-16094929D01*
X7459357Y-16037786D02*
X7473643Y-16023500D01*
X7502214Y-16009214D01*
X7573643Y-16009214D01*
X7602214Y-16023500D01*
X7616500Y-16037786D01*
X7630786Y-16066357D01*
X7630786Y-16094929D01*
X7616500Y-16137786D01*
X7445071Y-16309214D01*
X7630786Y-16309214D01*
X7887928Y-16009214D02*
X7830786Y-16009214D01*
X7802214Y-16023500D01*
X7787928Y-16037786D01*
X7759357Y-16080643D01*
X7745071Y-16137786D01*
X7745071Y-16252071D01*
X7759357Y-16280643D01*
X7773643Y-16294929D01*
X7802214Y-16309214D01*
X7859357Y-16309214D01*
X7887928Y-16294929D01*
X7902214Y-16280643D01*
X7916500Y-16252071D01*
X7916500Y-16180643D01*
X7902214Y-16152071D01*
X7887928Y-16137786D01*
X7859357Y-16123500D01*
X7802214Y-16123500D01*
X7773643Y-16137786D01*
X7759357Y-16152071D01*
X7745071Y-16180643D01*
X8030786Y-16009214D02*
X8030786Y-16066357D01*
X8145071Y-16009214D02*
X8145071Y-16066357D01*
X8587928Y-16423500D02*
X8573643Y-16409214D01*
X8545071Y-16366357D01*
X8530786Y-16337786D01*
X8516500Y-16294929D01*
X8502214Y-16223500D01*
X8502214Y-16166357D01*
X8516500Y-16094929D01*
X8530786Y-16052071D01*
X8545071Y-16023500D01*
X8573643Y-15980643D01*
X8587928Y-15966357D01*
X8845071Y-16009214D02*
X8702214Y-16009214D01*
X8687928Y-16152071D01*
X8702214Y-16137786D01*
X8730786Y-16123500D01*
X8802214Y-16123500D01*
X8830786Y-16137786D01*
X8845071Y-16152071D01*
X8859357Y-16180643D01*
X8859357Y-16252071D01*
X8845071Y-16280643D01*
X8830786Y-16294929D01*
X8802214Y-16309214D01*
X8730786Y-16309214D01*
X8702214Y-16294929D01*
X8687928Y-16280643D01*
X9216500Y-16309214D02*
X9216500Y-16009214D01*
X9345071Y-16309214D02*
X9345071Y-16152071D01*
X9330786Y-16123500D01*
X9302214Y-16109214D01*
X9259357Y-16109214D01*
X9230786Y-16123500D01*
X9216500Y-16137786D01*
X9530786Y-16309214D02*
X9502214Y-16294929D01*
X9487928Y-16280643D01*
X9473643Y-16252071D01*
X9473643Y-16166357D01*
X9487928Y-16137786D01*
X9502214Y-16123500D01*
X9530786Y-16109214D01*
X9573643Y-16109214D01*
X9602214Y-16123500D01*
X9616500Y-16137786D01*
X9630786Y-16166357D01*
X9630786Y-16252071D01*
X9616500Y-16280643D01*
X9602214Y-16294929D01*
X9573643Y-16309214D01*
X9530786Y-16309214D01*
X9802214Y-16309214D02*
X9773643Y-16294929D01*
X9759357Y-16266357D01*
X9759357Y-16009214D01*
X10030786Y-16294929D02*
X10002214Y-16309214D01*
X9945071Y-16309214D01*
X9916500Y-16294929D01*
X9902214Y-16266357D01*
X9902214Y-16152071D01*
X9916500Y-16123500D01*
X9945071Y-16109214D01*
X10002214Y-16109214D01*
X10030786Y-16123500D01*
X10045071Y-16152071D01*
X10045071Y-16180643D01*
X9902214Y-16209214D01*
X10159357Y-16294929D02*
X10187928Y-16309214D01*
X10245071Y-16309214D01*
X10273643Y-16294929D01*
X10287928Y-16266357D01*
X10287928Y-16252071D01*
X10273643Y-16223500D01*
X10245071Y-16209214D01*
X10202214Y-16209214D01*
X10173643Y-16194929D01*
X10159357Y-16166357D01*
X10159357Y-16152071D01*
X10173643Y-16123500D01*
X10202214Y-16109214D01*
X10245071Y-16109214D01*
X10273643Y-16123500D01*
X10387928Y-16423500D02*
X10402214Y-16409214D01*
X10430786Y-16366357D01*
X10445071Y-16337786D01*
X10459357Y-16294929D01*
X10473643Y-16223500D01*
X10473643Y-16166357D01*
X10459357Y-16094929D01*
X10445071Y-16052071D01*
X10430786Y-16023500D01*
X10402214Y-15980643D01*
X10387928Y-15966357D01*
M02*
