%TF.GenerationSoftware,KiCad,Pcbnew,(5.1.6)-1*%
%TF.CreationDate,2020-11-25T15:36:35+01:00*%
%TF.ProjectId,Board,426f6172-642e-46b6-9963-61645f706362,rev?*%
%TF.SameCoordinates,Original*%
%TF.FileFunction,Soldermask,Bot*%
%TF.FilePolarity,Negative*%
%FSLAX46Y46*%
G04 Gerber Fmt 4.6, Leading zero omitted, Abs format (unit mm)*
G04 Created by KiCad (PCBNEW (5.1.6)-1) date 2020-11-25 15:36:35*
%MOMM*%
%LPD*%
G01*
G04 APERTURE LIST*
%ADD10C,5.700000*%
%ADD11O,1.700000X1.700000*%
%ADD12R,1.700000X1.700000*%
%ADD13R,1.660000X1.660000*%
%ADD14C,1.660000*%
%ADD15C,4.100000*%
%ADD16C,1.700000*%
%ADD17C,1.624000*%
%ADD18R,1.608000X1.608000*%
%ADD19C,1.608000*%
%ADD20R,0.700000X1.100000*%
%ADD21R,1.000000X0.900000*%
%ADD22R,1.900000X1.900000*%
%ADD23C,1.900000*%
%ADD24R,2.390000X2.220000*%
%ADD25R,0.950000X0.950000*%
%ADD26O,0.950000X0.950000*%
%ADD27R,2.081200X0.658800*%
G04 APERTURE END LIST*
D10*
%TO.C,MH4*%
X122840000Y-121750000D03*
%TD*%
%TO.C,MH3*%
X122840000Y-66750000D03*
%TD*%
%TO.C,MH2*%
X47840000Y-66750000D03*
%TD*%
%TO.C,MH1*%
X47840000Y-121750000D03*
%TD*%
D11*
%TO.C,D9*%
X70710000Y-87300000D03*
D12*
X63090000Y-87300000D03*
%TD*%
%TO.C,C18*%
G36*
G01*
X73287500Y-100327500D02*
X73812500Y-100327500D01*
G75*
G02*
X74075000Y-100590000I0J-262500D01*
G01*
X74075000Y-101240000D01*
G75*
G02*
X73812500Y-101502500I-262500J0D01*
G01*
X73287500Y-101502500D01*
G75*
G02*
X73025000Y-101240000I0J262500D01*
G01*
X73025000Y-100590000D01*
G75*
G02*
X73287500Y-100327500I262500J0D01*
G01*
G37*
G36*
G01*
X73287500Y-98602500D02*
X73812500Y-98602500D01*
G75*
G02*
X74075000Y-98865000I0J-262500D01*
G01*
X74075000Y-99515000D01*
G75*
G02*
X73812500Y-99777500I-262500J0D01*
G01*
X73287500Y-99777500D01*
G75*
G02*
X73025000Y-99515000I0J262500D01*
G01*
X73025000Y-98865000D01*
G75*
G02*
X73287500Y-98602500I262500J0D01*
G01*
G37*
%TD*%
%TO.C,C17*%
G36*
G01*
X90350000Y-90702500D02*
X90350000Y-90177500D01*
G75*
G02*
X90612500Y-89915000I262500J0D01*
G01*
X91262500Y-89915000D01*
G75*
G02*
X91525000Y-90177500I0J-262500D01*
G01*
X91525000Y-90702500D01*
G75*
G02*
X91262500Y-90965000I-262500J0D01*
G01*
X90612500Y-90965000D01*
G75*
G02*
X90350000Y-90702500I0J262500D01*
G01*
G37*
G36*
G01*
X88625000Y-90702500D02*
X88625000Y-90177500D01*
G75*
G02*
X88887500Y-89915000I262500J0D01*
G01*
X89537500Y-89915000D01*
G75*
G02*
X89800000Y-90177500I0J-262500D01*
G01*
X89800000Y-90702500D01*
G75*
G02*
X89537500Y-90965000I-262500J0D01*
G01*
X88887500Y-90965000D01*
G75*
G02*
X88625000Y-90702500I0J262500D01*
G01*
G37*
%TD*%
D13*
%TO.C,U2*%
X77070000Y-105870000D03*
D14*
X79610000Y-105870000D03*
X84563000Y-80597000D03*
X82150000Y-105870000D03*
X84690000Y-105870000D03*
X87230000Y-105870000D03*
X89770000Y-105870000D03*
X92310000Y-105870000D03*
X94850000Y-105870000D03*
X97390000Y-105870000D03*
X99930000Y-105870000D03*
X102470000Y-105870000D03*
X105010000Y-105870000D03*
X107550000Y-105870000D03*
X110090000Y-105870000D03*
X112630000Y-105870000D03*
X76943000Y-80597000D03*
X79483000Y-80597000D03*
X82023000Y-80597000D03*
X87103000Y-80597000D03*
X89643000Y-80597000D03*
X92183000Y-80597000D03*
X94723000Y-80597000D03*
X97263000Y-80597000D03*
X99803000Y-80597000D03*
X102343000Y-80597000D03*
X104883000Y-80597000D03*
X107423000Y-80597000D03*
X109963000Y-80597000D03*
X112503000Y-80597000D03*
%TD*%
D15*
%TO.C,J3*%
X46740000Y-106590000D03*
X46740000Y-81590000D03*
D16*
X44200000Y-98245000D03*
X44200000Y-95475000D03*
X44200000Y-92705000D03*
X44200000Y-89935000D03*
X47040000Y-99630000D03*
X47040000Y-96860000D03*
X47040000Y-94090000D03*
X47040000Y-91320000D03*
D12*
X47040000Y-88550000D03*
%TD*%
D17*
%TO.C,J1*%
X83070000Y-117220000D03*
X87950000Y-117220000D03*
X92830000Y-117220000D03*
X97710000Y-117220000D03*
X102590000Y-117220000D03*
X107470000Y-117220000D03*
X112350000Y-117220000D03*
X117230000Y-117220000D03*
X83070000Y-122220000D03*
X87950000Y-122220000D03*
X92830000Y-122220000D03*
X97710000Y-122220000D03*
X102590000Y-122220000D03*
X107470000Y-122220000D03*
X112350000Y-122220000D03*
X117230000Y-122220000D03*
%TD*%
D18*
%TO.C,K2*%
X70740000Y-90230000D03*
D19*
X70740000Y-97850000D03*
X63120000Y-97850000D03*
X63120000Y-90230000D03*
X58040000Y-90230000D03*
X58040000Y-97850000D03*
X52960000Y-97850000D03*
X52960000Y-90230000D03*
%TD*%
%TO.C,R21*%
G36*
G01*
X83938500Y-89733500D02*
X83938500Y-90258500D01*
G75*
G02*
X83676000Y-90521000I-262500J0D01*
G01*
X83126000Y-90521000D01*
G75*
G02*
X82863500Y-90258500I0J262500D01*
G01*
X82863500Y-89733500D01*
G75*
G02*
X83126000Y-89471000I262500J0D01*
G01*
X83676000Y-89471000D01*
G75*
G02*
X83938500Y-89733500I0J-262500D01*
G01*
G37*
G36*
G01*
X85763500Y-89733500D02*
X85763500Y-90258500D01*
G75*
G02*
X85501000Y-90521000I-262500J0D01*
G01*
X84951000Y-90521000D01*
G75*
G02*
X84688500Y-90258500I0J262500D01*
G01*
X84688500Y-89733500D01*
G75*
G02*
X84951000Y-89471000I262500J0D01*
G01*
X85501000Y-89471000D01*
G75*
G02*
X85763500Y-89733500I0J-262500D01*
G01*
G37*
%TD*%
%TO.C,R18*%
G36*
G01*
X58792500Y-75722500D02*
X58267500Y-75722500D01*
G75*
G02*
X58005000Y-75460000I0J262500D01*
G01*
X58005000Y-74910000D01*
G75*
G02*
X58267500Y-74647500I262500J0D01*
G01*
X58792500Y-74647500D01*
G75*
G02*
X59055000Y-74910000I0J-262500D01*
G01*
X59055000Y-75460000D01*
G75*
G02*
X58792500Y-75722500I-262500J0D01*
G01*
G37*
G36*
G01*
X58792500Y-77547500D02*
X58267500Y-77547500D01*
G75*
G02*
X58005000Y-77285000I0J262500D01*
G01*
X58005000Y-76735000D01*
G75*
G02*
X58267500Y-76472500I262500J0D01*
G01*
X58792500Y-76472500D01*
G75*
G02*
X59055000Y-76735000I0J-262500D01*
G01*
X59055000Y-77285000D01*
G75*
G02*
X58792500Y-77547500I-262500J0D01*
G01*
G37*
%TD*%
%TO.C,R17*%
G36*
G01*
X61422500Y-77342500D02*
X61422500Y-76817500D01*
G75*
G02*
X61685000Y-76555000I262500J0D01*
G01*
X62235000Y-76555000D01*
G75*
G02*
X62497500Y-76817500I0J-262500D01*
G01*
X62497500Y-77342500D01*
G75*
G02*
X62235000Y-77605000I-262500J0D01*
G01*
X61685000Y-77605000D01*
G75*
G02*
X61422500Y-77342500I0J262500D01*
G01*
G37*
G36*
G01*
X59597500Y-77342500D02*
X59597500Y-76817500D01*
G75*
G02*
X59860000Y-76555000I262500J0D01*
G01*
X60410000Y-76555000D01*
G75*
G02*
X60672500Y-76817500I0J-262500D01*
G01*
X60672500Y-77342500D01*
G75*
G02*
X60410000Y-77605000I-262500J0D01*
G01*
X59860000Y-77605000D01*
G75*
G02*
X59597500Y-77342500I0J262500D01*
G01*
G37*
%TD*%
%TO.C,R12*%
G36*
G01*
X114725000Y-94627500D02*
X114725000Y-95152500D01*
G75*
G02*
X114462500Y-95415000I-262500J0D01*
G01*
X113912500Y-95415000D01*
G75*
G02*
X113650000Y-95152500I0J262500D01*
G01*
X113650000Y-94627500D01*
G75*
G02*
X113912500Y-94365000I262500J0D01*
G01*
X114462500Y-94365000D01*
G75*
G02*
X114725000Y-94627500I0J-262500D01*
G01*
G37*
G36*
G01*
X116550000Y-94627500D02*
X116550000Y-95152500D01*
G75*
G02*
X116287500Y-95415000I-262500J0D01*
G01*
X115737500Y-95415000D01*
G75*
G02*
X115475000Y-95152500I0J262500D01*
G01*
X115475000Y-94627500D01*
G75*
G02*
X115737500Y-94365000I262500J0D01*
G01*
X116287500Y-94365000D01*
G75*
G02*
X116550000Y-94627500I0J-262500D01*
G01*
G37*
%TD*%
%TO.C,R11*%
G36*
G01*
X114725000Y-93077500D02*
X114725000Y-93602500D01*
G75*
G02*
X114462500Y-93865000I-262500J0D01*
G01*
X113912500Y-93865000D01*
G75*
G02*
X113650000Y-93602500I0J262500D01*
G01*
X113650000Y-93077500D01*
G75*
G02*
X113912500Y-92815000I262500J0D01*
G01*
X114462500Y-92815000D01*
G75*
G02*
X114725000Y-93077500I0J-262500D01*
G01*
G37*
G36*
G01*
X116550000Y-93077500D02*
X116550000Y-93602500D01*
G75*
G02*
X116287500Y-93865000I-262500J0D01*
G01*
X115737500Y-93865000D01*
G75*
G02*
X115475000Y-93602500I0J262500D01*
G01*
X115475000Y-93077500D01*
G75*
G02*
X115737500Y-92815000I262500J0D01*
G01*
X116287500Y-92815000D01*
G75*
G02*
X116550000Y-93077500I0J-262500D01*
G01*
G37*
%TD*%
%TO.C,R10*%
G36*
G01*
X114725000Y-91527500D02*
X114725000Y-92052500D01*
G75*
G02*
X114462500Y-92315000I-262500J0D01*
G01*
X113912500Y-92315000D01*
G75*
G02*
X113650000Y-92052500I0J262500D01*
G01*
X113650000Y-91527500D01*
G75*
G02*
X113912500Y-91265000I262500J0D01*
G01*
X114462500Y-91265000D01*
G75*
G02*
X114725000Y-91527500I0J-262500D01*
G01*
G37*
G36*
G01*
X116550000Y-91527500D02*
X116550000Y-92052500D01*
G75*
G02*
X116287500Y-92315000I-262500J0D01*
G01*
X115737500Y-92315000D01*
G75*
G02*
X115475000Y-92052500I0J262500D01*
G01*
X115475000Y-91527500D01*
G75*
G02*
X115737500Y-91265000I262500J0D01*
G01*
X116287500Y-91265000D01*
G75*
G02*
X116550000Y-91527500I0J-262500D01*
G01*
G37*
%TD*%
%TO.C,R9*%
G36*
G01*
X114725000Y-89977500D02*
X114725000Y-90502500D01*
G75*
G02*
X114462500Y-90765000I-262500J0D01*
G01*
X113912500Y-90765000D01*
G75*
G02*
X113650000Y-90502500I0J262500D01*
G01*
X113650000Y-89977500D01*
G75*
G02*
X113912500Y-89715000I262500J0D01*
G01*
X114462500Y-89715000D01*
G75*
G02*
X114725000Y-89977500I0J-262500D01*
G01*
G37*
G36*
G01*
X116550000Y-89977500D02*
X116550000Y-90502500D01*
G75*
G02*
X116287500Y-90765000I-262500J0D01*
G01*
X115737500Y-90765000D01*
G75*
G02*
X115475000Y-90502500I0J262500D01*
G01*
X115475000Y-89977500D01*
G75*
G02*
X115737500Y-89715000I262500J0D01*
G01*
X116287500Y-89715000D01*
G75*
G02*
X116550000Y-89977500I0J-262500D01*
G01*
G37*
%TD*%
%TO.C,R7*%
G36*
G01*
X81026500Y-95959000D02*
X81551500Y-95959000D01*
G75*
G02*
X81814000Y-96221500I0J-262500D01*
G01*
X81814000Y-96771500D01*
G75*
G02*
X81551500Y-97034000I-262500J0D01*
G01*
X81026500Y-97034000D01*
G75*
G02*
X80764000Y-96771500I0J262500D01*
G01*
X80764000Y-96221500D01*
G75*
G02*
X81026500Y-95959000I262500J0D01*
G01*
G37*
G36*
G01*
X81026500Y-94134000D02*
X81551500Y-94134000D01*
G75*
G02*
X81814000Y-94396500I0J-262500D01*
G01*
X81814000Y-94946500D01*
G75*
G02*
X81551500Y-95209000I-262500J0D01*
G01*
X81026500Y-95209000D01*
G75*
G02*
X80764000Y-94946500I0J262500D01*
G01*
X80764000Y-94396500D01*
G75*
G02*
X81026500Y-94134000I262500J0D01*
G01*
G37*
%TD*%
%TO.C,R6*%
G36*
G01*
X81026500Y-92379500D02*
X81551500Y-92379500D01*
G75*
G02*
X81814000Y-92642000I0J-262500D01*
G01*
X81814000Y-93192000D01*
G75*
G02*
X81551500Y-93454500I-262500J0D01*
G01*
X81026500Y-93454500D01*
G75*
G02*
X80764000Y-93192000I0J262500D01*
G01*
X80764000Y-92642000D01*
G75*
G02*
X81026500Y-92379500I262500J0D01*
G01*
G37*
G36*
G01*
X81026500Y-90554500D02*
X81551500Y-90554500D01*
G75*
G02*
X81814000Y-90817000I0J-262500D01*
G01*
X81814000Y-91367000D01*
G75*
G02*
X81551500Y-91629500I-262500J0D01*
G01*
X81026500Y-91629500D01*
G75*
G02*
X80764000Y-91367000I0J262500D01*
G01*
X80764000Y-90817000D01*
G75*
G02*
X81026500Y-90554500I262500J0D01*
G01*
G37*
%TD*%
%TO.C,R5*%
G36*
G01*
X73202500Y-96437500D02*
X73202500Y-96962500D01*
G75*
G02*
X72940000Y-97225000I-262500J0D01*
G01*
X72390000Y-97225000D01*
G75*
G02*
X72127500Y-96962500I0J262500D01*
G01*
X72127500Y-96437500D01*
G75*
G02*
X72390000Y-96175000I262500J0D01*
G01*
X72940000Y-96175000D01*
G75*
G02*
X73202500Y-96437500I0J-262500D01*
G01*
G37*
G36*
G01*
X75027500Y-96437500D02*
X75027500Y-96962500D01*
G75*
G02*
X74765000Y-97225000I-262500J0D01*
G01*
X74215000Y-97225000D01*
G75*
G02*
X73952500Y-96962500I0J262500D01*
G01*
X73952500Y-96437500D01*
G75*
G02*
X74215000Y-96175000I262500J0D01*
G01*
X74765000Y-96175000D01*
G75*
G02*
X75027500Y-96437500I0J-262500D01*
G01*
G37*
%TD*%
%TO.C,R4*%
G36*
G01*
X73157500Y-90687500D02*
X73157500Y-91212500D01*
G75*
G02*
X72895000Y-91475000I-262500J0D01*
G01*
X72345000Y-91475000D01*
G75*
G02*
X72082500Y-91212500I0J262500D01*
G01*
X72082500Y-90687500D01*
G75*
G02*
X72345000Y-90425000I262500J0D01*
G01*
X72895000Y-90425000D01*
G75*
G02*
X73157500Y-90687500I0J-262500D01*
G01*
G37*
G36*
G01*
X74982500Y-90687500D02*
X74982500Y-91212500D01*
G75*
G02*
X74720000Y-91475000I-262500J0D01*
G01*
X74170000Y-91475000D01*
G75*
G02*
X73907500Y-91212500I0J262500D01*
G01*
X73907500Y-90687500D01*
G75*
G02*
X74170000Y-90425000I262500J0D01*
G01*
X74720000Y-90425000D01*
G75*
G02*
X74982500Y-90687500I0J-262500D01*
G01*
G37*
%TD*%
%TO.C,R2*%
G36*
G01*
X86827500Y-110117500D02*
X87352500Y-110117500D01*
G75*
G02*
X87615000Y-110380000I0J-262500D01*
G01*
X87615000Y-110930000D01*
G75*
G02*
X87352500Y-111192500I-262500J0D01*
G01*
X86827500Y-111192500D01*
G75*
G02*
X86565000Y-110930000I0J262500D01*
G01*
X86565000Y-110380000D01*
G75*
G02*
X86827500Y-110117500I262500J0D01*
G01*
G37*
G36*
G01*
X86827500Y-108292500D02*
X87352500Y-108292500D01*
G75*
G02*
X87615000Y-108555000I0J-262500D01*
G01*
X87615000Y-109105000D01*
G75*
G02*
X87352500Y-109367500I-262500J0D01*
G01*
X86827500Y-109367500D01*
G75*
G02*
X86565000Y-109105000I0J262500D01*
G01*
X86565000Y-108555000D01*
G75*
G02*
X86827500Y-108292500I262500J0D01*
G01*
G37*
%TD*%
%TO.C,R1*%
G36*
G01*
X84142500Y-109367500D02*
X83617500Y-109367500D01*
G75*
G02*
X83355000Y-109105000I0J262500D01*
G01*
X83355000Y-108555000D01*
G75*
G02*
X83617500Y-108292500I262500J0D01*
G01*
X84142500Y-108292500D01*
G75*
G02*
X84405000Y-108555000I0J-262500D01*
G01*
X84405000Y-109105000D01*
G75*
G02*
X84142500Y-109367500I-262500J0D01*
G01*
G37*
G36*
G01*
X84142500Y-111192500D02*
X83617500Y-111192500D01*
G75*
G02*
X83355000Y-110930000I0J262500D01*
G01*
X83355000Y-110380000D01*
G75*
G02*
X83617500Y-110117500I262500J0D01*
G01*
X84142500Y-110117500D01*
G75*
G02*
X84405000Y-110380000I0J-262500D01*
G01*
X84405000Y-110930000D01*
G75*
G02*
X84142500Y-111192500I-262500J0D01*
G01*
G37*
%TD*%
%TO.C,C15*%
G36*
G01*
X111920000Y-84822500D02*
X111920000Y-84297500D01*
G75*
G02*
X112182500Y-84035000I262500J0D01*
G01*
X112832500Y-84035000D01*
G75*
G02*
X113095000Y-84297500I0J-262500D01*
G01*
X113095000Y-84822500D01*
G75*
G02*
X112832500Y-85085000I-262500J0D01*
G01*
X112182500Y-85085000D01*
G75*
G02*
X111920000Y-84822500I0J262500D01*
G01*
G37*
G36*
G01*
X110195000Y-84822500D02*
X110195000Y-84297500D01*
G75*
G02*
X110457500Y-84035000I262500J0D01*
G01*
X111107500Y-84035000D01*
G75*
G02*
X111370000Y-84297500I0J-262500D01*
G01*
X111370000Y-84822500D01*
G75*
G02*
X111107500Y-85085000I-262500J0D01*
G01*
X110457500Y-85085000D01*
G75*
G02*
X110195000Y-84822500I0J262500D01*
G01*
G37*
%TD*%
%TO.C,C14*%
G36*
G01*
X111920000Y-82912500D02*
X111920000Y-82387500D01*
G75*
G02*
X112182500Y-82125000I262500J0D01*
G01*
X112832500Y-82125000D01*
G75*
G02*
X113095000Y-82387500I0J-262500D01*
G01*
X113095000Y-82912500D01*
G75*
G02*
X112832500Y-83175000I-262500J0D01*
G01*
X112182500Y-83175000D01*
G75*
G02*
X111920000Y-82912500I0J262500D01*
G01*
G37*
G36*
G01*
X110195000Y-82912500D02*
X110195000Y-82387500D01*
G75*
G02*
X110457500Y-82125000I262500J0D01*
G01*
X111107500Y-82125000D01*
G75*
G02*
X111370000Y-82387500I0J-262500D01*
G01*
X111370000Y-82912500D01*
G75*
G02*
X111107500Y-83175000I-262500J0D01*
G01*
X110457500Y-83175000D01*
G75*
G02*
X110195000Y-82912500I0J262500D01*
G01*
G37*
%TD*%
%TO.C,C13*%
G36*
G01*
X112043000Y-104142500D02*
X112043000Y-103617500D01*
G75*
G02*
X112305500Y-103355000I262500J0D01*
G01*
X112955500Y-103355000D01*
G75*
G02*
X113218000Y-103617500I0J-262500D01*
G01*
X113218000Y-104142500D01*
G75*
G02*
X112955500Y-104405000I-262500J0D01*
G01*
X112305500Y-104405000D01*
G75*
G02*
X112043000Y-104142500I0J262500D01*
G01*
G37*
G36*
G01*
X110318000Y-104142500D02*
X110318000Y-103617500D01*
G75*
G02*
X110580500Y-103355000I262500J0D01*
G01*
X111230500Y-103355000D01*
G75*
G02*
X111493000Y-103617500I0J-262500D01*
G01*
X111493000Y-104142500D01*
G75*
G02*
X111230500Y-104405000I-262500J0D01*
G01*
X110580500Y-104405000D01*
G75*
G02*
X110318000Y-104142500I0J262500D01*
G01*
G37*
%TD*%
%TO.C,C12*%
G36*
G01*
X111493000Y-101827500D02*
X111493000Y-102352500D01*
G75*
G02*
X111230500Y-102615000I-262500J0D01*
G01*
X110580500Y-102615000D01*
G75*
G02*
X110318000Y-102352500I0J262500D01*
G01*
X110318000Y-101827500D01*
G75*
G02*
X110580500Y-101565000I262500J0D01*
G01*
X111230500Y-101565000D01*
G75*
G02*
X111493000Y-101827500I0J-262500D01*
G01*
G37*
G36*
G01*
X113218000Y-101827500D02*
X113218000Y-102352500D01*
G75*
G02*
X112955500Y-102615000I-262500J0D01*
G01*
X112305500Y-102615000D01*
G75*
G02*
X112043000Y-102352500I0J262500D01*
G01*
X112043000Y-101827500D01*
G75*
G02*
X112305500Y-101565000I262500J0D01*
G01*
X112955500Y-101565000D01*
G75*
G02*
X113218000Y-101827500I0J-262500D01*
G01*
G37*
%TD*%
%TO.C,C11*%
G36*
G01*
X63232500Y-65415000D02*
X62707500Y-65415000D01*
G75*
G02*
X62445000Y-65152500I0J262500D01*
G01*
X62445000Y-64502500D01*
G75*
G02*
X62707500Y-64240000I262500J0D01*
G01*
X63232500Y-64240000D01*
G75*
G02*
X63495000Y-64502500I0J-262500D01*
G01*
X63495000Y-65152500D01*
G75*
G02*
X63232500Y-65415000I-262500J0D01*
G01*
G37*
G36*
G01*
X63232500Y-67140000D02*
X62707500Y-67140000D01*
G75*
G02*
X62445000Y-66877500I0J262500D01*
G01*
X62445000Y-66227500D01*
G75*
G02*
X62707500Y-65965000I262500J0D01*
G01*
X63232500Y-65965000D01*
G75*
G02*
X63495000Y-66227500I0J-262500D01*
G01*
X63495000Y-66877500D01*
G75*
G02*
X63232500Y-67140000I-262500J0D01*
G01*
G37*
%TD*%
%TO.C,C7*%
G36*
G01*
X83242500Y-93497500D02*
X82717500Y-93497500D01*
G75*
G02*
X82455000Y-93235000I0J262500D01*
G01*
X82455000Y-92585000D01*
G75*
G02*
X82717500Y-92322500I262500J0D01*
G01*
X83242500Y-92322500D01*
G75*
G02*
X83505000Y-92585000I0J-262500D01*
G01*
X83505000Y-93235000D01*
G75*
G02*
X83242500Y-93497500I-262500J0D01*
G01*
G37*
G36*
G01*
X83242500Y-95222500D02*
X82717500Y-95222500D01*
G75*
G02*
X82455000Y-94960000I0J262500D01*
G01*
X82455000Y-94310000D01*
G75*
G02*
X82717500Y-94047500I262500J0D01*
G01*
X83242500Y-94047500D01*
G75*
G02*
X83505000Y-94310000I0J-262500D01*
G01*
X83505000Y-94960000D01*
G75*
G02*
X83242500Y-95222500I-262500J0D01*
G01*
G37*
%TD*%
%TO.C,C6*%
G36*
G01*
X78867500Y-94081000D02*
X79392500Y-94081000D01*
G75*
G02*
X79655000Y-94343500I0J-262500D01*
G01*
X79655000Y-94993500D01*
G75*
G02*
X79392500Y-95256000I-262500J0D01*
G01*
X78867500Y-95256000D01*
G75*
G02*
X78605000Y-94993500I0J262500D01*
G01*
X78605000Y-94343500D01*
G75*
G02*
X78867500Y-94081000I262500J0D01*
G01*
G37*
G36*
G01*
X78867500Y-92356000D02*
X79392500Y-92356000D01*
G75*
G02*
X79655000Y-92618500I0J-262500D01*
G01*
X79655000Y-93268500D01*
G75*
G02*
X79392500Y-93531000I-262500J0D01*
G01*
X78867500Y-93531000D01*
G75*
G02*
X78605000Y-93268500I0J262500D01*
G01*
X78605000Y-92618500D01*
G75*
G02*
X78867500Y-92356000I262500J0D01*
G01*
G37*
%TD*%
%TO.C,C5*%
G36*
G01*
X69182500Y-95205000D02*
X68657500Y-95205000D01*
G75*
G02*
X68395000Y-94942500I0J262500D01*
G01*
X68395000Y-94292500D01*
G75*
G02*
X68657500Y-94030000I262500J0D01*
G01*
X69182500Y-94030000D01*
G75*
G02*
X69445000Y-94292500I0J-262500D01*
G01*
X69445000Y-94942500D01*
G75*
G02*
X69182500Y-95205000I-262500J0D01*
G01*
G37*
G36*
G01*
X69182500Y-96930000D02*
X68657500Y-96930000D01*
G75*
G02*
X68395000Y-96667500I0J262500D01*
G01*
X68395000Y-96017500D01*
G75*
G02*
X68657500Y-95755000I262500J0D01*
G01*
X69182500Y-95755000D01*
G75*
G02*
X69445000Y-96017500I0J-262500D01*
G01*
X69445000Y-96667500D01*
G75*
G02*
X69182500Y-96930000I-262500J0D01*
G01*
G37*
%TD*%
%TO.C,C4*%
G36*
G01*
X69162500Y-91755000D02*
X68637500Y-91755000D01*
G75*
G02*
X68375000Y-91492500I0J262500D01*
G01*
X68375000Y-90842500D01*
G75*
G02*
X68637500Y-90580000I262500J0D01*
G01*
X69162500Y-90580000D01*
G75*
G02*
X69425000Y-90842500I0J-262500D01*
G01*
X69425000Y-91492500D01*
G75*
G02*
X69162500Y-91755000I-262500J0D01*
G01*
G37*
G36*
G01*
X69162500Y-93480000D02*
X68637500Y-93480000D01*
G75*
G02*
X68375000Y-93217500I0J262500D01*
G01*
X68375000Y-92567500D01*
G75*
G02*
X68637500Y-92305000I262500J0D01*
G01*
X69162500Y-92305000D01*
G75*
G02*
X69425000Y-92567500I0J-262500D01*
G01*
X69425000Y-93217500D01*
G75*
G02*
X69162500Y-93480000I-262500J0D01*
G01*
G37*
%TD*%
%TO.C,C1*%
G36*
G01*
X85227500Y-110017500D02*
X85752500Y-110017500D01*
G75*
G02*
X86015000Y-110280000I0J-262500D01*
G01*
X86015000Y-110930000D01*
G75*
G02*
X85752500Y-111192500I-262500J0D01*
G01*
X85227500Y-111192500D01*
G75*
G02*
X84965000Y-110930000I0J262500D01*
G01*
X84965000Y-110280000D01*
G75*
G02*
X85227500Y-110017500I262500J0D01*
G01*
G37*
G36*
G01*
X85227500Y-108292500D02*
X85752500Y-108292500D01*
G75*
G02*
X86015000Y-108555000I0J-262500D01*
G01*
X86015000Y-109205000D01*
G75*
G02*
X85752500Y-109467500I-262500J0D01*
G01*
X85227500Y-109467500D01*
G75*
G02*
X84965000Y-109205000I0J262500D01*
G01*
X84965000Y-108555000D01*
G75*
G02*
X85227500Y-108292500I262500J0D01*
G01*
G37*
%TD*%
D20*
%TO.C,L2*%
X71272000Y-94426000D03*
X75822000Y-94426000D03*
X71272000Y-93176000D03*
X75822000Y-93176000D03*
%TD*%
D21*
%TO.C,Q1*%
X56850000Y-77010000D03*
X56850000Y-78910000D03*
X54850000Y-77960000D03*
%TD*%
D19*
%TO.C,K1*%
X53030000Y-84310000D03*
X60650000Y-84310000D03*
X60650000Y-79230000D03*
X53030000Y-79230000D03*
X53030000Y-74150000D03*
X60650000Y-74150000D03*
X60650000Y-66530000D03*
D18*
X53030000Y-66530000D03*
%TD*%
D12*
%TO.C,D7*%
X60910000Y-63250000D03*
D11*
X53290000Y-63250000D03*
%TD*%
D22*
%TO.C,D6*%
X91000000Y-70860000D03*
D23*
X91000000Y-73400000D03*
%TD*%
D24*
%TO.C,D2*%
X108220000Y-99210000D03*
X112540000Y-99210000D03*
%TD*%
D25*
%TO.C,J2*%
X118870000Y-76370000D03*
D26*
X118870000Y-77370000D03*
X117870000Y-76370000D03*
X117870000Y-77370000D03*
X116870000Y-76370000D03*
X116870000Y-77370000D03*
X115870000Y-76370000D03*
X115870000Y-77370000D03*
X114870000Y-76370000D03*
X114870000Y-77370000D03*
%TD*%
D27*
%TO.C,IC1*%
X91677600Y-92155000D03*
X91677600Y-93425000D03*
X91677600Y-94695000D03*
X91677600Y-95965000D03*
X86750000Y-95965000D03*
X86750000Y-94695000D03*
X86750000Y-93425000D03*
X86750000Y-92155000D03*
%TD*%
D22*
%TO.C,D5*%
X106000000Y-70860000D03*
D23*
X106000000Y-73400000D03*
%TD*%
D22*
%TO.C,D4*%
X101000000Y-70860000D03*
D23*
X101000000Y-73400000D03*
%TD*%
D22*
%TO.C,D3*%
X96000000Y-70860000D03*
D23*
X96000000Y-73400000D03*
%TD*%
D21*
%TO.C,D1*%
X67100000Y-92790000D03*
X67100000Y-94690000D03*
X65000000Y-93740000D03*
%TD*%
M02*
