%TF.GenerationSoftware,KiCad,Pcbnew,(5.1.6)-1*%
%TF.CreationDate,2020-11-25T15:36:35+01:00*%
%TF.ProjectId,Board,426f6172-642e-46b6-9963-61645f706362,rev?*%
%TF.SameCoordinates,Original*%
%TF.FileFunction,Legend,Top*%
%TF.FilePolarity,Positive*%
%FSLAX46Y46*%
G04 Gerber Fmt 4.6, Leading zero omitted, Abs format (unit mm)*
G04 Created by KiCad (PCBNEW (5.1.6)-1) date 2020-11-25 15:36:35*
%MOMM*%
%LPD*%
G01*
G04 APERTURE LIST*
%ADD10C,0.120000*%
%ADD11C,0.127000*%
%ADD12C,0.152400*%
%ADD13C,0.400000*%
%ADD14C,0.200000*%
%ADD15C,0.150000*%
%ADD16C,0.015000*%
%ADD17C,0.254000*%
G04 APERTURE END LIST*
D10*
%TO.C,D9*%
X64780000Y-86180000D02*
X64780000Y-88420000D01*
X64780000Y-88420000D02*
X69020000Y-88420000D01*
X69020000Y-88420000D02*
X69020000Y-86180000D01*
X69020000Y-86180000D02*
X64780000Y-86180000D01*
X64130000Y-87300000D02*
X64780000Y-87300000D01*
X69670000Y-87300000D02*
X69020000Y-87300000D01*
X65500000Y-86180000D02*
X65500000Y-88420000D01*
X65620000Y-86180000D02*
X65620000Y-88420000D01*
X65380000Y-86180000D02*
X65380000Y-88420000D01*
D11*
%TO.C,U2*%
X119000000Y-79220000D02*
X119000000Y-107120000D01*
X74732000Y-79200000D02*
X118928000Y-79220000D01*
X74760000Y-107140000D02*
X74760000Y-79220000D01*
X119000000Y-107120000D02*
X74760000Y-107140000D01*
D10*
%TO.C,J3*%
X39320000Y-78605000D02*
X49800000Y-78605000D01*
X49800000Y-78605000D02*
X49800000Y-109575000D01*
X49800000Y-109575000D02*
X39320000Y-109575000D01*
X50694338Y-88300000D02*
X50694338Y-88800000D01*
X50694338Y-88800000D02*
X50261325Y-88550000D01*
X50261325Y-88550000D02*
X50694338Y-88300000D01*
D12*
%TO.C,J1*%
X119230000Y-124580000D02*
X119230000Y-107580000D01*
X119230000Y-124580000D02*
X79230000Y-124580000D01*
X119230000Y-107580000D02*
X79230000Y-107580000D01*
X79230000Y-124580000D02*
X79230000Y-107580000D01*
D13*
%TO.C,K2*%
X71040000Y-88330000D02*
G75*
G03*
X71040000Y-88330000I-200000J0D01*
G01*
D11*
X72100000Y-88990000D02*
X72100000Y-99090000D01*
X72100000Y-99090000D02*
X51600000Y-99090000D01*
X51600000Y-99090000D02*
X51600000Y-88990000D01*
X51600000Y-88990000D02*
X72100000Y-88990000D01*
D14*
%TO.C,L1*%
X71220000Y-73270000D02*
X76720000Y-73270000D01*
X76720000Y-68270000D02*
X71220000Y-68270000D01*
%TO.C,L3*%
X63790000Y-109170000D02*
X69290000Y-109170000D01*
X69290000Y-104170000D02*
X63790000Y-104170000D01*
D10*
%TO.C,U1*%
X72620000Y-74150000D02*
X69620000Y-74150000D01*
X73620000Y-77390000D02*
X71620000Y-77390000D01*
%TO.C,R20*%
X80686500Y-76615276D02*
X80686500Y-77124724D01*
X81731500Y-76615276D02*
X81731500Y-77124724D01*
%TO.C,R19*%
X80686500Y-73115276D02*
X80686500Y-73624724D01*
X81731500Y-73115276D02*
X81731500Y-73624724D01*
%TO.C,R16*%
X91532500Y-67814724D02*
X91532500Y-67305276D01*
X90487500Y-67814724D02*
X90487500Y-67305276D01*
%TO.C,R15*%
X106762500Y-67822224D02*
X106762500Y-67312776D01*
X105717500Y-67822224D02*
X105717500Y-67312776D01*
%TO.C,R14*%
X101692500Y-67812224D02*
X101692500Y-67302776D01*
X100647500Y-67812224D02*
X100647500Y-67302776D01*
%TO.C,R13*%
X96612500Y-67812224D02*
X96612500Y-67302776D01*
X95567500Y-67812224D02*
X95567500Y-67302776D01*
%TO.C,R8*%
X86537500Y-76705276D02*
X86537500Y-77214724D01*
X87582500Y-76705276D02*
X87582500Y-77214724D01*
%TO.C,R3*%
X77542500Y-75712224D02*
X77542500Y-75202776D01*
X76497500Y-75712224D02*
X76497500Y-75202776D01*
%TO.C,C10*%
X82410000Y-73223733D02*
X82410000Y-73516267D01*
X83430000Y-73223733D02*
X83430000Y-73516267D01*
%TO.C,C9*%
X66320000Y-75423767D02*
X66320000Y-75131233D01*
X65300000Y-75423767D02*
X65300000Y-75131233D01*
%TO.C,C8*%
X113326267Y-72740000D02*
X113033733Y-72740000D01*
X113326267Y-73760000D02*
X113033733Y-73760000D01*
%TO.C,FB2*%
X82166267Y-70260000D02*
X81823733Y-70260000D01*
X82166267Y-71280000D02*
X81823733Y-71280000D01*
%TO.C,FB1*%
X67356267Y-78130000D02*
X67013733Y-78130000D01*
X67356267Y-79150000D02*
X67013733Y-79150000D01*
%TO.C,C16*%
X70690000Y-107528748D02*
X70690000Y-108951252D01*
X72510000Y-107528748D02*
X72510000Y-108951252D01*
%TO.C,C3*%
X78110000Y-71701248D02*
X78110000Y-73123752D01*
X79930000Y-71701248D02*
X79930000Y-73123752D01*
%TO.C,C2*%
X68720000Y-75288752D02*
X68720000Y-73866248D01*
X66900000Y-75288752D02*
X66900000Y-73866248D01*
%TO.C,F1*%
X56804564Y-104880000D02*
X52700436Y-104880000D01*
X56804564Y-108300000D02*
X52700436Y-108300000D01*
%TO.C,D8*%
X62350000Y-105590000D02*
X62350000Y-110990000D01*
X59050000Y-105590000D02*
X59050000Y-110990000D01*
X62350000Y-105590000D02*
X59050000Y-105590000D01*
D11*
%TO.C,K1*%
X51790000Y-85670000D02*
X51790000Y-65170000D01*
X61890000Y-85670000D02*
X51790000Y-85670000D01*
X61890000Y-65170000D02*
X61890000Y-85670000D01*
X51790000Y-65170000D02*
X61890000Y-65170000D01*
D13*
X51330000Y-66430000D02*
G75*
G03*
X51330000Y-66430000I-200000J0D01*
G01*
D10*
%TO.C,D7*%
X58620000Y-64370000D02*
X58620000Y-62130000D01*
X58380000Y-64370000D02*
X58380000Y-62130000D01*
X58500000Y-64370000D02*
X58500000Y-62130000D01*
X54330000Y-63250000D02*
X54980000Y-63250000D01*
X59870000Y-63250000D02*
X59220000Y-63250000D01*
X54980000Y-64370000D02*
X59220000Y-64370000D01*
X54980000Y-62130000D02*
X54980000Y-64370000D01*
X59220000Y-62130000D02*
X54980000Y-62130000D01*
X59220000Y-64370000D02*
X59220000Y-62130000D01*
%TO.C,D6*%
X89920000Y-70570000D02*
X89764000Y-70570000D01*
X92236000Y-70570000D02*
X92080000Y-70570000D01*
X92078608Y-73802335D02*
G75*
G03*
X92235516Y-70570000I-1078608J1672335D01*
G01*
X89921392Y-73802335D02*
G75*
G02*
X89764484Y-70570000I1078608J1672335D01*
G01*
X92079837Y-73171130D02*
G75*
G03*
X92080000Y-71089039I-1079837J1041130D01*
G01*
X89920163Y-73171130D02*
G75*
G02*
X89920000Y-71089039I1079837J1041130D01*
G01*
%TO.C,SW1*%
X111750000Y-71040000D02*
X114150000Y-71040000D01*
X109740000Y-71040000D02*
X110150000Y-71040000D01*
X109740000Y-64620000D02*
X109740000Y-71040000D01*
X110150000Y-64620000D02*
X109740000Y-64620000D01*
X114150000Y-64620000D02*
X111750000Y-64620000D01*
X116160000Y-64620000D02*
X115880000Y-64620000D01*
X116160000Y-71040000D02*
X116160000Y-64620000D01*
X115750000Y-71040000D02*
X116160000Y-71040000D01*
%TO.C,J2*%
X119555000Y-75660000D02*
X119555000Y-76370000D01*
X118870000Y-75660000D02*
X119555000Y-75660000D01*
X119430000Y-77764493D02*
X119430000Y-78080000D01*
X118185000Y-75660000D02*
X118185000Y-75761724D01*
X119430000Y-78080000D02*
X114310000Y-78080000D01*
X118185000Y-75660000D02*
X114310000Y-75660000D01*
X114310000Y-76764493D02*
X114310000Y-76975507D01*
X114310000Y-77764493D02*
X114310000Y-78080000D01*
X114310000Y-75660000D02*
X114310000Y-75975507D01*
%TO.C,D5*%
X104920000Y-70570000D02*
X104764000Y-70570000D01*
X107236000Y-70570000D02*
X107080000Y-70570000D01*
X107078608Y-73802335D02*
G75*
G03*
X107235516Y-70570000I-1078608J1672335D01*
G01*
X104921392Y-73802335D02*
G75*
G02*
X104764484Y-70570000I1078608J1672335D01*
G01*
X107079837Y-73171130D02*
G75*
G03*
X107080000Y-71089039I-1079837J1041130D01*
G01*
X104920163Y-73171130D02*
G75*
G02*
X104920000Y-71089039I1079837J1041130D01*
G01*
%TO.C,D4*%
X99920000Y-70570000D02*
X99764000Y-70570000D01*
X102236000Y-70570000D02*
X102080000Y-70570000D01*
X102078608Y-73802335D02*
G75*
G03*
X102235516Y-70570000I-1078608J1672335D01*
G01*
X99921392Y-73802335D02*
G75*
G02*
X99764484Y-70570000I1078608J1672335D01*
G01*
X102079837Y-73171130D02*
G75*
G03*
X102080000Y-71089039I-1079837J1041130D01*
G01*
X99920163Y-73171130D02*
G75*
G02*
X99920000Y-71089039I1079837J1041130D01*
G01*
%TO.C,D3*%
X94920000Y-70570000D02*
X94764000Y-70570000D01*
X97236000Y-70570000D02*
X97080000Y-70570000D01*
X97078608Y-73802335D02*
G75*
G03*
X97235516Y-70570000I-1078608J1672335D01*
G01*
X94921392Y-73802335D02*
G75*
G02*
X94764484Y-70570000I1078608J1672335D01*
G01*
X97079837Y-73171130D02*
G75*
G03*
X97080000Y-71089039I-1079837J1041130D01*
G01*
X94920163Y-73171130D02*
G75*
G02*
X94920000Y-71089039I1079837J1041130D01*
G01*
%TO.C,FID1*%
D15*
X45968571Y-72278571D02*
X45635238Y-72278571D01*
X45635238Y-72802380D02*
X45635238Y-71802380D01*
X46111428Y-71802380D01*
X46492380Y-72802380D02*
X46492380Y-71802380D01*
X46968571Y-72802380D02*
X46968571Y-71802380D01*
X47206666Y-71802380D01*
X47349523Y-71850000D01*
X47444761Y-71945238D01*
X47492380Y-72040476D01*
X47540000Y-72230952D01*
X47540000Y-72373809D01*
X47492380Y-72564285D01*
X47444761Y-72659523D01*
X47349523Y-72754761D01*
X47206666Y-72802380D01*
X46968571Y-72802380D01*
X48492380Y-72802380D02*
X47920952Y-72802380D01*
X48206666Y-72802380D02*
X48206666Y-71802380D01*
X48111428Y-71945238D01*
X48016190Y-72040476D01*
X47920952Y-72088095D01*
%TO.C,MH4*%
X121506666Y-118402380D02*
X121506666Y-117402380D01*
X121840000Y-118116666D01*
X122173333Y-117402380D01*
X122173333Y-118402380D01*
X122649523Y-118402380D02*
X122649523Y-117402380D01*
X122649523Y-117878571D02*
X123220952Y-117878571D01*
X123220952Y-118402380D02*
X123220952Y-117402380D01*
X124125714Y-117735714D02*
X124125714Y-118402380D01*
X123887619Y-117354761D02*
X123649523Y-118069047D01*
X124268571Y-118069047D01*
%TO.C,MH3*%
X121506666Y-63402380D02*
X121506666Y-62402380D01*
X121840000Y-63116666D01*
X122173333Y-62402380D01*
X122173333Y-63402380D01*
X122649523Y-63402380D02*
X122649523Y-62402380D01*
X122649523Y-62878571D02*
X123220952Y-62878571D01*
X123220952Y-63402380D02*
X123220952Y-62402380D01*
X123601904Y-62402380D02*
X124220952Y-62402380D01*
X123887619Y-62783333D01*
X124030476Y-62783333D01*
X124125714Y-62830952D01*
X124173333Y-62878571D01*
X124220952Y-62973809D01*
X124220952Y-63211904D01*
X124173333Y-63307142D01*
X124125714Y-63354761D01*
X124030476Y-63402380D01*
X123744761Y-63402380D01*
X123649523Y-63354761D01*
X123601904Y-63307142D01*
%TO.C,MH2*%
X46506666Y-63402380D02*
X46506666Y-62402380D01*
X46840000Y-63116666D01*
X47173333Y-62402380D01*
X47173333Y-63402380D01*
X47649523Y-63402380D02*
X47649523Y-62402380D01*
X47649523Y-62878571D02*
X48220952Y-62878571D01*
X48220952Y-63402380D02*
X48220952Y-62402380D01*
X48649523Y-62497619D02*
X48697142Y-62450000D01*
X48792380Y-62402380D01*
X49030476Y-62402380D01*
X49125714Y-62450000D01*
X49173333Y-62497619D01*
X49220952Y-62592857D01*
X49220952Y-62688095D01*
X49173333Y-62830952D01*
X48601904Y-63402380D01*
X49220952Y-63402380D01*
%TO.C,D9*%
X72251904Y-87702380D02*
X72251904Y-86702380D01*
X72490000Y-86702380D01*
X72632857Y-86750000D01*
X72728095Y-86845238D01*
X72775714Y-86940476D01*
X72823333Y-87130952D01*
X72823333Y-87273809D01*
X72775714Y-87464285D01*
X72728095Y-87559523D01*
X72632857Y-87654761D01*
X72490000Y-87702380D01*
X72251904Y-87702380D01*
X73299523Y-87702380D02*
X73490000Y-87702380D01*
X73585238Y-87654761D01*
X73632857Y-87607142D01*
X73728095Y-87464285D01*
X73775714Y-87273809D01*
X73775714Y-86892857D01*
X73728095Y-86797619D01*
X73680476Y-86750000D01*
X73585238Y-86702380D01*
X73394761Y-86702380D01*
X73299523Y-86750000D01*
X73251904Y-86797619D01*
X73204285Y-86892857D01*
X73204285Y-87130952D01*
X73251904Y-87226190D01*
X73299523Y-87273809D01*
X73394761Y-87321428D01*
X73585238Y-87321428D01*
X73680476Y-87273809D01*
X73728095Y-87226190D01*
X73775714Y-87130952D01*
X61128095Y-87752380D02*
X61128095Y-86752380D01*
X61699523Y-87752380D02*
X61270952Y-87180952D01*
X61699523Y-86752380D02*
X61128095Y-87323809D01*
%TO.C,U2*%
D16*
X119842169Y-93762198D02*
X120652005Y-93762198D01*
X120747280Y-93714561D01*
X120794918Y-93666924D01*
X120842555Y-93571649D01*
X120842555Y-93381099D01*
X120794918Y-93285824D01*
X120747280Y-93238187D01*
X120652005Y-93190549D01*
X119842169Y-93190549D01*
X119937444Y-92761812D02*
X119889807Y-92714175D01*
X119842169Y-92618900D01*
X119842169Y-92380713D01*
X119889807Y-92285438D01*
X119937444Y-92237801D01*
X120032719Y-92190163D01*
X120127994Y-92190163D01*
X120270906Y-92237801D01*
X120842555Y-92809450D01*
X120842555Y-92190163D01*
%TO.C,J3*%
D15*
X50092380Y-83983333D02*
X50806666Y-83983333D01*
X50949523Y-84030952D01*
X51044761Y-84126190D01*
X51092380Y-84269047D01*
X51092380Y-84364285D01*
X50092380Y-83602380D02*
X50092380Y-82983333D01*
X50473333Y-83316666D01*
X50473333Y-83173809D01*
X50520952Y-83078571D01*
X50568571Y-83030952D01*
X50663809Y-82983333D01*
X50901904Y-82983333D01*
X50997142Y-83030952D01*
X51044761Y-83078571D01*
X51092380Y-83173809D01*
X51092380Y-83459523D01*
X51044761Y-83554761D01*
X50997142Y-83602380D01*
%TO.C,J1*%
X120156666Y-111402380D02*
X120156666Y-112116666D01*
X120109047Y-112259523D01*
X120013809Y-112354761D01*
X119870952Y-112402380D01*
X119775714Y-112402380D01*
X121156666Y-112402380D02*
X120585238Y-112402380D01*
X120870952Y-112402380D02*
X120870952Y-111402380D01*
X120775714Y-111545238D01*
X120680476Y-111640476D01*
X120585238Y-111688095D01*
%TO.C,K2*%
D16*
X68107726Y-101490284D02*
X68107726Y-100488552D01*
X68680144Y-101490284D02*
X68250830Y-100917866D01*
X68680144Y-100488552D02*
X68107726Y-101060970D01*
X69061756Y-100583955D02*
X69109458Y-100536254D01*
X69204861Y-100488552D01*
X69443369Y-100488552D01*
X69538772Y-100536254D01*
X69586473Y-100583955D01*
X69634175Y-100679358D01*
X69634175Y-100774761D01*
X69586473Y-100917866D01*
X69014055Y-101490284D01*
X69634175Y-101490284D01*
%TO.C,L1*%
D17*
X73778333Y-67474523D02*
X73173571Y-67474523D01*
X73173571Y-66204523D01*
X74866904Y-67474523D02*
X74141190Y-67474523D01*
X74504047Y-67474523D02*
X74504047Y-66204523D01*
X74383095Y-66385952D01*
X74262142Y-66506904D01*
X74141190Y-66567380D01*
%TO.C,L3*%
X66328333Y-111274523D02*
X65723571Y-111274523D01*
X65723571Y-110004523D01*
X66630714Y-110004523D02*
X67416904Y-110004523D01*
X66993571Y-110488333D01*
X67175000Y-110488333D01*
X67295952Y-110548809D01*
X67356428Y-110609285D01*
X67416904Y-110730238D01*
X67416904Y-111032619D01*
X67356428Y-111153571D01*
X67295952Y-111214047D01*
X67175000Y-111274523D01*
X66812142Y-111274523D01*
X66691190Y-111214047D01*
X66630714Y-111153571D01*
%TO.C,U1*%
D15*
X72078095Y-77902380D02*
X72078095Y-78711904D01*
X72125714Y-78807142D01*
X72173333Y-78854761D01*
X72268571Y-78902380D01*
X72459047Y-78902380D01*
X72554285Y-78854761D01*
X72601904Y-78807142D01*
X72649523Y-78711904D01*
X72649523Y-77902380D01*
X73649523Y-78902380D02*
X73078095Y-78902380D01*
X73363809Y-78902380D02*
X73363809Y-77902380D01*
X73268571Y-78045238D01*
X73173333Y-78140476D01*
X73078095Y-78188095D01*
%TO.C,R20*%
X81788380Y-80814857D02*
X81312190Y-81148190D01*
X81788380Y-81386285D02*
X80788380Y-81386285D01*
X80788380Y-81005333D01*
X80836000Y-80910095D01*
X80883619Y-80862476D01*
X80978857Y-80814857D01*
X81121714Y-80814857D01*
X81216952Y-80862476D01*
X81264571Y-80910095D01*
X81312190Y-81005333D01*
X81312190Y-81386285D01*
X80883619Y-80433904D02*
X80836000Y-80386285D01*
X80788380Y-80291047D01*
X80788380Y-80052952D01*
X80836000Y-79957714D01*
X80883619Y-79910095D01*
X80978857Y-79862476D01*
X81074095Y-79862476D01*
X81216952Y-79910095D01*
X81788380Y-80481523D01*
X81788380Y-79862476D01*
X80788380Y-79243428D02*
X80788380Y-79148190D01*
X80836000Y-79052952D01*
X80883619Y-79005333D01*
X80978857Y-78957714D01*
X81169333Y-78910095D01*
X81407428Y-78910095D01*
X81597904Y-78957714D01*
X81693142Y-79005333D01*
X81740761Y-79052952D01*
X81788380Y-79148190D01*
X81788380Y-79243428D01*
X81740761Y-79338666D01*
X81693142Y-79386285D01*
X81597904Y-79433904D01*
X81407428Y-79481523D01*
X81169333Y-79481523D01*
X80978857Y-79433904D01*
X80883619Y-79386285D01*
X80836000Y-79338666D01*
X80788380Y-79243428D01*
%TO.C,R19*%
X82897142Y-78452380D02*
X82563809Y-77976190D01*
X82325714Y-78452380D02*
X82325714Y-77452380D01*
X82706666Y-77452380D01*
X82801904Y-77500000D01*
X82849523Y-77547619D01*
X82897142Y-77642857D01*
X82897142Y-77785714D01*
X82849523Y-77880952D01*
X82801904Y-77928571D01*
X82706666Y-77976190D01*
X82325714Y-77976190D01*
X83849523Y-78452380D02*
X83278095Y-78452380D01*
X83563809Y-78452380D02*
X83563809Y-77452380D01*
X83468571Y-77595238D01*
X83373333Y-77690476D01*
X83278095Y-77738095D01*
X84325714Y-78452380D02*
X84516190Y-78452380D01*
X84611428Y-78404761D01*
X84659047Y-78357142D01*
X84754285Y-78214285D01*
X84801904Y-78023809D01*
X84801904Y-77642857D01*
X84754285Y-77547619D01*
X84706666Y-77500000D01*
X84611428Y-77452380D01*
X84420952Y-77452380D01*
X84325714Y-77500000D01*
X84278095Y-77547619D01*
X84230476Y-77642857D01*
X84230476Y-77880952D01*
X84278095Y-77976190D01*
X84325714Y-78023809D01*
X84420952Y-78071428D01*
X84611428Y-78071428D01*
X84706666Y-78023809D01*
X84754285Y-77976190D01*
X84801904Y-77880952D01*
%TO.C,R16*%
X91592380Y-64892857D02*
X91116190Y-65226190D01*
X91592380Y-65464285D02*
X90592380Y-65464285D01*
X90592380Y-65083333D01*
X90640000Y-64988095D01*
X90687619Y-64940476D01*
X90782857Y-64892857D01*
X90925714Y-64892857D01*
X91020952Y-64940476D01*
X91068571Y-64988095D01*
X91116190Y-65083333D01*
X91116190Y-65464285D01*
X91592380Y-63940476D02*
X91592380Y-64511904D01*
X91592380Y-64226190D02*
X90592380Y-64226190D01*
X90735238Y-64321428D01*
X90830476Y-64416666D01*
X90878095Y-64511904D01*
X90592380Y-63083333D02*
X90592380Y-63273809D01*
X90640000Y-63369047D01*
X90687619Y-63416666D01*
X90830476Y-63511904D01*
X91020952Y-63559523D01*
X91401904Y-63559523D01*
X91497142Y-63511904D01*
X91544761Y-63464285D01*
X91592380Y-63369047D01*
X91592380Y-63178571D01*
X91544761Y-63083333D01*
X91497142Y-63035714D01*
X91401904Y-62988095D01*
X91163809Y-62988095D01*
X91068571Y-63035714D01*
X91020952Y-63083333D01*
X90973333Y-63178571D01*
X90973333Y-63369047D01*
X91020952Y-63464285D01*
X91068571Y-63511904D01*
X91163809Y-63559523D01*
%TO.C,R15*%
X106692380Y-64742857D02*
X106216190Y-65076190D01*
X106692380Y-65314285D02*
X105692380Y-65314285D01*
X105692380Y-64933333D01*
X105740000Y-64838095D01*
X105787619Y-64790476D01*
X105882857Y-64742857D01*
X106025714Y-64742857D01*
X106120952Y-64790476D01*
X106168571Y-64838095D01*
X106216190Y-64933333D01*
X106216190Y-65314285D01*
X106692380Y-63790476D02*
X106692380Y-64361904D01*
X106692380Y-64076190D02*
X105692380Y-64076190D01*
X105835238Y-64171428D01*
X105930476Y-64266666D01*
X105978095Y-64361904D01*
X105692380Y-62885714D02*
X105692380Y-63361904D01*
X106168571Y-63409523D01*
X106120952Y-63361904D01*
X106073333Y-63266666D01*
X106073333Y-63028571D01*
X106120952Y-62933333D01*
X106168571Y-62885714D01*
X106263809Y-62838095D01*
X106501904Y-62838095D01*
X106597142Y-62885714D01*
X106644761Y-62933333D01*
X106692380Y-63028571D01*
X106692380Y-63266666D01*
X106644761Y-63361904D01*
X106597142Y-63409523D01*
%TO.C,R14*%
X101492380Y-64592857D02*
X101016190Y-64926190D01*
X101492380Y-65164285D02*
X100492380Y-65164285D01*
X100492380Y-64783333D01*
X100540000Y-64688095D01*
X100587619Y-64640476D01*
X100682857Y-64592857D01*
X100825714Y-64592857D01*
X100920952Y-64640476D01*
X100968571Y-64688095D01*
X101016190Y-64783333D01*
X101016190Y-65164285D01*
X101492380Y-63640476D02*
X101492380Y-64211904D01*
X101492380Y-63926190D02*
X100492380Y-63926190D01*
X100635238Y-64021428D01*
X100730476Y-64116666D01*
X100778095Y-64211904D01*
X100825714Y-62783333D02*
X101492380Y-62783333D01*
X100444761Y-63021428D02*
X101159047Y-63259523D01*
X101159047Y-62640476D01*
%TO.C,R13*%
X96642380Y-64692857D02*
X96166190Y-65026190D01*
X96642380Y-65264285D02*
X95642380Y-65264285D01*
X95642380Y-64883333D01*
X95690000Y-64788095D01*
X95737619Y-64740476D01*
X95832857Y-64692857D01*
X95975714Y-64692857D01*
X96070952Y-64740476D01*
X96118571Y-64788095D01*
X96166190Y-64883333D01*
X96166190Y-65264285D01*
X96642380Y-63740476D02*
X96642380Y-64311904D01*
X96642380Y-64026190D02*
X95642380Y-64026190D01*
X95785238Y-64121428D01*
X95880476Y-64216666D01*
X95928095Y-64311904D01*
X95642380Y-63407142D02*
X95642380Y-62788095D01*
X96023333Y-63121428D01*
X96023333Y-62978571D01*
X96070952Y-62883333D01*
X96118571Y-62835714D01*
X96213809Y-62788095D01*
X96451904Y-62788095D01*
X96547142Y-62835714D01*
X96594761Y-62883333D01*
X96642380Y-62978571D01*
X96642380Y-63264285D01*
X96594761Y-63359523D01*
X96547142Y-63407142D01*
%TO.C,R8*%
X88942380Y-77126666D02*
X88466190Y-77460000D01*
X88942380Y-77698095D02*
X87942380Y-77698095D01*
X87942380Y-77317142D01*
X87990000Y-77221904D01*
X88037619Y-77174285D01*
X88132857Y-77126666D01*
X88275714Y-77126666D01*
X88370952Y-77174285D01*
X88418571Y-77221904D01*
X88466190Y-77317142D01*
X88466190Y-77698095D01*
X88370952Y-76555238D02*
X88323333Y-76650476D01*
X88275714Y-76698095D01*
X88180476Y-76745714D01*
X88132857Y-76745714D01*
X88037619Y-76698095D01*
X87990000Y-76650476D01*
X87942380Y-76555238D01*
X87942380Y-76364761D01*
X87990000Y-76269523D01*
X88037619Y-76221904D01*
X88132857Y-76174285D01*
X88180476Y-76174285D01*
X88275714Y-76221904D01*
X88323333Y-76269523D01*
X88370952Y-76364761D01*
X88370952Y-76555238D01*
X88418571Y-76650476D01*
X88466190Y-76698095D01*
X88561428Y-76745714D01*
X88751904Y-76745714D01*
X88847142Y-76698095D01*
X88894761Y-76650476D01*
X88942380Y-76555238D01*
X88942380Y-76364761D01*
X88894761Y-76269523D01*
X88847142Y-76221904D01*
X88751904Y-76174285D01*
X88561428Y-76174285D01*
X88466190Y-76221904D01*
X88418571Y-76269523D01*
X88370952Y-76364761D01*
%TO.C,R3*%
X79592380Y-67316666D02*
X79116190Y-67650000D01*
X79592380Y-67888095D02*
X78592380Y-67888095D01*
X78592380Y-67507142D01*
X78640000Y-67411904D01*
X78687619Y-67364285D01*
X78782857Y-67316666D01*
X78925714Y-67316666D01*
X79020952Y-67364285D01*
X79068571Y-67411904D01*
X79116190Y-67507142D01*
X79116190Y-67888095D01*
X78592380Y-66983333D02*
X78592380Y-66364285D01*
X78973333Y-66697619D01*
X78973333Y-66554761D01*
X79020952Y-66459523D01*
X79068571Y-66411904D01*
X79163809Y-66364285D01*
X79401904Y-66364285D01*
X79497142Y-66411904D01*
X79544761Y-66459523D01*
X79592380Y-66554761D01*
X79592380Y-66840476D01*
X79544761Y-66935714D01*
X79497142Y-66983333D01*
%TO.C,C10*%
X84897142Y-74892857D02*
X84944761Y-74940476D01*
X84992380Y-75083333D01*
X84992380Y-75178571D01*
X84944761Y-75321428D01*
X84849523Y-75416666D01*
X84754285Y-75464285D01*
X84563809Y-75511904D01*
X84420952Y-75511904D01*
X84230476Y-75464285D01*
X84135238Y-75416666D01*
X84040000Y-75321428D01*
X83992380Y-75178571D01*
X83992380Y-75083333D01*
X84040000Y-74940476D01*
X84087619Y-74892857D01*
X84992380Y-73940476D02*
X84992380Y-74511904D01*
X84992380Y-74226190D02*
X83992380Y-74226190D01*
X84135238Y-74321428D01*
X84230476Y-74416666D01*
X84278095Y-74511904D01*
X83992380Y-73321428D02*
X83992380Y-73226190D01*
X84040000Y-73130952D01*
X84087619Y-73083333D01*
X84182857Y-73035714D01*
X84373333Y-72988095D01*
X84611428Y-72988095D01*
X84801904Y-73035714D01*
X84897142Y-73083333D01*
X84944761Y-73130952D01*
X84992380Y-73226190D01*
X84992380Y-73321428D01*
X84944761Y-73416666D01*
X84897142Y-73464285D01*
X84801904Y-73511904D01*
X84611428Y-73559523D01*
X84373333Y-73559523D01*
X84182857Y-73511904D01*
X84087619Y-73464285D01*
X84040000Y-73416666D01*
X83992380Y-73321428D01*
%TO.C,C9*%
X66040142Y-72422666D02*
X66087761Y-72470285D01*
X66135380Y-72613142D01*
X66135380Y-72708380D01*
X66087761Y-72851238D01*
X65992523Y-72946476D01*
X65897285Y-72994095D01*
X65706809Y-73041714D01*
X65563952Y-73041714D01*
X65373476Y-72994095D01*
X65278238Y-72946476D01*
X65183000Y-72851238D01*
X65135380Y-72708380D01*
X65135380Y-72613142D01*
X65183000Y-72470285D01*
X65230619Y-72422666D01*
X66135380Y-71946476D02*
X66135380Y-71756000D01*
X66087761Y-71660761D01*
X66040142Y-71613142D01*
X65897285Y-71517904D01*
X65706809Y-71470285D01*
X65325857Y-71470285D01*
X65230619Y-71517904D01*
X65183000Y-71565523D01*
X65135380Y-71660761D01*
X65135380Y-71851238D01*
X65183000Y-71946476D01*
X65230619Y-71994095D01*
X65325857Y-72041714D01*
X65563952Y-72041714D01*
X65659190Y-71994095D01*
X65706809Y-71946476D01*
X65754428Y-71851238D01*
X65754428Y-71660761D01*
X65706809Y-71565523D01*
X65659190Y-71517904D01*
X65563952Y-71470285D01*
%TO.C,C8*%
X113013333Y-75037142D02*
X112965714Y-75084761D01*
X112822857Y-75132380D01*
X112727619Y-75132380D01*
X112584761Y-75084761D01*
X112489523Y-74989523D01*
X112441904Y-74894285D01*
X112394285Y-74703809D01*
X112394285Y-74560952D01*
X112441904Y-74370476D01*
X112489523Y-74275238D01*
X112584761Y-74180000D01*
X112727619Y-74132380D01*
X112822857Y-74132380D01*
X112965714Y-74180000D01*
X113013333Y-74227619D01*
X113584761Y-74560952D02*
X113489523Y-74513333D01*
X113441904Y-74465714D01*
X113394285Y-74370476D01*
X113394285Y-74322857D01*
X113441904Y-74227619D01*
X113489523Y-74180000D01*
X113584761Y-74132380D01*
X113775238Y-74132380D01*
X113870476Y-74180000D01*
X113918095Y-74227619D01*
X113965714Y-74322857D01*
X113965714Y-74370476D01*
X113918095Y-74465714D01*
X113870476Y-74513333D01*
X113775238Y-74560952D01*
X113584761Y-74560952D01*
X113489523Y-74608571D01*
X113441904Y-74656190D01*
X113394285Y-74751428D01*
X113394285Y-74941904D01*
X113441904Y-75037142D01*
X113489523Y-75084761D01*
X113584761Y-75132380D01*
X113775238Y-75132380D01*
X113870476Y-75084761D01*
X113918095Y-75037142D01*
X113965714Y-74941904D01*
X113965714Y-74751428D01*
X113918095Y-74656190D01*
X113870476Y-74608571D01*
X113775238Y-74560952D01*
%TO.C,FB2*%
X81161666Y-69301571D02*
X80828333Y-69301571D01*
X80828333Y-69825380D02*
X80828333Y-68825380D01*
X81304523Y-68825380D01*
X82018809Y-69301571D02*
X82161666Y-69349190D01*
X82209285Y-69396809D01*
X82256904Y-69492047D01*
X82256904Y-69634904D01*
X82209285Y-69730142D01*
X82161666Y-69777761D01*
X82066428Y-69825380D01*
X81685476Y-69825380D01*
X81685476Y-68825380D01*
X82018809Y-68825380D01*
X82114047Y-68873000D01*
X82161666Y-68920619D01*
X82209285Y-69015857D01*
X82209285Y-69111095D01*
X82161666Y-69206333D01*
X82114047Y-69253952D01*
X82018809Y-69301571D01*
X81685476Y-69301571D01*
X82637857Y-68920619D02*
X82685476Y-68873000D01*
X82780714Y-68825380D01*
X83018809Y-68825380D01*
X83114047Y-68873000D01*
X83161666Y-68920619D01*
X83209285Y-69015857D01*
X83209285Y-69111095D01*
X83161666Y-69253952D01*
X82590238Y-69825380D01*
X83209285Y-69825380D01*
%TO.C,FB1*%
X63256666Y-78528571D02*
X62923333Y-78528571D01*
X62923333Y-79052380D02*
X62923333Y-78052380D01*
X63399523Y-78052380D01*
X64113809Y-78528571D02*
X64256666Y-78576190D01*
X64304285Y-78623809D01*
X64351904Y-78719047D01*
X64351904Y-78861904D01*
X64304285Y-78957142D01*
X64256666Y-79004761D01*
X64161428Y-79052380D01*
X63780476Y-79052380D01*
X63780476Y-78052380D01*
X64113809Y-78052380D01*
X64209047Y-78100000D01*
X64256666Y-78147619D01*
X64304285Y-78242857D01*
X64304285Y-78338095D01*
X64256666Y-78433333D01*
X64209047Y-78480952D01*
X64113809Y-78528571D01*
X63780476Y-78528571D01*
X65304285Y-79052380D02*
X64732857Y-79052380D01*
X65018571Y-79052380D02*
X65018571Y-78052380D01*
X64923333Y-78195238D01*
X64828095Y-78290476D01*
X64732857Y-78338095D01*
%TO.C,C16*%
X71957142Y-113073857D02*
X72004761Y-113121476D01*
X72052380Y-113264333D01*
X72052380Y-113359571D01*
X72004761Y-113502428D01*
X71909523Y-113597666D01*
X71814285Y-113645285D01*
X71623809Y-113692904D01*
X71480952Y-113692904D01*
X71290476Y-113645285D01*
X71195238Y-113597666D01*
X71100000Y-113502428D01*
X71052380Y-113359571D01*
X71052380Y-113264333D01*
X71100000Y-113121476D01*
X71147619Y-113073857D01*
X72052380Y-112121476D02*
X72052380Y-112692904D01*
X72052380Y-112407190D02*
X71052380Y-112407190D01*
X71195238Y-112502428D01*
X71290476Y-112597666D01*
X71338095Y-112692904D01*
X71052380Y-111264333D02*
X71052380Y-111454809D01*
X71100000Y-111550047D01*
X71147619Y-111597666D01*
X71290476Y-111692904D01*
X71480952Y-111740523D01*
X71861904Y-111740523D01*
X71957142Y-111692904D01*
X72004761Y-111645285D01*
X72052380Y-111550047D01*
X72052380Y-111359571D01*
X72004761Y-111264333D01*
X71957142Y-111216714D01*
X71861904Y-111169095D01*
X71623809Y-111169095D01*
X71528571Y-111216714D01*
X71480952Y-111264333D01*
X71433333Y-111359571D01*
X71433333Y-111550047D01*
X71480952Y-111645285D01*
X71528571Y-111692904D01*
X71623809Y-111740523D01*
%TO.C,C3*%
X83097142Y-76316666D02*
X83144761Y-76364285D01*
X83192380Y-76507142D01*
X83192380Y-76602380D01*
X83144761Y-76745238D01*
X83049523Y-76840476D01*
X82954285Y-76888095D01*
X82763809Y-76935714D01*
X82620952Y-76935714D01*
X82430476Y-76888095D01*
X82335238Y-76840476D01*
X82240000Y-76745238D01*
X82192380Y-76602380D01*
X82192380Y-76507142D01*
X82240000Y-76364285D01*
X82287619Y-76316666D01*
X82192380Y-75983333D02*
X82192380Y-75364285D01*
X82573333Y-75697619D01*
X82573333Y-75554761D01*
X82620952Y-75459523D01*
X82668571Y-75411904D01*
X82763809Y-75364285D01*
X83001904Y-75364285D01*
X83097142Y-75411904D01*
X83144761Y-75459523D01*
X83192380Y-75554761D01*
X83192380Y-75840476D01*
X83144761Y-75935714D01*
X83097142Y-75983333D01*
%TO.C,C2*%
X68040142Y-70972666D02*
X68087761Y-71020285D01*
X68135380Y-71163142D01*
X68135380Y-71258380D01*
X68087761Y-71401238D01*
X67992523Y-71496476D01*
X67897285Y-71544095D01*
X67706809Y-71591714D01*
X67563952Y-71591714D01*
X67373476Y-71544095D01*
X67278238Y-71496476D01*
X67183000Y-71401238D01*
X67135380Y-71258380D01*
X67135380Y-71163142D01*
X67183000Y-71020285D01*
X67230619Y-70972666D01*
X67230619Y-70591714D02*
X67183000Y-70544095D01*
X67135380Y-70448857D01*
X67135380Y-70210761D01*
X67183000Y-70115523D01*
X67230619Y-70067904D01*
X67325857Y-70020285D01*
X67421095Y-70020285D01*
X67563952Y-70067904D01*
X68135380Y-70639333D01*
X68135380Y-70020285D01*
%TO.C,F1*%
X53706666Y-109178571D02*
X53373333Y-109178571D01*
X53373333Y-109702380D02*
X53373333Y-108702380D01*
X53849523Y-108702380D01*
X54754285Y-109702380D02*
X54182857Y-109702380D01*
X54468571Y-109702380D02*
X54468571Y-108702380D01*
X54373333Y-108845238D01*
X54278095Y-108940476D01*
X54182857Y-108988095D01*
%TO.C,D8*%
X58492380Y-111838095D02*
X57492380Y-111838095D01*
X57492380Y-111600000D01*
X57540000Y-111457142D01*
X57635238Y-111361904D01*
X57730476Y-111314285D01*
X57920952Y-111266666D01*
X58063809Y-111266666D01*
X58254285Y-111314285D01*
X58349523Y-111361904D01*
X58444761Y-111457142D01*
X58492380Y-111600000D01*
X58492380Y-111838095D01*
X57920952Y-110695238D02*
X57873333Y-110790476D01*
X57825714Y-110838095D01*
X57730476Y-110885714D01*
X57682857Y-110885714D01*
X57587619Y-110838095D01*
X57540000Y-110790476D01*
X57492380Y-110695238D01*
X57492380Y-110504761D01*
X57540000Y-110409523D01*
X57587619Y-110361904D01*
X57682857Y-110314285D01*
X57730476Y-110314285D01*
X57825714Y-110361904D01*
X57873333Y-110409523D01*
X57920952Y-110504761D01*
X57920952Y-110695238D01*
X57968571Y-110790476D01*
X58016190Y-110838095D01*
X58111428Y-110885714D01*
X58301904Y-110885714D01*
X58397142Y-110838095D01*
X58444761Y-110790476D01*
X58492380Y-110695238D01*
X58492380Y-110504761D01*
X58444761Y-110409523D01*
X58397142Y-110361904D01*
X58301904Y-110314285D01*
X58111428Y-110314285D01*
X58016190Y-110361904D01*
X57968571Y-110409523D01*
X57920952Y-110504761D01*
%TO.C,K1*%
D16*
X64290284Y-69162273D02*
X63288552Y-69162273D01*
X64290284Y-68589855D02*
X63717866Y-69019169D01*
X63288552Y-68589855D02*
X63860970Y-69162273D01*
X64290284Y-67635824D02*
X64290284Y-68208243D01*
X64290284Y-67922034D02*
X63288552Y-67922034D01*
X63431657Y-68017437D01*
X63527060Y-68112840D01*
X63574761Y-68208243D01*
%TO.C,D7*%
D15*
X56301904Y-61752380D02*
X56301904Y-60752380D01*
X56540000Y-60752380D01*
X56682857Y-60800000D01*
X56778095Y-60895238D01*
X56825714Y-60990476D01*
X56873333Y-61180952D01*
X56873333Y-61323809D01*
X56825714Y-61514285D01*
X56778095Y-61609523D01*
X56682857Y-61704761D01*
X56540000Y-61752380D01*
X56301904Y-61752380D01*
X57206666Y-60752380D02*
X57873333Y-60752380D01*
X57444761Y-61752380D01*
X62578095Y-63802380D02*
X62578095Y-62802380D01*
X63149523Y-63802380D02*
X62720952Y-63230952D01*
X63149523Y-62802380D02*
X62578095Y-63373809D01*
%TO.C,D6*%
X91342380Y-76488095D02*
X90342380Y-76488095D01*
X90342380Y-76250000D01*
X90390000Y-76107142D01*
X90485238Y-76011904D01*
X90580476Y-75964285D01*
X90770952Y-75916666D01*
X90913809Y-75916666D01*
X91104285Y-75964285D01*
X91199523Y-76011904D01*
X91294761Y-76107142D01*
X91342380Y-76250000D01*
X91342380Y-76488095D01*
X90342380Y-75059523D02*
X90342380Y-75250000D01*
X90390000Y-75345238D01*
X90437619Y-75392857D01*
X90580476Y-75488095D01*
X90770952Y-75535714D01*
X91151904Y-75535714D01*
X91247142Y-75488095D01*
X91294761Y-75440476D01*
X91342380Y-75345238D01*
X91342380Y-75154761D01*
X91294761Y-75059523D01*
X91247142Y-75011904D01*
X91151904Y-74964285D01*
X90913809Y-74964285D01*
X90818571Y-75011904D01*
X90770952Y-75059523D01*
X90723333Y-75154761D01*
X90723333Y-75345238D01*
X90770952Y-75440476D01*
X90818571Y-75488095D01*
X90913809Y-75535714D01*
%TO.C,SW1*%
X117594761Y-69163333D02*
X117642380Y-69020476D01*
X117642380Y-68782380D01*
X117594761Y-68687142D01*
X117547142Y-68639523D01*
X117451904Y-68591904D01*
X117356666Y-68591904D01*
X117261428Y-68639523D01*
X117213809Y-68687142D01*
X117166190Y-68782380D01*
X117118571Y-68972857D01*
X117070952Y-69068095D01*
X117023333Y-69115714D01*
X116928095Y-69163333D01*
X116832857Y-69163333D01*
X116737619Y-69115714D01*
X116690000Y-69068095D01*
X116642380Y-68972857D01*
X116642380Y-68734761D01*
X116690000Y-68591904D01*
X116642380Y-68258571D02*
X117642380Y-68020476D01*
X116928095Y-67830000D01*
X117642380Y-67639523D01*
X116642380Y-67401428D01*
X117642380Y-66496666D02*
X117642380Y-67068095D01*
X117642380Y-66782380D02*
X116642380Y-66782380D01*
X116785238Y-66877619D01*
X116880476Y-66972857D01*
X116928095Y-67068095D01*
%TO.C,J2*%
X120342380Y-77233333D02*
X121056666Y-77233333D01*
X121199523Y-77280952D01*
X121294761Y-77376190D01*
X121342380Y-77519047D01*
X121342380Y-77614285D01*
X120437619Y-76804761D02*
X120390000Y-76757142D01*
X120342380Y-76661904D01*
X120342380Y-76423809D01*
X120390000Y-76328571D01*
X120437619Y-76280952D01*
X120532857Y-76233333D01*
X120628095Y-76233333D01*
X120770952Y-76280952D01*
X121342380Y-76852380D01*
X121342380Y-76233333D01*
%TO.C,D5*%
X106642380Y-76838095D02*
X105642380Y-76838095D01*
X105642380Y-76600000D01*
X105690000Y-76457142D01*
X105785238Y-76361904D01*
X105880476Y-76314285D01*
X106070952Y-76266666D01*
X106213809Y-76266666D01*
X106404285Y-76314285D01*
X106499523Y-76361904D01*
X106594761Y-76457142D01*
X106642380Y-76600000D01*
X106642380Y-76838095D01*
X105642380Y-75361904D02*
X105642380Y-75838095D01*
X106118571Y-75885714D01*
X106070952Y-75838095D01*
X106023333Y-75742857D01*
X106023333Y-75504761D01*
X106070952Y-75409523D01*
X106118571Y-75361904D01*
X106213809Y-75314285D01*
X106451904Y-75314285D01*
X106547142Y-75361904D01*
X106594761Y-75409523D01*
X106642380Y-75504761D01*
X106642380Y-75742857D01*
X106594761Y-75838095D01*
X106547142Y-75885714D01*
%TO.C,D4*%
X102942380Y-76788095D02*
X101942380Y-76788095D01*
X101942380Y-76550000D01*
X101990000Y-76407142D01*
X102085238Y-76311904D01*
X102180476Y-76264285D01*
X102370952Y-76216666D01*
X102513809Y-76216666D01*
X102704285Y-76264285D01*
X102799523Y-76311904D01*
X102894761Y-76407142D01*
X102942380Y-76550000D01*
X102942380Y-76788095D01*
X102275714Y-75359523D02*
X102942380Y-75359523D01*
X101894761Y-75597619D02*
X102609047Y-75835714D01*
X102609047Y-75216666D01*
%TO.C,D3*%
X96392380Y-76388095D02*
X95392380Y-76388095D01*
X95392380Y-76150000D01*
X95440000Y-76007142D01*
X95535238Y-75911904D01*
X95630476Y-75864285D01*
X95820952Y-75816666D01*
X95963809Y-75816666D01*
X96154285Y-75864285D01*
X96249523Y-75911904D01*
X96344761Y-76007142D01*
X96392380Y-76150000D01*
X96392380Y-76388095D01*
X95392380Y-75483333D02*
X95392380Y-74864285D01*
X95773333Y-75197619D01*
X95773333Y-75054761D01*
X95820952Y-74959523D01*
X95868571Y-74911904D01*
X95963809Y-74864285D01*
X96201904Y-74864285D01*
X96297142Y-74911904D01*
X96344761Y-74959523D01*
X96392380Y-75054761D01*
X96392380Y-75340476D01*
X96344761Y-75435714D01*
X96297142Y-75483333D01*
%TD*%
M02*
