M48
; DRILL file {KiCad (5.1.8)-1} date 11/24/20 12:39:18
; FORMAT={-:-/ absolute / inch / decimal}
; #@! TF.CreationDate,2020-11-24T12:39:18+01:00
; #@! TF.GenerationSoftware,Kicad,Pcbnew,(5.1.8)-1
; #@! TF.FileFunction,Plated,1,2,PTH
FMAT,2
INCH
T1C0.0157
T2C0.0197
T3C0.0315
T4C0.0354
T5C0.0394
T6C0.0409
T7C0.1260
%
G90
G05
T1
X1.7047Y-2.813
X1.7047Y-4.5846
X2.0984Y-2.4193
X2.0984Y-4.9783
X2.4921Y-2.4193
X2.4921Y-4.9783
X2.5106Y-3.6906
X2.7126Y-3.5295
X2.7134Y-3.8524
X2.8858Y-2.4193
X2.8858Y-4.9783
X2.9331Y-4.298
X3.0528Y-3.7933
X3.2646Y-2.7921
X3.2693Y-3.0059
X3.2795Y-2.4193
X3.2795Y-4.9783
X3.2799Y-3.4894
X3.3268Y-3.6902
X3.4146Y-3.8421
X3.5055Y-3.0059
X3.6236Y-3.4783
X3.6732Y-2.4193
X3.6732Y-4.9783
X3.8008Y-3.065
X3.8795Y-2.7106
X4.037Y-2.9862
X4.0669Y-2.4193
X4.0669Y-4.9783
X4.2339Y-3.5177
X4.2339Y-4.0886
X4.3717Y-3.9705
X4.411Y-2.9075
X4.4606Y-2.4193
X4.4606Y-4.9783
X4.5094Y-3.124
X4.8543Y-2.4193
X4.8543Y-2.813
X4.8543Y-3.2067
X4.8543Y-3.6004
X4.8543Y-3.7972
X4.8543Y-4.1909
X4.8543Y-4.5846
X4.8543Y-4.9783
T2
X4.5224Y-3.0067
X4.5224Y-3.0461
X4.5618Y-3.0067
X4.5618Y-3.0461
X4.6012Y-3.0067
X4.6012Y-3.0461
X4.6406Y-3.0067
X4.6406Y-3.0461
X4.6799Y-3.0067
X4.6799Y-3.0461
T3
X2.098Y-2.4902
X2.398Y-2.4902
T4
X3.7827Y-2.7898
X3.7827Y-2.8898
X3.5827Y-2.7898
X3.5827Y-2.8898
X4.1827Y-2.7898
X4.1827Y-2.8898
X3.9827Y-2.7898
X3.9827Y-2.8898
T5
X1.724Y-3.5376
X1.724Y-3.6467
X1.724Y-3.7557
X1.724Y-3.8648
X1.8358Y-3.4831
X1.8358Y-3.5921
X1.8358Y-3.7012
X1.8358Y-3.8102
X1.8358Y-3.9193
X2.085Y-3.5524
X2.085Y-3.8524
X2.285Y-3.5524
X2.285Y-3.8524
X2.485Y-3.5524
X2.485Y-3.8524
X2.785Y-3.5524
X2.785Y-3.8524
X3.2705Y-4.615
X3.2705Y-4.8118
X3.4626Y-4.615
X3.4626Y-4.8118
X3.6547Y-4.615
X3.6547Y-4.8118
X3.8469Y-4.615
X3.8469Y-4.8118
X4.039Y-4.615
X4.039Y-4.8118
X4.2311Y-4.615
X4.2311Y-4.8118
X4.4232Y-4.615
X4.4232Y-4.8118
X4.6154Y-4.615
X4.6154Y-4.8118
X2.0878Y-2.6193
X2.0878Y-2.9193
X2.0878Y-3.1193
X2.0878Y-3.3193
X2.3878Y-2.6193
X2.3878Y-2.9193
X2.3878Y-3.1193
X2.3878Y-3.3193
T6
X3.0293Y-3.1731
X3.0343Y-4.1681
X3.1293Y-3.1731
X3.1343Y-4.1681
X3.2293Y-3.1731
X3.2343Y-4.1681
X3.3293Y-3.1731
X3.3343Y-4.1681
X3.4293Y-3.1731
X3.4343Y-4.1681
X3.5293Y-3.1731
X3.5343Y-4.1681
X3.6293Y-3.1731
X3.6343Y-4.1681
X3.7293Y-3.1731
X3.7343Y-4.1681
X3.8293Y-3.1731
X3.8343Y-4.1681
X3.9293Y-3.1731
X3.9343Y-4.1681
X4.0293Y-3.1731
X4.0343Y-4.1681
X4.1293Y-3.1731
X4.1343Y-4.1681
X4.2293Y-3.1731
X4.2343Y-4.1681
X4.3293Y-3.1731
X4.3343Y-4.1681
X4.4293Y-3.1731
X4.4343Y-4.1681
T7
X4.8244Y-4.7293
X1.8717Y-4.7293
X1.8717Y-2.564
X1.824Y-3.2091
X1.824Y-4.1933
T0
M30
