%TF.GenerationSoftware,KiCad,Pcbnew,(5.1.6)-1*%
%TF.CreationDate,2020-11-27T15:12:50+01:00*%
%TF.ProjectId,Board,426f6172-642e-46b6-9963-61645f706362,rev?*%
%TF.SameCoordinates,PX253b400PY7a67730*%
%TF.FileFunction,Paste,Top*%
%TF.FilePolarity,Positive*%
%FSLAX46Y46*%
G04 Gerber Fmt 4.6, Leading zero omitted, Abs format (unit mm)*
G04 Created by KiCad (PCBNEW (5.1.6)-1) date 2020-11-27 15:12:50*
%MOMM*%
%LPD*%
G01*
G04 APERTURE LIST*
%TA.AperFunction,Profile*%
%ADD10C,0.050000*%
%TD*%
%ADD11R,2.200000X2.750000*%
%ADD12R,1.450000X0.450000*%
%ADD13R,1.800000X2.500000*%
%ADD14R,1.000000X2.800000*%
G04 APERTURE END LIST*
D10*
X0Y70000000D02*
X0Y0D01*
X87500000Y70000000D02*
X0Y70000000D01*
X87500000Y0D02*
X87500000Y70000000D01*
X0Y0D02*
X87500000Y0D01*
D11*
%TO.C,L1*%
X37280000Y57580000D03*
X32580000Y57580000D03*
%TD*%
%TO.C,L3*%
X29850000Y21680000D03*
X25150000Y21680000D03*
%TD*%
D12*
%TO.C,U1*%
X35780000Y53555000D03*
X35780000Y52905000D03*
X35780000Y52255000D03*
X35780000Y51605000D03*
X31380000Y51605000D03*
X31380000Y52255000D03*
X31380000Y52905000D03*
X31380000Y53555000D03*
%TD*%
%TO.C,R20*%
G36*
G01*
X41931500Y51055000D02*
X42406500Y51055000D01*
G75*
G02*
X42644000Y50817500I0J-237500D01*
G01*
X42644000Y50317500D01*
G75*
G02*
X42406500Y50080000I-237500J0D01*
G01*
X41931500Y50080000D01*
G75*
G02*
X41694000Y50317500I0J237500D01*
G01*
X41694000Y50817500D01*
G75*
G02*
X41931500Y51055000I237500J0D01*
G01*
G37*
G36*
G01*
X41931500Y52880000D02*
X42406500Y52880000D01*
G75*
G02*
X42644000Y52642500I0J-237500D01*
G01*
X42644000Y52142500D01*
G75*
G02*
X42406500Y51905000I-237500J0D01*
G01*
X41931500Y51905000D01*
G75*
G02*
X41694000Y52142500I0J237500D01*
G01*
X41694000Y52642500D01*
G75*
G02*
X41931500Y52880000I237500J0D01*
G01*
G37*
%TD*%
%TO.C,R19*%
G36*
G01*
X41931500Y54555000D02*
X42406500Y54555000D01*
G75*
G02*
X42644000Y54317500I0J-237500D01*
G01*
X42644000Y53817500D01*
G75*
G02*
X42406500Y53580000I-237500J0D01*
G01*
X41931500Y53580000D01*
G75*
G02*
X41694000Y53817500I0J237500D01*
G01*
X41694000Y54317500D01*
G75*
G02*
X41931500Y54555000I237500J0D01*
G01*
G37*
G36*
G01*
X41931500Y56380000D02*
X42406500Y56380000D01*
G75*
G02*
X42644000Y56142500I0J-237500D01*
G01*
X42644000Y55642500D01*
G75*
G02*
X42406500Y55405000I-237500J0D01*
G01*
X41931500Y55405000D01*
G75*
G02*
X41694000Y55642500I0J237500D01*
G01*
X41694000Y56142500D01*
G75*
G02*
X41931500Y56380000I237500J0D01*
G01*
G37*
%TD*%
%TO.C,R16*%
G36*
G01*
X52207500Y61215000D02*
X51732500Y61215000D01*
G75*
G02*
X51495000Y61452500I0J237500D01*
G01*
X51495000Y61952500D01*
G75*
G02*
X51732500Y62190000I237500J0D01*
G01*
X52207500Y62190000D01*
G75*
G02*
X52445000Y61952500I0J-237500D01*
G01*
X52445000Y61452500D01*
G75*
G02*
X52207500Y61215000I-237500J0D01*
G01*
G37*
G36*
G01*
X52207500Y59390000D02*
X51732500Y59390000D01*
G75*
G02*
X51495000Y59627500I0J237500D01*
G01*
X51495000Y60127500D01*
G75*
G02*
X51732500Y60365000I237500J0D01*
G01*
X52207500Y60365000D01*
G75*
G02*
X52445000Y60127500I0J-237500D01*
G01*
X52445000Y59627500D01*
G75*
G02*
X52207500Y59390000I-237500J0D01*
G01*
G37*
%TD*%
%TO.C,R15*%
G36*
G01*
X67437500Y61207500D02*
X66962500Y61207500D01*
G75*
G02*
X66725000Y61445000I0J237500D01*
G01*
X66725000Y61945000D01*
G75*
G02*
X66962500Y62182500I237500J0D01*
G01*
X67437500Y62182500D01*
G75*
G02*
X67675000Y61945000I0J-237500D01*
G01*
X67675000Y61445000D01*
G75*
G02*
X67437500Y61207500I-237500J0D01*
G01*
G37*
G36*
G01*
X67437500Y59382500D02*
X66962500Y59382500D01*
G75*
G02*
X66725000Y59620000I0J237500D01*
G01*
X66725000Y60120000D01*
G75*
G02*
X66962500Y60357500I237500J0D01*
G01*
X67437500Y60357500D01*
G75*
G02*
X67675000Y60120000I0J-237500D01*
G01*
X67675000Y59620000D01*
G75*
G02*
X67437500Y59382500I-237500J0D01*
G01*
G37*
%TD*%
%TO.C,R14*%
G36*
G01*
X62367500Y61217500D02*
X61892500Y61217500D01*
G75*
G02*
X61655000Y61455000I0J237500D01*
G01*
X61655000Y61955000D01*
G75*
G02*
X61892500Y62192500I237500J0D01*
G01*
X62367500Y62192500D01*
G75*
G02*
X62605000Y61955000I0J-237500D01*
G01*
X62605000Y61455000D01*
G75*
G02*
X62367500Y61217500I-237500J0D01*
G01*
G37*
G36*
G01*
X62367500Y59392500D02*
X61892500Y59392500D01*
G75*
G02*
X61655000Y59630000I0J237500D01*
G01*
X61655000Y60130000D01*
G75*
G02*
X61892500Y60367500I237500J0D01*
G01*
X62367500Y60367500D01*
G75*
G02*
X62605000Y60130000I0J-237500D01*
G01*
X62605000Y59630000D01*
G75*
G02*
X62367500Y59392500I-237500J0D01*
G01*
G37*
%TD*%
%TO.C,R13*%
G36*
G01*
X57287500Y61217500D02*
X56812500Y61217500D01*
G75*
G02*
X56575000Y61455000I0J237500D01*
G01*
X56575000Y61955000D01*
G75*
G02*
X56812500Y62192500I237500J0D01*
G01*
X57287500Y62192500D01*
G75*
G02*
X57525000Y61955000I0J-237500D01*
G01*
X57525000Y61455000D01*
G75*
G02*
X57287500Y61217500I-237500J0D01*
G01*
G37*
G36*
G01*
X57287500Y59392500D02*
X56812500Y59392500D01*
G75*
G02*
X56575000Y59630000I0J237500D01*
G01*
X56575000Y60130000D01*
G75*
G02*
X56812500Y60367500I237500J0D01*
G01*
X57287500Y60367500D01*
G75*
G02*
X57525000Y60130000I0J-237500D01*
G01*
X57525000Y59630000D01*
G75*
G02*
X57287500Y59392500I-237500J0D01*
G01*
G37*
%TD*%
%TO.C,R8*%
G36*
G01*
X47782500Y50965000D02*
X48257500Y50965000D01*
G75*
G02*
X48495000Y50727500I0J-237500D01*
G01*
X48495000Y50227500D01*
G75*
G02*
X48257500Y49990000I-237500J0D01*
G01*
X47782500Y49990000D01*
G75*
G02*
X47545000Y50227500I0J237500D01*
G01*
X47545000Y50727500D01*
G75*
G02*
X47782500Y50965000I237500J0D01*
G01*
G37*
G36*
G01*
X47782500Y52790000D02*
X48257500Y52790000D01*
G75*
G02*
X48495000Y52552500I0J-237500D01*
G01*
X48495000Y52052500D01*
G75*
G02*
X48257500Y51815000I-237500J0D01*
G01*
X47782500Y51815000D01*
G75*
G02*
X47545000Y52052500I0J237500D01*
G01*
X47545000Y52552500D01*
G75*
G02*
X47782500Y52790000I237500J0D01*
G01*
G37*
%TD*%
%TO.C,R3*%
G36*
G01*
X38217500Y53317500D02*
X37742500Y53317500D01*
G75*
G02*
X37505000Y53555000I0J237500D01*
G01*
X37505000Y54055000D01*
G75*
G02*
X37742500Y54292500I237500J0D01*
G01*
X38217500Y54292500D01*
G75*
G02*
X38455000Y54055000I0J-237500D01*
G01*
X38455000Y53555000D01*
G75*
G02*
X38217500Y53317500I-237500J0D01*
G01*
G37*
G36*
G01*
X38217500Y51492500D02*
X37742500Y51492500D01*
G75*
G02*
X37505000Y51730000I0J237500D01*
G01*
X37505000Y52230000D01*
G75*
G02*
X37742500Y52467500I237500J0D01*
G01*
X38217500Y52467500D01*
G75*
G02*
X38455000Y52230000I0J-237500D01*
G01*
X38455000Y51730000D01*
G75*
G02*
X38217500Y51492500I-237500J0D01*
G01*
G37*
%TD*%
%TO.C,C10*%
G36*
G01*
X43642500Y54655000D02*
X44117500Y54655000D01*
G75*
G02*
X44355000Y54417500I0J-237500D01*
G01*
X44355000Y53817500D01*
G75*
G02*
X44117500Y53580000I-237500J0D01*
G01*
X43642500Y53580000D01*
G75*
G02*
X43405000Y53817500I0J237500D01*
G01*
X43405000Y54417500D01*
G75*
G02*
X43642500Y54655000I237500J0D01*
G01*
G37*
G36*
G01*
X43642500Y56380000D02*
X44117500Y56380000D01*
G75*
G02*
X44355000Y56142500I0J-237500D01*
G01*
X44355000Y55542500D01*
G75*
G02*
X44117500Y55305000I-237500J0D01*
G01*
X43642500Y55305000D01*
G75*
G02*
X43405000Y55542500I0J237500D01*
G01*
X43405000Y56142500D01*
G75*
G02*
X43642500Y56380000I237500J0D01*
G01*
G37*
%TD*%
%TO.C,C9*%
G36*
G01*
X27007500Y53397500D02*
X26532500Y53397500D01*
G75*
G02*
X26295000Y53635000I0J237500D01*
G01*
X26295000Y54235000D01*
G75*
G02*
X26532500Y54472500I237500J0D01*
G01*
X27007500Y54472500D01*
G75*
G02*
X27245000Y54235000I0J-237500D01*
G01*
X27245000Y53635000D01*
G75*
G02*
X27007500Y53397500I-237500J0D01*
G01*
G37*
G36*
G01*
X27007500Y51672500D02*
X26532500Y51672500D01*
G75*
G02*
X26295000Y51910000I0J237500D01*
G01*
X26295000Y52510000D01*
G75*
G02*
X26532500Y52747500I237500J0D01*
G01*
X27007500Y52747500D01*
G75*
G02*
X27245000Y52510000I0J-237500D01*
G01*
X27245000Y51910000D01*
G75*
G02*
X27007500Y51672500I-237500J0D01*
G01*
G37*
%TD*%
%TO.C,C8*%
G36*
G01*
X73815000Y55337500D02*
X73815000Y54862500D01*
G75*
G02*
X73577500Y54625000I-237500J0D01*
G01*
X72977500Y54625000D01*
G75*
G02*
X72740000Y54862500I0J237500D01*
G01*
X72740000Y55337500D01*
G75*
G02*
X72977500Y55575000I237500J0D01*
G01*
X73577500Y55575000D01*
G75*
G02*
X73815000Y55337500I0J-237500D01*
G01*
G37*
G36*
G01*
X75540000Y55337500D02*
X75540000Y54862500D01*
G75*
G02*
X75302500Y54625000I-237500J0D01*
G01*
X74702500Y54625000D01*
G75*
G02*
X74465000Y54862500I0J237500D01*
G01*
X74465000Y55337500D01*
G75*
G02*
X74702500Y55575000I237500J0D01*
G01*
X75302500Y55575000D01*
G75*
G02*
X75540000Y55337500I0J-237500D01*
G01*
G37*
%TD*%
%TO.C,FB2*%
G36*
G01*
X42605000Y57817500D02*
X42605000Y57342500D01*
G75*
G02*
X42367500Y57105000I-237500J0D01*
G01*
X41792500Y57105000D01*
G75*
G02*
X41555000Y57342500I0J237500D01*
G01*
X41555000Y57817500D01*
G75*
G02*
X41792500Y58055000I237500J0D01*
G01*
X42367500Y58055000D01*
G75*
G02*
X42605000Y57817500I0J-237500D01*
G01*
G37*
G36*
G01*
X44355000Y57817500D02*
X44355000Y57342500D01*
G75*
G02*
X44117500Y57105000I-237500J0D01*
G01*
X43542500Y57105000D01*
G75*
G02*
X43305000Y57342500I0J237500D01*
G01*
X43305000Y57817500D01*
G75*
G02*
X43542500Y58055000I237500J0D01*
G01*
X44117500Y58055000D01*
G75*
G02*
X44355000Y57817500I0J-237500D01*
G01*
G37*
%TD*%
%TO.C,FB1*%
G36*
G01*
X27795000Y49947500D02*
X27795000Y49472500D01*
G75*
G02*
X27557500Y49235000I-237500J0D01*
G01*
X26982500Y49235000D01*
G75*
G02*
X26745000Y49472500I0J237500D01*
G01*
X26745000Y49947500D01*
G75*
G02*
X26982500Y50185000I237500J0D01*
G01*
X27557500Y50185000D01*
G75*
G02*
X27795000Y49947500I0J-237500D01*
G01*
G37*
G36*
G01*
X29545000Y49947500D02*
X29545000Y49472500D01*
G75*
G02*
X29307500Y49235000I-237500J0D01*
G01*
X28732500Y49235000D01*
G75*
G02*
X28495000Y49472500I0J237500D01*
G01*
X28495000Y49947500D01*
G75*
G02*
X28732500Y50185000I237500J0D01*
G01*
X29307500Y50185000D01*
G75*
G02*
X29545000Y49947500I0J-237500D01*
G01*
G37*
%TD*%
%TO.C,C16*%
G36*
G01*
X32249999Y16150000D02*
X33550001Y16150000D01*
G75*
G02*
X33800000Y15900001I0J-249999D01*
G01*
X33800000Y15074999D01*
G75*
G02*
X33550001Y14825000I-249999J0D01*
G01*
X32249999Y14825000D01*
G75*
G02*
X32000000Y15074999I0J249999D01*
G01*
X32000000Y15900001D01*
G75*
G02*
X32249999Y16150000I249999J0D01*
G01*
G37*
G36*
G01*
X32249999Y19275000D02*
X33550001Y19275000D01*
G75*
G02*
X33800000Y19025001I0J-249999D01*
G01*
X33800000Y18199999D01*
G75*
G02*
X33550001Y17950000I-249999J0D01*
G01*
X32249999Y17950000D01*
G75*
G02*
X32000000Y18199999I0J249999D01*
G01*
X32000000Y19025001D01*
G75*
G02*
X32249999Y19275000I249999J0D01*
G01*
G37*
%TD*%
%TO.C,C3*%
G36*
G01*
X39329999Y55037500D02*
X40630001Y55037500D01*
G75*
G02*
X40880000Y54787501I0J-249999D01*
G01*
X40880000Y53962499D01*
G75*
G02*
X40630001Y53712500I-249999J0D01*
G01*
X39329999Y53712500D01*
G75*
G02*
X39080000Y53962499I0J249999D01*
G01*
X39080000Y54787501D01*
G75*
G02*
X39329999Y55037500I249999J0D01*
G01*
G37*
G36*
G01*
X39329999Y58162500D02*
X40630001Y58162500D01*
G75*
G02*
X40880000Y57912501I0J-249999D01*
G01*
X40880000Y57087499D01*
G75*
G02*
X40630001Y56837500I-249999J0D01*
G01*
X39329999Y56837500D01*
G75*
G02*
X39080000Y57087499I0J249999D01*
G01*
X39080000Y57912501D01*
G75*
G02*
X39329999Y58162500I249999J0D01*
G01*
G37*
%TD*%
%TO.C,C2*%
G36*
G01*
X29420001Y54672500D02*
X28119999Y54672500D01*
G75*
G02*
X27870000Y54922499I0J249999D01*
G01*
X27870000Y55747501D01*
G75*
G02*
X28119999Y55997500I249999J0D01*
G01*
X29420001Y55997500D01*
G75*
G02*
X29670000Y55747501I0J-249999D01*
G01*
X29670000Y54922499D01*
G75*
G02*
X29420001Y54672500I-249999J0D01*
G01*
G37*
G36*
G01*
X29420001Y51547500D02*
X28119999Y51547500D01*
G75*
G02*
X27870000Y51797499I0J249999D01*
G01*
X27870000Y52622501D01*
G75*
G02*
X28119999Y52872500I249999J0D01*
G01*
X29420001Y52872500D01*
G75*
G02*
X29670000Y52622501I0J-249999D01*
G01*
X29670000Y51797499D01*
G75*
G02*
X29420001Y51547500I-249999J0D01*
G01*
G37*
%TD*%
%TO.C,F1*%
G36*
G01*
X13487500Y23185001D02*
X13487500Y20334999D01*
G75*
G02*
X13237501Y20085000I-249999J0D01*
G01*
X12212499Y20085000D01*
G75*
G02*
X11962500Y20334999I0J249999D01*
G01*
X11962500Y23185001D01*
G75*
G02*
X12212499Y23435000I249999J0D01*
G01*
X13237501Y23435000D01*
G75*
G02*
X13487500Y23185001I0J-249999D01*
G01*
G37*
G36*
G01*
X19462500Y23185001D02*
X19462500Y20334999D01*
G75*
G02*
X19212501Y20085000I-249999J0D01*
G01*
X18187499Y20085000D01*
G75*
G02*
X17937500Y20334999I0J249999D01*
G01*
X17937500Y23185001D01*
G75*
G02*
X18187499Y23435000I249999J0D01*
G01*
X19212501Y23435000D01*
G75*
G02*
X19462500Y23185001I0J-249999D01*
G01*
G37*
%TD*%
D13*
%TO.C,D8*%
X21660000Y17360000D03*
X21660000Y21360000D03*
%TD*%
D14*
%TO.C,SW1*%
X71910000Y57620000D03*
X71910000Y63420000D03*
X75910000Y57620000D03*
X75910000Y63420000D03*
%TD*%
M02*
