%TF.GenerationSoftware,KiCad,Pcbnew,(5.1.8)-1*%
%TF.CreationDate,2020-12-02T11:43:35+01:00*%
%TF.ProjectId,Board,426f6172-642e-46b6-9963-61645f706362,rev?*%
%TF.SameCoordinates,PX253b400PY7a67730*%
%TF.FileFunction,Soldermask,Bot*%
%TF.FilePolarity,Negative*%
%FSLAX46Y46*%
G04 Gerber Fmt 4.6, Leading zero omitted, Abs format (unit mm)*
G04 Created by KiCad (PCBNEW (5.1.8)-1) date 2020-12-02 11:43:35*
%MOMM*%
%LPD*%
G01*
G04 APERTURE LIST*
%TA.AperFunction,Profile*%
%ADD10C,0.050000*%
%TD*%
%ADD11O,1.800000X1.800000*%
%ADD12C,1.000000*%
%ADD13C,1.700000*%
%ADD14C,5.700000*%
%ADD15O,1.700000X1.700000*%
%ADD16C,4.100000*%
%ADD17C,1.624000*%
%ADD18C,1.608000*%
%ADD19C,1.900000*%
%ADD20C,0.900000*%
G04 APERTURE END LIST*
D10*
X0Y70000000D02*
X0Y0D01*
X87500000Y70000000D02*
X0Y70000000D01*
X87500000Y0D02*
X87500000Y70000000D01*
X0Y0D02*
X87500000Y0D01*
D11*
X72160000Y51430000D03*
X72160000Y53970000D03*
X74700000Y51430000D03*
X74700000Y53970000D03*
X77240000Y51430000D03*
X77240000Y53970000D03*
X79780000Y51430000D03*
X79780000Y53970000D03*
X82320000Y51430000D03*
G36*
G01*
X81470000Y54870000D02*
X83170000Y54870000D01*
G75*
G02*
X83220000Y54820000I0J-50000D01*
G01*
X83220000Y53120000D01*
G75*
G02*
X83170000Y53070000I-50000J0D01*
G01*
X81470000Y53070000D01*
G75*
G02*
X81420000Y53120000I0J50000D01*
G01*
X81420000Y54820000D01*
G75*
G02*
X81470000Y54870000I50000J0D01*
G01*
G37*
D12*
X8000000Y54500000D03*
D13*
X39262000Y22374000D03*
X41802000Y22374000D03*
X44342000Y22374000D03*
X46882000Y22374000D03*
X49422000Y22374000D03*
X51962000Y22374000D03*
X54502000Y22374000D03*
X57042000Y22374000D03*
X59582000Y22374000D03*
X62122000Y22374000D03*
X64662000Y22374000D03*
X67202000Y22374000D03*
X69742000Y22374000D03*
X72282000Y22374000D03*
X74822000Y22374000D03*
X39262000Y47774000D03*
X41802000Y47774000D03*
X44342000Y47774000D03*
X46882000Y47774000D03*
X49422000Y47774000D03*
X51962000Y47774000D03*
X54502000Y47774000D03*
X57042000Y47774000D03*
X59582000Y47774000D03*
X62122000Y47774000D03*
X64662000Y47774000D03*
X67202000Y47774000D03*
X69742000Y47774000D03*
X72282000Y47774000D03*
X74822000Y47774000D03*
D14*
X83800000Y6600000D03*
X83800000Y61600000D03*
X8800000Y61600000D03*
X8800000Y6600000D03*
D15*
X30270000Y41050000D03*
G36*
G01*
X21800000Y40250000D02*
X21800000Y41850000D01*
G75*
G02*
X21850000Y41900000I50000J0D01*
G01*
X23450000Y41900000D01*
G75*
G02*
X23500000Y41850000I0J-50000D01*
G01*
X23500000Y40250000D01*
G75*
G02*
X23450000Y40200000I-50000J0D01*
G01*
X21850000Y40200000D01*
G75*
G02*
X21800000Y40250000I0J50000D01*
G01*
G37*
G36*
G01*
X34247500Y28022500D02*
X34772500Y28022500D01*
G75*
G02*
X35035000Y27760000I0J-262500D01*
G01*
X35035000Y27110000D01*
G75*
G02*
X34772500Y26847500I-262500J0D01*
G01*
X34247500Y26847500D01*
G75*
G02*
X33985000Y27110000I0J262500D01*
G01*
X33985000Y27760000D01*
G75*
G02*
X34247500Y28022500I262500J0D01*
G01*
G37*
G36*
G01*
X34247500Y29747500D02*
X34772500Y29747500D01*
G75*
G02*
X35035000Y29485000I0J-262500D01*
G01*
X35035000Y28835000D01*
G75*
G02*
X34772500Y28572500I-262500J0D01*
G01*
X34247500Y28572500D01*
G75*
G02*
X33985000Y28835000I0J262500D01*
G01*
X33985000Y29485000D01*
G75*
G02*
X34247500Y29747500I262500J0D01*
G01*
G37*
G36*
G01*
X51310000Y37647500D02*
X51310000Y38172500D01*
G75*
G02*
X51572500Y38435000I262500J0D01*
G01*
X52222500Y38435000D01*
G75*
G02*
X52485000Y38172500I0J-262500D01*
G01*
X52485000Y37647500D01*
G75*
G02*
X52222500Y37385000I-262500J0D01*
G01*
X51572500Y37385000D01*
G75*
G02*
X51310000Y37647500I0J262500D01*
G01*
G37*
G36*
G01*
X49585000Y37647500D02*
X49585000Y38172500D01*
G75*
G02*
X49847500Y38435000I262500J0D01*
G01*
X50497500Y38435000D01*
G75*
G02*
X50760000Y38172500I0J-262500D01*
G01*
X50760000Y37647500D01*
G75*
G02*
X50497500Y37385000I-262500J0D01*
G01*
X49847500Y37385000D01*
G75*
G02*
X49585000Y37647500I0J262500D01*
G01*
G37*
D16*
X7200000Y21810000D03*
X7200000Y46810000D03*
D13*
X4660000Y30155000D03*
X4660000Y32925000D03*
X4660000Y35695000D03*
X4660000Y38465000D03*
X7500000Y28770000D03*
X7500000Y31540000D03*
X7500000Y34310000D03*
X7500000Y37080000D03*
G36*
G01*
X6700000Y40700000D02*
X8300000Y40700000D01*
G75*
G02*
X8350000Y40650000I0J-50000D01*
G01*
X8350000Y39050000D01*
G75*
G02*
X8300000Y39000000I-50000J0D01*
G01*
X6700000Y39000000D01*
G75*
G02*
X6650000Y39050000I0J50000D01*
G01*
X6650000Y40650000D01*
G75*
G02*
X6700000Y40700000I50000J0D01*
G01*
G37*
D17*
X44030000Y11130000D03*
X48910000Y11130000D03*
X53790000Y11130000D03*
X58670000Y11130000D03*
X63550000Y11130000D03*
X68430000Y11130000D03*
X73310000Y11130000D03*
X78190000Y11130000D03*
X44030000Y6130000D03*
X48910000Y6130000D03*
X53790000Y6130000D03*
X58670000Y6130000D03*
X63550000Y6130000D03*
X68430000Y6130000D03*
X73310000Y6130000D03*
X78190000Y6130000D03*
G36*
G01*
X31194000Y38914000D02*
X31194000Y37406000D01*
G75*
G02*
X31144000Y37356000I-50000J0D01*
G01*
X29636000Y37356000D01*
G75*
G02*
X29586000Y37406000I0J50000D01*
G01*
X29586000Y38914000D01*
G75*
G02*
X29636000Y38964000I50000J0D01*
G01*
X31144000Y38964000D01*
G75*
G02*
X31194000Y38914000I0J-50000D01*
G01*
G37*
D18*
X30390000Y30540000D03*
X22770000Y30540000D03*
X22770000Y38160000D03*
X17690000Y38160000D03*
X17690000Y30540000D03*
X12610000Y30540000D03*
X12610000Y38160000D03*
G36*
G01*
X44898500Y38616500D02*
X44898500Y38091500D01*
G75*
G02*
X44636000Y37829000I-262500J0D01*
G01*
X44086000Y37829000D01*
G75*
G02*
X43823500Y38091500I0J262500D01*
G01*
X43823500Y38616500D01*
G75*
G02*
X44086000Y38879000I262500J0D01*
G01*
X44636000Y38879000D01*
G75*
G02*
X44898500Y38616500I0J-262500D01*
G01*
G37*
G36*
G01*
X46723500Y38616500D02*
X46723500Y38091500D01*
G75*
G02*
X46461000Y37829000I-262500J0D01*
G01*
X45911000Y37829000D01*
G75*
G02*
X45648500Y38091500I0J262500D01*
G01*
X45648500Y38616500D01*
G75*
G02*
X45911000Y38879000I262500J0D01*
G01*
X46461000Y38879000D01*
G75*
G02*
X46723500Y38616500I0J-262500D01*
G01*
G37*
G36*
G01*
X19752500Y52627500D02*
X19227500Y52627500D01*
G75*
G02*
X18965000Y52890000I0J262500D01*
G01*
X18965000Y53440000D01*
G75*
G02*
X19227500Y53702500I262500J0D01*
G01*
X19752500Y53702500D01*
G75*
G02*
X20015000Y53440000I0J-262500D01*
G01*
X20015000Y52890000D01*
G75*
G02*
X19752500Y52627500I-262500J0D01*
G01*
G37*
G36*
G01*
X19752500Y50802500D02*
X19227500Y50802500D01*
G75*
G02*
X18965000Y51065000I0J262500D01*
G01*
X18965000Y51615000D01*
G75*
G02*
X19227500Y51877500I262500J0D01*
G01*
X19752500Y51877500D01*
G75*
G02*
X20015000Y51615000I0J-262500D01*
G01*
X20015000Y51065000D01*
G75*
G02*
X19752500Y50802500I-262500J0D01*
G01*
G37*
G36*
G01*
X22382500Y51007500D02*
X22382500Y51532500D01*
G75*
G02*
X22645000Y51795000I262500J0D01*
G01*
X23195000Y51795000D01*
G75*
G02*
X23457500Y51532500I0J-262500D01*
G01*
X23457500Y51007500D01*
G75*
G02*
X23195000Y50745000I-262500J0D01*
G01*
X22645000Y50745000D01*
G75*
G02*
X22382500Y51007500I0J262500D01*
G01*
G37*
G36*
G01*
X20557500Y51007500D02*
X20557500Y51532500D01*
G75*
G02*
X20820000Y51795000I262500J0D01*
G01*
X21370000Y51795000D01*
G75*
G02*
X21632500Y51532500I0J-262500D01*
G01*
X21632500Y51007500D01*
G75*
G02*
X21370000Y50745000I-262500J0D01*
G01*
X20820000Y50745000D01*
G75*
G02*
X20557500Y51007500I0J262500D01*
G01*
G37*
G36*
G01*
X75685000Y33722500D02*
X75685000Y33197500D01*
G75*
G02*
X75422500Y32935000I-262500J0D01*
G01*
X74872500Y32935000D01*
G75*
G02*
X74610000Y33197500I0J262500D01*
G01*
X74610000Y33722500D01*
G75*
G02*
X74872500Y33985000I262500J0D01*
G01*
X75422500Y33985000D01*
G75*
G02*
X75685000Y33722500I0J-262500D01*
G01*
G37*
G36*
G01*
X77510000Y33722500D02*
X77510000Y33197500D01*
G75*
G02*
X77247500Y32935000I-262500J0D01*
G01*
X76697500Y32935000D01*
G75*
G02*
X76435000Y33197500I0J262500D01*
G01*
X76435000Y33722500D01*
G75*
G02*
X76697500Y33985000I262500J0D01*
G01*
X77247500Y33985000D01*
G75*
G02*
X77510000Y33722500I0J-262500D01*
G01*
G37*
G36*
G01*
X75685000Y35272500D02*
X75685000Y34747500D01*
G75*
G02*
X75422500Y34485000I-262500J0D01*
G01*
X74872500Y34485000D01*
G75*
G02*
X74610000Y34747500I0J262500D01*
G01*
X74610000Y35272500D01*
G75*
G02*
X74872500Y35535000I262500J0D01*
G01*
X75422500Y35535000D01*
G75*
G02*
X75685000Y35272500I0J-262500D01*
G01*
G37*
G36*
G01*
X77510000Y35272500D02*
X77510000Y34747500D01*
G75*
G02*
X77247500Y34485000I-262500J0D01*
G01*
X76697500Y34485000D01*
G75*
G02*
X76435000Y34747500I0J262500D01*
G01*
X76435000Y35272500D01*
G75*
G02*
X76697500Y35535000I262500J0D01*
G01*
X77247500Y35535000D01*
G75*
G02*
X77510000Y35272500I0J-262500D01*
G01*
G37*
G36*
G01*
X75685000Y36822500D02*
X75685000Y36297500D01*
G75*
G02*
X75422500Y36035000I-262500J0D01*
G01*
X74872500Y36035000D01*
G75*
G02*
X74610000Y36297500I0J262500D01*
G01*
X74610000Y36822500D01*
G75*
G02*
X74872500Y37085000I262500J0D01*
G01*
X75422500Y37085000D01*
G75*
G02*
X75685000Y36822500I0J-262500D01*
G01*
G37*
G36*
G01*
X77510000Y36822500D02*
X77510000Y36297500D01*
G75*
G02*
X77247500Y36035000I-262500J0D01*
G01*
X76697500Y36035000D01*
G75*
G02*
X76435000Y36297500I0J262500D01*
G01*
X76435000Y36822500D01*
G75*
G02*
X76697500Y37085000I262500J0D01*
G01*
X77247500Y37085000D01*
G75*
G02*
X77510000Y36822500I0J-262500D01*
G01*
G37*
G36*
G01*
X75685000Y38372500D02*
X75685000Y37847500D01*
G75*
G02*
X75422500Y37585000I-262500J0D01*
G01*
X74872500Y37585000D01*
G75*
G02*
X74610000Y37847500I0J262500D01*
G01*
X74610000Y38372500D01*
G75*
G02*
X74872500Y38635000I262500J0D01*
G01*
X75422500Y38635000D01*
G75*
G02*
X75685000Y38372500I0J-262500D01*
G01*
G37*
G36*
G01*
X77510000Y38372500D02*
X77510000Y37847500D01*
G75*
G02*
X77247500Y37585000I-262500J0D01*
G01*
X76697500Y37585000D01*
G75*
G02*
X76435000Y37847500I0J262500D01*
G01*
X76435000Y38372500D01*
G75*
G02*
X76697500Y38635000I262500J0D01*
G01*
X77247500Y38635000D01*
G75*
G02*
X77510000Y38372500I0J-262500D01*
G01*
G37*
G36*
G01*
X41986500Y32391000D02*
X42511500Y32391000D01*
G75*
G02*
X42774000Y32128500I0J-262500D01*
G01*
X42774000Y31578500D01*
G75*
G02*
X42511500Y31316000I-262500J0D01*
G01*
X41986500Y31316000D01*
G75*
G02*
X41724000Y31578500I0J262500D01*
G01*
X41724000Y32128500D01*
G75*
G02*
X41986500Y32391000I262500J0D01*
G01*
G37*
G36*
G01*
X41986500Y34216000D02*
X42511500Y34216000D01*
G75*
G02*
X42774000Y33953500I0J-262500D01*
G01*
X42774000Y33403500D01*
G75*
G02*
X42511500Y33141000I-262500J0D01*
G01*
X41986500Y33141000D01*
G75*
G02*
X41724000Y33403500I0J262500D01*
G01*
X41724000Y33953500D01*
G75*
G02*
X41986500Y34216000I262500J0D01*
G01*
G37*
G36*
G01*
X41986500Y35970500D02*
X42511500Y35970500D01*
G75*
G02*
X42774000Y35708000I0J-262500D01*
G01*
X42774000Y35158000D01*
G75*
G02*
X42511500Y34895500I-262500J0D01*
G01*
X41986500Y34895500D01*
G75*
G02*
X41724000Y35158000I0J262500D01*
G01*
X41724000Y35708000D01*
G75*
G02*
X41986500Y35970500I262500J0D01*
G01*
G37*
G36*
G01*
X41986500Y37795500D02*
X42511500Y37795500D01*
G75*
G02*
X42774000Y37533000I0J-262500D01*
G01*
X42774000Y36983000D01*
G75*
G02*
X42511500Y36720500I-262500J0D01*
G01*
X41986500Y36720500D01*
G75*
G02*
X41724000Y36983000I0J262500D01*
G01*
X41724000Y37533000D01*
G75*
G02*
X41986500Y37795500I262500J0D01*
G01*
G37*
G36*
G01*
X34162500Y31912500D02*
X34162500Y31387500D01*
G75*
G02*
X33900000Y31125000I-262500J0D01*
G01*
X33350000Y31125000D01*
G75*
G02*
X33087500Y31387500I0J262500D01*
G01*
X33087500Y31912500D01*
G75*
G02*
X33350000Y32175000I262500J0D01*
G01*
X33900000Y32175000D01*
G75*
G02*
X34162500Y31912500I0J-262500D01*
G01*
G37*
G36*
G01*
X35987500Y31912500D02*
X35987500Y31387500D01*
G75*
G02*
X35725000Y31125000I-262500J0D01*
G01*
X35175000Y31125000D01*
G75*
G02*
X34912500Y31387500I0J262500D01*
G01*
X34912500Y31912500D01*
G75*
G02*
X35175000Y32175000I262500J0D01*
G01*
X35725000Y32175000D01*
G75*
G02*
X35987500Y31912500I0J-262500D01*
G01*
G37*
G36*
G01*
X34117500Y37662500D02*
X34117500Y37137500D01*
G75*
G02*
X33855000Y36875000I-262500J0D01*
G01*
X33305000Y36875000D01*
G75*
G02*
X33042500Y37137500I0J262500D01*
G01*
X33042500Y37662500D01*
G75*
G02*
X33305000Y37925000I262500J0D01*
G01*
X33855000Y37925000D01*
G75*
G02*
X34117500Y37662500I0J-262500D01*
G01*
G37*
G36*
G01*
X35942500Y37662500D02*
X35942500Y37137500D01*
G75*
G02*
X35680000Y36875000I-262500J0D01*
G01*
X35130000Y36875000D01*
G75*
G02*
X34867500Y37137500I0J262500D01*
G01*
X34867500Y37662500D01*
G75*
G02*
X35130000Y37925000I262500J0D01*
G01*
X35680000Y37925000D01*
G75*
G02*
X35942500Y37662500I0J-262500D01*
G01*
G37*
G36*
G01*
X47787500Y18232500D02*
X48312500Y18232500D01*
G75*
G02*
X48575000Y17970000I0J-262500D01*
G01*
X48575000Y17420000D01*
G75*
G02*
X48312500Y17157500I-262500J0D01*
G01*
X47787500Y17157500D01*
G75*
G02*
X47525000Y17420000I0J262500D01*
G01*
X47525000Y17970000D01*
G75*
G02*
X47787500Y18232500I262500J0D01*
G01*
G37*
G36*
G01*
X47787500Y20057500D02*
X48312500Y20057500D01*
G75*
G02*
X48575000Y19795000I0J-262500D01*
G01*
X48575000Y19245000D01*
G75*
G02*
X48312500Y18982500I-262500J0D01*
G01*
X47787500Y18982500D01*
G75*
G02*
X47525000Y19245000I0J262500D01*
G01*
X47525000Y19795000D01*
G75*
G02*
X47787500Y20057500I262500J0D01*
G01*
G37*
G36*
G01*
X45102500Y18982500D02*
X44577500Y18982500D01*
G75*
G02*
X44315000Y19245000I0J262500D01*
G01*
X44315000Y19795000D01*
G75*
G02*
X44577500Y20057500I262500J0D01*
G01*
X45102500Y20057500D01*
G75*
G02*
X45365000Y19795000I0J-262500D01*
G01*
X45365000Y19245000D01*
G75*
G02*
X45102500Y18982500I-262500J0D01*
G01*
G37*
G36*
G01*
X45102500Y17157500D02*
X44577500Y17157500D01*
G75*
G02*
X44315000Y17420000I0J262500D01*
G01*
X44315000Y17970000D01*
G75*
G02*
X44577500Y18232500I262500J0D01*
G01*
X45102500Y18232500D01*
G75*
G02*
X45365000Y17970000I0J-262500D01*
G01*
X45365000Y17420000D01*
G75*
G02*
X45102500Y17157500I-262500J0D01*
G01*
G37*
G36*
G01*
X72880000Y43527500D02*
X72880000Y44052500D01*
G75*
G02*
X73142500Y44315000I262500J0D01*
G01*
X73792500Y44315000D01*
G75*
G02*
X74055000Y44052500I0J-262500D01*
G01*
X74055000Y43527500D01*
G75*
G02*
X73792500Y43265000I-262500J0D01*
G01*
X73142500Y43265000D01*
G75*
G02*
X72880000Y43527500I0J262500D01*
G01*
G37*
G36*
G01*
X71155000Y43527500D02*
X71155000Y44052500D01*
G75*
G02*
X71417500Y44315000I262500J0D01*
G01*
X72067500Y44315000D01*
G75*
G02*
X72330000Y44052500I0J-262500D01*
G01*
X72330000Y43527500D01*
G75*
G02*
X72067500Y43265000I-262500J0D01*
G01*
X71417500Y43265000D01*
G75*
G02*
X71155000Y43527500I0J262500D01*
G01*
G37*
G36*
G01*
X72880000Y45437500D02*
X72880000Y45962500D01*
G75*
G02*
X73142500Y46225000I262500J0D01*
G01*
X73792500Y46225000D01*
G75*
G02*
X74055000Y45962500I0J-262500D01*
G01*
X74055000Y45437500D01*
G75*
G02*
X73792500Y45175000I-262500J0D01*
G01*
X73142500Y45175000D01*
G75*
G02*
X72880000Y45437500I0J262500D01*
G01*
G37*
G36*
G01*
X71155000Y45437500D02*
X71155000Y45962500D01*
G75*
G02*
X71417500Y46225000I262500J0D01*
G01*
X72067500Y46225000D01*
G75*
G02*
X72330000Y45962500I0J-262500D01*
G01*
X72330000Y45437500D01*
G75*
G02*
X72067500Y45175000I-262500J0D01*
G01*
X71417500Y45175000D01*
G75*
G02*
X71155000Y45437500I0J262500D01*
G01*
G37*
G36*
G01*
X73003000Y24207500D02*
X73003000Y24732500D01*
G75*
G02*
X73265500Y24995000I262500J0D01*
G01*
X73915500Y24995000D01*
G75*
G02*
X74178000Y24732500I0J-262500D01*
G01*
X74178000Y24207500D01*
G75*
G02*
X73915500Y23945000I-262500J0D01*
G01*
X73265500Y23945000D01*
G75*
G02*
X73003000Y24207500I0J262500D01*
G01*
G37*
G36*
G01*
X71278000Y24207500D02*
X71278000Y24732500D01*
G75*
G02*
X71540500Y24995000I262500J0D01*
G01*
X72190500Y24995000D01*
G75*
G02*
X72453000Y24732500I0J-262500D01*
G01*
X72453000Y24207500D01*
G75*
G02*
X72190500Y23945000I-262500J0D01*
G01*
X71540500Y23945000D01*
G75*
G02*
X71278000Y24207500I0J262500D01*
G01*
G37*
G36*
G01*
X72453000Y26522500D02*
X72453000Y25997500D01*
G75*
G02*
X72190500Y25735000I-262500J0D01*
G01*
X71540500Y25735000D01*
G75*
G02*
X71278000Y25997500I0J262500D01*
G01*
X71278000Y26522500D01*
G75*
G02*
X71540500Y26785000I262500J0D01*
G01*
X72190500Y26785000D01*
G75*
G02*
X72453000Y26522500I0J-262500D01*
G01*
G37*
G36*
G01*
X74178000Y26522500D02*
X74178000Y25997500D01*
G75*
G02*
X73915500Y25735000I-262500J0D01*
G01*
X73265500Y25735000D01*
G75*
G02*
X73003000Y25997500I0J262500D01*
G01*
X73003000Y26522500D01*
G75*
G02*
X73265500Y26785000I262500J0D01*
G01*
X73915500Y26785000D01*
G75*
G02*
X74178000Y26522500I0J-262500D01*
G01*
G37*
G36*
G01*
X24192500Y62935000D02*
X23667500Y62935000D01*
G75*
G02*
X23405000Y63197500I0J262500D01*
G01*
X23405000Y63847500D01*
G75*
G02*
X23667500Y64110000I262500J0D01*
G01*
X24192500Y64110000D01*
G75*
G02*
X24455000Y63847500I0J-262500D01*
G01*
X24455000Y63197500D01*
G75*
G02*
X24192500Y62935000I-262500J0D01*
G01*
G37*
G36*
G01*
X24192500Y61210000D02*
X23667500Y61210000D01*
G75*
G02*
X23405000Y61472500I0J262500D01*
G01*
X23405000Y62122500D01*
G75*
G02*
X23667500Y62385000I262500J0D01*
G01*
X24192500Y62385000D01*
G75*
G02*
X24455000Y62122500I0J-262500D01*
G01*
X24455000Y61472500D01*
G75*
G02*
X24192500Y61210000I-262500J0D01*
G01*
G37*
G36*
G01*
X44202500Y34852500D02*
X43677500Y34852500D01*
G75*
G02*
X43415000Y35115000I0J262500D01*
G01*
X43415000Y35765000D01*
G75*
G02*
X43677500Y36027500I262500J0D01*
G01*
X44202500Y36027500D01*
G75*
G02*
X44465000Y35765000I0J-262500D01*
G01*
X44465000Y35115000D01*
G75*
G02*
X44202500Y34852500I-262500J0D01*
G01*
G37*
G36*
G01*
X44202500Y33127500D02*
X43677500Y33127500D01*
G75*
G02*
X43415000Y33390000I0J262500D01*
G01*
X43415000Y34040000D01*
G75*
G02*
X43677500Y34302500I262500J0D01*
G01*
X44202500Y34302500D01*
G75*
G02*
X44465000Y34040000I0J-262500D01*
G01*
X44465000Y33390000D01*
G75*
G02*
X44202500Y33127500I-262500J0D01*
G01*
G37*
G36*
G01*
X39827500Y34269000D02*
X40352500Y34269000D01*
G75*
G02*
X40615000Y34006500I0J-262500D01*
G01*
X40615000Y33356500D01*
G75*
G02*
X40352500Y33094000I-262500J0D01*
G01*
X39827500Y33094000D01*
G75*
G02*
X39565000Y33356500I0J262500D01*
G01*
X39565000Y34006500D01*
G75*
G02*
X39827500Y34269000I262500J0D01*
G01*
G37*
G36*
G01*
X39827500Y35994000D02*
X40352500Y35994000D01*
G75*
G02*
X40615000Y35731500I0J-262500D01*
G01*
X40615000Y35081500D01*
G75*
G02*
X40352500Y34819000I-262500J0D01*
G01*
X39827500Y34819000D01*
G75*
G02*
X39565000Y35081500I0J262500D01*
G01*
X39565000Y35731500D01*
G75*
G02*
X39827500Y35994000I262500J0D01*
G01*
G37*
G36*
G01*
X28792500Y33145000D02*
X28267500Y33145000D01*
G75*
G02*
X28005000Y33407500I0J262500D01*
G01*
X28005000Y34057500D01*
G75*
G02*
X28267500Y34320000I262500J0D01*
G01*
X28792500Y34320000D01*
G75*
G02*
X29055000Y34057500I0J-262500D01*
G01*
X29055000Y33407500D01*
G75*
G02*
X28792500Y33145000I-262500J0D01*
G01*
G37*
G36*
G01*
X28792500Y31420000D02*
X28267500Y31420000D01*
G75*
G02*
X28005000Y31682500I0J262500D01*
G01*
X28005000Y32332500D01*
G75*
G02*
X28267500Y32595000I262500J0D01*
G01*
X28792500Y32595000D01*
G75*
G02*
X29055000Y32332500I0J-262500D01*
G01*
X29055000Y31682500D01*
G75*
G02*
X28792500Y31420000I-262500J0D01*
G01*
G37*
G36*
G01*
X28772500Y36595000D02*
X28247500Y36595000D01*
G75*
G02*
X27985000Y36857500I0J262500D01*
G01*
X27985000Y37507500D01*
G75*
G02*
X28247500Y37770000I262500J0D01*
G01*
X28772500Y37770000D01*
G75*
G02*
X29035000Y37507500I0J-262500D01*
G01*
X29035000Y36857500D01*
G75*
G02*
X28772500Y36595000I-262500J0D01*
G01*
G37*
G36*
G01*
X28772500Y34870000D02*
X28247500Y34870000D01*
G75*
G02*
X27985000Y35132500I0J262500D01*
G01*
X27985000Y35782500D01*
G75*
G02*
X28247500Y36045000I262500J0D01*
G01*
X28772500Y36045000D01*
G75*
G02*
X29035000Y35782500I0J-262500D01*
G01*
X29035000Y35132500D01*
G75*
G02*
X28772500Y34870000I-262500J0D01*
G01*
G37*
G36*
G01*
X46187500Y18332500D02*
X46712500Y18332500D01*
G75*
G02*
X46975000Y18070000I0J-262500D01*
G01*
X46975000Y17420000D01*
G75*
G02*
X46712500Y17157500I-262500J0D01*
G01*
X46187500Y17157500D01*
G75*
G02*
X45925000Y17420000I0J262500D01*
G01*
X45925000Y18070000D01*
G75*
G02*
X46187500Y18332500I262500J0D01*
G01*
G37*
G36*
G01*
X46187500Y20057500D02*
X46712500Y20057500D01*
G75*
G02*
X46975000Y19795000I0J-262500D01*
G01*
X46975000Y19145000D01*
G75*
G02*
X46712500Y18882500I-262500J0D01*
G01*
X46187500Y18882500D01*
G75*
G02*
X45925000Y19145000I0J262500D01*
G01*
X45925000Y19795000D01*
G75*
G02*
X46187500Y20057500I262500J0D01*
G01*
G37*
G36*
G01*
X32582000Y34424000D02*
X32582000Y33424000D01*
G75*
G02*
X32532000Y33374000I-50000J0D01*
G01*
X31932000Y33374000D01*
G75*
G02*
X31882000Y33424000I0J50000D01*
G01*
X31882000Y34424000D01*
G75*
G02*
X31932000Y34474000I50000J0D01*
G01*
X32532000Y34474000D01*
G75*
G02*
X32582000Y34424000I0J-50000D01*
G01*
G37*
G36*
G01*
X37132000Y34424000D02*
X37132000Y33424000D01*
G75*
G02*
X37082000Y33374000I-50000J0D01*
G01*
X36482000Y33374000D01*
G75*
G02*
X36432000Y33424000I0J50000D01*
G01*
X36432000Y34424000D01*
G75*
G02*
X36482000Y34474000I50000J0D01*
G01*
X37082000Y34474000D01*
G75*
G02*
X37132000Y34424000I0J-50000D01*
G01*
G37*
G36*
G01*
X32582000Y35674000D02*
X32582000Y34674000D01*
G75*
G02*
X32532000Y34624000I-50000J0D01*
G01*
X31932000Y34624000D01*
G75*
G02*
X31882000Y34674000I0J50000D01*
G01*
X31882000Y35674000D01*
G75*
G02*
X31932000Y35724000I50000J0D01*
G01*
X32532000Y35724000D01*
G75*
G02*
X32582000Y35674000I0J-50000D01*
G01*
G37*
G36*
G01*
X37132000Y35674000D02*
X37132000Y34674000D01*
G75*
G02*
X37082000Y34624000I-50000J0D01*
G01*
X36482000Y34624000D01*
G75*
G02*
X36432000Y34674000I0J50000D01*
G01*
X36432000Y35674000D01*
G75*
G02*
X36482000Y35724000I50000J0D01*
G01*
X37082000Y35724000D01*
G75*
G02*
X37132000Y35674000I0J-50000D01*
G01*
G37*
G36*
G01*
X18310000Y51740000D02*
X18310000Y50940000D01*
G75*
G02*
X18260000Y50890000I-50000J0D01*
G01*
X17360000Y50890000D01*
G75*
G02*
X17310000Y50940000I0J50000D01*
G01*
X17310000Y51740000D01*
G75*
G02*
X17360000Y51790000I50000J0D01*
G01*
X18260000Y51790000D01*
G75*
G02*
X18310000Y51740000I0J-50000D01*
G01*
G37*
G36*
G01*
X18310000Y49840000D02*
X18310000Y49040000D01*
G75*
G02*
X18260000Y48990000I-50000J0D01*
G01*
X17360000Y48990000D01*
G75*
G02*
X17310000Y49040000I0J50000D01*
G01*
X17310000Y49840000D01*
G75*
G02*
X17360000Y49890000I50000J0D01*
G01*
X18260000Y49890000D01*
G75*
G02*
X18310000Y49840000I0J-50000D01*
G01*
G37*
G36*
G01*
X16310000Y50790000D02*
X16310000Y49990000D01*
G75*
G02*
X16260000Y49940000I-50000J0D01*
G01*
X15360000Y49940000D01*
G75*
G02*
X15310000Y49990000I0J50000D01*
G01*
X15310000Y50790000D01*
G75*
G02*
X15360000Y50840000I50000J0D01*
G01*
X16260000Y50840000D01*
G75*
G02*
X16310000Y50790000I0J-50000D01*
G01*
G37*
X13990000Y44040000D03*
X21610000Y44040000D03*
X21610000Y49120000D03*
X13990000Y49120000D03*
X13990000Y54200000D03*
X21610000Y54200000D03*
X21610000Y61820000D03*
G36*
G01*
X13236000Y62624000D02*
X14744000Y62624000D01*
G75*
G02*
X14794000Y62574000I0J-50000D01*
G01*
X14794000Y61066000D01*
G75*
G02*
X14744000Y61016000I-50000J0D01*
G01*
X13236000Y61016000D01*
G75*
G02*
X13186000Y61066000I0J50000D01*
G01*
X13186000Y62574000D01*
G75*
G02*
X13236000Y62624000I50000J0D01*
G01*
G37*
G36*
G01*
X22720000Y65900000D02*
X22720000Y64300000D01*
G75*
G02*
X22670000Y64250000I-50000J0D01*
G01*
X21070000Y64250000D01*
G75*
G02*
X21020000Y64300000I0J50000D01*
G01*
X21020000Y65900000D01*
G75*
G02*
X21070000Y65950000I50000J0D01*
G01*
X22670000Y65950000D01*
G75*
G02*
X22720000Y65900000I0J-50000D01*
G01*
G37*
D15*
X14250000Y65100000D03*
G36*
G01*
X51060000Y58440000D02*
X52860000Y58440000D01*
G75*
G02*
X52910000Y58390000I0J-50000D01*
G01*
X52910000Y56590000D01*
G75*
G02*
X52860000Y56540000I-50000J0D01*
G01*
X51060000Y56540000D01*
G75*
G02*
X51010000Y56590000I0J50000D01*
G01*
X51010000Y58390000D01*
G75*
G02*
X51060000Y58440000I50000J0D01*
G01*
G37*
D19*
X51960000Y54950000D03*
G36*
G01*
X70375000Y30200000D02*
X70375000Y28080000D01*
G75*
G02*
X70325000Y28030000I-50000J0D01*
G01*
X68035000Y28030000D01*
G75*
G02*
X67985000Y28080000I0J50000D01*
G01*
X67985000Y30200000D01*
G75*
G02*
X68035000Y30250000I50000J0D01*
G01*
X70325000Y30250000D01*
G75*
G02*
X70375000Y30200000I0J-50000D01*
G01*
G37*
G36*
G01*
X74695000Y30200000D02*
X74695000Y28080000D01*
G75*
G02*
X74645000Y28030000I-50000J0D01*
G01*
X72355000Y28030000D01*
G75*
G02*
X72305000Y28080000I0J50000D01*
G01*
X72305000Y30200000D01*
G75*
G02*
X72355000Y30250000I50000J0D01*
G01*
X74645000Y30250000D01*
G75*
G02*
X74695000Y30200000I0J-50000D01*
G01*
G37*
G36*
G01*
X53678200Y36474401D02*
X53678200Y35915599D01*
G75*
G02*
X53628201Y35865600I-49999J0D01*
G01*
X51646999Y35865600D01*
G75*
G02*
X51597000Y35915599I0J49999D01*
G01*
X51597000Y36474401D01*
G75*
G02*
X51646999Y36524400I49999J0D01*
G01*
X53628201Y36524400D01*
G75*
G02*
X53678200Y36474401I0J-49999D01*
G01*
G37*
G36*
G01*
X53678200Y35204401D02*
X53678200Y34645599D01*
G75*
G02*
X53628201Y34595600I-49999J0D01*
G01*
X51646999Y34595600D01*
G75*
G02*
X51597000Y34645599I0J49999D01*
G01*
X51597000Y35204401D01*
G75*
G02*
X51646999Y35254400I49999J0D01*
G01*
X53628201Y35254400D01*
G75*
G02*
X53678200Y35204401I0J-49999D01*
G01*
G37*
G36*
G01*
X53678200Y33934401D02*
X53678200Y33375599D01*
G75*
G02*
X53628201Y33325600I-49999J0D01*
G01*
X51646999Y33325600D01*
G75*
G02*
X51597000Y33375599I0J49999D01*
G01*
X51597000Y33934401D01*
G75*
G02*
X51646999Y33984400I49999J0D01*
G01*
X53628201Y33984400D01*
G75*
G02*
X53678200Y33934401I0J-49999D01*
G01*
G37*
G36*
G01*
X53678200Y32664401D02*
X53678200Y32105599D01*
G75*
G02*
X53628201Y32055600I-49999J0D01*
G01*
X51646999Y32055600D01*
G75*
G02*
X51597000Y32105599I0J49999D01*
G01*
X51597000Y32664401D01*
G75*
G02*
X51646999Y32714400I49999J0D01*
G01*
X53628201Y32714400D01*
G75*
G02*
X53678200Y32664401I0J-49999D01*
G01*
G37*
G36*
G01*
X48750600Y32664401D02*
X48750600Y32105599D01*
G75*
G02*
X48700601Y32055600I-49999J0D01*
G01*
X46719399Y32055600D01*
G75*
G02*
X46669400Y32105599I0J49999D01*
G01*
X46669400Y32664401D01*
G75*
G02*
X46719399Y32714400I49999J0D01*
G01*
X48700601Y32714400D01*
G75*
G02*
X48750600Y32664401I0J-49999D01*
G01*
G37*
G36*
G01*
X48750600Y33934401D02*
X48750600Y33375599D01*
G75*
G02*
X48700601Y33325600I-49999J0D01*
G01*
X46719399Y33325600D01*
G75*
G02*
X46669400Y33375599I0J49999D01*
G01*
X46669400Y33934401D01*
G75*
G02*
X46719399Y33984400I49999J0D01*
G01*
X48700601Y33984400D01*
G75*
G02*
X48750600Y33934401I0J-49999D01*
G01*
G37*
G36*
G01*
X48750600Y35204401D02*
X48750600Y34645599D01*
G75*
G02*
X48700601Y34595600I-49999J0D01*
G01*
X46719399Y34595600D01*
G75*
G02*
X46669400Y34645599I0J49999D01*
G01*
X46669400Y35204401D01*
G75*
G02*
X46719399Y35254400I49999J0D01*
G01*
X48700601Y35254400D01*
G75*
G02*
X48750600Y35204401I0J-49999D01*
G01*
G37*
G36*
G01*
X48750600Y36474401D02*
X48750600Y35915599D01*
G75*
G02*
X48700601Y35865600I-49999J0D01*
G01*
X46719399Y35865600D01*
G75*
G02*
X46669400Y35915599I0J49999D01*
G01*
X46669400Y36474401D01*
G75*
G02*
X46719399Y36524400I49999J0D01*
G01*
X48700601Y36524400D01*
G75*
G02*
X48750600Y36474401I0J-49999D01*
G01*
G37*
G36*
G01*
X66060000Y58440000D02*
X67860000Y58440000D01*
G75*
G02*
X67910000Y58390000I0J-50000D01*
G01*
X67910000Y56590000D01*
G75*
G02*
X67860000Y56540000I-50000J0D01*
G01*
X66060000Y56540000D01*
G75*
G02*
X66010000Y56590000I0J50000D01*
G01*
X66010000Y58390000D01*
G75*
G02*
X66060000Y58440000I50000J0D01*
G01*
G37*
X66960000Y54950000D03*
G36*
G01*
X61060000Y58440000D02*
X62860000Y58440000D01*
G75*
G02*
X62910000Y58390000I0J-50000D01*
G01*
X62910000Y56590000D01*
G75*
G02*
X62860000Y56540000I-50000J0D01*
G01*
X61060000Y56540000D01*
G75*
G02*
X61010000Y56590000I0J50000D01*
G01*
X61010000Y58390000D01*
G75*
G02*
X61060000Y58440000I50000J0D01*
G01*
G37*
X61960000Y54950000D03*
G36*
G01*
X56060000Y58440000D02*
X57860000Y58440000D01*
G75*
G02*
X57910000Y58390000I0J-50000D01*
G01*
X57910000Y56590000D01*
G75*
G02*
X57860000Y56540000I-50000J0D01*
G01*
X56060000Y56540000D01*
G75*
G02*
X56010000Y56590000I0J50000D01*
G01*
X56010000Y58390000D01*
G75*
G02*
X56060000Y58440000I50000J0D01*
G01*
G37*
X56960000Y54950000D03*
G36*
G01*
X26260000Y36010000D02*
X27160000Y36010000D01*
G75*
G02*
X27210000Y35960000I0J-50000D01*
G01*
X27210000Y35160000D01*
G75*
G02*
X27160000Y35110000I-50000J0D01*
G01*
X26260000Y35110000D01*
G75*
G02*
X26210000Y35160000I0J50000D01*
G01*
X26210000Y35960000D01*
G75*
G02*
X26260000Y36010000I50000J0D01*
G01*
G37*
G36*
G01*
X26260000Y34110000D02*
X27160000Y34110000D01*
G75*
G02*
X27210000Y34060000I0J-50000D01*
G01*
X27210000Y33260000D01*
G75*
G02*
X27160000Y33210000I-50000J0D01*
G01*
X26260000Y33210000D01*
G75*
G02*
X26210000Y33260000I0J50000D01*
G01*
X26210000Y34060000D01*
G75*
G02*
X26260000Y34110000I50000J0D01*
G01*
G37*
G36*
G01*
X24160000Y35060000D02*
X25060000Y35060000D01*
G75*
G02*
X25110000Y35010000I0J-50000D01*
G01*
X25110000Y34210000D01*
G75*
G02*
X25060000Y34160000I-50000J0D01*
G01*
X24160000Y34160000D01*
G75*
G02*
X24110000Y34210000I0J50000D01*
G01*
X24110000Y35010000D01*
G75*
G02*
X24160000Y35060000I50000J0D01*
G01*
G37*
D20*
X65000000Y2500000D03*
X75000000Y2500000D03*
X85000000Y12500000D03*
X85000000Y22500000D03*
X85000000Y32500000D03*
X85000000Y42500000D03*
X85000000Y52500000D03*
X75000000Y67500000D03*
X65000000Y67500000D03*
X55000000Y67500000D03*
X45000000Y67500000D03*
X35000000Y67500000D03*
X25000000Y67500000D03*
X15000000Y67500000D03*
X5000000Y67500000D03*
X5000000Y52500000D03*
X5000000Y12500000D03*
X54720000Y35060000D03*
X31380000Y50580000D03*
X31380000Y54600000D03*
X45560000Y34450000D03*
X71940000Y27430000D03*
X53500000Y52000000D03*
X72500000Y33900000D03*
X73700000Y31700000D03*
X58400000Y53300000D03*
X14000000Y46350000D03*
X62200000Y44650000D03*
X52900000Y45550000D03*
X39150000Y42450000D03*
X45100000Y42400000D03*
X39300000Y38950000D03*
X45400000Y39800000D03*
X45400000Y59800000D03*
X48600000Y59000000D03*
X37950000Y55350000D03*
X40000000Y56000000D03*
X26250000Y45450000D03*
X33850000Y45450000D03*
X39200000Y45500000D03*
X43450000Y45600000D03*
X57200000Y40500000D03*
X57200000Y37300000D03*
X56150000Y32150000D03*
X57250000Y34550000D03*
X58900000Y44650000D03*
X59050000Y40650000D03*
X62300000Y40650000D03*
X66650000Y40650000D03*
X66400000Y44650000D03*
X71500000Y39550000D03*
X70950000Y35950000D03*
X72550000Y37500000D03*
X69000000Y34150000D03*
X66850000Y32300000D03*
X63150000Y30900000D03*
X58550000Y30900000D03*
X61100000Y30900000D03*
X63250000Y27600000D03*
X61150000Y27600000D03*
X58550000Y27600000D03*
X55600000Y27600000D03*
X33100000Y24400000D03*
X35950000Y24350000D03*
X33100000Y27150000D03*
X35950000Y39300000D03*
X33400000Y39750000D03*
X51400000Y14000000D03*
X51450000Y18850000D03*
X37050000Y19800000D03*
X34950000Y14900000D03*
X41050000Y19300000D03*
X41050000Y16100000D03*
X51850000Y8400000D03*
X56050000Y8450000D03*
X61200000Y8300000D03*
X66100000Y8300000D03*
X69950000Y8600000D03*
X35950000Y27050000D03*
X72600000Y17850000D03*
X69500000Y21000000D03*
X28550000Y38550000D03*
X28600000Y30600000D03*
X23350000Y34650000D03*
X69950000Y13500000D03*
X65900000Y13600000D03*
X61650000Y13500000D03*
X57850000Y18850000D03*
X58300000Y13600000D03*
X44000000Y50500000D03*
X75750000Y44750000D03*
X76000000Y41000000D03*
X49390000Y49790000D03*
X70520000Y1680000D03*
X60270000Y2330000D03*
X51240000Y1860000D03*
X55830000Y2380000D03*
X46660000Y3740000D03*
X46470000Y1540000D03*
X42120000Y1630000D03*
X24910000Y5000000D03*
X9510000Y17700000D03*
X68470000Y63020000D03*
X65750000Y64050000D03*
X65840000Y59750000D03*
X55780000Y63130000D03*
X51210000Y64570000D03*
X1291667Y68557500D03*
X1291667Y61557500D03*
X1291667Y54557500D03*
X1291667Y47557500D03*
X1291667Y40557500D03*
X1291667Y33557500D03*
X1291667Y26557500D03*
X1291667Y19557500D03*
X1291667Y12557500D03*
X1291667Y5557500D03*
X4291667Y1557500D03*
X5291667Y65557500D03*
X5291667Y58557500D03*
X5291667Y50557500D03*
X5291667Y43557500D03*
X5291667Y16557500D03*
X5291667Y9557500D03*
X9291667Y68557500D03*
X9291667Y55557500D03*
X9291667Y31557500D03*
X9291667Y13557500D03*
X10291667Y48557500D03*
X10291667Y41557500D03*
X10291667Y21557500D03*
X10291667Y2557500D03*
X12291667Y64557500D03*
X12291667Y35557500D03*
X12291667Y27557500D03*
X12291667Y9557500D03*
X13291667Y58557500D03*
X13291667Y17557500D03*
X14291667Y51557500D03*
X15291667Y23557500D03*
X15291667Y5557500D03*
X16291667Y32557500D03*
X16291667Y13557500D03*
X17291667Y68557500D03*
X17291667Y61557500D03*
X17291667Y47557500D03*
X18291667Y55557500D03*
X18291667Y41557500D03*
X19291667Y28557500D03*
X19291667Y18557500D03*
X19291667Y9557500D03*
X20291667Y36557500D03*
X22291667Y59557500D03*
X22291667Y14557500D03*
X22291667Y5557500D03*
X23291667Y67557500D03*
X23291667Y46557500D03*
X23291667Y32557500D03*
X23291667Y25557500D03*
X24291667Y54557500D03*
X25291667Y41557500D03*
X25291667Y10557500D03*
X25291667Y1557500D03*
X26291667Y63557500D03*
X26291667Y18557500D03*
X27291667Y28557500D03*
X28291667Y58557500D03*
X28291667Y6557500D03*
X29291667Y68557500D03*
X29291667Y14557500D03*
X30291667Y24557500D03*
X31291667Y2557500D03*
X32291667Y64557500D03*
X32291667Y41557500D03*
X32291667Y10557500D03*
X33291667Y51557500D03*
X35291667Y60557500D03*
X35291667Y6557500D03*
X36291667Y22557500D03*
X37291667Y68557500D03*
X37291667Y45557500D03*
X37291667Y37557500D03*
X37291667Y30557500D03*
X37291667Y16557500D03*
X37291667Y1557500D03*
X39291667Y63557500D03*
X39291667Y11557500D03*
X40291667Y26557500D03*
X41291667Y42557500D03*
X41291667Y5557500D03*
X42291667Y59557500D03*
X43291667Y67557500D03*
X43291667Y20557500D03*
X44291667Y30557500D03*
X44291667Y14557500D03*
X44291667Y1557500D03*
X45291667Y8557500D03*
X46291667Y63557500D03*
X46291667Y44557500D03*
X46291667Y25557500D03*
X48291667Y55557500D03*
X48291667Y39557500D03*
X49291667Y68557500D03*
X49291667Y3557500D03*
X50291667Y16557500D03*
X51291667Y51557500D03*
X51291667Y10557500D03*
X52291667Y26557500D03*
X53291667Y65557500D03*
X53291667Y43557500D03*
X53291667Y20557500D03*
X54291667Y59557500D03*
X55291667Y4557500D03*
X57291667Y68557500D03*
X57291667Y24557500D03*
X58291667Y16557500D03*
X59291667Y63557500D03*
X59291667Y56557500D03*
X59291667Y38557500D03*
X61291667Y33557500D03*
X61291667Y11557500D03*
X62291667Y3557500D03*
X63291667Y67557500D03*
X63291667Y25557500D03*
X64291667Y54557500D03*
X64291667Y45557500D03*
X65291667Y37557500D03*
X65291667Y16557500D03*
X66291667Y6557500D03*
X67291667Y50557500D03*
X68291667Y65557500D03*
X68291667Y1557500D03*
X69291667Y59557500D03*
X69291667Y40557500D03*
X69291667Y24557500D03*
X70291667Y18557500D03*
X70291667Y11557500D03*
X72291667Y68557500D03*
X73291667Y3557500D03*
X74291667Y63557500D03*
X74291667Y15557500D03*
X75291667Y9557500D03*
X77291667Y31557500D03*
X77291667Y24557500D03*
X78291667Y67557500D03*
X78291667Y18557500D03*
X78291667Y1557500D03*
X81291667Y28557500D03*
X81291667Y11557500D03*
X83291667Y65557500D03*
X84291667Y44557500D03*
X84291667Y36557500D03*
X84291667Y24557500D03*
X84291667Y17557500D03*
X84291667Y2557500D03*
X86291667Y54557500D03*
X86291667Y30557500D03*
X56000000Y40950000D03*
X47980000Y60760000D03*
X75943722Y60806278D03*
X73490000Y42390000D03*
X83200000Y42500000D03*
X52700000Y40400000D03*
X56900000Y42400000D03*
X69700000Y42400000D03*
X10350000Y24600000D03*
X10250000Y37900000D03*
X36450000Y47850000D03*
X50500000Y61650000D03*
X68120000Y26860000D03*
X45787500Y57087500D03*
X53279415Y29320585D03*
X64414000Y29364000D03*
X48000000Y29300000D03*
X45800000Y54650000D03*
X53750000Y37250000D03*
X39960000Y52220000D03*
X39930000Y59360000D03*
X50800000Y30150000D03*
X51100000Y40950000D03*
X34484902Y20154902D03*
X30550000Y48200000D03*
X35700000Y43200000D03*
M02*
