%TF.GenerationSoftware,KiCad,Pcbnew,(5.1.6)-1*%
%TF.CreationDate,2020-11-27T15:12:50+01:00*%
%TF.ProjectId,Board,426f6172-642e-46b6-9963-61645f706362,rev?*%
%TF.SameCoordinates,PX253b400PY7a67730*%
%TF.FileFunction,Other,Fab,Bot*%
%FSLAX46Y46*%
G04 Gerber Fmt 4.6, Leading zero omitted, Abs format (unit mm)*
G04 Created by KiCad (PCBNEW (5.1.6)-1) date 2020-11-27 15:12:50*
%MOMM*%
%LPD*%
G01*
G04 APERTURE LIST*
%TA.AperFunction,Profile*%
%ADD10C,0.050000*%
%TD*%
%ADD11C,0.100000*%
%ADD12C,0.127000*%
%ADD13C,0.200000*%
%ADD14C,0.152400*%
%ADD15C,0.060000*%
%ADD16C,0.254000*%
%ADD17C,0.075000*%
%ADD18C,0.015000*%
G04 APERTURE END LIST*
D10*
X0Y70000000D02*
X0Y0D01*
X87500000Y70000000D02*
X0Y70000000D01*
X87500000Y0D02*
X87500000Y70000000D01*
X0Y0D02*
X87500000Y0D01*
D11*
%TO.C,C18*%
X34910000Y27497500D02*
X34910000Y29097500D01*
X34110000Y27497500D02*
X34910000Y27497500D01*
X34110000Y29097500D02*
X34110000Y27497500D01*
X34910000Y29097500D02*
X34110000Y29097500D01*
%TO.C,C17*%
X51835000Y38310000D02*
X50235000Y38310000D01*
X51835000Y37510000D02*
X51835000Y38310000D01*
X50235000Y37510000D02*
X51835000Y37510000D01*
X50235000Y38310000D02*
X50235000Y37510000D01*
%TO.C,R21*%
X46073500Y37941500D02*
X46073500Y38766500D01*
X46073500Y38766500D02*
X44473500Y38766500D01*
X44473500Y38766500D02*
X44473500Y37941500D01*
X44473500Y37941500D02*
X46073500Y37941500D01*
%TO.C,R18*%
X19077500Y51452500D02*
X19902500Y51452500D01*
X19902500Y51452500D02*
X19902500Y53052500D01*
X19902500Y53052500D02*
X19077500Y53052500D01*
X19077500Y53052500D02*
X19077500Y51452500D01*
%TO.C,R17*%
X21207500Y51682500D02*
X21207500Y50857500D01*
X21207500Y50857500D02*
X22807500Y50857500D01*
X22807500Y50857500D02*
X22807500Y51682500D01*
X22807500Y51682500D02*
X21207500Y51682500D01*
%TO.C,R12*%
X76860000Y33047500D02*
X76860000Y33872500D01*
X76860000Y33872500D02*
X75260000Y33872500D01*
X75260000Y33872500D02*
X75260000Y33047500D01*
X75260000Y33047500D02*
X76860000Y33047500D01*
%TO.C,R11*%
X76860000Y34597500D02*
X76860000Y35422500D01*
X76860000Y35422500D02*
X75260000Y35422500D01*
X75260000Y35422500D02*
X75260000Y34597500D01*
X75260000Y34597500D02*
X76860000Y34597500D01*
%TO.C,R10*%
X76860000Y36147500D02*
X76860000Y36972500D01*
X76860000Y36972500D02*
X75260000Y36972500D01*
X75260000Y36972500D02*
X75260000Y36147500D01*
X75260000Y36147500D02*
X76860000Y36147500D01*
%TO.C,R9*%
X76860000Y37697500D02*
X76860000Y38522500D01*
X76860000Y38522500D02*
X75260000Y38522500D01*
X75260000Y38522500D02*
X75260000Y37697500D01*
X75260000Y37697500D02*
X76860000Y37697500D01*
%TO.C,R7*%
X42661500Y33566000D02*
X41836500Y33566000D01*
X41836500Y33566000D02*
X41836500Y31966000D01*
X41836500Y31966000D02*
X42661500Y31966000D01*
X42661500Y31966000D02*
X42661500Y33566000D01*
%TO.C,R6*%
X42661500Y37145500D02*
X41836500Y37145500D01*
X41836500Y37145500D02*
X41836500Y35545500D01*
X41836500Y35545500D02*
X42661500Y35545500D01*
X42661500Y35545500D02*
X42661500Y37145500D01*
%TO.C,R5*%
X35337500Y31237500D02*
X35337500Y32062500D01*
X35337500Y32062500D02*
X33737500Y32062500D01*
X33737500Y32062500D02*
X33737500Y31237500D01*
X33737500Y31237500D02*
X35337500Y31237500D01*
%TO.C,R4*%
X35292500Y36987500D02*
X35292500Y37812500D01*
X35292500Y37812500D02*
X33692500Y37812500D01*
X33692500Y37812500D02*
X33692500Y36987500D01*
X33692500Y36987500D02*
X35292500Y36987500D01*
%TO.C,R2*%
X48462500Y19407500D02*
X47637500Y19407500D01*
X47637500Y19407500D02*
X47637500Y17807500D01*
X47637500Y17807500D02*
X48462500Y17807500D01*
X48462500Y17807500D02*
X48462500Y19407500D01*
%TO.C,R1*%
X44427500Y17807500D02*
X45252500Y17807500D01*
X45252500Y17807500D02*
X45252500Y19407500D01*
X45252500Y19407500D02*
X44427500Y19407500D01*
X44427500Y19407500D02*
X44427500Y17807500D01*
%TO.C,C15*%
X71805000Y44190000D02*
X71805000Y43390000D01*
X71805000Y43390000D02*
X73405000Y43390000D01*
X73405000Y43390000D02*
X73405000Y44190000D01*
X73405000Y44190000D02*
X71805000Y44190000D01*
%TO.C,C14*%
X71805000Y46100000D02*
X71805000Y45300000D01*
X71805000Y45300000D02*
X73405000Y45300000D01*
X73405000Y45300000D02*
X73405000Y46100000D01*
X73405000Y46100000D02*
X71805000Y46100000D01*
%TO.C,C13*%
X71928000Y24870000D02*
X71928000Y24070000D01*
X71928000Y24070000D02*
X73528000Y24070000D01*
X73528000Y24070000D02*
X73528000Y24870000D01*
X73528000Y24870000D02*
X71928000Y24870000D01*
%TO.C,C12*%
X73528000Y25860000D02*
X73528000Y26660000D01*
X73528000Y26660000D02*
X71928000Y26660000D01*
X71928000Y26660000D02*
X71928000Y25860000D01*
X71928000Y25860000D02*
X73528000Y25860000D01*
%TO.C,C11*%
X23530000Y61860000D02*
X24330000Y61860000D01*
X24330000Y61860000D02*
X24330000Y63460000D01*
X24330000Y63460000D02*
X23530000Y63460000D01*
X23530000Y63460000D02*
X23530000Y61860000D01*
%TO.C,C7*%
X43540000Y33777500D02*
X44340000Y33777500D01*
X44340000Y33777500D02*
X44340000Y35377500D01*
X44340000Y35377500D02*
X43540000Y35377500D01*
X43540000Y35377500D02*
X43540000Y33777500D01*
%TO.C,C6*%
X40490000Y35344000D02*
X39690000Y35344000D01*
X39690000Y35344000D02*
X39690000Y33744000D01*
X39690000Y33744000D02*
X40490000Y33744000D01*
X40490000Y33744000D02*
X40490000Y35344000D01*
%TO.C,C5*%
X28130000Y32070000D02*
X28930000Y32070000D01*
X28930000Y32070000D02*
X28930000Y33670000D01*
X28930000Y33670000D02*
X28130000Y33670000D01*
X28130000Y33670000D02*
X28130000Y32070000D01*
%TO.C,C4*%
X28110000Y35520000D02*
X28910000Y35520000D01*
X28910000Y35520000D02*
X28910000Y37120000D01*
X28910000Y37120000D02*
X28110000Y37120000D01*
X28110000Y37120000D02*
X28110000Y35520000D01*
%TO.C,C1*%
X46850000Y19407500D02*
X46050000Y19407500D01*
X46050000Y19407500D02*
X46050000Y17807500D01*
X46050000Y17807500D02*
X46850000Y17807500D01*
X46850000Y17807500D02*
X46850000Y19407500D01*
D12*
%TO.C,L2*%
X37002000Y36194000D02*
X37002000Y32894000D01*
X32002000Y36194000D02*
X32002000Y32894000D01*
X36702000Y33944000D02*
X32302000Y33944000D01*
X36702000Y35144000D02*
X32302000Y35144000D01*
D11*
%TO.C,Q1*%
X17510000Y51340000D02*
X17510000Y48890000D01*
X16960000Y51910000D02*
X16110000Y51910000D01*
X17510000Y51340000D02*
X16960000Y51910000D01*
X16110000Y51910000D02*
X16110000Y48870000D01*
X17510000Y48870000D02*
X16110000Y48870000D01*
D13*
%TO.C,D2*%
X75340000Y29140000D02*
G75*
G03*
X75340000Y29140000I-100000J0D01*
G01*
D12*
X73540000Y30952500D02*
X73540000Y27327500D01*
X73540000Y27327500D02*
X69140000Y27327500D01*
X69140000Y27327500D02*
X69140000Y30952500D01*
X69140000Y30952500D02*
X73540000Y30952500D01*
D14*
%TO.C,IC1*%
X52180400Y35941000D02*
X52180400Y36449000D01*
X52180400Y36449000D02*
X53272600Y36449000D01*
X53272600Y36449000D02*
X53272600Y35941000D01*
X53272600Y35941000D02*
X52180400Y35941000D01*
X52180400Y34671000D02*
X52180400Y35179000D01*
X52180400Y35179000D02*
X53272600Y35179000D01*
X53272600Y35179000D02*
X53272600Y34671000D01*
X53272600Y34671000D02*
X52180400Y34671000D01*
X52180400Y33401000D02*
X52180400Y33909000D01*
X52180400Y33909000D02*
X53272600Y33909000D01*
X53272600Y33909000D02*
X53272600Y33401000D01*
X53272600Y33401000D02*
X52180400Y33401000D01*
X52180400Y32131000D02*
X52180400Y32639000D01*
X52180400Y32639000D02*
X53272600Y32639000D01*
X53272600Y32639000D02*
X53272600Y32131000D01*
X53272600Y32131000D02*
X52180400Y32131000D01*
X48167200Y32639000D02*
X48167200Y32131000D01*
X48167200Y32131000D02*
X47075000Y32131000D01*
X47075000Y32131000D02*
X47075000Y32639000D01*
X47075000Y32639000D02*
X48167200Y32639000D01*
X48167200Y33909000D02*
X48167200Y33401000D01*
X48167200Y33401000D02*
X47075000Y33401000D01*
X47075000Y33401000D02*
X47075000Y33909000D01*
X47075000Y33909000D02*
X48167200Y33909000D01*
X48167200Y35179000D02*
X48167200Y34671000D01*
X48167200Y34671000D02*
X47075000Y34671000D01*
X47075000Y34671000D02*
X47075000Y35179000D01*
X47075000Y35179000D02*
X48167200Y35179000D01*
X48167200Y36449000D02*
X48167200Y35941000D01*
X48167200Y35941000D02*
X47075000Y35941000D01*
X47075000Y35941000D02*
X47075000Y36449000D01*
X47075000Y36449000D02*
X48167200Y36449000D01*
X52180400Y31800800D02*
X48167200Y31800800D01*
X48167200Y31800800D02*
X48167200Y36779200D01*
X48167200Y36779200D02*
X49869000Y36779200D01*
X49869000Y36779200D02*
X50478600Y36779200D01*
X50478600Y36779200D02*
X52180400Y36779200D01*
X52180400Y36779200D02*
X52180400Y31800800D01*
D11*
X49869000Y36779200D02*
G75*
G03*
X50478600Y36779200I304800J0D01*
G01*
D14*
%TO.C,D1*%
X25049600Y36032400D02*
X25049600Y33187600D01*
X26370400Y36032400D02*
X25049600Y36032400D01*
X26370400Y33187600D02*
X26370400Y36032400D01*
X25049600Y33187600D02*
X26370400Y33187600D01*
%TD*%
%TO.C,C18*%
D15*
X34652857Y28554643D02*
X34671904Y28573691D01*
X34690952Y28630834D01*
X34690952Y28668929D01*
X34671904Y28726072D01*
X34633809Y28764167D01*
X34595714Y28783215D01*
X34519523Y28802262D01*
X34462380Y28802262D01*
X34386190Y28783215D01*
X34348095Y28764167D01*
X34310000Y28726072D01*
X34290952Y28668929D01*
X34290952Y28630834D01*
X34310000Y28573691D01*
X34329047Y28554643D01*
X34690952Y28173691D02*
X34690952Y28402262D01*
X34690952Y28287977D02*
X34290952Y28287977D01*
X34348095Y28326072D01*
X34386190Y28364167D01*
X34405238Y28402262D01*
X34462380Y27945120D02*
X34443333Y27983215D01*
X34424285Y28002262D01*
X34386190Y28021310D01*
X34367142Y28021310D01*
X34329047Y28002262D01*
X34310000Y27983215D01*
X34290952Y27945120D01*
X34290952Y27868929D01*
X34310000Y27830834D01*
X34329047Y27811786D01*
X34367142Y27792739D01*
X34386190Y27792739D01*
X34424285Y27811786D01*
X34443333Y27830834D01*
X34462380Y27868929D01*
X34462380Y27945120D01*
X34481428Y27983215D01*
X34500476Y28002262D01*
X34538571Y28021310D01*
X34614761Y28021310D01*
X34652857Y28002262D01*
X34671904Y27983215D01*
X34690952Y27945120D01*
X34690952Y27868929D01*
X34671904Y27830834D01*
X34652857Y27811786D01*
X34614761Y27792739D01*
X34538571Y27792739D01*
X34500476Y27811786D01*
X34481428Y27830834D01*
X34462380Y27868929D01*
%TO.C,C17*%
X51292142Y37767143D02*
X51311190Y37748096D01*
X51368333Y37729048D01*
X51406428Y37729048D01*
X51463571Y37748096D01*
X51501666Y37786191D01*
X51520714Y37824286D01*
X51539761Y37900477D01*
X51539761Y37957620D01*
X51520714Y38033810D01*
X51501666Y38071905D01*
X51463571Y38110000D01*
X51406428Y38129048D01*
X51368333Y38129048D01*
X51311190Y38110000D01*
X51292142Y38090953D01*
X50911190Y37729048D02*
X51139761Y37729048D01*
X51025476Y37729048D02*
X51025476Y38129048D01*
X51063571Y38071905D01*
X51101666Y38033810D01*
X51139761Y38014762D01*
X50777857Y38129048D02*
X50511190Y38129048D01*
X50682619Y37729048D01*
%TO.C,R21*%
X45530642Y38173048D02*
X45663976Y38363524D01*
X45759214Y38173048D02*
X45759214Y38573048D01*
X45606833Y38573048D01*
X45568738Y38554000D01*
X45549690Y38534953D01*
X45530642Y38496858D01*
X45530642Y38439715D01*
X45549690Y38401620D01*
X45568738Y38382572D01*
X45606833Y38363524D01*
X45759214Y38363524D01*
X45378261Y38534953D02*
X45359214Y38554000D01*
X45321119Y38573048D01*
X45225880Y38573048D01*
X45187785Y38554000D01*
X45168738Y38534953D01*
X45149690Y38496858D01*
X45149690Y38458762D01*
X45168738Y38401620D01*
X45397309Y38173048D01*
X45149690Y38173048D01*
X44768738Y38173048D02*
X44997309Y38173048D01*
X44883023Y38173048D02*
X44883023Y38573048D01*
X44921119Y38515905D01*
X44959214Y38477810D01*
X44997309Y38458762D01*
%TO.C,R18*%
X19670952Y52509643D02*
X19480476Y52642977D01*
X19670952Y52738215D02*
X19270952Y52738215D01*
X19270952Y52585834D01*
X19290000Y52547739D01*
X19309047Y52528691D01*
X19347142Y52509643D01*
X19404285Y52509643D01*
X19442380Y52528691D01*
X19461428Y52547739D01*
X19480476Y52585834D01*
X19480476Y52738215D01*
X19670952Y52128691D02*
X19670952Y52357262D01*
X19670952Y52242977D02*
X19270952Y52242977D01*
X19328095Y52281072D01*
X19366190Y52319167D01*
X19385238Y52357262D01*
X19442380Y51900120D02*
X19423333Y51938215D01*
X19404285Y51957262D01*
X19366190Y51976310D01*
X19347142Y51976310D01*
X19309047Y51957262D01*
X19290000Y51938215D01*
X19270952Y51900120D01*
X19270952Y51823929D01*
X19290000Y51785834D01*
X19309047Y51766786D01*
X19347142Y51747739D01*
X19366190Y51747739D01*
X19404285Y51766786D01*
X19423333Y51785834D01*
X19442380Y51823929D01*
X19442380Y51900120D01*
X19461428Y51938215D01*
X19480476Y51957262D01*
X19518571Y51976310D01*
X19594761Y51976310D01*
X19632857Y51957262D01*
X19651904Y51938215D01*
X19670952Y51900120D01*
X19670952Y51823929D01*
X19651904Y51785834D01*
X19632857Y51766786D01*
X19594761Y51747739D01*
X19518571Y51747739D01*
X19480476Y51766786D01*
X19461428Y51785834D01*
X19442380Y51823929D01*
%TO.C,R17*%
X22264642Y51089048D02*
X22397976Y51279524D01*
X22493214Y51089048D02*
X22493214Y51489048D01*
X22340833Y51489048D01*
X22302738Y51470000D01*
X22283690Y51450953D01*
X22264642Y51412858D01*
X22264642Y51355715D01*
X22283690Y51317620D01*
X22302738Y51298572D01*
X22340833Y51279524D01*
X22493214Y51279524D01*
X21883690Y51089048D02*
X22112261Y51089048D01*
X21997976Y51089048D02*
X21997976Y51489048D01*
X22036071Y51431905D01*
X22074166Y51393810D01*
X22112261Y51374762D01*
X21750357Y51489048D02*
X21483690Y51489048D01*
X21655119Y51089048D01*
%TO.C,R12*%
X76317142Y33279048D02*
X76450476Y33469524D01*
X76545714Y33279048D02*
X76545714Y33679048D01*
X76393333Y33679048D01*
X76355238Y33660000D01*
X76336190Y33640953D01*
X76317142Y33602858D01*
X76317142Y33545715D01*
X76336190Y33507620D01*
X76355238Y33488572D01*
X76393333Y33469524D01*
X76545714Y33469524D01*
X75936190Y33279048D02*
X76164761Y33279048D01*
X76050476Y33279048D02*
X76050476Y33679048D01*
X76088571Y33621905D01*
X76126666Y33583810D01*
X76164761Y33564762D01*
X75783809Y33640953D02*
X75764761Y33660000D01*
X75726666Y33679048D01*
X75631428Y33679048D01*
X75593333Y33660000D01*
X75574285Y33640953D01*
X75555238Y33602858D01*
X75555238Y33564762D01*
X75574285Y33507620D01*
X75802857Y33279048D01*
X75555238Y33279048D01*
%TO.C,R11*%
X76317142Y34829048D02*
X76450476Y35019524D01*
X76545714Y34829048D02*
X76545714Y35229048D01*
X76393333Y35229048D01*
X76355238Y35210000D01*
X76336190Y35190953D01*
X76317142Y35152858D01*
X76317142Y35095715D01*
X76336190Y35057620D01*
X76355238Y35038572D01*
X76393333Y35019524D01*
X76545714Y35019524D01*
X75936190Y34829048D02*
X76164761Y34829048D01*
X76050476Y34829048D02*
X76050476Y35229048D01*
X76088571Y35171905D01*
X76126666Y35133810D01*
X76164761Y35114762D01*
X75555238Y34829048D02*
X75783809Y34829048D01*
X75669523Y34829048D02*
X75669523Y35229048D01*
X75707619Y35171905D01*
X75745714Y35133810D01*
X75783809Y35114762D01*
%TO.C,R10*%
X76317142Y36379048D02*
X76450476Y36569524D01*
X76545714Y36379048D02*
X76545714Y36779048D01*
X76393333Y36779048D01*
X76355238Y36760000D01*
X76336190Y36740953D01*
X76317142Y36702858D01*
X76317142Y36645715D01*
X76336190Y36607620D01*
X76355238Y36588572D01*
X76393333Y36569524D01*
X76545714Y36569524D01*
X75936190Y36379048D02*
X76164761Y36379048D01*
X76050476Y36379048D02*
X76050476Y36779048D01*
X76088571Y36721905D01*
X76126666Y36683810D01*
X76164761Y36664762D01*
X75688571Y36779048D02*
X75650476Y36779048D01*
X75612380Y36760000D01*
X75593333Y36740953D01*
X75574285Y36702858D01*
X75555238Y36626667D01*
X75555238Y36531429D01*
X75574285Y36455239D01*
X75593333Y36417143D01*
X75612380Y36398096D01*
X75650476Y36379048D01*
X75688571Y36379048D01*
X75726666Y36398096D01*
X75745714Y36417143D01*
X75764761Y36455239D01*
X75783809Y36531429D01*
X75783809Y36626667D01*
X75764761Y36702858D01*
X75745714Y36740953D01*
X75726666Y36760000D01*
X75688571Y36779048D01*
%TO.C,R9*%
X76126666Y37929048D02*
X76260000Y38119524D01*
X76355238Y37929048D02*
X76355238Y38329048D01*
X76202857Y38329048D01*
X76164761Y38310000D01*
X76145714Y38290953D01*
X76126666Y38252858D01*
X76126666Y38195715D01*
X76145714Y38157620D01*
X76164761Y38138572D01*
X76202857Y38119524D01*
X76355238Y38119524D01*
X75936190Y37929048D02*
X75860000Y37929048D01*
X75821904Y37948096D01*
X75802857Y37967143D01*
X75764761Y38024286D01*
X75745714Y38100477D01*
X75745714Y38252858D01*
X75764761Y38290953D01*
X75783809Y38310000D01*
X75821904Y38329048D01*
X75898095Y38329048D01*
X75936190Y38310000D01*
X75955238Y38290953D01*
X75974285Y38252858D01*
X75974285Y38157620D01*
X75955238Y38119524D01*
X75936190Y38100477D01*
X75898095Y38081429D01*
X75821904Y38081429D01*
X75783809Y38100477D01*
X75764761Y38119524D01*
X75745714Y38157620D01*
%TO.C,R7*%
X42429952Y32832667D02*
X42239476Y32966000D01*
X42429952Y33061239D02*
X42029952Y33061239D01*
X42029952Y32908858D01*
X42049000Y32870762D01*
X42068047Y32851715D01*
X42106142Y32832667D01*
X42163285Y32832667D01*
X42201380Y32851715D01*
X42220428Y32870762D01*
X42239476Y32908858D01*
X42239476Y33061239D01*
X42029952Y32699334D02*
X42029952Y32432667D01*
X42429952Y32604096D01*
%TO.C,R6*%
X42429952Y36412167D02*
X42239476Y36545500D01*
X42429952Y36640739D02*
X42029952Y36640739D01*
X42029952Y36488358D01*
X42049000Y36450262D01*
X42068047Y36431215D01*
X42106142Y36412167D01*
X42163285Y36412167D01*
X42201380Y36431215D01*
X42220428Y36450262D01*
X42239476Y36488358D01*
X42239476Y36640739D01*
X42029952Y36069310D02*
X42029952Y36145500D01*
X42049000Y36183596D01*
X42068047Y36202643D01*
X42125190Y36240739D01*
X42201380Y36259786D01*
X42353761Y36259786D01*
X42391857Y36240739D01*
X42410904Y36221691D01*
X42429952Y36183596D01*
X42429952Y36107405D01*
X42410904Y36069310D01*
X42391857Y36050262D01*
X42353761Y36031215D01*
X42258523Y36031215D01*
X42220428Y36050262D01*
X42201380Y36069310D01*
X42182333Y36107405D01*
X42182333Y36183596D01*
X42201380Y36221691D01*
X42220428Y36240739D01*
X42258523Y36259786D01*
%TO.C,R5*%
X34604166Y31469048D02*
X34737500Y31659524D01*
X34832738Y31469048D02*
X34832738Y31869048D01*
X34680357Y31869048D01*
X34642261Y31850000D01*
X34623214Y31830953D01*
X34604166Y31792858D01*
X34604166Y31735715D01*
X34623214Y31697620D01*
X34642261Y31678572D01*
X34680357Y31659524D01*
X34832738Y31659524D01*
X34242261Y31869048D02*
X34432738Y31869048D01*
X34451785Y31678572D01*
X34432738Y31697620D01*
X34394642Y31716667D01*
X34299404Y31716667D01*
X34261309Y31697620D01*
X34242261Y31678572D01*
X34223214Y31640477D01*
X34223214Y31545239D01*
X34242261Y31507143D01*
X34261309Y31488096D01*
X34299404Y31469048D01*
X34394642Y31469048D01*
X34432738Y31488096D01*
X34451785Y31507143D01*
%TO.C,R4*%
X34559166Y37219048D02*
X34692500Y37409524D01*
X34787738Y37219048D02*
X34787738Y37619048D01*
X34635357Y37619048D01*
X34597261Y37600000D01*
X34578214Y37580953D01*
X34559166Y37542858D01*
X34559166Y37485715D01*
X34578214Y37447620D01*
X34597261Y37428572D01*
X34635357Y37409524D01*
X34787738Y37409524D01*
X34216309Y37485715D02*
X34216309Y37219048D01*
X34311547Y37638096D02*
X34406785Y37352381D01*
X34159166Y37352381D01*
%TO.C,R2*%
X48230952Y18674167D02*
X48040476Y18807500D01*
X48230952Y18902739D02*
X47830952Y18902739D01*
X47830952Y18750358D01*
X47850000Y18712262D01*
X47869047Y18693215D01*
X47907142Y18674167D01*
X47964285Y18674167D01*
X48002380Y18693215D01*
X48021428Y18712262D01*
X48040476Y18750358D01*
X48040476Y18902739D01*
X47869047Y18521786D02*
X47850000Y18502739D01*
X47830952Y18464643D01*
X47830952Y18369405D01*
X47850000Y18331310D01*
X47869047Y18312262D01*
X47907142Y18293215D01*
X47945238Y18293215D01*
X48002380Y18312262D01*
X48230952Y18540834D01*
X48230952Y18293215D01*
%TO.C,R1*%
X45020952Y18674167D02*
X44830476Y18807500D01*
X45020952Y18902739D02*
X44620952Y18902739D01*
X44620952Y18750358D01*
X44640000Y18712262D01*
X44659047Y18693215D01*
X44697142Y18674167D01*
X44754285Y18674167D01*
X44792380Y18693215D01*
X44811428Y18712262D01*
X44830476Y18750358D01*
X44830476Y18902739D01*
X45020952Y18293215D02*
X45020952Y18521786D01*
X45020952Y18407500D02*
X44620952Y18407500D01*
X44678095Y18445596D01*
X44716190Y18483691D01*
X44735238Y18521786D01*
%TO.C,C15*%
X72862142Y43647143D02*
X72881190Y43628096D01*
X72938333Y43609048D01*
X72976428Y43609048D01*
X73033571Y43628096D01*
X73071666Y43666191D01*
X73090714Y43704286D01*
X73109761Y43780477D01*
X73109761Y43837620D01*
X73090714Y43913810D01*
X73071666Y43951905D01*
X73033571Y43990000D01*
X72976428Y44009048D01*
X72938333Y44009048D01*
X72881190Y43990000D01*
X72862142Y43970953D01*
X72481190Y43609048D02*
X72709761Y43609048D01*
X72595476Y43609048D02*
X72595476Y44009048D01*
X72633571Y43951905D01*
X72671666Y43913810D01*
X72709761Y43894762D01*
X72119285Y44009048D02*
X72309761Y44009048D01*
X72328809Y43818572D01*
X72309761Y43837620D01*
X72271666Y43856667D01*
X72176428Y43856667D01*
X72138333Y43837620D01*
X72119285Y43818572D01*
X72100238Y43780477D01*
X72100238Y43685239D01*
X72119285Y43647143D01*
X72138333Y43628096D01*
X72176428Y43609048D01*
X72271666Y43609048D01*
X72309761Y43628096D01*
X72328809Y43647143D01*
%TO.C,C14*%
X72862142Y45557143D02*
X72881190Y45538096D01*
X72938333Y45519048D01*
X72976428Y45519048D01*
X73033571Y45538096D01*
X73071666Y45576191D01*
X73090714Y45614286D01*
X73109761Y45690477D01*
X73109761Y45747620D01*
X73090714Y45823810D01*
X73071666Y45861905D01*
X73033571Y45900000D01*
X72976428Y45919048D01*
X72938333Y45919048D01*
X72881190Y45900000D01*
X72862142Y45880953D01*
X72481190Y45519048D02*
X72709761Y45519048D01*
X72595476Y45519048D02*
X72595476Y45919048D01*
X72633571Y45861905D01*
X72671666Y45823810D01*
X72709761Y45804762D01*
X72138333Y45785715D02*
X72138333Y45519048D01*
X72233571Y45938096D02*
X72328809Y45652381D01*
X72081190Y45652381D01*
%TO.C,C13*%
X72985142Y24327143D02*
X73004190Y24308096D01*
X73061333Y24289048D01*
X73099428Y24289048D01*
X73156571Y24308096D01*
X73194666Y24346191D01*
X73213714Y24384286D01*
X73232761Y24460477D01*
X73232761Y24517620D01*
X73213714Y24593810D01*
X73194666Y24631905D01*
X73156571Y24670000D01*
X73099428Y24689048D01*
X73061333Y24689048D01*
X73004190Y24670000D01*
X72985142Y24650953D01*
X72604190Y24289048D02*
X72832761Y24289048D01*
X72718476Y24289048D02*
X72718476Y24689048D01*
X72756571Y24631905D01*
X72794666Y24593810D01*
X72832761Y24574762D01*
X72470857Y24689048D02*
X72223238Y24689048D01*
X72356571Y24536667D01*
X72299428Y24536667D01*
X72261333Y24517620D01*
X72242285Y24498572D01*
X72223238Y24460477D01*
X72223238Y24365239D01*
X72242285Y24327143D01*
X72261333Y24308096D01*
X72299428Y24289048D01*
X72413714Y24289048D01*
X72451809Y24308096D01*
X72470857Y24327143D01*
%TO.C,C12*%
X72985142Y26117143D02*
X73004190Y26098096D01*
X73061333Y26079048D01*
X73099428Y26079048D01*
X73156571Y26098096D01*
X73194666Y26136191D01*
X73213714Y26174286D01*
X73232761Y26250477D01*
X73232761Y26307620D01*
X73213714Y26383810D01*
X73194666Y26421905D01*
X73156571Y26460000D01*
X73099428Y26479048D01*
X73061333Y26479048D01*
X73004190Y26460000D01*
X72985142Y26440953D01*
X72604190Y26079048D02*
X72832761Y26079048D01*
X72718476Y26079048D02*
X72718476Y26479048D01*
X72756571Y26421905D01*
X72794666Y26383810D01*
X72832761Y26364762D01*
X72451809Y26440953D02*
X72432761Y26460000D01*
X72394666Y26479048D01*
X72299428Y26479048D01*
X72261333Y26460000D01*
X72242285Y26440953D01*
X72223238Y26402858D01*
X72223238Y26364762D01*
X72242285Y26307620D01*
X72470857Y26079048D01*
X72223238Y26079048D01*
%TO.C,C11*%
X24072857Y62917143D02*
X24091904Y62936191D01*
X24110952Y62993334D01*
X24110952Y63031429D01*
X24091904Y63088572D01*
X24053809Y63126667D01*
X24015714Y63145715D01*
X23939523Y63164762D01*
X23882380Y63164762D01*
X23806190Y63145715D01*
X23768095Y63126667D01*
X23730000Y63088572D01*
X23710952Y63031429D01*
X23710952Y62993334D01*
X23730000Y62936191D01*
X23749047Y62917143D01*
X24110952Y62536191D02*
X24110952Y62764762D01*
X24110952Y62650477D02*
X23710952Y62650477D01*
X23768095Y62688572D01*
X23806190Y62726667D01*
X23825238Y62764762D01*
X24110952Y62155239D02*
X24110952Y62383810D01*
X24110952Y62269524D02*
X23710952Y62269524D01*
X23768095Y62307620D01*
X23806190Y62345715D01*
X23825238Y62383810D01*
%TO.C,C7*%
X44082857Y34644167D02*
X44101904Y34663215D01*
X44120952Y34720358D01*
X44120952Y34758453D01*
X44101904Y34815596D01*
X44063809Y34853691D01*
X44025714Y34872739D01*
X43949523Y34891786D01*
X43892380Y34891786D01*
X43816190Y34872739D01*
X43778095Y34853691D01*
X43740000Y34815596D01*
X43720952Y34758453D01*
X43720952Y34720358D01*
X43740000Y34663215D01*
X43759047Y34644167D01*
X43720952Y34510834D02*
X43720952Y34244167D01*
X44120952Y34415596D01*
%TO.C,C6*%
X40232857Y34610667D02*
X40251904Y34629715D01*
X40270952Y34686858D01*
X40270952Y34724953D01*
X40251904Y34782096D01*
X40213809Y34820191D01*
X40175714Y34839239D01*
X40099523Y34858286D01*
X40042380Y34858286D01*
X39966190Y34839239D01*
X39928095Y34820191D01*
X39890000Y34782096D01*
X39870952Y34724953D01*
X39870952Y34686858D01*
X39890000Y34629715D01*
X39909047Y34610667D01*
X39870952Y34267810D02*
X39870952Y34344000D01*
X39890000Y34382096D01*
X39909047Y34401143D01*
X39966190Y34439239D01*
X40042380Y34458286D01*
X40194761Y34458286D01*
X40232857Y34439239D01*
X40251904Y34420191D01*
X40270952Y34382096D01*
X40270952Y34305905D01*
X40251904Y34267810D01*
X40232857Y34248762D01*
X40194761Y34229715D01*
X40099523Y34229715D01*
X40061428Y34248762D01*
X40042380Y34267810D01*
X40023333Y34305905D01*
X40023333Y34382096D01*
X40042380Y34420191D01*
X40061428Y34439239D01*
X40099523Y34458286D01*
%TO.C,C5*%
X28672857Y32936667D02*
X28691904Y32955715D01*
X28710952Y33012858D01*
X28710952Y33050953D01*
X28691904Y33108096D01*
X28653809Y33146191D01*
X28615714Y33165239D01*
X28539523Y33184286D01*
X28482380Y33184286D01*
X28406190Y33165239D01*
X28368095Y33146191D01*
X28330000Y33108096D01*
X28310952Y33050953D01*
X28310952Y33012858D01*
X28330000Y32955715D01*
X28349047Y32936667D01*
X28310952Y32574762D02*
X28310952Y32765239D01*
X28501428Y32784286D01*
X28482380Y32765239D01*
X28463333Y32727143D01*
X28463333Y32631905D01*
X28482380Y32593810D01*
X28501428Y32574762D01*
X28539523Y32555715D01*
X28634761Y32555715D01*
X28672857Y32574762D01*
X28691904Y32593810D01*
X28710952Y32631905D01*
X28710952Y32727143D01*
X28691904Y32765239D01*
X28672857Y32784286D01*
%TO.C,C4*%
X28652857Y36386667D02*
X28671904Y36405715D01*
X28690952Y36462858D01*
X28690952Y36500953D01*
X28671904Y36558096D01*
X28633809Y36596191D01*
X28595714Y36615239D01*
X28519523Y36634286D01*
X28462380Y36634286D01*
X28386190Y36615239D01*
X28348095Y36596191D01*
X28310000Y36558096D01*
X28290952Y36500953D01*
X28290952Y36462858D01*
X28310000Y36405715D01*
X28329047Y36386667D01*
X28424285Y36043810D02*
X28690952Y36043810D01*
X28271904Y36139048D02*
X28557619Y36234286D01*
X28557619Y35986667D01*
%TO.C,C1*%
X46592857Y18674167D02*
X46611904Y18693215D01*
X46630952Y18750358D01*
X46630952Y18788453D01*
X46611904Y18845596D01*
X46573809Y18883691D01*
X46535714Y18902739D01*
X46459523Y18921786D01*
X46402380Y18921786D01*
X46326190Y18902739D01*
X46288095Y18883691D01*
X46250000Y18845596D01*
X46230952Y18788453D01*
X46230952Y18750358D01*
X46250000Y18693215D01*
X46269047Y18674167D01*
X46630952Y18293215D02*
X46630952Y18521786D01*
X46630952Y18407500D02*
X46230952Y18407500D01*
X46288095Y18445596D01*
X46326190Y18483691D01*
X46345238Y18521786D01*
%TO.C,L2*%
D16*
X38313666Y36469477D02*
X38918428Y36469477D01*
X38918428Y37739477D01*
X37950809Y37618524D02*
X37890333Y37679000D01*
X37769380Y37739477D01*
X37467000Y37739477D01*
X37346047Y37679000D01*
X37285571Y37618524D01*
X37225095Y37497572D01*
X37225095Y37376620D01*
X37285571Y37195191D01*
X38011285Y36469477D01*
X37225095Y36469477D01*
%TO.C,Q1*%
D17*
X17083809Y50437620D02*
X17060000Y50485239D01*
X17012380Y50532858D01*
X16940952Y50604286D01*
X16917142Y50651905D01*
X16917142Y50699524D01*
X17036190Y50675715D02*
X17012380Y50723334D01*
X16964761Y50770953D01*
X16869523Y50794762D01*
X16702857Y50794762D01*
X16607619Y50770953D01*
X16560000Y50723334D01*
X16536190Y50675715D01*
X16536190Y50580477D01*
X16560000Y50532858D01*
X16607619Y50485239D01*
X16702857Y50461429D01*
X16869523Y50461429D01*
X16964761Y50485239D01*
X17012380Y50532858D01*
X17036190Y50580477D01*
X17036190Y50675715D01*
X17036190Y49985239D02*
X17036190Y50270953D01*
X17036190Y50128096D02*
X16536190Y50128096D01*
X16607619Y50175715D01*
X16655238Y50223334D01*
X16679047Y50270953D01*
%TO.C,IC1*%
D18*
X53475800Y37174420D02*
X53475800Y36936324D01*
X53713895Y37031562D02*
X53475800Y36936324D01*
X53237704Y37031562D01*
X53618657Y36745848D02*
X53475800Y36936324D01*
X53332942Y36745848D01*
%TD*%
M02*
