%TF.GenerationSoftware,KiCad,Pcbnew,(5.1.6)-1*%
%TF.CreationDate,2020-11-27T15:12:50+01:00*%
%TF.ProjectId,Board,426f6172-642e-46b6-9963-61645f706362,rev?*%
%TF.SameCoordinates,PX253b400PY7a67730*%
%TF.FileFunction,Legend,Top*%
%TF.FilePolarity,Positive*%
%FSLAX46Y46*%
G04 Gerber Fmt 4.6, Leading zero omitted, Abs format (unit mm)*
G04 Created by KiCad (PCBNEW (5.1.6)-1) date 2020-11-27 15:12:50*
%MOMM*%
%LPD*%
G01*
G04 APERTURE LIST*
%TA.AperFunction,Profile*%
%ADD10C,0.050000*%
%TD*%
%ADD11C,0.100000*%
%ADD12C,0.127000*%
%ADD13C,0.120000*%
%ADD14C,0.152400*%
%ADD15C,0.400000*%
%ADD16C,0.200000*%
%ADD17C,0.015000*%
%ADD18C,0.150000*%
%ADD19C,0.254000*%
G04 APERTURE END LIST*
D10*
X0Y70000000D02*
X0Y0D01*
X87500000Y70000000D02*
X0Y70000000D01*
X87500000Y0D02*
X87500000Y70000000D01*
X0Y0D02*
X87500000Y0D01*
D11*
%TO.C,U2*%
G36*
X85824000Y38884000D02*
G01*
X85824000Y31264000D01*
X82014000Y31264000D01*
X82014000Y38884000D01*
X85824000Y38884000D01*
G37*
X85824000Y38884000D02*
X85824000Y31264000D01*
X82014000Y31264000D01*
X82014000Y38884000D01*
X85824000Y38884000D01*
D12*
X85951000Y21124000D02*
X33782000Y21104000D01*
X33782000Y21104000D02*
X33782000Y49024000D01*
X33754000Y49044000D02*
X85951000Y49024000D01*
X85951000Y49024000D02*
X85951000Y21124000D01*
D13*
%TO.C,D9*%
X24940000Y42170000D02*
X24940000Y39930000D01*
X25180000Y42170000D02*
X25180000Y39930000D01*
X25060000Y42170000D02*
X25060000Y39930000D01*
X29230000Y41050000D02*
X28580000Y41050000D01*
X23690000Y41050000D02*
X24340000Y41050000D01*
X28580000Y42170000D02*
X24340000Y42170000D01*
X28580000Y39930000D02*
X28580000Y42170000D01*
X24340000Y39930000D02*
X28580000Y39930000D01*
X24340000Y42170000D02*
X24340000Y39930000D01*
%TO.C,J3*%
X10721325Y39850000D02*
X11154338Y40100000D01*
X11154338Y39600000D02*
X10721325Y39850000D01*
X11154338Y40100000D02*
X11154338Y39600000D01*
X10260000Y18825000D02*
X-220000Y18825000D01*
X10260000Y49795000D02*
X10260000Y18825000D01*
X-220000Y49795000D02*
X10260000Y49795000D01*
D14*
%TO.C,J1*%
X40190000Y3770000D02*
X40190000Y20770000D01*
X80190000Y20770000D02*
X40190000Y20770000D01*
X80190000Y3770000D02*
X40190000Y3770000D01*
X80190000Y3770000D02*
X80190000Y20770000D01*
D12*
%TO.C,K2*%
X11250000Y39400000D02*
X31750000Y39400000D01*
X11250000Y29300000D02*
X11250000Y39400000D01*
X31750000Y29300000D02*
X11250000Y29300000D01*
X31750000Y39400000D02*
X31750000Y29300000D01*
D15*
X30690000Y40060000D02*
G75*
G03*
X30690000Y40060000I-200000J0D01*
G01*
D16*
%TO.C,L1*%
X37680000Y60080000D02*
X32180000Y60080000D01*
X32180000Y55080000D02*
X37680000Y55080000D01*
%TO.C,L3*%
X30250000Y24180000D02*
X24750000Y24180000D01*
X24750000Y19180000D02*
X30250000Y19180000D01*
D13*
%TO.C,U1*%
X34580000Y50960000D02*
X32580000Y50960000D01*
X33580000Y54200000D02*
X30580000Y54200000D01*
%TO.C,R20*%
X42691500Y51734724D02*
X42691500Y51225276D01*
X41646500Y51734724D02*
X41646500Y51225276D01*
%TO.C,R19*%
X42691500Y55234724D02*
X42691500Y54725276D01*
X41646500Y55234724D02*
X41646500Y54725276D01*
%TO.C,R16*%
X51447500Y60535276D02*
X51447500Y61044724D01*
X52492500Y60535276D02*
X52492500Y61044724D01*
%TO.C,R15*%
X66677500Y60527776D02*
X66677500Y61037224D01*
X67722500Y60527776D02*
X67722500Y61037224D01*
%TO.C,R14*%
X61607500Y60537776D02*
X61607500Y61047224D01*
X62652500Y60537776D02*
X62652500Y61047224D01*
%TO.C,R13*%
X56527500Y60537776D02*
X56527500Y61047224D01*
X57572500Y60537776D02*
X57572500Y61047224D01*
%TO.C,R8*%
X48542500Y51644724D02*
X48542500Y51135276D01*
X47497500Y51644724D02*
X47497500Y51135276D01*
%TO.C,R3*%
X37457500Y52637776D02*
X37457500Y53147224D01*
X38502500Y52637776D02*
X38502500Y53147224D01*
%TO.C,C10*%
X44390000Y55126267D02*
X44390000Y54833733D01*
X43370000Y55126267D02*
X43370000Y54833733D01*
%TO.C,C9*%
X26260000Y52926233D02*
X26260000Y53218767D01*
X27280000Y52926233D02*
X27280000Y53218767D01*
%TO.C,C8*%
X74286267Y54590000D02*
X73993733Y54590000D01*
X74286267Y55610000D02*
X73993733Y55610000D01*
%TO.C,FB2*%
X43126267Y57070000D02*
X42783733Y57070000D01*
X43126267Y58090000D02*
X42783733Y58090000D01*
%TO.C,FB1*%
X28316267Y49200000D02*
X27973733Y49200000D01*
X28316267Y50220000D02*
X27973733Y50220000D01*
%TO.C,C16*%
X33810000Y17761252D02*
X33810000Y16338748D01*
X31990000Y17761252D02*
X31990000Y16338748D01*
%TO.C,C3*%
X40890000Y56648752D02*
X40890000Y55226248D01*
X39070000Y56648752D02*
X39070000Y55226248D01*
%TO.C,C2*%
X27860000Y53061248D02*
X27860000Y54483752D01*
X29680000Y53061248D02*
X29680000Y54483752D01*
%TO.C,F1*%
X17764564Y20050000D02*
X13660436Y20050000D01*
X17764564Y23470000D02*
X13660436Y23470000D01*
%TO.C,D8*%
X23310000Y22760000D02*
X20010000Y22760000D01*
X20010000Y22760000D02*
X20010000Y17360000D01*
X23310000Y22760000D02*
X23310000Y17360000D01*
D15*
%TO.C,K1*%
X12290000Y61920000D02*
G75*
G03*
X12290000Y61920000I-200000J0D01*
G01*
D12*
X12750000Y63180000D02*
X22850000Y63180000D01*
X22850000Y63180000D02*
X22850000Y42680000D01*
X22850000Y42680000D02*
X12750000Y42680000D01*
X12750000Y42680000D02*
X12750000Y63180000D01*
D13*
%TO.C,D7*%
X20180000Y63980000D02*
X20180000Y66220000D01*
X20180000Y66220000D02*
X15940000Y66220000D01*
X15940000Y66220000D02*
X15940000Y63980000D01*
X15940000Y63980000D02*
X20180000Y63980000D01*
X20830000Y65100000D02*
X20180000Y65100000D01*
X15290000Y65100000D02*
X15940000Y65100000D01*
X19460000Y63980000D02*
X19460000Y66220000D01*
X19340000Y63980000D02*
X19340000Y66220000D01*
X19580000Y63980000D02*
X19580000Y66220000D01*
%TO.C,D6*%
X53196000Y57780000D02*
X53040000Y57780000D01*
X50880000Y57780000D02*
X50724000Y57780000D01*
X53038608Y54547665D02*
G75*
G03*
X53195516Y57780000I-1078608J1672335D01*
G01*
X50881392Y54547665D02*
G75*
G02*
X50724484Y57780000I1078608J1672335D01*
G01*
X53039837Y55178870D02*
G75*
G03*
X53040000Y57260961I-1079837J1041130D01*
G01*
X50880163Y55178870D02*
G75*
G02*
X50880000Y57260961I1079837J1041130D01*
G01*
%TO.C,SW1*%
X76710000Y57310000D02*
X77120000Y57310000D01*
X77120000Y57310000D02*
X77120000Y63730000D01*
X77120000Y63730000D02*
X76840000Y63730000D01*
X75110000Y63730000D02*
X72710000Y63730000D01*
X71110000Y63730000D02*
X70700000Y63730000D01*
X70700000Y63730000D02*
X70700000Y57310000D01*
X70700000Y57310000D02*
X71110000Y57310000D01*
X72710000Y57310000D02*
X75110000Y57310000D01*
%TO.C,J2*%
X75270000Y52690000D02*
X75270000Y52374493D01*
X75270000Y50585507D02*
X75270000Y50270000D01*
X75270000Y51585507D02*
X75270000Y51374493D01*
X79145000Y52690000D02*
X75270000Y52690000D01*
X80390000Y50270000D02*
X75270000Y50270000D01*
X79145000Y52690000D02*
X79145000Y52588276D01*
X80390000Y50585507D02*
X80390000Y50270000D01*
X79830000Y52690000D02*
X80515000Y52690000D01*
X80515000Y52690000D02*
X80515000Y51980000D01*
%TO.C,D5*%
X68196000Y57780000D02*
X68040000Y57780000D01*
X65880000Y57780000D02*
X65724000Y57780000D01*
X68038608Y54547665D02*
G75*
G03*
X68195516Y57780000I-1078608J1672335D01*
G01*
X65881392Y54547665D02*
G75*
G02*
X65724484Y57780000I1078608J1672335D01*
G01*
X68039837Y55178870D02*
G75*
G03*
X68040000Y57260961I-1079837J1041130D01*
G01*
X65880163Y55178870D02*
G75*
G02*
X65880000Y57260961I1079837J1041130D01*
G01*
%TO.C,D4*%
X63196000Y57780000D02*
X63040000Y57780000D01*
X60880000Y57780000D02*
X60724000Y57780000D01*
X63038608Y54547665D02*
G75*
G03*
X63195516Y57780000I-1078608J1672335D01*
G01*
X60881392Y54547665D02*
G75*
G02*
X60724484Y57780000I1078608J1672335D01*
G01*
X63039837Y55178870D02*
G75*
G03*
X63040000Y57260961I-1079837J1041130D01*
G01*
X60880163Y55178870D02*
G75*
G02*
X60880000Y57260961I1079837J1041130D01*
G01*
%TO.C,D3*%
X58196000Y57780000D02*
X58040000Y57780000D01*
X55880000Y57780000D02*
X55724000Y57780000D01*
X58038608Y54547665D02*
G75*
G03*
X58195516Y57780000I-1078608J1672335D01*
G01*
X55881392Y54547665D02*
G75*
G02*
X55724484Y57780000I1078608J1672335D01*
G01*
X58039837Y55178870D02*
G75*
G03*
X58040000Y57260961I-1079837J1041130D01*
G01*
X55880163Y55178870D02*
G75*
G02*
X55880000Y57260961I1079837J1041130D01*
G01*
%TD*%
%TO.C,U2*%
D17*
X78864169Y34481802D02*
X79674005Y34481802D01*
X79769280Y34529439D01*
X79816918Y34577076D01*
X79864555Y34672351D01*
X79864555Y34862901D01*
X79816918Y34958176D01*
X79769280Y35005813D01*
X79674005Y35053451D01*
X78864169Y35053451D01*
X78959444Y35482188D02*
X78911807Y35529825D01*
X78864169Y35625100D01*
X78864169Y35863287D01*
X78911807Y35958562D01*
X78959444Y36006199D01*
X79054719Y36053837D01*
X79149994Y36053837D01*
X79292906Y36006199D01*
X79864555Y35434550D01*
X79864555Y36053837D01*
%TO.C,FID1*%
D18*
X6928571Y56071429D02*
X6595238Y56071429D01*
X6595238Y55547620D02*
X6595238Y56547620D01*
X7071428Y56547620D01*
X7452380Y55547620D02*
X7452380Y56547620D01*
X7928571Y55547620D02*
X7928571Y56547620D01*
X8166666Y56547620D01*
X8309523Y56500000D01*
X8404761Y56404762D01*
X8452380Y56309524D01*
X8500000Y56119048D01*
X8500000Y55976191D01*
X8452380Y55785715D01*
X8404761Y55690477D01*
X8309523Y55595239D01*
X8166666Y55547620D01*
X7928571Y55547620D01*
X9452380Y55547620D02*
X8880952Y55547620D01*
X9166666Y55547620D02*
X9166666Y56547620D01*
X9071428Y56404762D01*
X8976190Y56309524D01*
X8880952Y56261905D01*
%TO.C,MH4*%
X82466666Y9947620D02*
X82466666Y10947620D01*
X82800000Y10233334D01*
X83133333Y10947620D01*
X83133333Y9947620D01*
X83609523Y9947620D02*
X83609523Y10947620D01*
X83609523Y10471429D02*
X84180952Y10471429D01*
X84180952Y9947620D02*
X84180952Y10947620D01*
X85085714Y10614286D02*
X85085714Y9947620D01*
X84847619Y10995239D02*
X84609523Y10280953D01*
X85228571Y10280953D01*
%TO.C,MH3*%
X82466666Y64947620D02*
X82466666Y65947620D01*
X82800000Y65233334D01*
X83133333Y65947620D01*
X83133333Y64947620D01*
X83609523Y64947620D02*
X83609523Y65947620D01*
X83609523Y65471429D02*
X84180952Y65471429D01*
X84180952Y64947620D02*
X84180952Y65947620D01*
X84561904Y65947620D02*
X85180952Y65947620D01*
X84847619Y65566667D01*
X84990476Y65566667D01*
X85085714Y65519048D01*
X85133333Y65471429D01*
X85180952Y65376191D01*
X85180952Y65138096D01*
X85133333Y65042858D01*
X85085714Y64995239D01*
X84990476Y64947620D01*
X84704761Y64947620D01*
X84609523Y64995239D01*
X84561904Y65042858D01*
%TO.C,MH2*%
X7466666Y64947620D02*
X7466666Y65947620D01*
X7800000Y65233334D01*
X8133333Y65947620D01*
X8133333Y64947620D01*
X8609523Y64947620D02*
X8609523Y65947620D01*
X8609523Y65471429D02*
X9180952Y65471429D01*
X9180952Y64947620D02*
X9180952Y65947620D01*
X9609523Y65852381D02*
X9657142Y65900000D01*
X9752380Y65947620D01*
X9990476Y65947620D01*
X10085714Y65900000D01*
X10133333Y65852381D01*
X10180952Y65757143D01*
X10180952Y65661905D01*
X10133333Y65519048D01*
X9561904Y64947620D01*
X10180952Y64947620D01*
%TO.C,MH1*%
X7516666Y10147620D02*
X7516666Y11147620D01*
X7850000Y10433334D01*
X8183333Y11147620D01*
X8183333Y10147620D01*
X8659523Y10147620D02*
X8659523Y11147620D01*
X8659523Y10671429D02*
X9230952Y10671429D01*
X9230952Y10147620D02*
X9230952Y11147620D01*
X10230952Y10147620D02*
X9659523Y10147620D01*
X9945238Y10147620D02*
X9945238Y11147620D01*
X9850000Y11004762D01*
X9754761Y10909524D01*
X9659523Y10861905D01*
%TO.C,D9*%
X31811904Y40647620D02*
X31811904Y41647620D01*
X32050000Y41647620D01*
X32192857Y41600000D01*
X32288095Y41504762D01*
X32335714Y41409524D01*
X32383333Y41219048D01*
X32383333Y41076191D01*
X32335714Y40885715D01*
X32288095Y40790477D01*
X32192857Y40695239D01*
X32050000Y40647620D01*
X31811904Y40647620D01*
X32859523Y40647620D02*
X33050000Y40647620D01*
X33145238Y40695239D01*
X33192857Y40742858D01*
X33288095Y40885715D01*
X33335714Y41076191D01*
X33335714Y41457143D01*
X33288095Y41552381D01*
X33240476Y41600000D01*
X33145238Y41647620D01*
X32954761Y41647620D01*
X32859523Y41600000D01*
X32811904Y41552381D01*
X32764285Y41457143D01*
X32764285Y41219048D01*
X32811904Y41123810D01*
X32859523Y41076191D01*
X32954761Y41028572D01*
X33145238Y41028572D01*
X33240476Y41076191D01*
X33288095Y41123810D01*
X33335714Y41219048D01*
X20688095Y40597620D02*
X20688095Y41597620D01*
X21259523Y40597620D02*
X20830952Y41169048D01*
X21259523Y41597620D02*
X20688095Y41026191D01*
%TO.C,J3*%
X10552380Y44416667D02*
X11266666Y44416667D01*
X11409523Y44369048D01*
X11504761Y44273810D01*
X11552380Y44130953D01*
X11552380Y44035715D01*
X10552380Y44797620D02*
X10552380Y45416667D01*
X10933333Y45083334D01*
X10933333Y45226191D01*
X10980952Y45321429D01*
X11028571Y45369048D01*
X11123809Y45416667D01*
X11361904Y45416667D01*
X11457142Y45369048D01*
X11504761Y45321429D01*
X11552380Y45226191D01*
X11552380Y44940477D01*
X11504761Y44845239D01*
X11457142Y44797620D01*
%TO.C,J1*%
X81116666Y16947620D02*
X81116666Y16233334D01*
X81069047Y16090477D01*
X80973809Y15995239D01*
X80830952Y15947620D01*
X80735714Y15947620D01*
X82116666Y15947620D02*
X81545238Y15947620D01*
X81830952Y15947620D02*
X81830952Y16947620D01*
X81735714Y16804762D01*
X81640476Y16709524D01*
X81545238Y16661905D01*
%TO.C,K2*%
D17*
X27757726Y26899716D02*
X27757726Y27901448D01*
X28330144Y26899716D02*
X27900830Y27472134D01*
X28330144Y27901448D02*
X27757726Y27329030D01*
X28711756Y27806045D02*
X28759458Y27853746D01*
X28854861Y27901448D01*
X29093369Y27901448D01*
X29188772Y27853746D01*
X29236473Y27806045D01*
X29284175Y27710642D01*
X29284175Y27615239D01*
X29236473Y27472134D01*
X28664055Y26899716D01*
X29284175Y26899716D01*
%TO.C,L1*%
D19*
X34738333Y60875477D02*
X34133571Y60875477D01*
X34133571Y62145477D01*
X35826904Y60875477D02*
X35101190Y60875477D01*
X35464047Y60875477D02*
X35464047Y62145477D01*
X35343095Y61964048D01*
X35222142Y61843096D01*
X35101190Y61782620D01*
%TO.C,L3*%
X27288333Y17075477D02*
X26683571Y17075477D01*
X26683571Y18345477D01*
X27590714Y18345477D02*
X28376904Y18345477D01*
X27953571Y17861667D01*
X28135000Y17861667D01*
X28255952Y17801191D01*
X28316428Y17740715D01*
X28376904Y17619762D01*
X28376904Y17317381D01*
X28316428Y17196429D01*
X28255952Y17135953D01*
X28135000Y17075477D01*
X27772142Y17075477D01*
X27651190Y17135953D01*
X27590714Y17196429D01*
%TO.C,U1*%
D18*
X33038095Y50447620D02*
X33038095Y49638096D01*
X33085714Y49542858D01*
X33133333Y49495239D01*
X33228571Y49447620D01*
X33419047Y49447620D01*
X33514285Y49495239D01*
X33561904Y49542858D01*
X33609523Y49638096D01*
X33609523Y50447620D01*
X34609523Y49447620D02*
X34038095Y49447620D01*
X34323809Y49447620D02*
X34323809Y50447620D01*
X34228571Y50304762D01*
X34133333Y50209524D01*
X34038095Y50161905D01*
%TO.C,R20*%
X44252380Y51207143D02*
X43776190Y50873810D01*
X44252380Y50635715D02*
X43252380Y50635715D01*
X43252380Y51016667D01*
X43300000Y51111905D01*
X43347619Y51159524D01*
X43442857Y51207143D01*
X43585714Y51207143D01*
X43680952Y51159524D01*
X43728571Y51111905D01*
X43776190Y51016667D01*
X43776190Y50635715D01*
X43347619Y51588096D02*
X43300000Y51635715D01*
X43252380Y51730953D01*
X43252380Y51969048D01*
X43300000Y52064286D01*
X43347619Y52111905D01*
X43442857Y52159524D01*
X43538095Y52159524D01*
X43680952Y52111905D01*
X44252380Y51540477D01*
X44252380Y52159524D01*
X43252380Y52778572D02*
X43252380Y52873810D01*
X43300000Y52969048D01*
X43347619Y53016667D01*
X43442857Y53064286D01*
X43633333Y53111905D01*
X43871428Y53111905D01*
X44061904Y53064286D01*
X44157142Y53016667D01*
X44204761Y52969048D01*
X44252380Y52873810D01*
X44252380Y52778572D01*
X44204761Y52683334D01*
X44157142Y52635715D01*
X44061904Y52588096D01*
X43871428Y52540477D01*
X43633333Y52540477D01*
X43442857Y52588096D01*
X43347619Y52635715D01*
X43300000Y52683334D01*
X43252380Y52778572D01*
%TO.C,R19*%
X42652380Y60507143D02*
X42176190Y60173810D01*
X42652380Y59935715D02*
X41652380Y59935715D01*
X41652380Y60316667D01*
X41700000Y60411905D01*
X41747619Y60459524D01*
X41842857Y60507143D01*
X41985714Y60507143D01*
X42080952Y60459524D01*
X42128571Y60411905D01*
X42176190Y60316667D01*
X42176190Y59935715D01*
X42652380Y61459524D02*
X42652380Y60888096D01*
X42652380Y61173810D02*
X41652380Y61173810D01*
X41795238Y61078572D01*
X41890476Y60983334D01*
X41938095Y60888096D01*
X42652380Y61935715D02*
X42652380Y62126191D01*
X42604761Y62221429D01*
X42557142Y62269048D01*
X42414285Y62364286D01*
X42223809Y62411905D01*
X41842857Y62411905D01*
X41747619Y62364286D01*
X41700000Y62316667D01*
X41652380Y62221429D01*
X41652380Y62030953D01*
X41700000Y61935715D01*
X41747619Y61888096D01*
X41842857Y61840477D01*
X42080952Y61840477D01*
X42176190Y61888096D01*
X42223809Y61935715D01*
X42271428Y62030953D01*
X42271428Y62221429D01*
X42223809Y62316667D01*
X42176190Y62364286D01*
X42080952Y62411905D01*
%TO.C,R16*%
X52552380Y63457143D02*
X52076190Y63123810D01*
X52552380Y62885715D02*
X51552380Y62885715D01*
X51552380Y63266667D01*
X51600000Y63361905D01*
X51647619Y63409524D01*
X51742857Y63457143D01*
X51885714Y63457143D01*
X51980952Y63409524D01*
X52028571Y63361905D01*
X52076190Y63266667D01*
X52076190Y62885715D01*
X52552380Y64409524D02*
X52552380Y63838096D01*
X52552380Y64123810D02*
X51552380Y64123810D01*
X51695238Y64028572D01*
X51790476Y63933334D01*
X51838095Y63838096D01*
X51552380Y65266667D02*
X51552380Y65076191D01*
X51600000Y64980953D01*
X51647619Y64933334D01*
X51790476Y64838096D01*
X51980952Y64790477D01*
X52361904Y64790477D01*
X52457142Y64838096D01*
X52504761Y64885715D01*
X52552380Y64980953D01*
X52552380Y65171429D01*
X52504761Y65266667D01*
X52457142Y65314286D01*
X52361904Y65361905D01*
X52123809Y65361905D01*
X52028571Y65314286D01*
X51980952Y65266667D01*
X51933333Y65171429D01*
X51933333Y64980953D01*
X51980952Y64885715D01*
X52028571Y64838096D01*
X52123809Y64790477D01*
%TO.C,R15*%
X67652380Y63607143D02*
X67176190Y63273810D01*
X67652380Y63035715D02*
X66652380Y63035715D01*
X66652380Y63416667D01*
X66700000Y63511905D01*
X66747619Y63559524D01*
X66842857Y63607143D01*
X66985714Y63607143D01*
X67080952Y63559524D01*
X67128571Y63511905D01*
X67176190Y63416667D01*
X67176190Y63035715D01*
X67652380Y64559524D02*
X67652380Y63988096D01*
X67652380Y64273810D02*
X66652380Y64273810D01*
X66795238Y64178572D01*
X66890476Y64083334D01*
X66938095Y63988096D01*
X66652380Y65464286D02*
X66652380Y64988096D01*
X67128571Y64940477D01*
X67080952Y64988096D01*
X67033333Y65083334D01*
X67033333Y65321429D01*
X67080952Y65416667D01*
X67128571Y65464286D01*
X67223809Y65511905D01*
X67461904Y65511905D01*
X67557142Y65464286D01*
X67604761Y65416667D01*
X67652380Y65321429D01*
X67652380Y65083334D01*
X67604761Y64988096D01*
X67557142Y64940477D01*
%TO.C,R14*%
X62452380Y63757143D02*
X61976190Y63423810D01*
X62452380Y63185715D02*
X61452380Y63185715D01*
X61452380Y63566667D01*
X61500000Y63661905D01*
X61547619Y63709524D01*
X61642857Y63757143D01*
X61785714Y63757143D01*
X61880952Y63709524D01*
X61928571Y63661905D01*
X61976190Y63566667D01*
X61976190Y63185715D01*
X62452380Y64709524D02*
X62452380Y64138096D01*
X62452380Y64423810D02*
X61452380Y64423810D01*
X61595238Y64328572D01*
X61690476Y64233334D01*
X61738095Y64138096D01*
X61785714Y65566667D02*
X62452380Y65566667D01*
X61404761Y65328572D02*
X62119047Y65090477D01*
X62119047Y65709524D01*
%TO.C,R13*%
X57602380Y63657143D02*
X57126190Y63323810D01*
X57602380Y63085715D02*
X56602380Y63085715D01*
X56602380Y63466667D01*
X56650000Y63561905D01*
X56697619Y63609524D01*
X56792857Y63657143D01*
X56935714Y63657143D01*
X57030952Y63609524D01*
X57078571Y63561905D01*
X57126190Y63466667D01*
X57126190Y63085715D01*
X57602380Y64609524D02*
X57602380Y64038096D01*
X57602380Y64323810D02*
X56602380Y64323810D01*
X56745238Y64228572D01*
X56840476Y64133334D01*
X56888095Y64038096D01*
X56602380Y64942858D02*
X56602380Y65561905D01*
X56983333Y65228572D01*
X56983333Y65371429D01*
X57030952Y65466667D01*
X57078571Y65514286D01*
X57173809Y65561905D01*
X57411904Y65561905D01*
X57507142Y65514286D01*
X57554761Y65466667D01*
X57602380Y65371429D01*
X57602380Y65085715D01*
X57554761Y64990477D01*
X57507142Y64942858D01*
%TO.C,R8*%
X49902380Y51223334D02*
X49426190Y50890000D01*
X49902380Y50651905D02*
X48902380Y50651905D01*
X48902380Y51032858D01*
X48950000Y51128096D01*
X48997619Y51175715D01*
X49092857Y51223334D01*
X49235714Y51223334D01*
X49330952Y51175715D01*
X49378571Y51128096D01*
X49426190Y51032858D01*
X49426190Y50651905D01*
X49330952Y51794762D02*
X49283333Y51699524D01*
X49235714Y51651905D01*
X49140476Y51604286D01*
X49092857Y51604286D01*
X48997619Y51651905D01*
X48950000Y51699524D01*
X48902380Y51794762D01*
X48902380Y51985239D01*
X48950000Y52080477D01*
X48997619Y52128096D01*
X49092857Y52175715D01*
X49140476Y52175715D01*
X49235714Y52128096D01*
X49283333Y52080477D01*
X49330952Y51985239D01*
X49330952Y51794762D01*
X49378571Y51699524D01*
X49426190Y51651905D01*
X49521428Y51604286D01*
X49711904Y51604286D01*
X49807142Y51651905D01*
X49854761Y51699524D01*
X49902380Y51794762D01*
X49902380Y51985239D01*
X49854761Y52080477D01*
X49807142Y52128096D01*
X49711904Y52175715D01*
X49521428Y52175715D01*
X49426190Y52128096D01*
X49378571Y52080477D01*
X49330952Y51985239D01*
%TO.C,R3*%
X38452380Y50033334D02*
X37976190Y49700000D01*
X38452380Y49461905D02*
X37452380Y49461905D01*
X37452380Y49842858D01*
X37500000Y49938096D01*
X37547619Y49985715D01*
X37642857Y50033334D01*
X37785714Y50033334D01*
X37880952Y49985715D01*
X37928571Y49938096D01*
X37976190Y49842858D01*
X37976190Y49461905D01*
X37452380Y50366667D02*
X37452380Y50985715D01*
X37833333Y50652381D01*
X37833333Y50795239D01*
X37880952Y50890477D01*
X37928571Y50938096D01*
X38023809Y50985715D01*
X38261904Y50985715D01*
X38357142Y50938096D01*
X38404761Y50890477D01*
X38452380Y50795239D01*
X38452380Y50509524D01*
X38404761Y50414286D01*
X38357142Y50366667D01*
%TO.C,C10*%
X45857142Y53457143D02*
X45904761Y53409524D01*
X45952380Y53266667D01*
X45952380Y53171429D01*
X45904761Y53028572D01*
X45809523Y52933334D01*
X45714285Y52885715D01*
X45523809Y52838096D01*
X45380952Y52838096D01*
X45190476Y52885715D01*
X45095238Y52933334D01*
X45000000Y53028572D01*
X44952380Y53171429D01*
X44952380Y53266667D01*
X45000000Y53409524D01*
X45047619Y53457143D01*
X45952380Y54409524D02*
X45952380Y53838096D01*
X45952380Y54123810D02*
X44952380Y54123810D01*
X45095238Y54028572D01*
X45190476Y53933334D01*
X45238095Y53838096D01*
X44952380Y55028572D02*
X44952380Y55123810D01*
X45000000Y55219048D01*
X45047619Y55266667D01*
X45142857Y55314286D01*
X45333333Y55361905D01*
X45571428Y55361905D01*
X45761904Y55314286D01*
X45857142Y55266667D01*
X45904761Y55219048D01*
X45952380Y55123810D01*
X45952380Y55028572D01*
X45904761Y54933334D01*
X45857142Y54885715D01*
X45761904Y54838096D01*
X45571428Y54790477D01*
X45333333Y54790477D01*
X45142857Y54838096D01*
X45047619Y54885715D01*
X45000000Y54933334D01*
X44952380Y55028572D01*
%TO.C,C9*%
X27000142Y55927334D02*
X27047761Y55879715D01*
X27095380Y55736858D01*
X27095380Y55641620D01*
X27047761Y55498762D01*
X26952523Y55403524D01*
X26857285Y55355905D01*
X26666809Y55308286D01*
X26523952Y55308286D01*
X26333476Y55355905D01*
X26238238Y55403524D01*
X26143000Y55498762D01*
X26095380Y55641620D01*
X26095380Y55736858D01*
X26143000Y55879715D01*
X26190619Y55927334D01*
X27095380Y56403524D02*
X27095380Y56594000D01*
X27047761Y56689239D01*
X27000142Y56736858D01*
X26857285Y56832096D01*
X26666809Y56879715D01*
X26285857Y56879715D01*
X26190619Y56832096D01*
X26143000Y56784477D01*
X26095380Y56689239D01*
X26095380Y56498762D01*
X26143000Y56403524D01*
X26190619Y56355905D01*
X26285857Y56308286D01*
X26523952Y56308286D01*
X26619190Y56355905D01*
X26666809Y56403524D01*
X26714428Y56498762D01*
X26714428Y56689239D01*
X26666809Y56784477D01*
X26619190Y56832096D01*
X26523952Y56879715D01*
%TO.C,C8*%
X73973333Y53312858D02*
X73925714Y53265239D01*
X73782857Y53217620D01*
X73687619Y53217620D01*
X73544761Y53265239D01*
X73449523Y53360477D01*
X73401904Y53455715D01*
X73354285Y53646191D01*
X73354285Y53789048D01*
X73401904Y53979524D01*
X73449523Y54074762D01*
X73544761Y54170000D01*
X73687619Y54217620D01*
X73782857Y54217620D01*
X73925714Y54170000D01*
X73973333Y54122381D01*
X74544761Y53789048D02*
X74449523Y53836667D01*
X74401904Y53884286D01*
X74354285Y53979524D01*
X74354285Y54027143D01*
X74401904Y54122381D01*
X74449523Y54170000D01*
X74544761Y54217620D01*
X74735238Y54217620D01*
X74830476Y54170000D01*
X74878095Y54122381D01*
X74925714Y54027143D01*
X74925714Y53979524D01*
X74878095Y53884286D01*
X74830476Y53836667D01*
X74735238Y53789048D01*
X74544761Y53789048D01*
X74449523Y53741429D01*
X74401904Y53693810D01*
X74354285Y53598572D01*
X74354285Y53408096D01*
X74401904Y53312858D01*
X74449523Y53265239D01*
X74544761Y53217620D01*
X74735238Y53217620D01*
X74830476Y53265239D01*
X74878095Y53312858D01*
X74925714Y53408096D01*
X74925714Y53598572D01*
X74878095Y53693810D01*
X74830476Y53741429D01*
X74735238Y53789048D01*
%TO.C,FB2*%
X42121666Y59048429D02*
X41788333Y59048429D01*
X41788333Y58524620D02*
X41788333Y59524620D01*
X42264523Y59524620D01*
X42978809Y59048429D02*
X43121666Y59000810D01*
X43169285Y58953191D01*
X43216904Y58857953D01*
X43216904Y58715096D01*
X43169285Y58619858D01*
X43121666Y58572239D01*
X43026428Y58524620D01*
X42645476Y58524620D01*
X42645476Y59524620D01*
X42978809Y59524620D01*
X43074047Y59477000D01*
X43121666Y59429381D01*
X43169285Y59334143D01*
X43169285Y59238905D01*
X43121666Y59143667D01*
X43074047Y59096048D01*
X42978809Y59048429D01*
X42645476Y59048429D01*
X43597857Y59429381D02*
X43645476Y59477000D01*
X43740714Y59524620D01*
X43978809Y59524620D01*
X44074047Y59477000D01*
X44121666Y59429381D01*
X44169285Y59334143D01*
X44169285Y59238905D01*
X44121666Y59096048D01*
X43550238Y58524620D01*
X44169285Y58524620D01*
%TO.C,FB1*%
X24216666Y49821429D02*
X23883333Y49821429D01*
X23883333Y49297620D02*
X23883333Y50297620D01*
X24359523Y50297620D01*
X25073809Y49821429D02*
X25216666Y49773810D01*
X25264285Y49726191D01*
X25311904Y49630953D01*
X25311904Y49488096D01*
X25264285Y49392858D01*
X25216666Y49345239D01*
X25121428Y49297620D01*
X24740476Y49297620D01*
X24740476Y50297620D01*
X25073809Y50297620D01*
X25169047Y50250000D01*
X25216666Y50202381D01*
X25264285Y50107143D01*
X25264285Y50011905D01*
X25216666Y49916667D01*
X25169047Y49869048D01*
X25073809Y49821429D01*
X24740476Y49821429D01*
X26264285Y49297620D02*
X25692857Y49297620D01*
X25978571Y49297620D02*
X25978571Y50297620D01*
X25883333Y50154762D01*
X25788095Y50059524D01*
X25692857Y50011905D01*
%TO.C,C16*%
X30207142Y14757143D02*
X30254761Y14709524D01*
X30302380Y14566667D01*
X30302380Y14471429D01*
X30254761Y14328572D01*
X30159523Y14233334D01*
X30064285Y14185715D01*
X29873809Y14138096D01*
X29730952Y14138096D01*
X29540476Y14185715D01*
X29445238Y14233334D01*
X29350000Y14328572D01*
X29302380Y14471429D01*
X29302380Y14566667D01*
X29350000Y14709524D01*
X29397619Y14757143D01*
X30302380Y15709524D02*
X30302380Y15138096D01*
X30302380Y15423810D02*
X29302380Y15423810D01*
X29445238Y15328572D01*
X29540476Y15233334D01*
X29588095Y15138096D01*
X29302380Y16566667D02*
X29302380Y16376191D01*
X29350000Y16280953D01*
X29397619Y16233334D01*
X29540476Y16138096D01*
X29730952Y16090477D01*
X30111904Y16090477D01*
X30207142Y16138096D01*
X30254761Y16185715D01*
X30302380Y16280953D01*
X30302380Y16471429D01*
X30254761Y16566667D01*
X30207142Y16614286D01*
X30111904Y16661905D01*
X29873809Y16661905D01*
X29778571Y16614286D01*
X29730952Y16566667D01*
X29683333Y16471429D01*
X29683333Y16280953D01*
X29730952Y16185715D01*
X29778571Y16138096D01*
X29873809Y16090477D01*
%TO.C,C3*%
X40407142Y61233334D02*
X40454761Y61185715D01*
X40502380Y61042858D01*
X40502380Y60947620D01*
X40454761Y60804762D01*
X40359523Y60709524D01*
X40264285Y60661905D01*
X40073809Y60614286D01*
X39930952Y60614286D01*
X39740476Y60661905D01*
X39645238Y60709524D01*
X39550000Y60804762D01*
X39502380Y60947620D01*
X39502380Y61042858D01*
X39550000Y61185715D01*
X39597619Y61233334D01*
X39502380Y61566667D02*
X39502380Y62185715D01*
X39883333Y61852381D01*
X39883333Y61995239D01*
X39930952Y62090477D01*
X39978571Y62138096D01*
X40073809Y62185715D01*
X40311904Y62185715D01*
X40407142Y62138096D01*
X40454761Y62090477D01*
X40502380Y61995239D01*
X40502380Y61709524D01*
X40454761Y61614286D01*
X40407142Y61566667D01*
%TO.C,C2*%
X29000142Y57377334D02*
X29047761Y57329715D01*
X29095380Y57186858D01*
X29095380Y57091620D01*
X29047761Y56948762D01*
X28952523Y56853524D01*
X28857285Y56805905D01*
X28666809Y56758286D01*
X28523952Y56758286D01*
X28333476Y56805905D01*
X28238238Y56853524D01*
X28143000Y56948762D01*
X28095380Y57091620D01*
X28095380Y57186858D01*
X28143000Y57329715D01*
X28190619Y57377334D01*
X28190619Y57758286D02*
X28143000Y57805905D01*
X28095380Y57901143D01*
X28095380Y58139239D01*
X28143000Y58234477D01*
X28190619Y58282096D01*
X28285857Y58329715D01*
X28381095Y58329715D01*
X28523952Y58282096D01*
X29095380Y57710667D01*
X29095380Y58329715D01*
%TO.C,F1*%
X14666666Y19171429D02*
X14333333Y19171429D01*
X14333333Y18647620D02*
X14333333Y19647620D01*
X14809523Y19647620D01*
X15714285Y18647620D02*
X15142857Y18647620D01*
X15428571Y18647620D02*
X15428571Y19647620D01*
X15333333Y19504762D01*
X15238095Y19409524D01*
X15142857Y19361905D01*
%TO.C,D8*%
X19452380Y16511905D02*
X18452380Y16511905D01*
X18452380Y16750000D01*
X18500000Y16892858D01*
X18595238Y16988096D01*
X18690476Y17035715D01*
X18880952Y17083334D01*
X19023809Y17083334D01*
X19214285Y17035715D01*
X19309523Y16988096D01*
X19404761Y16892858D01*
X19452380Y16750000D01*
X19452380Y16511905D01*
X18880952Y17654762D02*
X18833333Y17559524D01*
X18785714Y17511905D01*
X18690476Y17464286D01*
X18642857Y17464286D01*
X18547619Y17511905D01*
X18500000Y17559524D01*
X18452380Y17654762D01*
X18452380Y17845239D01*
X18500000Y17940477D01*
X18547619Y17988096D01*
X18642857Y18035715D01*
X18690476Y18035715D01*
X18785714Y17988096D01*
X18833333Y17940477D01*
X18880952Y17845239D01*
X18880952Y17654762D01*
X18928571Y17559524D01*
X18976190Y17511905D01*
X19071428Y17464286D01*
X19261904Y17464286D01*
X19357142Y17511905D01*
X19404761Y17559524D01*
X19452380Y17654762D01*
X19452380Y17845239D01*
X19404761Y17940477D01*
X19357142Y17988096D01*
X19261904Y18035715D01*
X19071428Y18035715D01*
X18976190Y17988096D01*
X18928571Y17940477D01*
X18880952Y17845239D01*
%TO.C,K1*%
D17*
X25250284Y59187727D02*
X24248552Y59187727D01*
X25250284Y59760145D02*
X24677866Y59330831D01*
X24248552Y59760145D02*
X24820970Y59187727D01*
X25250284Y60714176D02*
X25250284Y60141757D01*
X25250284Y60427966D02*
X24248552Y60427966D01*
X24391657Y60332563D01*
X24487060Y60237160D01*
X24534761Y60141757D01*
%TO.C,D7*%
D18*
X17261904Y66597620D02*
X17261904Y67597620D01*
X17500000Y67597620D01*
X17642857Y67550000D01*
X17738095Y67454762D01*
X17785714Y67359524D01*
X17833333Y67169048D01*
X17833333Y67026191D01*
X17785714Y66835715D01*
X17738095Y66740477D01*
X17642857Y66645239D01*
X17500000Y66597620D01*
X17261904Y66597620D01*
X18166666Y67597620D02*
X18833333Y67597620D01*
X18404761Y66597620D01*
X23538095Y64547620D02*
X23538095Y65547620D01*
X24109523Y64547620D02*
X23680952Y65119048D01*
X24109523Y65547620D02*
X23538095Y64976191D01*
%TO.C,D6*%
X52302380Y51861905D02*
X51302380Y51861905D01*
X51302380Y52100000D01*
X51350000Y52242858D01*
X51445238Y52338096D01*
X51540476Y52385715D01*
X51730952Y52433334D01*
X51873809Y52433334D01*
X52064285Y52385715D01*
X52159523Y52338096D01*
X52254761Y52242858D01*
X52302380Y52100000D01*
X52302380Y51861905D01*
X51302380Y53290477D02*
X51302380Y53100000D01*
X51350000Y53004762D01*
X51397619Y52957143D01*
X51540476Y52861905D01*
X51730952Y52814286D01*
X52111904Y52814286D01*
X52207142Y52861905D01*
X52254761Y52909524D01*
X52302380Y53004762D01*
X52302380Y53195239D01*
X52254761Y53290477D01*
X52207142Y53338096D01*
X52111904Y53385715D01*
X51873809Y53385715D01*
X51778571Y53338096D01*
X51730952Y53290477D01*
X51683333Y53195239D01*
X51683333Y53004762D01*
X51730952Y52909524D01*
X51778571Y52861905D01*
X51873809Y52814286D01*
%TO.C,SW1*%
X78554761Y59186667D02*
X78602380Y59329524D01*
X78602380Y59567620D01*
X78554761Y59662858D01*
X78507142Y59710477D01*
X78411904Y59758096D01*
X78316666Y59758096D01*
X78221428Y59710477D01*
X78173809Y59662858D01*
X78126190Y59567620D01*
X78078571Y59377143D01*
X78030952Y59281905D01*
X77983333Y59234286D01*
X77888095Y59186667D01*
X77792857Y59186667D01*
X77697619Y59234286D01*
X77650000Y59281905D01*
X77602380Y59377143D01*
X77602380Y59615239D01*
X77650000Y59758096D01*
X77602380Y60091429D02*
X78602380Y60329524D01*
X77888095Y60520000D01*
X78602380Y60710477D01*
X77602380Y60948572D01*
X78602380Y61853334D02*
X78602380Y61281905D01*
X78602380Y61567620D02*
X77602380Y61567620D01*
X77745238Y61472381D01*
X77840476Y61377143D01*
X77888095Y61281905D01*
%TO.C,J2*%
X81302380Y51116667D02*
X82016666Y51116667D01*
X82159523Y51069048D01*
X82254761Y50973810D01*
X82302380Y50830953D01*
X82302380Y50735715D01*
X81397619Y51545239D02*
X81350000Y51592858D01*
X81302380Y51688096D01*
X81302380Y51926191D01*
X81350000Y52021429D01*
X81397619Y52069048D01*
X81492857Y52116667D01*
X81588095Y52116667D01*
X81730952Y52069048D01*
X82302380Y51497620D01*
X82302380Y52116667D01*
%TO.C,D5*%
X67602380Y51511905D02*
X66602380Y51511905D01*
X66602380Y51750000D01*
X66650000Y51892858D01*
X66745238Y51988096D01*
X66840476Y52035715D01*
X67030952Y52083334D01*
X67173809Y52083334D01*
X67364285Y52035715D01*
X67459523Y51988096D01*
X67554761Y51892858D01*
X67602380Y51750000D01*
X67602380Y51511905D01*
X66602380Y52988096D02*
X66602380Y52511905D01*
X67078571Y52464286D01*
X67030952Y52511905D01*
X66983333Y52607143D01*
X66983333Y52845239D01*
X67030952Y52940477D01*
X67078571Y52988096D01*
X67173809Y53035715D01*
X67411904Y53035715D01*
X67507142Y52988096D01*
X67554761Y52940477D01*
X67602380Y52845239D01*
X67602380Y52607143D01*
X67554761Y52511905D01*
X67507142Y52464286D01*
%TO.C,D4*%
X63902380Y51561905D02*
X62902380Y51561905D01*
X62902380Y51800000D01*
X62950000Y51942858D01*
X63045238Y52038096D01*
X63140476Y52085715D01*
X63330952Y52133334D01*
X63473809Y52133334D01*
X63664285Y52085715D01*
X63759523Y52038096D01*
X63854761Y51942858D01*
X63902380Y51800000D01*
X63902380Y51561905D01*
X63235714Y52990477D02*
X63902380Y52990477D01*
X62854761Y52752381D02*
X63569047Y52514286D01*
X63569047Y53133334D01*
%TO.C,D3*%
X57352380Y51961905D02*
X56352380Y51961905D01*
X56352380Y52200000D01*
X56400000Y52342858D01*
X56495238Y52438096D01*
X56590476Y52485715D01*
X56780952Y52533334D01*
X56923809Y52533334D01*
X57114285Y52485715D01*
X57209523Y52438096D01*
X57304761Y52342858D01*
X57352380Y52200000D01*
X57352380Y51961905D01*
X56352380Y52866667D02*
X56352380Y53485715D01*
X56733333Y53152381D01*
X56733333Y53295239D01*
X56780952Y53390477D01*
X56828571Y53438096D01*
X56923809Y53485715D01*
X57161904Y53485715D01*
X57257142Y53438096D01*
X57304761Y53390477D01*
X57352380Y53295239D01*
X57352380Y53009524D01*
X57304761Y52914286D01*
X57257142Y52866667D01*
%TD*%
M02*
